<svg xmlns="http://www.w3.org/2000/svg" width="295" height="200" viewBox="0 0 295 200">
  <g id="Group_117691" data-name="Group 117691" transform="translate(-180 -1061)">
    <g id="Rectangle_5220" data-name="Rectangle 5220" transform="translate(180 1061)" fill="none" stroke="#fe502d" stroke-width="3">
      <rect width="295" height="200" rx="12" stroke="none"/>
      <rect x="1.5" y="1.5" width="292" height="197" rx="10.5" fill="none"/>
    </g>
    <text id="Concepto_de_actividad_física" data-name="Concepto de actividad física" transform="translate(328 1246)" fill="#12263f" font-size="18" font-family="Roboto-Black, Roboto" font-weight="800"><tspan x="-114.781" y="0">Concepto de actividad física</tspan></text>
    <g id="Group_117323" data-name="Group 117323" transform="translate(-12.88 1323.275)">
      <g id="Group_117302" data-name="Group 117302" transform="translate(265.88 -253.673)">
        <path id="Path_179585" data-name="Path 179585" d="M269.921-167.194c-4.453-6.283-5.811-15.454-1.066-21.519,3.466-4.432,9.274-6.274,13.546-9.935,6.243-5.35,8.537-13.906,10.047-21.987s2.712-16.612,7.6-23.22a24.584,24.584,0,0,1,17.475-9.738,24.583,24.583,0,0,1,18.845,6.714c3.756,3.624,6.234,8.342,9.442,12.459s7.627,7.839,12.841,8.056c5.582.231,10.457-3.542,15.814-5.129a21.1,21.1,0,0,1,19.6,4.343,21.1,21.1,0,0,1,6.7,18.925c-.8,4.78-3.276,9.285-3.2,14.132.058,3.95,1.808,7.667,2.493,11.557,1.874,10.647-4.694,21.443-13.739,27.365s-20.112,7.822-30.888,8.694a196.107,196.107,0,0,1-39.193-.774c-10.219-1.229-22.39-2.184-31.421-7.521C279.259-158.056,273.7-161.86,269.921-167.194Z" transform="translate(-265.88 253.673)" fill="#fff"/>
        <path id="Path_179586" data-name="Path 179586" d="M381.189-251.944a8.729,8.729,0,0,0-5.178,8.831,9.608,9.608,0,0,0,6.71,7.908,10.7,10.7,0,0,0,10.185-2.527,9.366,9.366,0,0,0,3.057-6.862C395.8-251.393,386.6-254.12,381.189-251.944Z" transform="translate(-291.398 253.442)" fill="#fff"/>
        <path id="Path_179587" data-name="Path 179587" d="M411.143-242.333a5.423,5.423,0,0,0,5.122,3.949,5.6,5.6,0,0,0,4.989-2.97,5.19,5.19,0,0,0-.74-5.705C417.087-250.8,409.918-247.464,411.143-242.333Z" transform="translate(-299.52 252.51)" fill="#fff"/>
      </g>
      <g id="Group_117305" data-name="Group 117305" transform="translate(268.169 -192.796)">
        <g id="Group_117303" data-name="Group 117303" transform="translate(9.526 8.468)">
          <path id="Path_179588" data-name="Path 179588" d="M310.306-112.18c6.07-2.69,13.588.578,19.6-2.249,2.582-1.215,4.542-3.416,6.411-5.572s3.793-4.379,6.34-5.665,5.908-1.407,8.041.488c1.753,1.558,2.984,4.46,5.307,4.139,1.49-.206,2.46-1.771,3.913-2.16,1.9-.509,3.633,1.108,5.471,1.805,2.819,1.069,6.05-.118,8.41-1.995s4.128-4.385,6.258-6.519,4.868-3.97,7.883-3.908c3.442.071,6.288,2.532,9.333,4.141s7.5,2.054,9.33-.863c.914-1.458.842-3.3,1.024-5.007.021-.191.049-.384.082-.578a4.807,4.807,0,0,1-1.248-3.813,12.853,12.853,0,0,1,3.11-6.919c3.322-4.709,2.113-7.5,2.113-7.5-1-4.23-5.188-7.525-9.418-8.525s-8.657-.38-12.943.337a299.93,299.93,0,0,0-51.1,13.264c-8.558,3.047-17.186,6.027-25.444,9.813-5.273,2.417-10.5,5.085-14.909,8.859s-7.962,8.779-9.047,14.477a11.106,11.106,0,0,1,7.253,8.345,11.056,11.056,0,0,1-1.194,7.079,13.882,13.882,0,0,0,6.463-3.638C304.237-107.1,306.654-110.562,310.306-112.18Z" transform="translate(-283.012 163.403)" fill="#3e55f9"/>
          <path id="Path_179589" data-name="Path 179589" d="M410.768-123.99c-1.087-.988-2.445-1.639-3.537-2.62a13.959,13.959,0,0,1-1.275-1.281c-.033.194-.061.387-.082.578-.182,1.712-.11,3.549-1.024,5.007-1.829,2.918-6.285,2.472-9.33.863s-5.891-4.07-9.333-4.141c-3.015-.062-5.752,1.775-7.883,3.908s-3.9,4.641-6.258,6.519-5.591,3.064-8.41,2c-1.838-.7-3.572-2.314-5.471-1.805-1.453.389-2.423,1.954-3.913,2.16-2.323.321-3.554-2.581-5.307-4.139-2.133-1.9-5.495-1.775-8.041-.488s-4.47,3.509-6.34,5.665-3.829,4.356-6.411,5.572c-6.007,2.828-13.525-.441-19.6,2.249-3.653,1.618-6.069,5.083-8.967,7.833a13.882,13.882,0,0,1-6.463,3.638,10.716,10.716,0,0,1-2.693,3.275c-1.913,1.542-4.3,2.4-6.255,3.882s-3.513,4.018-2.691,6.335c.813,2.292,3.484,3.266,5.865,3.76,23.315,4.836,47.471-4.28,70.408-10.673,8.827-2.46,17.281-6.073,25.707-9.676,8.558-3.659,18.243-7.006,26.8-10.666a29.883,29.883,0,0,0,3.2-8.963C413.873-118.361,413.124-121.846,410.768-123.99Z" transform="translate(-281.26 155.171)" fill="#808fff"/>
        </g>
        <g id="Group_117304" data-name="Group 117304">
          <path id="Path_179590" data-name="Path 179590" d="M330.145-136.226a5.939,5.939,0,0,0-6.855,2.679,17.262,17.262,0,0,1-2.912,3.792c-1.941,1.834-4.706,3.016-7.3,2.391-2.415-.581-4.793-2.631-7.064-1.626-1.449.641-2.133,2.308-2.433,3.864-.364,1.881-.4,3.907-1.8,5.385a2.812,2.812,0,0,1-2.507.888c-1.477-.267-1.768-1.63-2.492-2.618-1.6-2.186-5.175-2.03-7.239-.274s-2.9,4.564-3.234,7.254c-.287,2.292-.352,4.787-1.79,6.59a3.728,3.728,0,0,1-4.067,1.275c-3.579-1.138-.184-5.617-2.478-6.753-1.541-.762-2.822,1.449-4.4,2.132-1.808.783-3.948-.767-4.494-2.661s.043-3.913.712-5.767c7.521-20.829,25.625-36.692,46.079-45.181s43.112-10.291,65.237-9.343c4.881.21,9.828.562,14.441,2.171s8.919,4.635,11.1,9.009,1.781,10.177-1.7,13.609c2.185-2.911,1.413-7.739-1.1-10.368s-7.339-2.7-9.68.084c-1.8,2.139-1.888,5.17-2.381,7.919s-1.937,5.826-4.691,6.3c-2.113.363-4.105-.975-6.192-1.47a8.286,8.286,0,0,0-9.3,4.85c-.754,1.907-.777,4.1-2.427,5.616a2.5,2.5,0,0,1-3.124.3c-2.155-1.55.033-5.9-2.64-7.254a2.707,2.707,0,0,0-2.643.216c-2.439,1.534-2.573,4.647-4.774,6.379a3.044,3.044,0,0,1-2.48.669c-2.252-.474-2.394-3.4-4.044-4.756a4.233,4.233,0,0,0-4.32-.327,12.443,12.443,0,0,0-3.587,2.773l-4.282,4.24a3.513,3.513,0,0,1-5.564-.9l-.027-.048A2.605,2.605,0,0,0,330.145-136.226Z" transform="translate(-268.86 174.426)" fill="#808fff"/>
          <path id="Path_179591" data-name="Path 179591" d="M283.531-124.917c3.984-1.418,7.14-4.441,10.408-7.125s7.049-5.2,11.277-5.239c3.289-.034,6.529,1.448,9.781.961,3.912-.585,6.8-3.8,9.607-6.585s6.51-5.479,10.373-4.629a39.449,39.449,0,0,1,4.467,1.785c4.943,1.746,10.38-.662,14.665-3.68,6.63-4.669,13.109-10.5,21.882-8.522,1.9.428,3.786,1.186,5.733,1.056a10.224,10.224,0,0,0,5.725-2.752,59.806,59.806,0,0,1,4.888-4.221,13.917,13.917,0,0,1,13.822-.7,19.364,19.364,0,0,0-6.461-5.11,22.369,22.369,0,0,0-12.233,5.716c-2.124,1.989-4.13,4.545-7.018,4.9-3.049.377-5.728-1.867-8.635-2.864-3.756-1.288-7.983-.432-11.5,1.417-7.086,3.725-13.45,13.808-22.54,12.144-2.875-.526-5.473-2.388-8.4-2.367-3.789.026-6.752,3.132-9.208,6.016s-5.361,6.02-9.148,6.145c-3.7.122-7.11-2.763-10.785-2.278-3.518.464-5.915,3.807-9.185,5.182a9.063,9.063,0,0,1-9.4-1.848,70.085,70.085,0,0,0-7.5,11.7A10.705,10.705,0,0,0,283.531-124.917Z" transform="translate(-270.085 173.326)" fill="#adb6ff"/>
        </g>
      </g>
      <g id="Group_117321" data-name="Group 117321" transform="translate(279.58 -241.061)">
        <g id="Group_117306" data-name="Group 117306" transform="translate(0 101.361)">
          <path id="Path_179592" data-name="Path 179592" d="M393.368-98.708c-.015.015-.025.032-.04.046C363.1-72.285,316.193-64.145,285.025-68.7a1.778,1.778,0,0,1-.748-.288l-.015.015a1.814,1.814,0,0,0,.987,3.093c31.167,4.555,78.072-3.584,108.3-29.961A1.812,1.812,0,0,0,393.368-98.708Z" transform="translate(-283.714 103.778)" fill="#dc5133"/>
          <path id="Path_179593" data-name="Path 179593" d="M393.5-100.192c.015-.014.025-.031.04-.046a1.837,1.837,0,0,0-.373-.2l-9.114-3.432a22.181,22.181,0,0,0-8.395-1.43c-20.364.532-66.4,10.325-91.21,34.781a1.778,1.778,0,0,0,.748.288C316.362-65.675,363.267-73.815,393.5-100.192Z" transform="translate(-283.884 105.308)" fill="#ff7f63"/>
        </g>
        <g id="Group_117320" data-name="Group 117320" transform="translate(4.503)">
          <g id="Group_117310" data-name="Group 117310" transform="translate(22.835 50.904)">
            <path id="Path_179594" data-name="Path 179594" d="M372.743-152.824c1.963,9.287-6.645,14.573-6.645,14.573C358.849-148.066,367.608-154.938,372.743-152.824Z" transform="translate(-329.51 166.868)" fill="#a34262"/>
            <g id="Group_117307" data-name="Group 117307" transform="translate(32.435 14.195)">
              <path id="Path_179595" data-name="Path 179595" d="M369.554-152.511l5.549,2.085a9.061,9.061,0,0,1,5.618,10.623l-6.2,25.479a6.5,6.5,0,0,0,.878,5.1h0a6.5,6.5,0,0,0,3.65,2.686l2.432.7,2.643-.68a2.208,2.208,0,0,1-.254,2.383,2.174,2.174,0,0,1-2.311.556h0a4.691,4.691,0,0,1-4.269,1.2l-8.717-1.942a2.548,2.548,0,0,1-1.648-3.769l2.248-3.86c.68-12.383-3.473-19.481-.3-27.56l-4.3-1.208C365.1-146.848,369.554-152.511,369.554-152.511Z" transform="translate(-362.23 152.511)" fill="#f2c9ad"/>
              <path id="Path_179596" data-name="Path 179596" d="M361.524-147.578l7.324-4.933,5.549,2.085c-2.832.171-6.178,4.61-7.379,10.579l-3.153-.885Z" transform="translate(-361.524 152.511)" fill="#17205e"/>
            </g>
            <path id="Path_179597" data-name="Path 179597" d="M342.274-165.082l7.405-.6.83.6v3.251a107.08,107.08,0,0,1,16.913,6.116c-6.267,4.153-6.645,14.573-6.645,14.573L345.6-147.334l-5.211-9.741Z" transform="translate(-324.19 169.76)" fill="#dc5133"/>
            <path id="Path_179598" data-name="Path 179598" d="M347.391-143.672c2.492,7.475-3.775,12.76-11.25,11.4C332.894-142.615,341.124-146.768,347.391-143.672Z" transform="translate(-323.035 164.89)" fill="#a34262"/>
            <g id="Group_117308" data-name="Group 117308" transform="translate(11.283 18.524)">
              <path id="Path_179599" data-name="Path 179599" d="M345.25-144.733l2.822,3.163a9.058,9.058,0,0,1,1.871,8.788l-8.446,26.46a8.946,8.946,0,0,0-.149,4.92h0a8.95,8.95,0,0,0,3.037,4.751l3.155,2.558A1.852,1.852,0,0,1,346.3-92.76a1.7,1.7,0,0,1-1.672-.48h0a1.24,1.24,0,0,1-.883,1.357L340.72-91a2.294,2.294,0,0,1-2.693-1.178h0l-3.536-5.344a3.02,3.02,0,0,1-.145-3.09l1.869-3.5c1.258-8.406-1.057-21.8,1.158-28.24l-2.488-4.228C336.491-144.733,341.777-145.639,345.25-144.733Z" transform="translate(-333.989 146.445)" fill="#f2c9ad"/>
              <path id="Path_179600" data-name="Path 179600" d="M337.466-132.781c.29-6.079,4.448-10.815,9.5-10.561l-1.626-1.822-3.9-1.712-7.047,5.638.582,4.229Z" transform="translate(-334.083 146.876)" fill="#17205e"/>
            </g>
            <path id="Path_179601" data-name="Path 179601" d="M322.743-170.99l-1.133.453-1.676,5.555a14.823,14.823,0,0,0,2.361,13.213l10.113,13.4c.151-13.44,11.25-11.4,11.25-11.4L335.5-158.3l1.882-8.008Z" transform="translate(-319.301 170.99)" fill="#dc5133"/>
            <g id="Group_117309" data-name="Group 117309" transform="translate(12.863 10.621)">
              <path id="Path_179602" data-name="Path 179602" d="M343.2-152.962a36,36,0,0,1,5.405-1.638.151.151,0,0,0,.117-.178.151.151,0,0,0-.179-.117,36.9,36.9,0,0,0-5.166,1.534,33.018,33.018,0,0,1,4.029-3.531.152.152,0,0,0,.03-.212.151.151,0,0,0-.211-.03c-.149.111-3.657,2.751-4.417,4.039,0,0,0,.008,0,.012a.236.236,0,0,0-.007.034.138.138,0,0,0,0,.071c0,.006,0,.012,0,.019s.014.015.02.023,0,.015.01.022l6.165,6.451a.152.152,0,0,0,.109.047.152.152,0,0,0,.1-.042.151.151,0,0,0,0-.214Z" transform="translate(-337.61 157.163)" fill="#17205e"/>
              <path id="Path_179603" data-name="Path 179603" d="M337.75-93.338a.148.148,0,0,0-.182.113,4.044,4.044,0,0,1-.713,1.347,4.144,4.144,0,0,0-.771,1.513,1.787,1.787,0,0,0,.286,1.411.148.148,0,0,0,.121.061.154.154,0,0,0,.091-.031.15.15,0,0,0,.029-.211,1.484,1.484,0,0,1-.23-1.171,3.853,3.853,0,0,1,.722-1.4,4.341,4.341,0,0,0,.76-1.451A.151.151,0,0,0,337.75-93.338Z" transform="translate(-336.046 142.37)" fill="#17205e"/>
              <path id="Path_179604" data-name="Path 179604" d="M371.581-101.5a.152.152,0,0,0-.124.174,3.06,3.06,0,0,1-.193,1.452q-.059.175-.121.35a6.452,6.452,0,0,0-.327,1.161,2.076,2.076,0,0,0,.346,1.594.153.153,0,0,0,.118.055.151.151,0,0,0,.094-.033.151.151,0,0,0,.023-.213,1.778,1.778,0,0,1-.282-1.358,6.167,6.167,0,0,1,.313-1.106c.041-.118.084-.237.123-.356a3.379,3.379,0,0,0,.2-1.6A.147.147,0,0,0,371.581-101.5Z" transform="translate(-344.098 144.261)" fill="#17205e"/>
              <path id="Path_179605" data-name="Path 179605" d="M373.383-142.325a.151.151,0,0,0-.211-.034c-.062.046-1.563,1.165-3.184,5.124a.152.152,0,0,0,.082.2.153.153,0,0,0,.058.011.151.151,0,0,0,.14-.094c1.582-3.863,3.067-4.982,3.083-4.994A.15.15,0,0,0,373.383-142.325Z" transform="translate(-343.911 153.738)" fill="#17205e"/>
            </g>
          </g>
          <g id="Group_117317" data-name="Group 117317" transform="translate(0 17.519)">
            <path id="Path_179606" data-name="Path 179606" d="M403.986-195.478a11.882,11.882,0,0,1,7.249-4.933h0a1.877,1.877,0,0,1-.866,2.293,11.661,11.661,0,0,0-2.457,1.784l1.057,5.487c-1.359,1.611-4.908,2.391-4.908,2.391Z" transform="translate(-316.097 211.196)" fill="#eba58e"/>
            <path id="Path_179607" data-name="Path 179607" d="M291.148-155.55v3.228a1.317,1.317,0,0,0,.45.991h0a2.561,2.561,0,0,0,3.226.121h0a2.562,2.562,0,0,0,.849-2.984l-.2-.5.1-2.02-2.618-.22Z" transform="translate(-289.94 201.117)" fill="#eba58e"/>
            <path id="Path_179608" data-name="Path 179608" d="M377.54-191.711l-10.46,12.8a8.154,8.154,0,0,1-7.8,2.856h0a8.154,8.154,0,0,1-5.647-4.074L347.9-190.5l-.116.233a7.882,7.882,0,0,1-4.45,3.92h0l-5.436,9.363s-12.987,2.944-22.048-4.078l2.114-9.891-8.155,4.455-6.8,13.592.3,1.582a12.6,12.6,0,0,1-.456,6.381l-.142.418h0a2.169,2.169,0,0,1-1.617-2.244l.031-.475-1.359-2.416-7.173-.6-.241.878a2.45,2.45,0,0,1-2.779,1.765h0l.45-3.033a3,3,0,0,1,2.963-2.554h2.929l5.608-15.063a12.077,12.077,0,0,1,4.293-5.611L321.771-205.3a15.3,15.3,0,0,1,10.346-2.788l5.632.533v-5.8l8.194-1.095v6.959l4.435,1.59a10.875,10.875,0,0,1,6.476,6.328l5.46,14.179,12.585-8.658c-.7-4.581,3.021-8,3.021-8l.042.034a2.033,2.033,0,0,1,.551,2.4,6.89,6.89,0,0,0-.543,1.94C380.133-195.058,378.82-193.276,377.54-191.711Z" transform="translate(-289.576 214.45)" fill="#f2c9ad"/>
            <path id="Path_179609" data-name="Path 179609" d="M408.771-195.19l-.461.48a2.224,2.224,0,0,0-.582,1.959l.7,3.677a1.393,1.393,0,0,0,2.28.8,4.386,4.386,0,0,0,1.1-1.551,2.417,2.417,0,0,0,.106-1.586l-.873-3.2a1.168,1.168,0,0,0-1.45-.814Z" transform="translate(-316.955 210.051)" fill="#f2c9ad"/>
            <path id="Path_179610" data-name="Path 179610" d="M337.112-191.668l-10.971,5.993-1.3,6.079C331.426-183.938,337.112-191.668,337.112-191.668Z" transform="translate(-297.751 209.169)" fill="#eba58e"/>
            <path id="Path_179611" data-name="Path 179611" d="M365.351-185.871a51.942,51.942,0,0,0,2.8-9.6,73.369,73.369,0,0,1,1.9,17.677Z" transform="translate(-307.141 210.051)" fill="#eba58e"/>
            <path id="Path_179612" data-name="Path 179612" d="M352.285-207.551c1.309,3.684,7.831,2.677,8.194-6.9l-8.194,1.095Z" transform="translate(-304.112 214.45)" fill="#17205e"/>
            <g id="Group_117316" data-name="Group 117316" transform="translate(28.239 15.818)">
              <g id="Group_117311" data-name="Group 117311" transform="translate(7.228 7.739)">
                <path id="Path_179613" data-name="Path 179613" d="M343.8-181.463a16.54,16.54,0,0,1-7.972-2.039.151.151,0,0,1-.059-.205.153.153,0,0,1,.205-.059,16.231,16.231,0,0,0,10.976,1.685.153.153,0,0,1,.179.118.152.152,0,0,1-.118.178A15.989,15.989,0,0,1,343.8-181.463Z" transform="translate(-335.746 183.785)" fill="#17205e"/>
              </g>
              <g id="Group_117312" data-name="Group 117312" transform="translate(21.343 9.761)">
                <path id="Path_179614" data-name="Path 179614" d="M358.3-178.479a.2.2,0,0,1-.03,0,10.019,10.019,0,0,1-4.1-2.41.151.151,0,0,1,0-.214.152.152,0,0,1,.214,0,9.827,9.827,0,0,0,3.952,2.331.15.15,0,0,1,.118.177A.151.151,0,0,1,358.3-178.479Z" transform="translate(-354.12 181.152)" fill="#17205e"/>
              </g>
              <g id="Group_117313" data-name="Group 117313" transform="translate(20.115)">
                <path id="Path_179615" data-name="Path 179615" d="M352.672-185.366a.149.149,0,0,1-.089-.029.152.152,0,0,1-.034-.21,17.053,17.053,0,0,0,3.118-8.118.15.15,0,0,1,.167-.134.151.151,0,0,1,.134.167,17.356,17.356,0,0,1-3.173,8.262A.152.152,0,0,1,352.672-185.366Z" transform="translate(-352.521 193.859)" fill="#17205e"/>
              </g>
              <g id="Group_117314" data-name="Group 117314" transform="translate(0 1.532)">
                <path id="Path_179616" data-name="Path 179616" d="M326.487-185.569a.151.151,0,0,1-.133-.079.15.15,0,0,1,.061-.2l10.971-5.993a.149.149,0,0,1,.2.06.149.149,0,0,1-.06.2l-10.971,5.994A.153.153,0,0,1,326.487-185.569Z" transform="translate(-326.336 191.865)" fill="#17205e"/>
              </g>
              <g id="Group_117315" data-name="Group 117315" transform="translate(44.348 13.088)">
                <path id="Path_179617" data-name="Path 179617" d="M385.051-174.354a.152.152,0,0,1-.141-.1l-.833-2.166a.151.151,0,0,1,.086-.2.151.151,0,0,1,.2.086l.833,2.166a.15.15,0,0,1-.087.2A.147.147,0,0,1,385.051-174.354Z" transform="translate(-384.066 176.822)" fill="#17205e"/>
              </g>
            </g>
          </g>
          <g id="Group_117319" data-name="Group 117319" transform="translate(39.361)">
            <path id="Path_179618" data-name="Path 179618" d="M344.916-221.312a11,11,0,0,1-2.1-2.152,4.7,4.7,0,0,1-.914-2.824,3.02,3.02,0,0,1,1.437-2.509A5.919,5.919,0,0,1,341-231.879a4.519,4.519,0,0,1,.547-3.766,3.674,3.674,0,0,1,3.387-1.584c2.217.284,3.677,2.7,5.883,3.057,1.91.308,3.8-1.03,5.712-.724a3.443,3.443,0,0,1,2.342,1.556,3.44,3.44,0,0,1,.364,2.789,3.218,3.218,0,0,1,2.94,2.208,5.671,5.671,0,0,1-.07,3.774,8.318,8.318,0,0,1-1.9,3.262,9.341,9.341,0,0,1-7.369,2.444C350.175-219.05,346.977-219.611,344.916-221.312Z" transform="translate(-340.815 237.255)" fill="#12263f"/>
            <path id="Path_179619" data-name="Path 179619" d="M357.339-220.224a5.214,5.214,0,0,1-2.08-2.59,5.536,5.536,0,0,1-.187-3.418,2.249,2.249,0,0,0-2.123-.364,8.928,8.928,0,0,0-2.005,1.01,4.388,4.388,0,0,1-2.1.734,5.123,5.123,0,0,1-1.771-.409,4.726,4.726,0,0,0-1.776-.383c-.061,0-.122.01-.184.018l-.366,1.377a10.7,10.7,0,0,0,.678,7.347l1.69,3.554a5.7,5.7,0,0,0,5.819,3.214h0a5.7,5.7,0,0,0,4.361-2.98,12.606,12.606,0,0,0,1.356-4.178l0,0A4.19,4.19,0,0,1,357.339-220.224Z" transform="translate(-341.642 234.81)" fill="#f2c9ad"/>
            <g id="Group_117318" data-name="Group 117318" transform="translate(16.642 13.369)">
              <path id="Path_179620" data-name="Path 179620" d="M362.666-217.838a3.178,3.178,0,0,1,1.609-1.771,2.15,2.15,0,0,1,1.336-.209,1.867,1.867,0,0,1,1.22.932,2.557,2.557,0,0,1,.272,1.534,3.207,3.207,0,0,1-2.318,2.662,2.032,2.032,0,0,1-1.076.018C362.421-215.05,362.283-216.778,362.666-217.838Z" transform="translate(-362.479 219.852)" fill="#f2c9ad"/>
              <path id="Path_179621" data-name="Path 179621" d="M364.547-215.451a.5.5,0,0,1-.132-.015.35.35,0,0,1-.23-.213,1.987,1.987,0,0,1-.018-1.383,1.976,1.976,0,0,1,.991-1.091,1.169,1.169,0,0,1,.477-.126.5.5,0,0,1,.1.009.675.675,0,0,1,.406.336,1.358,1.358,0,0,1,.128.806,2.011,2.011,0,0,1-1.423,1.633A1.211,1.211,0,0,1,364.547-215.451Z" transform="translate(-362.844 219.487)" fill="#eba58e"/>
            </g>
          </g>
        </g>
      </g>
      <g id="Group_117322" data-name="Group 117322" transform="translate(336.635 -141.585)">
        <path id="Path_179622" data-name="Path 179622" d="M413.017-92.048c-1.789,1.311-3.016,3.519-5.16,4.088-1.493.4-3.067-.121-4.612-.084-3.273.08-5.934,2.581-8.072,5.061s-4.309,5.241-7.443,6.189c-2.161.653-4.516.342-6.694.936-2.832.772-5.016,2.955-7.218,4.9a24.947,24.947,0,0,1-2.063,1.654,63.545,63.545,0,0,0,15.714-5.443c7.9-3.951,15.239-8.931,22.986-13.177a88.47,88.47,0,0,1,11.67-5.443C418.934-93.8,415.561-93.912,413.017-92.048Z" transform="translate(-361.177 104.486)" fill="#808fff"/>
        <path id="Path_179623" data-name="Path 179623" d="M435.971-102.573c-.439-1.436-2.458-1.308-3.63-1.174-4.113.47-7.721,2.035-11.529,3.534a3.476,3.476,0,0,1-1.314.326,1.182,1.182,0,0,1-1.1-.664,1.21,1.21,0,0,1,.419-1.28,4.355,4.355,0,0,1,1.264-.663c1.36-.562,5.069-2.257,4.32-4.206a1.876,1.876,0,0,0-1.75-1.061,5.1,5.1,0,0,0-2.082.558,44.686,44.686,0,0,0-13.5,9.169,5.739,5.739,0,0,1-2.822,1.9c-1.135.2-2.509-.75-2.236-1.87.215-.882,1.3-1.39,1.4-2.293.107-.986-1.134-1.672-2.1-1.425a4.862,4.862,0,0,0-2.295,1.817,103.709,103.709,0,0,1-12.06,12.2,8.9,8.9,0,0,1-3.229,1.988c-.457.128-1.042.138-1.3-.258a.9.9,0,0,1,.065-.956,3.631,3.631,0,0,1,.711-.717,3.452,3.452,0,0,0,1.059-1.464,1.588,1.588,0,0,0-2.253-1.959,5.4,5.4,0,0,0-2.115,2.3,43.268,43.268,0,0,1-21.906,17.158,47.116,47.116,0,0,0,10.577-.968,24.955,24.955,0,0,0,2.063-1.654c2.2-1.941,4.386-4.124,7.218-4.9,2.178-.594,4.533-.283,6.694-.936,3.134-.947,5.3-3.709,7.443-6.189s4.8-4.981,8.072-5.061c1.545-.038,3.119.48,4.612.084,2.144-.568,3.371-2.776,5.16-4.088,2.544-1.864,5.917-1.748,9.107-1.324a49.947,49.947,0,0,1,13.21-3.094,6.718,6.718,0,0,0,2.674-.569A2.073,2.073,0,0,0,435.971-102.573Z" transform="translate(-357.986 107.761)" fill="#adb6ff"/>
      </g>
    </g>
  </g>
</svg>
