<svg xmlns="http://www.w3.org/2000/svg" width="295" height="200" viewBox="0 0 295 200">
  <g id="Group_117717" data-name="Group 117717" transform="translate(8600 10896)">
    <g id="b1" transform="translate(-9075 -12031)">
      <path id="Rectangle_36706" data-name="Rectangle 36706" d="M12,1A11,11,0,0,0,1,12V188a11,11,0,0,0,11,11H283a11,11,0,0,0,11-11V12A11,11,0,0,0,283,1H12m0-1H283a12,12,0,0,1,12,12V188a12,12,0,0,1-12,12H12A12,12,0,0,1,0,188V12A12,12,0,0,1,12,0Z" transform="translate(475 1135)" fill="#ffe891"/>
      <g id="Group_117592" data-name="Group 117592" transform="translate(2433.691 845.854)">
        <g id="Group_117592-2" data-name="Group 117592" transform="translate(-1885.691 297.748)">
          <path id="Path_179888" data-name="Path 179888" d="M-1881.65,384.227c-4.452-6.283-5.811-15.454-1.066-21.519,3.466-4.431,9.274-6.274,13.546-9.935,6.243-5.35,8.537-13.906,10.047-21.987s2.712-16.611,7.6-23.22a24.582,24.582,0,0,1,17.476-9.737,24.58,24.58,0,0,1,18.845,6.713c3.756,3.624,6.234,8.342,9.441,12.459s7.627,7.84,12.841,8.056c5.582.231,10.457-3.541,15.814-5.129a21.1,21.1,0,0,1,19.6,4.344,21.1,21.1,0,0,1,6.7,18.925c-.8,4.78-3.275,9.284-3.2,14.131.058,3.95,1.808,7.667,2.493,11.557,1.875,10.647-4.693,21.443-13.738,27.365s-20.113,7.823-30.889,8.694a196.1,196.1,0,0,1-39.192-.774c-10.219-1.229-22.391-2.184-31.421-7.52C-1872.31,393.365-1877.87,389.56-1881.65,384.227Z" transform="translate(1885.691 -297.748)" fill="#fff"/>
          <path id="Path_179889" data-name="Path 179889" d="M-1770.38,299.476a8.73,8.73,0,0,0-5.178,8.831,9.608,9.608,0,0,0,6.711,7.908,10.7,10.7,0,0,0,10.185-2.527,9.365,9.365,0,0,0,3.058-6.862C-1755.77,300.027-1764.97,297.3-1770.38,299.476Z" transform="translate(1860.173 -297.978)" fill="#fff"/>
          <path id="Path_179890" data-name="Path 179890" d="M-1740.43,309.088a5.424,5.424,0,0,0,5.121,3.948,5.6,5.6,0,0,0,4.99-2.97,5.194,5.194,0,0,0-.74-5.706C-1734.48,300.619-1741.65,303.956-1740.43,309.088Z" transform="translate(1852.051 -298.91)" fill="#fff"/>
        </g>
        <g id="Group_117595" data-name="Group 117595" transform="translate(-1883.403 358.624)">
          <g id="Group_117593" data-name="Group 117593" transform="translate(9.527 8.468)">
            <path id="Path_179891" data-name="Path 179891" d="M-1841.27,439.24c6.071-2.69,13.588.578,19.6-2.249,2.582-1.215,4.542-3.416,6.411-5.572s3.793-4.379,6.339-5.665,5.909-1.407,8.041.489c1.753,1.557,2.985,4.459,5.308,4.138,1.49-.206,2.46-1.77,3.913-2.159,1.9-.509,3.633,1.108,5.47,1.8,2.82,1.069,6.051-.118,8.411-2s4.127-4.386,6.259-6.519,4.867-3.971,7.882-3.909c3.443.071,6.288,2.532,9.333,4.141s7.5,2.054,9.33-.863c.914-1.458.842-3.3,1.024-5.007.02-.191.049-.384.082-.578a4.8,4.8,0,0,1-1.248-3.813,12.843,12.843,0,0,1,3.11-6.918c3.321-4.709,2.113-7.5,2.113-7.5-1-4.23-5.188-7.525-9.418-8.525s-8.658-.38-12.944.337a300.085,300.085,0,0,0-51.1,13.264c-8.558,3.047-17.185,6.027-25.443,9.813-5.273,2.418-10.505,5.085-14.909,8.859s-7.962,8.779-9.048,14.477a11.1,11.1,0,0,1,7.253,8.346,11.051,11.051,0,0,1-1.194,7.078,13.879,13.879,0,0,0,6.463-3.638C-1847.33,444.323-1844.92,440.859-1841.27,439.24Z" transform="translate(1868.559 -388.017)" fill="#737373"/>
            <path id="Path_179892" data-name="Path 179892" d="M-1740.8,427.43c-1.086-.988-2.444-1.638-3.537-2.62a13.76,13.76,0,0,1-1.275-1.281c-.033.194-.062.387-.082.578-.182,1.712-.11,3.549-1.024,5.007-1.83,2.918-6.285,2.473-9.33.863s-5.89-4.07-9.333-4.141c-3.015-.062-5.751,1.775-7.882,3.909s-3.9,4.641-6.259,6.519-5.591,3.064-8.411,2c-1.837-.7-3.571-2.315-5.47-1.8-1.453.389-2.423,1.954-3.913,2.159-2.323.321-3.555-2.581-5.308-4.138-2.133-1.9-5.494-1.775-8.042-.489s-4.47,3.509-6.339,5.665-3.829,4.357-6.411,5.572c-6.008,2.828-13.525-.441-19.6,2.249-3.652,1.619-6.069,5.083-8.967,7.833a13.879,13.879,0,0,1-6.463,3.638,10.709,10.709,0,0,1-2.693,3.275c-1.913,1.543-4.3,2.4-6.255,3.882s-3.513,4.019-2.691,6.335c.813,2.292,3.483,3.267,5.865,3.761,23.315,4.835,47.47-4.281,70.407-10.674,8.826-2.46,17.282-6.073,25.708-9.675,8.559-3.66,18.243-7.007,26.8-10.666a29.934,29.934,0,0,0,3.2-8.963C-1737.7,433.059-1738.45,429.574-1740.8,427.43Z" transform="translate(1870.31 -396.249)" fill="#b0b0b0"/>
          </g>
          <g id="Group_117594" data-name="Group 117594">
            <path id="Path_179893" data-name="Path 179893" d="M-1821.43,415.194a5.94,5.94,0,0,0-6.854,2.68,17.253,17.253,0,0,1-2.913,3.793c-1.941,1.833-4.7,3.015-7.3,2.391-2.414-.581-4.792-2.632-7.064-1.627-1.449.641-2.132,2.308-2.433,3.864-.364,1.881-.4,3.908-1.8,5.386a2.812,2.812,0,0,1-2.506.887c-1.477-.267-1.768-1.63-2.493-2.618-1.6-2.185-5.174-2.03-7.239-.274s-2.9,4.565-3.234,7.254c-.286,2.292-.352,4.788-1.791,6.591a3.728,3.728,0,0,1-4.067,1.274c-3.578-1.138-.184-5.617-2.478-6.752-1.54-.763-2.822,1.448-4.4,2.131-1.808.784-3.948-.767-4.494-2.66s.042-3.914.711-5.768c7.521-20.829,25.626-36.692,46.079-45.18s43.113-10.292,65.237-9.344c4.881.21,9.828.562,14.441,2.172s8.919,4.635,11.1,9.009,1.782,10.177-1.7,13.609c2.184-2.912,1.413-7.74-1.1-10.368s-7.339-2.7-9.681.083c-1.8,2.139-1.887,5.17-2.381,7.92s-1.936,5.826-4.69,6.3c-2.113.363-4.106-.975-6.192-1.47a8.285,8.285,0,0,0-9.3,4.85c-.754,1.907-.778,4.1-2.427,5.616a2.5,2.5,0,0,1-3.124.3c-2.155-1.549.033-5.9-2.641-7.253a2.707,2.707,0,0,0-2.643.215c-2.438,1.535-2.573,4.648-4.773,6.38a3.05,3.05,0,0,1-2.48.669c-2.252-.474-2.394-3.4-4.044-4.757a4.233,4.233,0,0,0-4.32-.327,12.457,12.457,0,0,0-3.587,2.773l-4.281,4.24a3.513,3.513,0,0,1-3.008.947,3.513,3.513,0,0,1-2.556-1.847l-.027-.048a2.606,2.606,0,0,0-1.547-1.041Z" transform="translate(1882.712 -376.994)" fill="#d9d9d9"/>
            <path id="Path_179894" data-name="Path 179894" d="M-1868.04,426.5c3.983-1.417,7.14-4.441,10.407-7.125s7.049-5.2,11.277-5.239c3.289-.034,6.529,1.448,9.781.961,3.911-.585,6.8-3.8,9.606-6.585s6.511-5.479,10.373-4.628a39.187,39.187,0,0,1,4.468,1.785c4.943,1.746,10.379-.662,14.665-3.681,6.63-4.669,13.109-10.5,21.882-8.522,1.9.429,3.785,1.186,5.733,1.056a10.228,10.228,0,0,0,5.725-2.752,59.829,59.829,0,0,1,4.887-4.221,13.92,13.92,0,0,1,13.823-.7,19.382,19.382,0,0,0-6.461-5.11,22.365,22.365,0,0,0-12.233,5.716c-2.124,1.989-4.131,4.546-7.018,4.9-3.05.377-5.729-1.866-8.635-2.863-3.756-1.289-7.983-.432-11.5,1.416-7.087,3.725-13.45,13.808-22.541,12.144-2.874-.526-5.473-2.388-8.4-2.367-3.789.027-6.751,3.132-9.208,6.016s-5.36,6.021-9.147,6.146c-3.7.121-7.11-2.764-10.786-2.279-3.517.464-5.914,3.807-9.184,5.183a9.061,9.061,0,0,1-9.4-1.848,70.052,70.052,0,0,0-7.5,11.7,10.707,10.707,0,0,0,9.386.9Z" transform="translate(1881.486 -378.094)" fill="#fff"/>
          </g>
        </g>
        <g id="Group_117606" data-name="Group 117606" transform="translate(-1871.991 310.359)">
          <g id="Group_117596" data-name="Group 117596" transform="translate(0 101.362)">
            <path id="Path_179895" data-name="Path 179895" d="M-1758.2,452.712c-.015.015-.024.032-.04.046-30.232,26.377-77.136,34.517-108.3,29.961a1.782,1.782,0,0,1-.748-.289l-.015.015a1.814,1.814,0,0,0-.463,1.851,1.814,1.814,0,0,0,1.45,1.241c31.167,4.556,78.072-3.584,108.3-29.96a1.812,1.812,0,0,0,.613-1.478,1.812,1.812,0,0,0-.8-1.387Z" transform="translate(1867.857 -447.643)" fill="#737373"/>
            <path id="Path_179896" data-name="Path 179896" d="M-1758.07,451.228c.016-.014.025-.031.04-.046a1.8,1.8,0,0,0-.373-.2l-9.114-3.433a22.178,22.178,0,0,0-8.394-1.429c-20.365.531-66.405,10.324-91.21,34.78a1.782,1.782,0,0,0,.748.289C-1835.21,485.745-1788.3,477.605-1758.07,451.228Z" transform="translate(1867.687 -446.113)" fill="#ededed"/>
          </g>
          <g id="Group_117605" data-name="Group 117605" transform="translate(4.502)">
            <g id="Group_117598" data-name="Group 117598" transform="translate(22.835 50.905)">
              <path id="Path_179897" data-name="Path 179897" d="M-1778.83,398.6c1.964,9.287-6.644,14.573-6.644,14.573C-1792.72,403.354-1783.96,396.483-1778.83,398.6Z" transform="translate(1822.061 -384.553)" fill="#b0b0b0"/>
              <path id="Path_179898" data-name="Path 179898" d="M-1782.02,398.909l5.549,2.085a9.06,9.06,0,0,1,5.617,10.623l-6.2,25.479a6.493,6.493,0,0,0,.879,5.1h0a6.5,6.5,0,0,0,3.65,2.686l2.432.7,2.643-.68a2.206,2.206,0,0,1-.254,2.383,2.173,2.173,0,0,1-2.311.556h0a4.69,4.69,0,0,1-4.27,1.2L-1783,447.1a2.547,2.547,0,0,1-1.781-1.466,2.547,2.547,0,0,1,.133-2.3l2.249-3.86c.679-12.383-3.474-19.481-.3-27.56l-4.3-1.208C-1786.47,404.572-1782.02,398.909-1782.02,398.909Z" transform="translate(1821.776 -384.714)" fill="#999"/>
              <path id="Path_179899" data-name="Path 179899" d="M-1790.05,403.842l7.324-4.933,5.549,2.085c-2.833.172-6.178,4.61-7.38,10.579l-3.152-.884Z" transform="translate(1822.483 -384.714)" fill="#5b5b5b"/>
              <path id="Path_179900" data-name="Path 179900" d="M-1809.3,386.338l7.4-.6.83.6v3.251a107.021,107.021,0,0,1,16.913,6.116c-6.267,4.153-6.644,14.573-6.644,14.573l-15.175-6.191-5.212-9.741Z" transform="translate(1827.381 -381.661)" fill="#ededed"/>
              <path id="Path_179901" data-name="Path 179901" d="M-1804.18,407.748c2.491,7.475-3.776,12.76-11.251,11.4C-1818.68,408.8-1810.45,404.652-1804.18,407.748Z" transform="translate(1828.536 -386.531)" fill="#b0b0b0"/>
              <path id="Path_179902" data-name="Path 179902" d="M-1806.32,406.687l2.822,3.163a9.06,9.06,0,0,1,1.871,8.788l-8.446,26.46a8.944,8.944,0,0,0-.15,4.92h0a8.946,8.946,0,0,0,3.037,4.75l3.154,2.559a1.851,1.851,0,0,1-1.241,1.333,1.7,1.7,0,0,1-1.671-.479h0a1.24,1.24,0,0,1-.883,1.357l-3.025.88a2.3,2.3,0,0,1-2.693-1.178h0l-3.537-5.344a3.022,3.022,0,0,1-.144-3.091l1.869-3.5c1.258-8.406-1.057-21.8,1.158-28.24l-2.488-4.228C-1815.08,406.687-1809.8,405.781-1806.32,406.687Z" transform="translate(1828.865 -386.452)" fill="#999"/>
              <path id="Path_179903" data-name="Path 179903" d="M-1814.1,418.639c.29-6.078,4.448-10.815,9.5-10.561l-1.626-1.822-3.9-1.711-7.047,5.638.582,4.228Z" transform="translate(1828.771 -386.021)" fill="#5b5b5b"/>
              <path id="Path_179904" data-name="Path 179904" d="M-1828.83,380.431l-1.132.452-1.676,5.555a14.825,14.825,0,0,0,2.36,13.214l10.113,13.4c.151-13.44,11.251-11.4,11.251-11.4l-8.155-8.532,1.883-8.008Z" transform="translate(1832.27 -380.431)" fill="#ededed"/>
              <g id="Group_117597" data-name="Group 117597" transform="translate(12.863 10.621)">
                <path id="Path_179905" data-name="Path 179905" d="M-1808.37,398.458a36.026,36.026,0,0,1,5.405-1.637.152.152,0,0,0,.117-.179.151.151,0,0,0-.065-.1.151.151,0,0,0-.114-.021,37.068,37.068,0,0,0-5.166,1.534,33.017,33.017,0,0,1,4.029-3.531.151.151,0,0,0,.031-.211.15.15,0,0,0-.1-.06.15.15,0,0,0-.112.029c-.149.112-3.657,2.752-4.417,4.039v.013a.117.117,0,0,0-.007.033.136.136,0,0,0,0,.071v.019c0,.006.014.015.019.023s0,.016.011.022l6.165,6.45a.15.15,0,0,0,.109.047.149.149,0,0,0,.1-.042.15.15,0,0,0,.045-.107.151.151,0,0,0-.045-.107Z" transform="translate(1813.961 -394.257)" fill="#5b5b5b"/>
                <path id="Path_179906" data-name="Path 179906" d="M-1813.82,458.082a.148.148,0,0,0-.115.018.148.148,0,0,0-.066.1,4.063,4.063,0,0,1-.713,1.347,4.118,4.118,0,0,0-.771,1.513,1.781,1.781,0,0,0,.286,1.411.149.149,0,0,0,.12.061.151.151,0,0,0,.092-.031.151.151,0,0,0,.029-.211,1.482,1.482,0,0,1-.23-1.171,3.856,3.856,0,0,1,.723-1.4,4.345,4.345,0,0,0,.76-1.451.152.152,0,0,0-.115-.181Z" transform="translate(1815.526 -409.051)" fill="#5b5b5b"/>
                <path id="Path_179907" data-name="Path 179907" d="M-1779.99,449.92a.151.151,0,0,0-.124.174,3.053,3.053,0,0,1-.193,1.453c-.038.117-.08.234-.121.35a6.365,6.365,0,0,0-.327,1.162,2.075,2.075,0,0,0,.346,1.593.151.151,0,0,0,.117.056.152.152,0,0,0,.1-.034.151.151,0,0,0,.055-.1.15.15,0,0,0-.033-.111,1.78,1.78,0,0,1-.281-1.359,6.136,6.136,0,0,1,.313-1.106c.042-.118.083-.237.122-.356a3.376,3.376,0,0,0,.2-1.6.148.148,0,0,0-.063-.1.148.148,0,0,0-.115-.022Z" transform="translate(1807.473 -407.159)" fill="#5b5b5b"/>
                <path id="Path_179908" data-name="Path 179908" d="M-1778.19,409.1a.151.151,0,0,0-.21-.034c-.063.046-1.563,1.166-3.185,5.125a.15.15,0,0,0,0,.118.15.15,0,0,0,.084.082.147.147,0,0,0,.057.012.151.151,0,0,0,.14-.094c1.583-3.864,3.068-4.983,3.083-4.994a.152.152,0,0,0,.062-.1.152.152,0,0,0-.03-.114Z" transform="translate(1807.661 -397.682)" fill="#5b5b5b"/>
              </g>
            </g>
            <path id="Path_179909" data-name="Path 179909" d="M-1747.59,355.942a11.882,11.882,0,0,1,7.249-4.933h0a1.875,1.875,0,0,1-.866,2.293,11.654,11.654,0,0,0-2.456,1.785l1.057,5.486c-1.36,1.611-4.908,2.391-4.908,2.391Z" transform="translate(1835.475 -322.706)" fill="#858585"/>
            <path id="Path_179910" data-name="Path 179910" d="M-1860.42,395.87v3.23a1.318,1.318,0,0,0,.449.992h0a2.564,2.564,0,0,0,3.227.121h0a2.565,2.565,0,0,0,.849-2.985l-.2-.5.1-2.02-2.618-.22Z" transform="translate(1861.631 -332.784)" fill="#858585"/>
            <path id="Path_179911" data-name="Path 179911" d="M-1774.03,359.71l-10.46,12.8a8.153,8.153,0,0,1-7.8,2.856h0a8.152,8.152,0,0,1-5.647-4.074l-5.729-10.372-.117.233a7.885,7.885,0,0,1-4.449,3.92h0l-5.437,9.363s-12.987,2.945-22.048-4.077l2.114-9.891-8.155,4.455-6.8,13.591.3,1.582a12.591,12.591,0,0,1-.456,6.381l-.142.418h0a2.17,2.17,0,0,1-1.618-2.244l.032-.474-1.36-2.417-7.172-.6-.241.878A2.451,2.451,0,0,1-1862,383.8h0l.451-3.033a3,3,0,0,1,2.962-2.554h2.93l5.607-15.063a12.086,12.086,0,0,1,4.293-5.611l15.951-11.412a15.3,15.3,0,0,1,10.346-2.788l5.632.534v-5.8l8.194-1.1v6.959l4.436,1.591a10.872,10.872,0,0,1,6.476,6.328l5.46,14.179,12.584-8.658c-.7-4.581,3.02-8,3.02-8l.042.035a2.033,2.033,0,0,1,.552,2.4,6.894,6.894,0,0,0-.543,1.941C-1771.44,356.362-1772.75,358.144-1774.03,359.71Z" transform="translate(1861.996 -319.451)" fill="#999"/>
            <path id="Path_179912" data-name="Path 179912" d="M-1742.8,356.231l-.462.479a2.222,2.222,0,0,0-.581,1.959l.7,3.677a1.392,1.392,0,0,0,.908,1.061,1.392,1.392,0,0,0,1.372-.261,4.384,4.384,0,0,0,1.1-1.551,2.41,2.41,0,0,0,.106-1.585l-.873-3.2a1.167,1.167,0,0,0-.555-.71,1.167,1.167,0,0,0-.9-.1Z" transform="translate(1834.617 -323.85)" fill="#999"/>
            <path id="Path_179913" data-name="Path 179913" d="M-1814.46,359.752l-10.972,5.994-1.3,6.078C-1820.15,367.482-1814.46,359.752-1814.46,359.752Z" transform="translate(1853.821 -324.732)" fill="#858585"/>
            <path id="Path_179914" data-name="Path 179914" d="M-1786.22,365.549a51.95,51.95,0,0,0,2.8-9.6,73.376,73.376,0,0,1,1.9,17.677Z" transform="translate(1844.431 -323.85)" fill="#858585"/>
            <path id="Path_179915" data-name="Path 179915" d="M-1799.29,343.87c1.308,3.683,7.831,2.676,8.194-6.9l-8.194,1.1Z" transform="translate(1847.46 -319.451)" fill="#5b5b5b"/>
            <g id="Group_117604" data-name="Group 117604" transform="translate(28.24 33.337)">
              <g id="Group_117599" data-name="Group 117599" transform="translate(7.228 7.739)">
                <path id="Path_179916" data-name="Path 179916" d="M-1807.78,369.957a16.546,16.546,0,0,1-7.972-2.038.149.149,0,0,1-.072-.09.15.15,0,0,1,.013-.115.151.151,0,0,1,.2-.059,16.234,16.234,0,0,0,10.976,1.685.153.153,0,0,1,.178.118.151.151,0,0,1-.118.178A15.986,15.986,0,0,1-1807.78,369.957Z" transform="translate(1815.826 -367.636)" fill="#5b5b5b"/>
              </g>
              <g id="Group_117600" data-name="Group 117600" transform="translate(21.343 9.762)">
                <path id="Path_179917" data-name="Path 179917" d="M-1793.27,372.941a.12.12,0,0,1-.029,0,10.013,10.013,0,0,1-4.1-2.41.152.152,0,0,1-.044-.107.151.151,0,0,1,.044-.107.152.152,0,0,1,.213,0,9.849,9.849,0,0,0,3.952,2.331.151.151,0,0,1,.119.177A.152.152,0,0,1-1793.27,372.941Z" transform="translate(1797.452 -370.268)" fill="#5b5b5b"/>
              </g>
              <g id="Group_117601" data-name="Group 117601" transform="translate(20.115)">
                <path id="Path_179918" data-name="Path 179918" d="M-1798.9,366.054a.152.152,0,0,1-.088-.028.151.151,0,0,1-.061-.1.15.15,0,0,1,.027-.113,17.06,17.06,0,0,0,3.118-8.118.149.149,0,0,1,.055-.1.149.149,0,0,1,.112-.032.151.151,0,0,1,.1.056.151.151,0,0,1,.032.111,17.371,17.371,0,0,1-3.173,8.263.155.155,0,0,1-.124.061Z" transform="translate(1799.051 -357.561)" fill="#5b5b5b"/>
              </g>
              <g id="Group_117602" data-name="Group 117602" transform="translate(0 1.532)">
                <path id="Path_179919" data-name="Path 179919" d="M-1825.08,365.851a.151.151,0,0,1-.132-.078.151.151,0,0,1,.06-.2l10.971-5.993a.151.151,0,0,1,.205.06.151.151,0,0,1,.013.115.151.151,0,0,1-.073.09l-10.972,5.993a.152.152,0,0,1-.072.018Z" transform="translate(1825.235 -359.555)" fill="#5b5b5b"/>
              </g>
              <g id="Group_117603" data-name="Group 117603" transform="translate(44.347 13.088)">
                <path id="Path_179920" data-name="Path 179920" d="M-1766.52,377.067a.151.151,0,0,1-.141-.1l-.834-2.166a.152.152,0,0,1,0-.119.151.151,0,0,1,.086-.081.151.151,0,0,1,.119,0,.151.151,0,0,1,.081.086l.834,2.166a.152.152,0,0,1,0,.118.152.152,0,0,1-.086.082.167.167,0,0,1-.059.013Z" transform="translate(1767.506 -374.599)" fill="#5b5b5b"/>
              </g>
            </g>
            <path id="Path_179921" data-name="Path 179921" d="M-1806.66,330.108a10.974,10.974,0,0,1-2.106-2.152,4.706,4.706,0,0,1-.914-2.824,3.023,3.023,0,0,1,1.437-2.509,5.911,5.911,0,0,1-2.334-3.082,4.514,4.514,0,0,1,.547-3.766,3.673,3.673,0,0,1,3.387-1.585c2.217.283,3.676,2.7,5.883,3.057,1.91.308,3.8-1.029,5.711-.723a3.437,3.437,0,0,1,2.343,1.556,3.44,3.44,0,0,1,.364,2.789,3.221,3.221,0,0,1,2.94,2.208,5.68,5.68,0,0,1-.07,3.775,8.316,8.316,0,0,1-1.9,3.261,9.338,9.338,0,0,1-7.368,2.444C-1801.4,332.37-1804.59,331.809-1806.66,330.108Z" transform="translate(1850.118 -314.165)" fill="#5b5b5b"/>
            <path id="Path_179922" data-name="Path 179922" d="M-1794.23,331.2a5.21,5.21,0,0,1-2.08-2.59,5.528,5.528,0,0,1-.187-3.419,2.25,2.25,0,0,0-2.123-.364,8.9,8.9,0,0,0-2.005,1.011,4.406,4.406,0,0,1-2.1.734,5.142,5.142,0,0,1-1.772-.409,4.724,4.724,0,0,0-1.775-.383,1.422,1.422,0,0,0-.184.019l-.366,1.377a10.7,10.7,0,0,0,.677,7.347l1.689,3.554a5.7,5.7,0,0,0,5.82,3.214h0a5.7,5.7,0,0,0,4.362-2.98,12.58,12.58,0,0,0,1.355-4.178h0a4.192,4.192,0,0,1-1.311-2.933Z" transform="translate(1849.291 -316.61)" fill="#999"/>
            <path id="Path_179923" data-name="Path 179923" d="M-1788.91,333.582a3.186,3.186,0,0,1,1.609-1.771,2.159,2.159,0,0,1,1.337-.209,1.866,1.866,0,0,1,1.22.933,2.554,2.554,0,0,1,.272,1.533,3.208,3.208,0,0,1-2.318,2.662,2.024,2.024,0,0,1-1.076.018C-1789.15,336.37-1789.29,334.642-1788.91,333.582Z" transform="translate(1845.097 -318.199)" fill="#999"/>
            <path id="Path_179924" data-name="Path 179924" d="M-1787.03,335.969a.462.462,0,0,1-.131-.016.347.347,0,0,1-.23-.213,1.984,1.984,0,0,1-.018-1.383,1.974,1.974,0,0,1,.99-1.091,1.173,1.173,0,0,1,.477-.126.5.5,0,0,1,.1.009.678.678,0,0,1,.406.336,1.351,1.351,0,0,1,.128.806,2.009,2.009,0,0,1-1.423,1.633,1.206,1.206,0,0,1-.3.045Z" transform="translate(1844.732 -318.564)" fill="#858585"/>
          </g>
        </g>
        <g id="Group_117607" data-name="Group 117607" transform="translate(-1814.937 409.836)">
          <path id="Path_179925" data-name="Path 179925" d="M-1738.55,459.373c-1.789,1.311-3.016,3.518-5.16,4.087-1.493.4-3.068-.121-4.612-.084-3.273.081-5.934,2.581-8.073,5.061s-4.308,5.241-7.443,6.189c-2.161.653-4.516.342-6.693.936-2.832.772-5.016,2.955-7.218,4.9a25.313,25.313,0,0,1-2.063,1.654,63.552,63.552,0,0,0,15.714-5.444c7.9-3.951,15.239-8.931,22.985-13.177a88.473,88.473,0,0,1,11.67-5.443C-1732.64,457.624-1736.01,457.508-1738.55,459.373Z" transform="translate(1790.394 -446.934)" fill="#9c9c9c"/>
          <path id="Path_179926" data-name="Path 179926" d="M-1715.6,448.846c-.439-1.436-2.459-1.307-3.63-1.174-4.113.47-7.722,2.035-11.53,3.534a3.46,3.46,0,0,1-1.314.326,1.182,1.182,0,0,1-1.1-.664,1.21,1.21,0,0,1,.419-1.28,4.346,4.346,0,0,1,1.264-.662c1.36-.562,5.069-2.258,4.32-4.207a1.878,1.878,0,0,0-1.75-1.061,5.1,5.1,0,0,0-2.083.558,44.7,44.7,0,0,0-13.5,9.169,5.739,5.739,0,0,1-2.822,1.9c-1.135.2-2.509-.751-2.235-1.87.215-.883,1.3-1.39,1.4-2.294.108-.986-1.134-1.672-2.095-1.425a4.868,4.868,0,0,0-2.3,1.817,103.716,103.716,0,0,1-12.059,12.2,8.906,8.906,0,0,1-3.23,1.988c-.456.127-1.041.138-1.3-.259a.9.9,0,0,1,.065-.956,3.618,3.618,0,0,1,.711-.717,3.457,3.457,0,0,0,1.058-1.464,1.588,1.588,0,0,0-.44-1.769,1.588,1.588,0,0,0-1.813-.19,5.406,5.406,0,0,0-2.115,2.3,43.262,43.262,0,0,1-21.906,17.157,47.121,47.121,0,0,0,10.577-.967,25.294,25.294,0,0,0,2.063-1.654c2.2-1.942,4.386-4.125,7.218-4.9,2.178-.594,4.532-.283,6.693-.936,3.135-.947,5.3-3.709,7.443-6.189s4.8-4.98,8.073-5.061c1.545-.038,3.119.48,4.612.084,2.144-.568,3.371-2.776,5.16-4.087,2.543-1.864,5.917-1.749,9.107-1.324a49.972,49.972,0,0,1,13.21-3.094,6.725,6.725,0,0,0,2.673-.568A2.075,2.075,0,0,0-1715.6,448.846Z" transform="translate(1793.586 -443.659)" fill="#d9d9d9"/>
        </g>
      </g>
    </g>
    <text id="Concepto_de_actividad_física" data-name="Concepto de actividad física" transform="translate(-8452 -10711)" fill="#12263f" font-size="18" font-family="Roboto-Black, Roboto" font-weight="800"><tspan x="-114.781" y="0">Concepto de actividad física</tspan></text>
  </g>
</svg>
