<svg xmlns="http://www.w3.org/2000/svg" width="295" height="200" viewBox="0 0 295 200">
  <g id="b3" transform="translate(-180 -1281)">
    <path id="Rectangle_36703" data-name="Rectangle 36703" d="M12,1A11,11,0,0,0,1,12V188a11,11,0,0,0,11,11H283a11,11,0,0,0,11-11V12A11,11,0,0,0,283,1H12m0-1H283a12,12,0,0,1,12,12V188a12,12,0,0,1-12,12H12A12,12,0,0,1,0,188V12A12,12,0,0,1,12,0Z" transform="translate(180 1281)" fill="#ffe891"/>
    <path id="Path_180075" data-name="Path 180075" d="M-85-4.333a4.673,4.673,0,0,1-.721,2.36A4.35,4.35,0,0,1-87.57-.387a6.3,6.3,0,0,1-2.72.563,5.025,5.025,0,0,1-3.973-1.644,6.786,6.786,0,0,1-1.45-4.641v-.633a7.746,7.746,0,0,1,.655-3.292,4.961,4.961,0,0,1,1.885-2.18,5.26,5.26,0,0,1,2.848-.769,5.516,5.516,0,0,1,3.744,1.226,4.844,4.844,0,0,1,1.608,3.379h-3.076a2.292,2.292,0,0,0-.589-1.679,2.422,2.422,0,0,0-1.687-.51,1.843,1.843,0,0,0-1.687.861,5.536,5.536,0,0,0-.562,2.751v.905a6.126,6.126,0,0,0,.514,2.927,1.882,1.882,0,0,0,1.771.879,2.369,2.369,0,0,0,1.626-.5,2.126,2.126,0,0,0,.6-1.591Zm.949-.51A5.613,5.613,0,0,1-83.5-7.378a3.96,3.96,0,0,1,1.591-1.709,4.791,4.791,0,0,1,2.435-.6A4.373,4.373,0,0,1-76.1-8.363a5.076,5.076,0,0,1,1.23,3.6v.105a4.925,4.925,0,0,1-1.235,3.529A4.384,4.384,0,0,1-79.453.176a4.434,4.434,0,0,1-3.261-1.217,4.761,4.761,0,0,1-1.327-3.3Zm2.962.185a3.538,3.538,0,0,0,.413,1.934,1.376,1.376,0,0,0,1.222.615q1.582,0,1.617-2.435v-.3q0-2.558-1.635-2.558-1.485,0-1.608,2.206ZM-70.849-9.51l.1,1.116a3.225,3.225,0,0,1,2.716-1.292,2.713,2.713,0,0,1,2.219.888,4.226,4.226,0,0,1,.76,2.672V0h-2.971V-6a1.6,1.6,0,0,0-.29-1.059A1.342,1.342,0,0,0-69.372-7.4a1.413,1.413,0,0,0-1.292.686V0h-2.962V-9.51Zm11.452,7.4a1.317,1.317,0,0,0,.967-.338,1.241,1.241,0,0,0,.334-.945h2.777A3.288,3.288,0,0,1-56.439-.826a4.168,4.168,0,0,1-2.887,1,4.22,4.22,0,0,1-3.27-1.3,5.125,5.125,0,0,1-1.2-3.6v-.123A5.792,5.792,0,0,1-63.259-7.4a3.872,3.872,0,0,1,1.534-1.7,4.573,4.573,0,0,1,2.373-.593,4.116,4.116,0,0,1,2.944,1.028,3.647,3.647,0,0,1,1.09,2.786H-58.1A1.626,1.626,0,0,0-58.456-7a1.244,1.244,0,0,0-.967-.4q-1.151,0-1.345,1.468a10.357,10.357,0,0,0-.062,1.283,4.068,4.068,0,0,0,.343,1.986A1.187,1.187,0,0,0-59.4-2.109ZM-49.465.176a4.889,4.889,0,0,1-3.542-1.305,4.507,4.507,0,0,1-1.354-3.4v-.246a5.84,5.84,0,0,1,.541-2.575,3.955,3.955,0,0,1,1.578-1.727,4.763,4.763,0,0,1,2.461-.611,4.117,4.117,0,0,1,3.164,1.244,4.887,4.887,0,0,1,1.16,3.467v1.151h-5.889a2.135,2.135,0,0,0,.694,1.257,2.066,2.066,0,0,0,1.389.457,2.662,2.662,0,0,0,2.2-.984l1.354,1.6A3.784,3.784,0,0,1-47.281-.277,5.3,5.3,0,0,1-49.465.176ZM-49.8-7.4q-1.3,0-1.547,1.723h2.988v-.229a1.467,1.467,0,0,0-.36-1.1A1.434,1.434,0,0,0-49.8-7.4Zm14.361,2.716a5.735,5.735,0,0,1-1,3.538A3.2,3.2,0,0,1-39.129.176a2.742,2.742,0,0,1-2.153-.958V3.656h-2.962V-9.51h2.769l.088.879a2.742,2.742,0,0,1,2.241-1.055,3.224,3.224,0,0,1,2.733,1.3,5.805,5.805,0,0,1,.976,3.564ZM-38.4-4.869q0-2.531-1.477-2.531a1.394,1.394,0,0,0-1.406.756V-2.9a1.439,1.439,0,0,0,1.424.791q1.415,0,1.459-2.443Zm7.717-7V-9.51h1.564v2.057h-1.564V-3.1a1.111,1.111,0,0,0,.193.747,1.037,1.037,0,0,0,.765.211,4.345,4.345,0,0,0,.738-.053V-.079a5.466,5.466,0,0,1-1.67.255,3.1,3.1,0,0,1-2.259-.721,2.954,2.954,0,0,1-.729-2.188v-4.72h-1.213V-9.51h1.213v-2.364Zm2.092,7.031a5.613,5.613,0,0,1,.554-2.536,3.96,3.96,0,0,1,1.591-1.709,4.791,4.791,0,0,1,2.435-.6,4.373,4.373,0,0,1,3.366,1.323,5.076,5.076,0,0,1,1.23,3.6v.105A4.925,4.925,0,0,1-20.65-1.129,4.384,4.384,0,0,1-23.994.176a4.434,4.434,0,0,1-3.261-1.217,4.761,4.761,0,0,1-1.327-3.3Zm2.962.185a3.538,3.538,0,0,0,.413,1.934,1.376,1.376,0,0,0,1.222.615q1.582,0,1.617-2.435v-.3q0-2.558-1.635-2.558-1.485,0-1.608,2.206ZM-14-4.825a5.809,5.809,0,0,1,.976-3.56,3.211,3.211,0,0,1,2.725-1.3,2.731,2.731,0,0,1,2.145,1V-13.5h2.971V0H-7.849L-8-1.02a2.8,2.8,0,0,1-2.32,1.2,3.205,3.205,0,0,1-2.689-1.3A5.993,5.993,0,0,1-14-4.825Zm2.962.185q0,2.531,1.477,2.531a1.458,1.458,0,0,0,1.406-.826V-6.557A1.419,1.419,0,0,0-9.545-7.4q-1.371,0-1.485,2.215ZM1.1.176A4.889,4.889,0,0,1-2.443-1.129,4.507,4.507,0,0,1-3.8-4.526v-.246a5.84,5.84,0,0,1,.541-2.575A3.955,3.955,0,0,1-1.679-9.075,4.763,4.763,0,0,1,.782-9.686,4.117,4.117,0,0,1,3.946-8.442a4.887,4.887,0,0,1,1.16,3.467v1.151H-.782A2.135,2.135,0,0,0-.088-2.566,2.066,2.066,0,0,0,1.3-2.109a2.662,2.662,0,0,0,2.2-.984l1.354,1.6A3.784,3.784,0,0,1,3.283-.277,5.3,5.3,0,0,1,1.1.176ZM.765-7.4q-1.3,0-1.547,1.723H2.206v-.229a1.467,1.467,0,0,0-.36-1.1A1.434,1.434,0,0,0,.765-7.4Zm15.768.571-.976-.07a1.752,1.752,0,0,0-1.793.879V0H10.8V-9.51h2.777l.1,1.222a2.294,2.294,0,0,1,2.083-1.4,2.888,2.888,0,0,1,.826.105Zm5.5,7a4.889,4.889,0,0,1-3.542-1.305,4.507,4.507,0,0,1-1.354-3.4v-.246a5.84,5.84,0,0,1,.541-2.575,3.955,3.955,0,0,1,1.578-1.727,4.763,4.763,0,0,1,2.461-.611,4.117,4.117,0,0,1,3.164,1.244,4.887,4.887,0,0,1,1.16,3.467v1.151H20.153a2.135,2.135,0,0,0,.694,1.257,2.066,2.066,0,0,0,1.389.457,2.662,2.662,0,0,0,2.2-.984l1.354,1.6A3.784,3.784,0,0,1,24.218-.277,5.3,5.3,0,0,1,22.034.176ZM21.7-7.4q-1.3,0-1.547,1.723h2.988v-.229a1.467,1.467,0,0,0-.36-1.1A1.434,1.434,0,0,0,21.7-7.4Zm9.554,5.291a1.317,1.317,0,0,0,.967-.338,1.241,1.241,0,0,0,.334-.945h2.777A3.288,3.288,0,0,1,34.211-.826a4.168,4.168,0,0,1-2.887,1,4.22,4.22,0,0,1-3.27-1.3,5.125,5.125,0,0,1-1.2-3.6v-.123A5.792,5.792,0,0,1,27.391-7.4a3.872,3.872,0,0,1,1.534-1.7A4.573,4.573,0,0,1,31.3-9.686a4.116,4.116,0,0,1,2.944,1.028,3.647,3.647,0,0,1,1.09,2.786H32.555A1.626,1.626,0,0,0,32.194-7a1.244,1.244,0,0,0-.967-.4q-1.151,0-1.345,1.468a10.357,10.357,0,0,0-.062,1.283,4.068,4.068,0,0,0,.343,1.986A1.187,1.187,0,0,0,31.254-2.109Zm11.083-4.72-.976-.07a1.752,1.752,0,0,0-1.793.879V0H36.606V-9.51h2.777l.1,1.222a2.294,2.294,0,0,1,2.083-1.4,2.888,2.888,0,0,1,.826.105Zm5.5,7A4.889,4.889,0,0,1,44.3-1.129a4.507,4.507,0,0,1-1.354-3.4v-.246a5.84,5.84,0,0,1,.541-2.575,3.955,3.955,0,0,1,1.578-1.727,4.763,4.763,0,0,1,2.461-.611,4.117,4.117,0,0,1,3.164,1.244,4.887,4.887,0,0,1,1.16,3.467v1.151H45.958a2.135,2.135,0,0,0,.694,1.257,2.066,2.066,0,0,0,1.389.457,2.662,2.662,0,0,0,2.2-.984l1.354,1.6A3.784,3.784,0,0,1,50.023-.277,5.3,5.3,0,0,1,47.839.176ZM47.5-7.4q-1.3,0-1.547,1.723h2.988v-.229a1.467,1.467,0,0,0-.36-1.1A1.434,1.434,0,0,0,47.5-7.4ZM58.395,0a3.344,3.344,0,0,1-.281-.853A2.754,2.754,0,0,1,55.828.176a3.374,3.374,0,0,1-2.285-.813,2.588,2.588,0,0,1-.94-2.043,2.66,2.66,0,0,1,1.143-2.338,5.821,5.821,0,0,1,3.322-.791h.914v-.5q0-1.316-1.134-1.316a.927.927,0,0,0-1.055,1.042H52.831A2.655,2.655,0,0,1,54-8.825,4.931,4.931,0,0,1,57-9.686a4.323,4.323,0,0,1,2.874.888,3.086,3.086,0,0,1,1.081,2.435v4.21a4.311,4.311,0,0,0,.4,2V0ZM56.54-1.934a1.652,1.652,0,0,0,.918-.237,1.487,1.487,0,0,0,.523-.536V-4.228H57.12q-1.547,0-1.547,1.389a.848.848,0,0,0,.272.655A.986.986,0,0,0,56.54-1.934Zm10.072-.176a1.317,1.317,0,0,0,.967-.338,1.241,1.241,0,0,0,.334-.945H70.69A3.288,3.288,0,0,1,69.57-.826a4.168,4.168,0,0,1-2.887,1,4.22,4.22,0,0,1-3.27-1.3,5.125,5.125,0,0,1-1.2-3.6v-.123A5.792,5.792,0,0,1,62.75-7.4a3.872,3.872,0,0,1,1.534-1.7,4.573,4.573,0,0,1,2.373-.593A4.116,4.116,0,0,1,69.6-8.657a3.647,3.647,0,0,1,1.09,2.786H67.913A1.626,1.626,0,0,0,67.553-7a1.244,1.244,0,0,0-.967-.4q-1.151,0-1.345,1.468a10.357,10.357,0,0,0-.062,1.283,4.068,4.068,0,0,0,.343,1.986A1.187,1.187,0,0,0,66.612-2.109ZM75.067,0H72.1V-9.51h2.971ZM71.921-11.971a1.334,1.334,0,0,1,.457-1.043,1.718,1.718,0,0,1,1.187-.407,1.718,1.718,0,0,1,1.187.407,1.334,1.334,0,0,1,.457,1.043,1.334,1.334,0,0,1-.457,1.043,1.718,1.718,0,0,1-1.187.407,1.718,1.718,0,0,1-1.187-.407A1.334,1.334,0,0,1,71.921-11.971Zm4.6,7.128a5.613,5.613,0,0,1,.554-2.536,3.96,3.96,0,0,1,1.591-1.709,4.791,4.791,0,0,1,2.435-.6,4.373,4.373,0,0,1,3.366,1.323,5.076,5.076,0,0,1,1.23,3.6v.105a4.925,4.925,0,0,1-1.235,3.529A4.384,4.384,0,0,1,81.114.176a4.434,4.434,0,0,1-3.261-1.217,4.761,4.761,0,0,1-1.327-3.3Zm2.962.185a3.538,3.538,0,0,0,.413,1.934,1.376,1.376,0,0,0,1.222.615q1.582,0,1.617-2.435v-.3Q82.731-7.4,81.1-7.4q-1.485,0-1.608,2.206ZM81.5-13.5H84.63l-2.443,2.76-2.417,0Zm8.218,3.99.1,1.116a3.225,3.225,0,0,1,2.716-1.292A2.713,2.713,0,0,1,94.75-8.8a4.226,4.226,0,0,1,.76,2.672V0H92.54V-6a1.6,1.6,0,0,0-.29-1.059A1.342,1.342,0,0,0,91.2-7.4a1.413,1.413,0,0,0-1.292.686V0H86.941V-9.51Z" transform="translate(328 1466)" fill="#12263f"/>
    <g id="Group_117390" data-name="Group 117390" transform="translate(-630.502 1541.257)">
      <g id="Group_117381" data-name="Group 117381" transform="translate(902.502 -251.59)">
        <g id="Group_117379" data-name="Group 117379">
          <path id="Path_179696" data-name="Path 179696" d="M978.369-220.346c4.314-.5,8.652-2.168,11.519-5.43a14.594,14.594,0,0,0,2.7-13.8,17.348,17.348,0,0,0-9.718-10.428,21.444,21.444,0,0,0-14.4-.646,28.194,28.194,0,0,0-12.289,7.763,14.4,14.4,0,0,0-3.222,4.746c-3.46,9.286,10.253,16.071,17.376,17.464A26.2,26.2,0,0,0,978.369-220.346Z" transform="translate(-913.683 251.59)" fill="#fff"/>
          <path id="Path_179697" data-name="Path 179697" d="M999.707-122.705H920.664c-7.97-3.335-14.434-11.153-16.936-19.423a29.871,29.871,0,0,1,3.663-24.823c2.987-4.493,7.288-8.327,8.661-13.545,1.311-4.983-.347-10.283-2.724-14.855s-5.487-8.77-7.4-13.553-2.481-10.506.222-14.893c2.961-4.8,9.245-6.787,14.83-5.977s10.567,3.929,14.984,7.44,8.484,7.5,13.252,10.516,10.486,5.035,16.04,4.036c4.406-.793,8.242-3.372,12.243-5.383s8.7-3.5,12.9-1.953c5.311,1.949,7.95,8.2,7.737,13.854s-2.6,10.955-4.516,16.28S990.24-173.809,991.9-168.4c1.808,5.887,6.933,10.076,10.12,15.347C1007.311-144.307,1005.97-130.783,999.707-122.705Z" transform="translate(-902.502 246.742)" fill="#fff"/>
        </g>
        <g id="Group_117380" data-name="Group 117380" transform="translate(2.752 124.036)">
          <path id="Path_179698" data-name="Path 179698" d="M998.757-88.048h0a1.232,1.232,0,0,1,1.232-1.232h2.731a1.232,1.232,0,0,0,1.233-1.232h0a1.233,1.233,0,0,0-1.233-1.233H917.545a1.232,1.232,0,0,0-1.232,1.233h0a1.232,1.232,0,0,0,1.232,1.232h2.731a1.232,1.232,0,0,1,1.232,1.232h0a1.232,1.232,0,0,1-1.232,1.232h-13a1.232,1.232,0,0,0-1.232,1.232h0a1.232,1.232,0,0,0,1.232,1.232H927.5a1.232,1.232,0,0,1,1.232,1.232h0a1.233,1.233,0,0,1-1.232,1.233h-5.328a1.232,1.232,0,0,0-1.232,1.232h0a1.232,1.232,0,0,0,1.232,1.232h72.273a1.232,1.232,0,0,0,1.233-1.232h0a1.232,1.232,0,0,0-1.233-1.232h-1.677a1.233,1.233,0,0,1-1.232-1.233h0a1.232,1.232,0,0,1,1.232-1.232h20.218a1.232,1.232,0,0,0,1.232-1.232h0a1.232,1.232,0,0,0-1.232-1.232h-13A1.232,1.232,0,0,1,998.757-88.048Z" transform="translate(-906.048 91.746)" fill="#757575"/>
          <path id="Path_179699" data-name="Path 179699" d="M914.193-76.575h3.025a1.232,1.232,0,0,0,1.232-1.232h0a1.232,1.232,0,0,0-1.232-1.232h-3.025a1.232,1.232,0,0,0-1.232,1.232h0A1.232,1.232,0,0,0,914.193-76.575Z" transform="translate(-907.597 88.9)" fill="#757575"/>
          <path id="Path_179700" data-name="Path 179700" d="M1025.734-76.575h8.627a1.232,1.232,0,0,0,1.233-1.232h0a1.232,1.232,0,0,0-1.233-1.232h-8.627a1.232,1.232,0,0,0-1.232,1.232h0A1.232,1.232,0,0,0,1025.734-76.575Z" transform="translate(-932.583 88.9)" fill="#757575"/>
        </g>
      </g>
      <g id="Group_117389" data-name="Group 117389" transform="translate(912.832 -247.081)">
        <ellipse id="Ellipse_5712" data-name="Ellipse 5712" cx="48.063" cy="8.254" rx="48.063" ry="8.254" transform="translate(1.86 131.984)" fill="#8f8f8f"/>
        <path id="Path_179701" data-name="Path 179701" d="M1011.621-185.6c1.756-3.174,4.683-3.543,6.5-3.7h0a2.281,2.281,0,0,1-1.286,2.064,5.6,5.6,0,0,0-.84.494l-.388,4.19c-.753,1.722-1.707,2.619-4.449,2.9C1010.3-182.365,1011.621-185.6,1011.621-185.6Z" transform="translate(-937.107 233.127)" fill="#858585"/>
        <path id="Path_179702" data-name="Path 179702" d="M971.62-189.938l2.069-.223a7.718,7.718,0,0,1,7.526,3.836l6.2,10.821,12.9-6.573a12.92,12.92,0,0,1,2.978-7.086h0a1.84,1.84,0,0,1,.328,2.238,6.07,6.07,0,0,0-.636,1.521,5.219,5.219,0,0,1-.616,5.546l-12.183,10.522a4.549,4.549,0,0,1-6.121-.16l-8.747-8.39Z" transform="translate(-928.315 233.33)" fill="#999"/>
        <path id="Path_179703" data-name="Path 179703" d="M1016.879-186a6.119,6.119,0,0,0-1.77,1.726,1.9,1.9,0,0,0-.16,1.753,16.336,16.336,0,0,1,.788,2.433.61.61,0,0,0,.979.338,4.671,4.671,0,0,0,1.121-1.349,2.912,2.912,0,0,0,.19-2.285A12.426,12.426,0,0,0,1016.879-186Z" transform="translate(-937.99 232.389)" fill="#999"/>
        <path id="Path_179704" data-name="Path 179704" d="M983.284-169.782l2.169-8.814-4.072-7.106-9.016-1.727,3.118,10.166Z" transform="translate(-928.482 232.708)" fill="#858585"/>
        <g id="Group_117382" data-name="Group 117382" transform="translate(56.719 55.339)">
          <path id="Path_179705" data-name="Path 179705" d="M989.029-170.7a.121.121,0,0,1-.109-.068.123.123,0,0,1,.054-.165l6.9-3.515a.124.124,0,0,1,.166.054.122.122,0,0,1-.054.165l-6.9,3.515A.119.119,0,0,1,989.029-170.7Z" transform="translate(-988.906 174.465)" fill="#5b5b5b"/>
        </g>
        <path id="Path_179706" data-name="Path 179706" d="M970.414-131.111c-9.366-.41-22.1,6.327-26.27-.41C945.6-139.738,959.57-138.751,970.414-131.111Z" transform="translate(-922.16 221.473)" fill="#737373"/>
        <path id="Path_179707" data-name="Path 179707" d="M1023.244-69.155a25.279,25.279,0,0,1-11.854-.764,7.247,7.247,0,0,0,.651,1.225c1.334.563,4.968,1.4,11.406.436a1.042,1.042,0,0,0,.652-1.685A1.02,1.02,0,0,1,1023.244-69.155Z" transform="translate(-937.224 206.39)" fill="#fff"/>
        <path id="Path_179708" data-name="Path 179708" d="M1013.72-76.346l-2.854,1.879a5.279,5.279,0,0,0,.388,3.114,25.279,25.279,0,0,0,11.854.764,1.02,1.02,0,0,0,.855-.788,1.085,1.085,0,0,0-.212-.2A34.662,34.662,0,0,0,1013.72-76.346Z" transform="translate(-937.089 207.824)" fill="#5b5b5b"/>
        <path id="Path_179709" data-name="Path 179709" d="M1016.84-78.762a1.575,1.575,0,0,1,.853-.289.678.678,0,0,1,.664.516c.054.377-.3.673-.628.875-.387.241-2.252,1.6-2.688,1.108S1016.466-78.532,1016.84-78.762Z" transform="translate(-938.027 208.43)" fill="#5b5b5b"/>
        <path id="Path_179710" data-name="Path 179710" d="M986.432-133.567l7.767,14.855a22.389,22.389,0,0,1,1.207,2.742l9.709,26.806c-.279,2.181-2.854,1.879-2.854,1.879-10.94-11.61-14.432-22.085-15.829-27.878L972.366-132.91Z" transform="translate(-928.483 220.642)" fill="#9c9c9c"/>
        <path id="Path_179711" data-name="Path 179711" d="M989.167-128.335l-2.735-5.232-14.065.657,3.843,4.848C981.63-125.547,986.965-125.86,989.167-128.335Z" transform="translate(-928.483 220.642)" fill="#5b5b5b"/>
        <path id="Path_179712" data-name="Path 179712" d="M1001.8-104.642l-.985-2.717a14.1,14.1,0,0,1-8.717,2.43c.276.83.593,1.707.953,2.624A14.1,14.1,0,0,0,1001.8-104.642Z" transform="translate(-932.904 214.771)" fill="#fff"/>
        <path id="Path_179713" data-name="Path 179713" d="M1004.8-96.726a14.121,14.121,0,0,1-8.261,2.27,68.924,68.924,0,0,0,11.135,15.423s2.575.3,2.854-1.879Z" transform="translate(-933.898 212.389)" fill="#fff"/>
        <path id="Path_179714" data-name="Path 179714" d="M1002.763-101.967l-.684-1.89a14.1,14.1,0,0,1-8.748,2.336q.349.889.757,1.831A14.1,14.1,0,0,0,1002.763-101.967Z" transform="translate(-933.179 213.987)" fill="#737373"/>
        <path id="Path_179715" data-name="Path 179715" d="M1004.537-97.271l-.684-1.888a14.1,14.1,0,0,1-8.494,2.316q.429.9.917,1.841A14.121,14.121,0,0,0,1004.537-97.271Z" transform="translate(-933.633 212.935)" fill="#878787"/>
        <path id="Path_179716" data-name="Path 179716" d="M1003.617-99.666l-.635-1.755a14.1,14.1,0,0,1-8.676,2.277q.382.878.818,1.795A14.1,14.1,0,0,0,1003.617-99.666Z" transform="translate(-933.397 213.441)" fill="#fff"/>
        <path id="Path_179717" data-name="Path 179717" d="M937.353-63.818a25.277,25.277,0,0,1-5.168-10.7,7.277,7.277,0,0,0-.746,1.17c.166,1.438,1.226,5.013,5.232,10.144a1.042,1.042,0,0,0,1.787-.261A1.02,1.02,0,0,1,937.353-63.818Z" transform="translate(-919.314 207.413)" fill="#fff"/>
        <path id="Path_179718" data-name="Path 179718" d="M937.96-75.362l-3.04-1.561a5.284,5.284,0,0,0-2.52,1.87,25.277,25.277,0,0,0,5.168,10.7,1.02,1.02,0,0,0,1.106.358,1.078,1.078,0,0,0,.075-.286A34.684,34.684,0,0,0,937.96-75.362Z" transform="translate(-919.53 207.953)" fill="#5b5b5b"/>
        <path id="Path_179719" data-name="Path 179719" d="M942.163-73.815a1.572,1.572,0,0,1,.671.6.676.676,0,0,1-.123.832c-.3.232-.736.066-1.07-.116-.4-.219-2.5-1.176-2.288-1.8C939.57-74.93,941.779-74.027,942.163-73.815Z" transform="translate(-921.084 207.414)" fill="#5b5b5b"/>
        <path id="Path_179720" data-name="Path 179720" d="M961.482-137.08l-4.824,19.388a11.338,11.338,0,0,1-1.546,3.518L938.688-89.345a3.466,3.466,0,0,1-3.04-1.561c2.136-14.3,7.394-23.169,12.323-29.166l.165-18.65C957.584-140.776,961.482-137.08,961.482-137.08Z" transform="translate(-920.257 221.936)" fill="#9c9c9c"/>
        <path id="Path_179721" data-name="Path 179721" d="M951.676-133.793c5.432-1.6,8.27-.907,12.242.594l1.155-4.64-6.116-4.893-7.23,3.251Z" transform="translate(-923.848 222.695)" fill="#5b5b5b"/>
        <path id="Path_179722" data-name="Path 179722" d="M943.164-102.238q-.53,1.036-1.037,2.143a12.221,12.221,0,0,0,7.575,4.607l1.217-1.84A12.216,12.216,0,0,1,943.164-102.238Z" transform="translate(-921.708 213.624)" fill="#878787"/>
        <path id="Path_179723" data-name="Path 179723" d="M940.675-99.477a64.687,64.687,0,0,0-5.027,17.5,3.466,3.466,0,0,0,3.04,1.561L948.25-94.87A12.221,12.221,0,0,1,940.675-99.477Z" transform="translate(-920.257 213.006)" fill="#fff"/>
        <path id="Path_179724" data-name="Path 179724" d="M944.424-104.545q-.488.868-.961,1.79a12.216,12.216,0,0,0,7.754,4.91l1.128-1.706A12.211,12.211,0,0,1,944.424-104.545Z" transform="translate(-922.008 214.141)" fill="#fff"/>
        <path id="Path_179725" data-name="Path 179725" d="M948.017-110.606c-.608.856-1.214,1.762-1.81,2.722a12.207,12.207,0,0,0,7.971,5.135l1.7-2.565A12.2,12.2,0,0,1,948.017-110.606Z" transform="translate(-922.622 215.499)" fill="#fff"/>
        <path id="Path_179726" data-name="Path 179726" d="M945.87-107.1q-.591.953-1.169,1.981a12.211,12.211,0,0,0,7.922,4.994l1.218-1.84A12.207,12.207,0,0,1,945.87-107.1Z" transform="translate(-922.285 214.713)" fill="#737373"/>
        <path id="Path_179727" data-name="Path 179727" d="M955.289-159.163c-.677,3.327-11.831,13.865-11.153,22.738,8.853-14.706,29.064,10.681,38.512,0a151.526,151.526,0,0,0-12.139-22.738Z" transform="translate(-922.152 226.376)" fill="#878787"/>
        <g id="Group_117383" data-name="Group 117383" transform="translate(25.763 81.04)">
          <path id="Path_179728" data-name="Path 179728" d="M976.63-134.389c-4.072,0-8.126-1.6-11.658-3.258L964-138.1a33.833,33.833,0,0,0-6.777-2.634,10.622,10.622,0,0,0-8.021.946.123.123,0,0,1-.17-.039.123.123,0,0,1,.04-.17,10.866,10.866,0,0,1,8.206-.978,34.075,34.075,0,0,1,6.828,2.652q.485.229.97.457c4.2,1.968,9.15,3.867,13.956,3.033a.122.122,0,0,1,.143.1.123.123,0,0,1-.1.143A14.278,14.278,0,0,1,976.63-134.389Z" transform="translate(-949.015 141.345)" fill="#5b5b5b"/>
        </g>
        <g id="Group_117384" data-name="Group 117384" transform="translate(42.709 81.892)">
          <path id="Path_179729" data-name="Path 179729" d="M972-138.048q-.514,0-1.027-.022a.123.123,0,0,1-.117-.129.124.124,0,0,1,.128-.118,23.679,23.679,0,0,0,10.394-1.919.125.125,0,0,1,.162.064.124.124,0,0,1-.064.162A23.932,23.932,0,0,1,972-138.048Z" transform="translate(-970.853 140.246)" fill="#5b5b5b"/>
        </g>
        <path id="Path_179730" data-name="Path 179730" d="M957.073-188.407l10.575-1.471a6.368,6.368,0,0,1,5.2,1.633h0a6.377,6.377,0,0,1,1.722,2.674l1.357,4.1a5.351,5.351,0,0,1-1.252,5.419l-.313.32-1.664,9.674c-6.717,4.375-15.22,0-15.22,0l.185-3.922a6.3,6.3,0,0,0-.409-2.546l-3.367-8.805Z" transform="translate(-924.343 233.271)" fill="#d9d9d9"/>
        <g id="Group_117385" data-name="Group 117385" transform="translate(36.111 65.731)">
          <path id="Path_179731" data-name="Path 179731" d="M967.094-159.543a12.441,12.441,0,0,1-4.668-.9.122.122,0,0,1-.068-.16.122.122,0,0,1,.16-.068,12.392,12.392,0,0,0,10.048-.392.124.124,0,0,1,.165.056.123.123,0,0,1-.055.165A12.55,12.55,0,0,1,967.094-159.543Z" transform="translate(-962.349 161.073)" fill="#5b5b5b"/>
        </g>
        <g id="Group_117386" data-name="Group 117386" transform="translate(41.022 63.149)">
          <path id="Path_179732" data-name="Path 179732" d="M968.8-161.908a.124.124,0,0,1-.123-.116.124.124,0,0,1,.117-.13,9.917,9.917,0,0,0,5.724-2.217.123.123,0,0,1,.174.017.123.123,0,0,1-.018.173,10.172,10.172,0,0,1-5.867,2.274Z" transform="translate(-968.679 164.4)" fill="#5b5b5b"/>
        </g>
        <path id="Path_179733" data-name="Path 179733" d="M942.281-199.368a17.068,17.068,0,0,0,5.275-1.47,10.864,10.864,0,0,1-4.165,2.558,15.824,15.824,0,0,0,8.53,3.324,14.4,14.4,0,0,0,9.245-2.41,12.2,12.2,0,0,0,5.113-7.982,8.667,8.667,0,0,0-.736-5.308,8,8,0,0,0-7.242-4.05,10.381,10.381,0,0,0-7.538,3.889c-1.782,2.16-2.865,4.983-5.2,6.534a6.647,6.647,0,0,1-5.338.873A11.062,11.062,0,0,0,942.281-199.368Z" transform="translate(-921.284 238.819)" fill="#898989"/>
        <path id="Path_179734" data-name="Path 179734" d="M962.249-194.1l.308,4.19,5.633,2.708-.581-3.633v-5.338Z" transform="translate(-926.216 234.668)" fill="#8f8f8f"/>
        <path id="Path_179735" data-name="Path 179735" d="M962.453-191.336c2.23.5,4.262-2.666,5.157-4.162v-.679l-5.361,2.073Z" transform="translate(-926.216 234.668)" fill="#5b5b5b"/>
        <path id="Path_179736" data-name="Path 179736" d="M966.293-202.354a9.173,9.173,0,0,1-6.934-5.707,10.57,10.57,0,0,1-4.151,4.982l.279,2.161a7.57,7.57,0,0,0,2.613,4.809,4.459,4.459,0,0,0,2.885,1.058,4.461,4.461,0,0,0,2.867-1.043l1.056-.886a7.546,7.546,0,0,0,1.964-2.565A6.194,6.194,0,0,1,966.293-202.354Z" transform="translate(-924.639 237.33)" fill="#999"/>
        <path id="Path_179737" data-name="Path 179737" d="M970.5-200.022a2.4,2.4,0,0,1,1.613-.8,1.623,1.623,0,0,1,.995.22,1.4,1.4,0,0,1,.6.987,1.929,1.929,0,0,1-.229,1.151,2.415,2.415,0,0,1-2.354,1.232,1.529,1.529,0,0,1-.76-.282C969.565-198.133,969.942-199.383,970.5-200.022Z" transform="translate(-927.932 235.71)" fill="#999"/>
        <path id="Path_179738" data-name="Path 179738" d="M971.272-197.926a.339.339,0,0,1-.088-.047.261.261,0,0,1-.1-.212,1.5,1.5,0,0,1,.366-.975,1.485,1.485,0,0,1,.993-.494.882.882,0,0,1,.369.043.34.34,0,0,1,.068.033.508.508,0,0,1,.193.347,1.019,1.019,0,0,1-.13.6,1.515,1.515,0,0,1-1.445.756A.944.944,0,0,1,971.272-197.926Z" transform="translate(-928.194 235.448)" fill="#858585"/>
        <path id="Path_179739" data-name="Path 179739" d="M994.569-229.65l-.081-.232-.863.3-.36-1.027,1.027-.36.15.427.232-.081-.149-.427.126-.044-.081-.232-.126.044-.36-1.027.563-.2-.081-.233-.563.2-.36-1.027.737-.258-.081-.233-.737.258-.36-1.027,1.067-.373-.081-.233-1.067.373-.359-1.027,1.066-.373-.081-.233-1.066.374-.36-1.027,1.066-.374-.081-.233-1.066.374-.36-1.027.737-.258-.081-.232-.737.258-.36-1.027.563-.2-.081-.233-.563.2-.36-1.027.126-.044-.081-.232-.126.044-.149-.427-.233.081.149.427-1.027.359-.36-1.027.863-.3-.081-.233-.863.3-.36-1.027.182-.064-.081-.232L987.51-243l-.36-1.027.29-.1-.082-.232-.29.1-.089-.252-.233.081.088.252-1.027.36-.4-1.144-.116.041-.041-.116-1.144.4-.2-.563-.232.081.2.563-1.028.36-.3-.872-.233.081.306.872-1.027.36-.431-1.231-.233.081.432,1.231-1.027.36-.306-.872-.233.081.306.872-1.027.36-.2-.562-.232.081.2.562-1.143.4.04.116-.116.041.4,1.144-1.027.359-.088-.251-.233.081.088.251-.291.1.081.232.291-.1.36,1.027-1.443.505.081.233.182-.064.36,1.027-.863.3.081.233.863-.3.359,1.027-1.027.36-.15-.426-.233.081.15.426-.126.044.081.233.127-.044.36,1.027-.563.2.081.233.563-.2.36,1.027-.737.258.081.233.737-.258.359,1.027-1.066.374.081.233,1.066-.374.36,1.027-1.066.374.081.232,1.066-.373.36,1.027-1.066.373.081.233,1.066-.373.36,1.027-.737.258.081.233.737-.258.36,1.027-.563.2.082.233.562-.2.36,1.027-.126.044.081.233.126-.044.15.427.233-.081-.15-.427,1.027-.36.36,1.027-.863.3.081.232.863-.3.36,1.027-.183.064.081.233,1.443-.505.36,1.027-.291.1.082.233.29-.1.088.251.233-.081-.088-.251,1.027-.36.4,1.144.116-.041.041.116,1.143-.4.2.562.233-.081-.2-.562,1.027-.36.306.872.233-.081-.306-.872,1.027-.36.431,1.231.233-.081-.431-1.231,1.027-.36.3.872.233-.081-.306-.872,1.027-.36.2.563.233-.081-.2-.563,1.144-.4-.041-.116.116-.04-.4-1.144,1.027-.36.088.252.233-.081-.089-.252.291-.1-.082-.233-.291.1-.36-1.027,1.443-.505-.081-.232-.182.064-.36-1.027Zm-1.177.151-1.027.36-.359-1.027,1.027-.36Zm-6.933-4.384,1.027-.359.36,1.027-1.027.36Zm.127,1.11-1.027.359-.36-1.027,1.027-.36Zm-.209-1.342-.36-1.027,1.027-.36.36,1.027Zm-.233.081-1.027.359-.359-1.027,1.027-.359Zm-1.469-.9-.359-1.027,1.027-.36.359,1.027Zm-.441-1.26-.36-1.027,1.027-.36.36,1.027Zm-.233.081-1.027.36-.36-1.027,1.027-.36Zm.082.233.36,1.027-1.027.359-.36-1.027Zm.441,1.259.36,1.027-1.027.36-.36-1.027Zm-.9,1.469-1.027.36-.36-1.027,1.027-.36Zm.081.233.36,1.027-1.028.36-.359-1.027Zm.233-.081,1.027-.36.359,1.027-1.027.36Zm1.468.9.36,1.027-1.027.36-.36-1.027Zm.442,1.26.36,1.027-1.027.36-.36-1.028Zm.233-.081,1.027-.36.36,1.027-1.027.36Zm-.082-.233-.36-1.027,1.027-.36.36,1.027Zm.9-1.469,1.027-.36.36,1.027-1.027.36Zm1.26-.442,1.027-.359.36,1.027-1.027.36Zm-.081-.232-.36-1.027,1.027-.36.359,1.027Zm-.441-1.26-.36-1.027,1.027-.36.36,1.027Zm-.442-1.26-.36-1.027,1.027-.36.36,1.027Zm-.233.081-1.027.36-.36-1.027,1.027-.36Zm-1.469-.9-.36-1.027,1.028-.36.359,1.027Zm-.442-1.26-.359-1.027,1.027-.36.36,1.028Zm-.232.081-1.027.36-.36-1.027,1.027-.36Zm-1.469-.9-.36-1.027,1.027-.36.36,1.027Zm-.233.081-1.027.36-.359-1.027,1.027-.36Zm.081.233.36,1.027-1.027.36-.36-1.027Zm-.9,1.469-1.027.36-.36-1.027,1.027-.36Zm.081.233.36,1.027-1.027.36-.36-1.027Zm.442,1.26.36,1.027-1.027.36-.36-1.027Zm-.9,1.468-1.027.36-.359-1.027,1.027-.36Zm.081.233.36,1.027-1.027.36-.36-1.027Zm.442,1.26.36,1.027-1.027.36-.36-1.027Zm.441,1.26.359,1.027-1.027.36-.36-1.027Zm.233-.081,1.027-.36.359,1.027-1.027.359Zm1.468.9.36,1.027-1.027.36-.36-1.027Zm.442,1.26.36,1.027-1.027.36-.36-1.027Zm.233-.081,1.027-.36.36,1.028-1.027.359Zm1.469.9.36,1.027-1.027.36-.36-1.027Zm.233-.081,1.027-.359.36,1.027-1.027.36Zm-.082-.233-.36-1.027,1.027-.359.359,1.027Zm.9-1.468,1.027-.36.36,1.027-1.027.36Zm-.081-.233-.36-1.027,1.028-.36.359,1.027Zm.9-1.469,1.027-.36.36,1.027-1.027.36Zm1.26-.442,1.027-.36.36,1.027-1.027.36Zm-.081-.233-.36-1.027,1.028-.36.359,1.027Zm-.442-1.259-.36-1.027,1.028-.36.359,1.027ZM988.9-235l-.36-1.027,1.028-.36.36,1.027Zm-.441-1.26-.36-1.027,1.027-.36.36,1.027Zm-.442-1.259-.36-1.027,1.027-.36.36,1.027Zm-.233.081-1.027.359-.36-1.027,1.027-.359Zm-1.469-.9-.36-1.028,1.027-.359.36,1.027Zm-.442-1.26-.359-1.027,1.027-.36.359,1.027Zm-.232.081-1.027.36-.36-1.027,1.027-.36Zm-1.469-.9-.36-1.027,1.027-.36.36,1.027Zm-.233.081-1.027.36-.36-1.027,1.027-.36Zm-1.259.442-1.028.36-.359-1.028,1.027-.359Zm-1.26.442-1.027.359-.36-1.027,1.027-.359Zm.081.232.359,1.027-1.027.36-.359-1.027Zm-.9,1.469-1.027.36-.36-1.027,1.027-.36Zm.081.233.36,1.027-1.027.36-.36-1.027Zm.441,1.26.36,1.027-1.027.359-.36-1.027Zm-.9,1.468-1.027.36-.36-1.027,1.027-.36Zm.081.233.359,1.027-1.027.36-.359-1.027Zm.442,1.26.359,1.027-1.027.36-.36-1.027Zm.441,1.26.36,1.027-1.027.36-.36-1.028Zm.442,1.259.36,1.027-1.027.36-.36-1.027Zm.442,1.26.36,1.027-1.027.36-.36-1.027Zm.233-.081,1.027-.36.36,1.027-1.027.36Zm1.468.9.36,1.027-1.027.36-.359-1.027Zm.442,1.26.36,1.027-1.027.359-.36-1.027Zm.233-.081,1.027-.36.36,1.027-1.027.36Zm1.469.9.36,1.027-1.027.36-.36-1.028Zm.233-.081,1.027-.36.359,1.027-1.027.36Zm1.259-.442,1.027-.36.36,1.027-1.027.36Zm1.26-.442,1.027-.36.36,1.027-1.027.36Zm-.081-.233-.36-1.027,1.027-.359.36,1.027Zm.9-1.468,1.027-.36.36,1.027-1.027.359Zm-.081-.233-.36-1.027,1.027-.36.36,1.027Zm.9-1.469,1.027-.36.36,1.027-1.027.36Zm1.26-.442,1.027-.36.36,1.027-1.027.36Zm-.081-.233-.36-1.027,1.027-.359.36,1.027Zm-.442-1.26-.36-1.027,1.027-.36.36,1.027Zm-.442-1.259-.36-1.027,1.027-.36.36,1.027Zm-.442-1.26-.359-1.027,1.027-.36.36,1.027Zm-.441-1.26-.36-1.027,1.027-.359.359,1.027Zm-.441-1.259-.36-1.027,1.027-.36.36,1.027Zm-.442-1.26-.36-1.027,1.027-.36.36,1.027Zm-.233.081-1.027.36-.36-1.027,1.027-.36Zm-1.469-.9-.36-1.027,1.028-.36.359,1.027Zm-.442-1.26-.36-1.027,1.028-.36.36,1.027Zm-.232.081-1.027.36-.36-1.027,1.027-.36Zm-1.469-.9-.36-1.027,1.027-.359.36,1.027Zm-.233.081-1.027.36-.36-1.027,1.027-.36Zm-1.26.442-1.027.36-.36-1.027,1.027-.36Zm-1.259.442-1.027.36-.36-1.027,1.027-.36Zm-1.26.442-1.027.36-.36-1.027,1.027-.36Zm-1.26.442-1.027.359-.36-1.027,1.027-.36Zm.081.232.36,1.027-1.027.36-.36-1.027Zm-.9,1.469-1.027.36-.36-1.027,1.027-.36Zm.081.233.36,1.027-1.027.36-.36-1.027Zm.442,1.26.36,1.027-1.027.359-.36-1.027Zm-.9,1.468-1.027.36-.36-1.027,1.027-.36Zm.081.233.36,1.027-1.027.36-.36-1.027Zm.442,1.26.36,1.027-1.027.36-.36-1.027Zm.442,1.26.36,1.027-1.028.359-.359-1.027Zm.441,1.259.36,1.027-1.027.36-.36-1.027Zm.442,1.26.36,1.027-1.027.36-.36-1.027Zm.442,1.26.36,1.027-1.027.36-.36-1.027Zm.442,1.26.36,1.027-1.027.36-.36-1.028Zm.233-.081,1.027-.36.36,1.027-1.027.36Zm1.469.9.359,1.027-1.027.36-.359-1.027Zm.441,1.259.36,1.027-1.027.36-.36-1.027Zm.233-.081,1.027-.36.36,1.028-1.027.359Zm1.469.9.36,1.027-1.027.36-.36-1.027Zm.233-.081,1.027-.359.359,1.027-1.027.359Zm1.259-.441,1.027-.36.36,1.027-1.027.36Zm1.26-.442,1.027-.36.36,1.027-1.027.36Zm1.26-.442,1.027-.36.36,1.027-1.027.36Zm1.26-.442,1.027-.36.36,1.027-1.027.36Zm-.081-.233-.36-1.027,1.027-.36.359,1.028Zm.9-1.468,1.028-.361.359,1.028-1.027.36Zm-.081-.233-.359-1.027,1.027-.36.36,1.027Zm3.106-2.5-1.027.359-.36-1.027,1.027-.359Zm-.442-1.26-1.027.36-.359-1.028,1.027-.359Zm-.442-1.26-1.027.36-.36-1.027,1.027-.36Zm-.441-1.26-1.027.36-.36-1.027,1.027-.36Zm-.442-1.259-1.027.359-.36-1.027,1.027-.359ZM992-237.5l-1.027.359-.36-1.027,1.027-.36Zm-.442-1.26-1.027.36-.359-1.027,1.027-.36Zm-.8-2.288.36,1.027-1.027.36-.36-1.027Zm-1.341.209-1.027.36-.36-1.027,1.027-.359Zm-.8-2.287.36,1.027-1.027.359-.359-1.027Zm-1.7-.819.36,1.027-1.028.36-.359-1.028Zm-1.7-.819.36,1.027-1.027.359-.36-1.027Zm-1.259.442.359,1.027-1.027.36-.36-1.027Zm-1.26.442.359,1.027-1.027.36-.36-1.027Zm-1.26.441.36,1.027-1.027.36-.36-1.027Zm-1.26.442.36,1.027-1.027.36-.36-1.027Zm-2.287.8,1.027-.36.36,1.027-1.027.36Zm-.819,1.7,1.028-.36.359,1.027-1.027.36Zm-.818,1.7,1.027-.36.359,1.027-1.027.36Zm.441,1.26,1.028-.36.359,1.027-1.027.359Zm-.818,1.7,1.027-.36.36,1.027-1.027.36Zm.441,1.26,1.027-.36.36,1.027-1.027.36Zm.442,1.26,1.027-.36.36,1.027-1.027.359Zm.441,1.259,1.027-.36.36,1.028-1.027.359Zm.442,1.26,1.027-.36.359,1.027-1.027.36Zm.442,1.26,1.027-.36.359,1.027-1.027.36Zm.441,1.259,1.027-.359.36,1.027-1.027.359Zm.8,2.288-.36-1.027,1.027-.359.36,1.027Zm1.342-.209,1.027-.359.359,1.027-1.027.36Zm.8,2.288-.36-1.027,1.028-.36.359,1.027Zm1.7.819-.36-1.027,1.027-.36.36,1.027Zm1.7.819-.36-1.027,1.027-.36.359,1.027Zm1.259-.442-.36-1.027,1.027-.36.36,1.027Zm1.26-.442-.36-1.027,1.027-.359.36,1.027Zm1.26-.442-.36-1.027,1.027-.359.36,1.027Zm1.259-.441-.359-1.027,1.027-.36.359,1.027Zm2.288-.8-1.027.36-.359-1.027,1.027-.36Zm.819-1.7-1.027.359-.36-1.027,1.028-.36Zm.819-1.7-1.027.36-.359-1.027,1.027-.36Z" transform="translate(-929.164 245.649)" fill="#e4e4e0"/>
        <path id="Path_179740" data-name="Path 179740" d="M1001.327-187.105l1.163-.407,1.163-.407L998.336-203.1l-2.326.815Z" transform="translate(-933.779 236.218)" fill="#595959"/>
        <path id="Path_179741" data-name="Path 179741" d="M994.633-220.382a7.64,7.64,0,0,1-1.332,1.488l-.182.157a7.643,7.643,0,0,1-5.25,1.839l-.241-.009a7.644,7.644,0,0,1-1.969-.331l-2.68-.822,5.166,3.919a13.239,13.239,0,0,1,4.492,6.168l.455,1.3,2.326-.815-.456-1.3a13.236,13.236,0,0,1-.339-7.623l1.592-6.285Zm-1.443,3.608a14.656,14.656,0,0,0-.279,5.856,14.679,14.679,0,0,0-3.873-4.4l-.165-.125a9.064,9.064,0,0,0,2.282-.483,9.083,9.083,0,0,0,2.085-1.046Z" transform="translate(-930.86 240.609)" fill="#797979"/>
        <path id="Path_179742" data-name="Path 179742" d="M980.848-245.342c-5.075,1.778-7.355,8.452-5.094,14.907s8.208,10.248,13.283,8.47,7.355-8.452,5.094-14.907S985.923-247.119,980.848-245.342Zm7.864,22.447c-4.554,1.6-9.949-1.933-12.027-7.865s-.064-12.056,4.489-13.651,9.949,1.933,12.027,7.865S993.265-224.489,988.712-222.895Z" transform="translate(-929.046 245.78)" fill="#838483"/>
        <path id="Path_179743" data-name="Path 179743" d="M953.576-188.277h0a4.6,4.6,0,0,1,6.166-1.777l12.978,6.93,13.227-11.092,1.273-4.724.822,1.491,3.038-1.858a1.093,1.093,0,0,1,1.512.376h0a1.093,1.093,0,0,1-.013,1.136l-.387.621.514,2.946a1.478,1.478,0,0,1-1.023,1.668l-3.435,1.055-11.011,13.666a4.929,4.929,0,0,1-5.654,1.49l-12.645-5.009c.244,7.134-3.683,1.249-5.524-2.662A4.612,4.612,0,0,1,953.576-188.277Z" transform="translate(-924.138 235.405)" fill="#999"/>
        <path id="Path_179744" data-name="Path 179744" d="M959.749-176.465l-3.158-1.16C958.07-174.066,959.118-173.333,959.749-176.465Z" transform="translate(-924.949 230.512)" fill="#858585"/>
        <g id="Group_117387" data-name="Group 117387" transform="translate(31.519 52.764)">
          <path id="Path_179745" data-name="Path 179745" d="M964.106-174.637a.127.127,0,0,1-.044-.008l-7.55-2.9a.124.124,0,0,1-.071-.159.123.123,0,0,1,.16-.071l7.55,2.9a.123.123,0,0,1,.071.159A.122.122,0,0,1,964.106-174.637Z" transform="translate(-956.433 177.784)" fill="#5b5b5b"/>
        </g>
        <path id="Path_179746" data-name="Path 179746" d="M924.166-167.594a4.176,4.176,0,0,1-4.176,4.176,4.177,4.177,0,0,1-4.176-4.176,4.176,4.176,0,0,1,4.176-4.176A4.175,4.175,0,0,1,924.166-167.594Z" transform="translate(-915.814 229.2)" fill="#878787"/>
        <g id="Group_117388" data-name="Group 117388" transform="translate(0.592 57.509)">
          <path id="Path_179747" data-name="Path 179747" d="M916.582-168.574a4.212,4.212,0,0,0,.7,2.262,2.631,2.631,0,0,0,2.075,1.152h0a1.943,1.943,0,0,0,1.888-1.41,3.169,3.169,0,0,0-.123-1.492c-.03-.121-.059-.241-.085-.362a5.419,5.419,0,0,1,.282-3.156c-.12-.035-.241-.065-.365-.089a5.8,5.8,0,0,0-.279,3.322c.026.123.057.248.088.373a2.86,2.86,0,0,1,.122,1.319,1.586,1.586,0,0,1-1.529,1.125h0a2.258,2.258,0,0,1-1.774-1,3.845,3.845,0,0,1-.631-2.064,9.761,9.761,0,0,1,.124-1.789,4.129,4.129,0,0,0-.445.584A8.327,8.327,0,0,0,916.582-168.574Z" transform="translate(-916.576 171.669)" fill="#d9d9d9"/>
        </g>
      </g>
    </g>
  </g>
</svg>
