<svg xmlns="http://www.w3.org/2000/svg" width="2526.537" height="703.896" viewBox="0 0 2526.537 703.896">
  <g id="b4-h" transform="translate(10381 10043.896)">
    <path id="Path_180072" data-name="Path 180072" d="M-73.516-4.333a4.673,4.673,0,0,1-.721,2.36,4.35,4.35,0,0,1-1.85,1.586,6.3,6.3,0,0,1-2.72.563A5.025,5.025,0,0,1-82.78-1.468a6.786,6.786,0,0,1-1.45-4.641v-.633a7.746,7.746,0,0,1,.655-3.292,4.961,4.961,0,0,1,1.885-2.18,5.26,5.26,0,0,1,2.848-.769A5.516,5.516,0,0,1-75.1-11.755,4.844,4.844,0,0,1-73.49-8.376h-3.076a2.292,2.292,0,0,0-.589-1.679,2.422,2.422,0,0,0-1.687-.51A1.843,1.843,0,0,0-80.53-9.7a5.536,5.536,0,0,0-.562,2.751v.905a6.126,6.126,0,0,0,.514,2.927,1.882,1.882,0,0,0,1.771.879,2.369,2.369,0,0,0,1.626-.5,2.126,2.126,0,0,0,.6-1.591Zm.949-.51a5.613,5.613,0,0,1,.554-2.536,3.96,3.96,0,0,1,1.591-1.709,4.791,4.791,0,0,1,2.435-.6,4.373,4.373,0,0,1,3.366,1.323,5.076,5.076,0,0,1,1.23,3.6v.105a4.925,4.925,0,0,1-1.235,3.529A4.384,4.384,0,0,1-67.97.176a4.434,4.434,0,0,1-3.261-1.217,4.761,4.761,0,0,1-1.327-3.3Zm2.962.185a3.538,3.538,0,0,0,.413,1.934,1.376,1.376,0,0,0,1.222.615q1.582,0,1.617-2.435v-.3q0-2.558-1.635-2.558-1.485,0-1.608,2.206ZM-59.366-9.51l.1,1.116a3.225,3.225,0,0,1,2.716-1.292,2.713,2.713,0,0,1,2.219.888,4.226,4.226,0,0,1,.76,2.672V0h-2.971V-6a1.6,1.6,0,0,0-.29-1.059A1.342,1.342,0,0,0-57.889-7.4a1.413,1.413,0,0,0-1.292.686V0h-2.962V-9.51Zm11.452,7.4a1.317,1.317,0,0,0,.967-.338,1.241,1.241,0,0,0,.334-.945h2.777A3.288,3.288,0,0,1-44.956-.826a4.168,4.168,0,0,1-2.887,1,4.22,4.22,0,0,1-3.27-1.3,5.125,5.125,0,0,1-1.2-3.6v-.123A5.792,5.792,0,0,1-51.776-7.4a3.872,3.872,0,0,1,1.534-1.7,4.573,4.573,0,0,1,2.373-.593,4.116,4.116,0,0,1,2.944,1.028,3.647,3.647,0,0,1,1.09,2.786h-2.777A1.626,1.626,0,0,0-46.973-7a1.244,1.244,0,0,0-.967-.4q-1.151,0-1.345,1.468a10.357,10.357,0,0,0-.062,1.283A4.068,4.068,0,0,0-49-2.663,1.187,1.187,0,0,0-47.914-2.109ZM-37.982.176a4.889,4.889,0,0,1-3.542-1.305,4.507,4.507,0,0,1-1.354-3.4v-.246a5.84,5.84,0,0,1,.541-2.575,3.955,3.955,0,0,1,1.578-1.727A4.763,4.763,0,0,1-38.3-9.686a4.117,4.117,0,0,1,3.164,1.244,4.887,4.887,0,0,1,1.16,3.467v1.151h-5.889a2.135,2.135,0,0,0,.694,1.257,2.066,2.066,0,0,0,1.389.457,2.662,2.662,0,0,0,2.2-.984l1.354,1.6A3.784,3.784,0,0,1-35.8-.277,5.3,5.3,0,0,1-37.982.176ZM-38.316-7.4q-1.3,0-1.547,1.723h2.988v-.229a1.467,1.467,0,0,0-.36-1.1A1.434,1.434,0,0,0-38.316-7.4Zm14.361,2.716a5.735,5.735,0,0,1-1,3.538A3.2,3.2,0,0,1-27.646.176,2.742,2.742,0,0,1-29.8-.782V3.656h-2.962V-9.51h2.769l.088.879a2.742,2.742,0,0,1,2.241-1.055,3.224,3.224,0,0,1,2.733,1.3,5.805,5.805,0,0,1,.976,3.564Zm-2.962-.185q0-2.531-1.477-2.531a1.394,1.394,0,0,0-1.406.756V-2.9a1.439,1.439,0,0,0,1.424.791q1.415,0,1.459-2.443Zm7.717-7V-9.51h1.564v2.057H-19.2V-3.1a1.111,1.111,0,0,0,.193.747,1.037,1.037,0,0,0,.765.211A4.345,4.345,0,0,0-17.5-2.2V-.079a5.466,5.466,0,0,1-1.67.255,3.1,3.1,0,0,1-2.259-.721,2.954,2.954,0,0,1-.729-2.188v-4.72h-1.213V-9.51h1.213v-2.364Zm2.092,7.031a5.613,5.613,0,0,1,.554-2.536,3.96,3.96,0,0,1,1.591-1.709,4.791,4.791,0,0,1,2.435-.6A4.373,4.373,0,0,1-9.163-8.363a5.076,5.076,0,0,1,1.23,3.6v.105A4.925,4.925,0,0,1-9.167-1.129,4.384,4.384,0,0,1-12.511.176a4.434,4.434,0,0,1-3.261-1.217,4.761,4.761,0,0,1-1.327-3.3Zm2.962.185a3.538,3.538,0,0,0,.413,1.934,1.376,1.376,0,0,0,1.222.615q1.582,0,1.617-2.435v-.3q0-2.558-1.635-2.558-1.485,0-1.608,2.206Zm11.628-.167a5.809,5.809,0,0,1,.976-3.56,3.211,3.211,0,0,1,2.725-1.3,2.731,2.731,0,0,1,2.145,1V-13.5H6.3V0H3.634L3.485-1.02a2.8,2.8,0,0,1-2.32,1.2,3.205,3.205,0,0,1-2.689-1.3A5.993,5.993,0,0,1-2.518-4.825Zm2.962.185q0,2.531,1.477,2.531a1.458,1.458,0,0,0,1.406-.826V-6.557A1.419,1.419,0,0,0,1.938-7.4Q.567-7.4.453-5.186ZM12.582.176A4.889,4.889,0,0,1,9.04-1.129a4.507,4.507,0,0,1-1.354-3.4v-.246a5.84,5.84,0,0,1,.541-2.575A3.955,3.955,0,0,1,9.8-9.075a4.763,4.763,0,0,1,2.461-.611,4.117,4.117,0,0,1,3.164,1.244,4.887,4.887,0,0,1,1.16,3.467v1.151H10.7A2.135,2.135,0,0,0,11.4-2.566a2.066,2.066,0,0,0,1.389.457,2.662,2.662,0,0,0,2.2-.984l1.354,1.6A3.784,3.784,0,0,1,14.766-.277,5.3,5.3,0,0,1,12.582.176ZM12.248-7.4q-1.3,0-1.547,1.723h2.988v-.229a1.467,1.467,0,0,0-.36-1.1A1.434,1.434,0,0,0,12.248-7.4Zm9.642,2.575a5.809,5.809,0,0,1,.976-3.56,3.211,3.211,0,0,1,2.725-1.3,2.731,2.731,0,0,1,2.145,1V-13.5H30.7V0H28.042l-.149-1.02a2.8,2.8,0,0,1-2.32,1.2,3.205,3.205,0,0,1-2.689-1.3A5.993,5.993,0,0,1,21.889-4.825Zm2.962.185q0,2.531,1.477,2.531a1.458,1.458,0,0,0,1.406-.826V-6.557A1.419,1.419,0,0,0,26.345-7.4q-1.371,0-1.485,2.215ZM36.989.176a4.889,4.889,0,0,1-3.542-1.305,4.507,4.507,0,0,1-1.354-3.4v-.246a5.84,5.84,0,0,1,.541-2.575,3.955,3.955,0,0,1,1.578-1.727,4.763,4.763,0,0,1,2.461-.611,4.117,4.117,0,0,1,3.164,1.244A4.887,4.887,0,0,1,41-4.975v1.151H35.108A2.135,2.135,0,0,0,35.8-2.566a2.066,2.066,0,0,0,1.389.457,2.662,2.662,0,0,0,2.2-.984l1.354,1.6A3.784,3.784,0,0,1,39.173-.277,5.3,5.3,0,0,1,36.989.176ZM36.655-7.4q-1.3,0-1.547,1.723H38.1v-.229a1.467,1.467,0,0,0-.36-1.1A1.434,1.434,0,0,0,36.655-7.4ZM51.016-4.685a5.735,5.735,0,0,1-1,3.538A3.2,3.2,0,0,1,47.325.176a2.742,2.742,0,0,1-2.153-.958V3.656H42.209V-9.51h2.769l.088.879a2.742,2.742,0,0,1,2.241-1.055,3.224,3.224,0,0,1,2.733,1.3,5.805,5.805,0,0,1,.976,3.564Zm-2.962-.185q0-2.531-1.477-2.531a1.394,1.394,0,0,0-1.406.756V-2.9a1.439,1.439,0,0,0,1.424.791q1.415,0,1.459-2.443Zm3.894.026A5.613,5.613,0,0,1,52.5-7.378a3.96,3.96,0,0,1,1.591-1.709,4.791,4.791,0,0,1,2.435-.6,4.373,4.373,0,0,1,3.366,1.323,5.076,5.076,0,0,1,1.23,3.6v.105a4.925,4.925,0,0,1-1.235,3.529A4.384,4.384,0,0,1,56.544.176a4.434,4.434,0,0,1-3.261-1.217,4.761,4.761,0,0,1-1.327-3.3Zm2.962.185a3.538,3.538,0,0,0,.413,1.934,1.376,1.376,0,0,0,1.222.615q1.582,0,1.617-2.435v-.3q0-2.558-1.635-2.558-1.485,0-1.608,2.206ZM68.181-6.829l-.976-.07a1.752,1.752,0,0,0-1.793.879V0H62.451V-9.51h2.777l.1,1.222a2.294,2.294,0,0,1,2.083-1.4,2.888,2.888,0,0,1,.826.105Zm4.957-5.045V-9.51H74.7v2.057H73.138V-3.1a1.111,1.111,0,0,0,.193.747,1.037,1.037,0,0,0,.765.211,4.345,4.345,0,0,0,.738-.053V-.079a5.466,5.466,0,0,1-1.67.255,3.1,3.1,0,0,1-2.259-.721,2.954,2.954,0,0,1-.729-2.188v-4.72H68.963V-9.51h1.213v-2.364ZM80.468.176a4.889,4.889,0,0,1-3.542-1.305,4.507,4.507,0,0,1-1.354-3.4v-.246a5.84,5.84,0,0,1,.541-2.575,3.955,3.955,0,0,1,1.578-1.727,4.763,4.763,0,0,1,2.461-.611,4.117,4.117,0,0,1,3.164,1.244,4.887,4.887,0,0,1,1.16,3.467v1.151H78.587a2.135,2.135,0,0,0,.694,1.257,2.066,2.066,0,0,0,1.389.457,2.662,2.662,0,0,0,2.2-.984l1.354,1.6A3.784,3.784,0,0,1,82.652-.277,5.3,5.3,0,0,1,80.468.176ZM80.134-7.4q-1.3,0-1.547,1.723h2.988v-.229a1.467,1.467,0,0,0-.36-1.1A1.434,1.434,0,0,0,80.134-7.4Z" transform="translate(-10233 -9355)" fill="#12263f"/>
    <path id="Rectangle_36815" data-name="Rectangle 36815" d="M12,3a9.01,9.01,0,0,0-9,9V188a9.01,9.01,0,0,0,9,9H283a9.01,9.01,0,0,0,9-9V12a9.01,9.01,0,0,0-9-9H12m0-3H283a12,12,0,0,1,12,12V188a12,12,0,0,1-12,12H12A12,12,0,0,1,0,188V12A12,12,0,0,1,12,0Z" transform="translate(-10381 -9540)" fill="#fe502d"/>
    <path id="Path_179966" data-name="Path 179966" d="M-2433.591,625.606c-12.178-3.793-20.625-15.96-24.211-28.2a76.682,76.682,0,0,1,2.413-49.7,76.678,76.678,0,0,1,32.643-37.557c4.659-2.679,10.732-4.794,15.147-1.731,3.385,2.347,4.449,6.905,7.344,9.835,5.273,5.337,14.567,3.375,20.557-1.142s10.3-11.026,16.494-15.26c11-7.519,27.319-5.876,36.6,3.683s10.435,25.922,2.592,36.691c-3.358,4.609-8.183,8.378-9.879,13.822-1.8,5.776.427,12.1,3.774,17.137s7.782,9.28,11.151,14.3c7.341,10.949,8.065,25.8,3.383,38.12Z" transform="translate(-7845.04 -10016.271)" fill="#fff"/>
    <path id="Path_179967" data-name="Path 179967" d="M-2369.9,506.693c-3.955.656-8.39-1.055-10.3-4.582-1.841-3.406-1.031-7.781,1.144-10.983s5.5-5.429,8.884-7.313c3.2-1.784,7.135-3.345,10.42-1.714,3.045,1.513,4.317,5.368,3.854,8.735C-2356.829,497.631-2362.878,505.528-2369.9,506.693Z" transform="translate(-7862.89 -10012.748)" fill="#fff"/>
    <path id="Path_179968" data-name="Path 179968" d="M-2439.048,508.44c-.972,1.463-1.743,3.261-1.244,4.945.641,2.161,3.211,3.259,5.448,3s4.213-1.529,6.1-2.766a18.7,18.7,0,0,0,4.138-3.318c2.65-3.116,2.028-9.009-2.814-9.213C-2431.978,500.9-2436.693,504.9-2439.048,508.44Z" transform="translate(-7849.609 -10017.157)" fill="#fff"/>
    <path id="Path_179969" data-name="Path 179969" d="M-2309.2,662.738h-128.074l-17.814,12.332h128.075Z" transform="translate(-7846.327 -10053.403)" fill="#2e54fc"/>
    <path id="Path_179970" data-name="Path 179970" d="M-2343.789,629.758a7.464,7.464,0,0,0-.415-3.467,27.306,27.306,0,0,0-10.948-3.609l-20.67-23.007a43.144,43.144,0,0,0-12.074-9.384l-21.618,2.438-27.262,12.179a8.265,8.265,0,0,0-4.434,10.267l2.955,8.476a44.711,44.711,0,0,0,11.57-2.815,18.382,18.382,0,0,0-1.805-5.766l24.3-7.848a14.928,14.928,0,0,1,5.224-.709h0a14.928,14.928,0,0,1,8.55,3.148l20.182,15.762a56.692,56.692,0,0,0,13.36,7.763l7.846,3.223a8.664,8.664,0,0,0,2.943-1.947A8.176,8.176,0,0,0-2343.789,629.758Z" transform="translate(-7849.335 -10037.16)" fill="#fc502e"/>
    <path id="Path_179971" data-name="Path 179971" d="M-2431.724,650.874a6.857,6.857,0,0,1-2.088,7.52,6.881,6.881,0,0,1-1.933,1.121l-2.408.949-2.837-.443a2.323,2.323,0,0,0,.508,2.471,2.288,2.288,0,0,0,2.479.347,4.935,4.935,0,0,0,4.594.818l8.934-2.922a2.681,2.681,0,0,0,1.342-4.116l-2.748-3.815c-1.509-9.869.255-16.787-.685-23.138a44.7,44.7,0,0,1-11.57,2.815Z" transform="translate(-7849.454 -10045.988)" fill="#ffc9ac"/>
    <path id="Path_179972" data-name="Path 179972" d="M-2296.347,650.8l-5.167-2.206c-4-1.692-8.8-7.835-15.917-11.9a7.464,7.464,0,0,1,.416,3.467,8.179,8.179,0,0,1-2.3,4.7,8.667,8.667,0,0,1-2.943,1.947l20.585,8.457v6.888h-4.08a2.428,2.428,0,0,0,.784,2.135,1.834,1.834,0,0,0,1.956.065c-.07.353-.185.73-.254,1.084,1.63-.111,3.285-.151,4.934-.208a3.146,3.146,0,0,0,3.023-2.793c.278-2.608.972-5.038,1.281-7.633A3.865,3.865,0,0,0-2296.347,650.8Z" transform="translate(-7876.109 -10047.564)" fill="#ffc9ac"/>
    <path id="Path_179973" data-name="Path 179973" d="M-2405.446,608.592l4.98,2.239h-.921a16.778,16.778,0,0,0-7.669,1.856l-9.745,5.011h0l19.734-6.375a14.932,14.932,0,0,1,5.224-.709,14.853,14.853,0,0,1,1.977.226l-.005-.008A40.991,40.991,0,0,0-2405.446,608.592Z" transform="translate(-7854.464 -10041.261)" fill="#bd3c23"/>
    <path id="Path_179974" data-name="Path 179974" d="M-2418.8,620.333" transform="translate(-7854.463 -10043.896)" fill="#fff"/>
    <path id="Path_179974_-_Outline" data-name="Path 179974 - Outline" transform="translate(-7854.463 -10043.896)" fill="#1c1c1b"/>
    <path id="Path_179975" data-name="Path 179975" d="M-2388.057,610.95a.144.144,0,0,1-.083-.025,41.277,41.277,0,0,0-13.483-2.22.158.158,0,0,1-.168-.151.16.16,0,0,1,.15-.168,41.564,41.564,0,0,1,13.633,2.247.154.154,0,0,1,.085.065.162.162,0,0,1-.044.223A.165.165,0,0,1-2388.057,610.95Z" transform="translate(-7858.277 -10041.215)" fill="#00213e"/>
    <path id="Path_179976" data-name="Path 179976" d="M-2425.535,620.911a.16.16,0,0,1-.148-.1c-1.544-3.757-2.75-4.9-2.761-4.905a.158.158,0,0,1-.009-.225.159.159,0,0,1,.223-.01c.051.047,1.263,1.181,2.841,5.019a.16.16,0,0,1-.087.208A.161.161,0,0,1-2425.535,620.911Z" transform="translate(-7852.29 -10042.842)" fill="#00213e"/>
    <path id="Path_179977" data-name="Path 179977" d="M-2436.671,630.569a.159.159,0,0,1-.158-.141.158.158,0,0,1,.14-.175,27.561,27.561,0,0,0,9.245-2.729.161.161,0,0,1,.213.071.159.159,0,0,1-.072.213,27.865,27.865,0,0,1-9.351,2.76Z" transform="translate(-7850.421 -10045.505)" fill="#00213e"/>
    <path id="Path_179978" data-name="Path 179978" d="M-2323.544,645.248a.158.158,0,0,1-.143-.091.159.159,0,0,1,.076-.212,6.881,6.881,0,0,0,3.238-3.216,6.881,6.881,0,0,0,.464-4.539.159.159,0,0,1,.116-.192.161.161,0,0,1,.194.116,7.114,7.114,0,0,1-.487,4.752,7.111,7.111,0,0,1-3.389,3.366A.163.163,0,0,1-2323.544,645.248Z" transform="translate(-7875.786 -10047.632)" fill="#00213e"/>
    <path id="Path_179979" data-name="Path 179979" d="M-2325.246,644.543a.159.159,0,0,1-.142-.088.158.158,0,0,1,.072-.213,6.255,6.255,0,0,0,3.411-5.107.148.148,0,0,1,.169-.148.158.158,0,0,1,.147.169,6.571,6.571,0,0,1-3.586,5.37A.155.155,0,0,1-2325.246,644.543Z" transform="translate(-7875.404 -10048.078)" fill="#00213e"/>
    <path id="Path_179980" data-name="Path 179980" d="M-2422.617,665.133a.154.154,0,0,1-.073-.018.159.159,0,0,1-.068-.214,3.633,3.633,0,0,0-.015-3.345,7.347,7.347,0,0,0-.514-.789c-.133-.188-.268-.378-.39-.574a2.56,2.56,0,0,1-.461-1.659.159.159,0,0,1,.177-.137.159.159,0,0,1,.137.178,2.262,2.262,0,0,0,.418,1.45c.117.191.248.374.378.557a7.622,7.622,0,0,1,.534.825,3.954,3.954,0,0,1,.018,3.641A.159.159,0,0,1-2422.617,665.133Z" transform="translate(-7853.263 -10052.43)" fill="#00213e"/>
    <path id="Path_179981" data-name="Path 179981" d="M-2290.985,657.319a.157.157,0,0,1-.148-.1c-.212-.558-.48-1.17-1-1.359a2.059,2.059,0,0,0-.6-.088l-2.174-.11a.159.159,0,0,1-.151-.167.164.164,0,0,1,.168-.151l2.174.11a2.362,2.362,0,0,1,.691.107,2.355,2.355,0,0,1,1.19,1.547.158.158,0,0,1-.092.2A.154.154,0,0,1-2290.985,657.319Z" transform="translate(-7882.207 -10051.745)" fill="#00213e"/>
    <path id="Path_179982" data-name="Path 179982" d="M-2460.968,554.857a3.416,3.416,0,0,1,2.37-.163l4.719,1.39,11.6-2.617a19.507,19.507,0,0,1,8.944.083l4.28,1.051,9.2-3.633a20.406,20.406,0,0,1,12.138-.8l2.819.613-6.172,9.644h-42.918l-1.295.961a7.424,7.424,0,0,1-5.838,1.328l-2.245-.435a1.744,1.744,0,0,1,1.789-1.748,7.344,7.344,0,0,0,4.357-1.061l-4.133-1.271-4.834.673a1.107,1.107,0,0,1-1.26-1.1Z" transform="translate(-7843.557 -10028.038)" fill="#ffc9ac"/>
    <path id="Path_179983" data-name="Path 179983" d="M-2401.852,562.2h-24.492l27.509-4.713Z" transform="translate(-7852.772 -10029.804)" fill="#ffa68d"/>
    <path id="Path_179984" data-name="Path 179984" d="M-2378.034,556.189l.915-3.892h-3.447l-.9,2.418a5.086,5.086,0,0,1-4.764,3.3h-4.178a2.543,2.543,0,0,1-2.321-3.584l1.577-3.515-2.092-.583-5.591,7.375a18.94,18.94,0,0,1-1.917,2.165h0a7.145,7.145,0,0,0-1.131,8.846,65.761,65.761,0,0,0,1.06,15.048c8.795,5.828,21.618-2.438,21.618-2.438v-6.57l5.513-7.5-1.285-1.178A10.245,10.245,0,0,1-2378.034,556.189Z" transform="translate(-7858.022 -10028.201)" fill="#2e54fc"/>
    <path id="Path_179985" data-name="Path 179985" d="M-2387.532,556.146h4.178a5.086,5.086,0,0,0,4.764-3.3l.9-2.418h-1.689l.5-5.325-7.143-3.119-1.122,7.384-1.138-.317-1.577,3.515A2.543,2.543,0,0,0-2387.532,556.146Z" transform="translate(-7860.903 -10026.328)" fill="#ffc9ac"/>
    <path id="Path_179986" data-name="Path 179986" d="M-2312.761,556.58a3.416,3.416,0,0,0-2.37-.163l-4.719,1.39-11.6-2.618a19.507,19.507,0,0,0-8.944.083l-4.281,1.051-9.2-3.633a20.182,20.182,0,0,0-12.066-.867l-2.892.684H-2370l-.915,3.892a10.244,10.244,0,0,0,3.053,9.9l1.285,1.178,3.918-5.326h42.918l1.294.961a7.425,7.425,0,0,0,5.839,1.328l2.246-.435a1.744,1.744,0,0,0-1.79-1.748,7.346,7.346,0,0,1-4.357-1.06l4.133-1.272,4.834.672a1.107,1.107,0,0,0,1.259-1.1Z" transform="translate(-7865.139 -10028.413)" fill="#ffc9ac"/>
    <path id="Path_179987" data-name="Path 179987" d="M-2378.256,550.794c-3.578,0-6.743-5.347-6.836-7.164l7.174,3.582Z" transform="translate(-7862.021 -10026.697)" fill="#47284f"/>
    <path id="Path_179988" data-name="Path 179988" d="M-2363.706,567.565c-2.063-1.884-1.557-6.415-1.557-6.415,12.13-.476,27.841,3.206,27.841,3.206h-23.924Z" transform="translate(-7866.455 -10030.616)" fill="#ffa68d"/>
    <path id="Path_179989" data-name="Path 179989" d="M-2398.57,573.863q-.757,0-1.513-.067a.159.159,0,0,1-.144-.172.151.151,0,0,1,.173-.144,17.075,17.075,0,0,0,8.037-1.242.158.158,0,0,1,.208.085.159.159,0,0,1-.085.207A17.4,17.4,0,0,1-2398.57,573.863Z" transform="translate(-7858.628 -10033.109)" fill="#47284f"/>
    <path id="Path_179990" data-name="Path 179990" d="M-2378.663,575.948a10.158,10.158,0,0,1-2-.2,10.27,10.27,0,0,1-5.563-3.171.159.159,0,0,1,.011-.224.158.158,0,0,1,.224.012,9.956,9.956,0,0,0,5.39,3.072,9.957,9.957,0,0,0,6.159-.744.16.16,0,0,1,.211.076.159.159,0,0,1-.076.212A10.272,10.272,0,0,1-2378.663,575.948Z" transform="translate(-7861.758 -10033.129)" fill="#47284f"/>
    <path id="Path_179991" data-name="Path 179991" d="M-2390.372,592.94a18.843,18.843,0,0,1-6.606-1.173.159.159,0,0,1-.093-.2.159.159,0,0,1,.2-.093,19.113,19.113,0,0,0,16.221-1.484.157.157,0,0,1,.218.054.159.159,0,0,1-.055.218A19.3,19.3,0,0,1-2390.372,592.94Z" transform="translate(-7859.333 -10037.086)" fill="#47284f"/>
    <path id="Path_179992" data-name="Path 179992" d="M-2388.147,591.735a13.233,13.233,0,0,1-3-.343.158.158,0,0,1-.118-.191.158.158,0,0,1,.191-.119,13.016,13.016,0,0,0,8.633-.981.158.158,0,0,1,.213.073.159.159,0,0,1-.074.213A13.327,13.327,0,0,1-2388.147,591.735Z" transform="translate(-7860.637 -10037.113)" fill="#47284f"/>
    <path id="Path_179993" data-name="Path 179993" d="M-2382.439,522.517a6.04,6.04,0,0,0-2.259-5.367,6.041,6.041,0,0,0-5.761-.842,7.6,7.6,0,0,0-4.169,4.587,16.019,16.019,0,0,0-.705,6.309,19.068,19.068,0,0,1-.168,6.06c-.541,1.957-2.169,3.8-4.2,3.811a8.164,8.164,0,0,0,8.447.947,13.615,13.615,0,0,0,6.157-6.365A28.5,28.5,0,0,0-2382.439,522.517Z" transform="translate(-7858.746 -10020.485)" fill="#00213e"/>
    <path id="Path_179994" data-name="Path 179994" d="M-2372.44,529.807c1.672-3.474.161-6.653-7.39-6.653s-15.322,4.827-7.1,15.885C-2377.842,538.732-2372.44,529.807-2372.44,529.807Z" transform="translate(-7860.819 -10022.106)" fill="#00325e"/>
    <path id="Path_179995" data-name="Path 179995" d="M-2387.756,539.7a3.05,3.05,0,0,0-2.055-1.021,2.064,2.064,0,0,0-1.266.279,1.789,1.789,0,0,0-.764,1.257,2.445,2.445,0,0,0,.292,1.465,3.075,3.075,0,0,0,3,1.569,1.956,1.956,0,0,0,.968-.359C-2386.566,542.107-2387.045,540.515-2387.756,539.7Z" transform="translate(-7860.504 -10025.586)" fill="#ffc9ac"/>
    <path id="Path_179996" data-name="Path 179996" d="M-2388.07,542.371a.456.456,0,0,0,.112-.06.334.334,0,0,0,.131-.27,1.9,1.9,0,0,0-.466-1.241,1.894,1.894,0,0,0-1.265-.629,1.13,1.13,0,0,0-.47.053.457.457,0,0,0-.085.044.647.647,0,0,0-.246.441,1.292,1.292,0,0,0,.167.764,1.928,1.928,0,0,0,1.839.963A1.177,1.177,0,0,0-2388.07,542.371Z" transform="translate(-7860.839 -10025.921)" fill="#ffa68d"/>
    <path id="Path_179997" data-name="Path 179997" d="M-2381.833,531.359a6.079,6.079,0,0,1-2.828,5.973,4.983,4.983,0,0,1-.908,3.075,4.8,4.8,0,0,1-.348.411,9.587,9.587,0,0,0,2.423,3.119l1.344,1.128a5.683,5.683,0,0,0,3.65,1.327,5.677,5.677,0,0,0,3.673-1.348,9.64,9.64,0,0,0,3.328-6.122l.471-3.669a7.988,7.988,0,0,0-.4-3.667A36.369,36.369,0,0,0-2381.833,531.359Z" transform="translate(-7861.836 -10023.886)" fill="#ffc9ac"/>
  </g>
</svg>
