<svg xmlns="http://www.w3.org/2000/svg" width="919.793" height="229.159" viewBox="0 0 919.793 229.159">
  <g id="b4" transform="translate(12134.793 9540)">
    <path id="Rectangle_36702" data-name="Rectangle 36702" d="M12,1A11,11,0,0,0,1,12V188a11,11,0,0,0,11,11H283a11,11,0,0,0,11-11V12A11,11,0,0,0,283,1H12m0-1H283a12,12,0,0,1,12,12V188a12,12,0,0,1-12,12H12A12,12,0,0,1,0,188V12A12,12,0,0,1,12,0Z" transform="translate(-11510 -9540)" fill="#ffe891"/>
    <path id="Path_180076" data-name="Path 180076" d="M-73.516-4.333a4.673,4.673,0,0,1-.721,2.36,4.35,4.35,0,0,1-1.85,1.586,6.3,6.3,0,0,1-2.72.563A5.025,5.025,0,0,1-82.78-1.468a6.786,6.786,0,0,1-1.45-4.641v-.633a7.746,7.746,0,0,1,.655-3.292,4.961,4.961,0,0,1,1.885-2.18,5.26,5.26,0,0,1,2.848-.769A5.516,5.516,0,0,1-75.1-11.755,4.844,4.844,0,0,1-73.49-8.376h-3.076a2.292,2.292,0,0,0-.589-1.679,2.422,2.422,0,0,0-1.687-.51A1.843,1.843,0,0,0-80.53-9.7a5.536,5.536,0,0,0-.562,2.751v.905a6.126,6.126,0,0,0,.514,2.927,1.882,1.882,0,0,0,1.771.879,2.369,2.369,0,0,0,1.626-.5,2.126,2.126,0,0,0,.6-1.591Zm.949-.51a5.613,5.613,0,0,1,.554-2.536,3.96,3.96,0,0,1,1.591-1.709,4.791,4.791,0,0,1,2.435-.6,4.373,4.373,0,0,1,3.366,1.323,5.076,5.076,0,0,1,1.23,3.6v.105a4.925,4.925,0,0,1-1.235,3.529A4.384,4.384,0,0,1-67.97.176a4.434,4.434,0,0,1-3.261-1.217,4.761,4.761,0,0,1-1.327-3.3Zm2.962.185a3.538,3.538,0,0,0,.413,1.934,1.376,1.376,0,0,0,1.222.615q1.582,0,1.617-2.435v-.3q0-2.558-1.635-2.558-1.485,0-1.608,2.206ZM-59.366-9.51l.1,1.116a3.225,3.225,0,0,1,2.716-1.292,2.713,2.713,0,0,1,2.219.888,4.226,4.226,0,0,1,.76,2.672V0h-2.971V-6a1.6,1.6,0,0,0-.29-1.059A1.342,1.342,0,0,0-57.889-7.4a1.413,1.413,0,0,0-1.292.686V0h-2.962V-9.51Zm11.452,7.4a1.317,1.317,0,0,0,.967-.338,1.241,1.241,0,0,0,.334-.945h2.777A3.288,3.288,0,0,1-44.956-.826a4.168,4.168,0,0,1-2.887,1,4.22,4.22,0,0,1-3.27-1.3,5.125,5.125,0,0,1-1.2-3.6v-.123A5.792,5.792,0,0,1-51.776-7.4a3.872,3.872,0,0,1,1.534-1.7,4.573,4.573,0,0,1,2.373-.593,4.116,4.116,0,0,1,2.944,1.028,3.647,3.647,0,0,1,1.09,2.786h-2.777A1.626,1.626,0,0,0-46.973-7a1.244,1.244,0,0,0-.967-.4q-1.151,0-1.345,1.468a10.357,10.357,0,0,0-.062,1.283A4.068,4.068,0,0,0-49-2.663,1.187,1.187,0,0,0-47.914-2.109ZM-37.982.176a4.889,4.889,0,0,1-3.542-1.305,4.507,4.507,0,0,1-1.354-3.4v-.246a5.84,5.84,0,0,1,.541-2.575,3.955,3.955,0,0,1,1.578-1.727A4.763,4.763,0,0,1-38.3-9.686a4.117,4.117,0,0,1,3.164,1.244,4.887,4.887,0,0,1,1.16,3.467v1.151h-5.889a2.135,2.135,0,0,0,.694,1.257,2.066,2.066,0,0,0,1.389.457,2.662,2.662,0,0,0,2.2-.984l1.354,1.6A3.784,3.784,0,0,1-35.8-.277,5.3,5.3,0,0,1-37.982.176ZM-38.316-7.4q-1.3,0-1.547,1.723h2.988v-.229a1.467,1.467,0,0,0-.36-1.1A1.434,1.434,0,0,0-38.316-7.4Zm14.361,2.716a5.735,5.735,0,0,1-1,3.538A3.2,3.2,0,0,1-27.646.176,2.742,2.742,0,0,1-29.8-.782V3.656h-2.962V-9.51h2.769l.088.879a2.742,2.742,0,0,1,2.241-1.055,3.224,3.224,0,0,1,2.733,1.3,5.805,5.805,0,0,1,.976,3.564Zm-2.962-.185q0-2.531-1.477-2.531a1.394,1.394,0,0,0-1.406.756V-2.9a1.439,1.439,0,0,0,1.424.791q1.415,0,1.459-2.443Zm7.717-7V-9.51h1.564v2.057H-19.2V-3.1a1.111,1.111,0,0,0,.193.747,1.037,1.037,0,0,0,.765.211A4.345,4.345,0,0,0-17.5-2.2V-.079a5.466,5.466,0,0,1-1.67.255,3.1,3.1,0,0,1-2.259-.721,2.954,2.954,0,0,1-.729-2.188v-4.72h-1.213V-9.51h1.213v-2.364Zm2.092,7.031a5.613,5.613,0,0,1,.554-2.536,3.96,3.96,0,0,1,1.591-1.709,4.791,4.791,0,0,1,2.435-.6A4.373,4.373,0,0,1-9.163-8.363a5.076,5.076,0,0,1,1.23,3.6v.105A4.925,4.925,0,0,1-9.167-1.129,4.384,4.384,0,0,1-12.511.176a4.434,4.434,0,0,1-3.261-1.217,4.761,4.761,0,0,1-1.327-3.3Zm2.962.185a3.538,3.538,0,0,0,.413,1.934,1.376,1.376,0,0,0,1.222.615q1.582,0,1.617-2.435v-.3q0-2.558-1.635-2.558-1.485,0-1.608,2.206Zm11.628-.167a5.809,5.809,0,0,1,.976-3.56,3.211,3.211,0,0,1,2.725-1.3,2.731,2.731,0,0,1,2.145,1V-13.5H6.3V0H3.634L3.485-1.02a2.8,2.8,0,0,1-2.32,1.2,3.205,3.205,0,0,1-2.689-1.3A5.993,5.993,0,0,1-2.518-4.825Zm2.962.185q0,2.531,1.477,2.531a1.458,1.458,0,0,0,1.406-.826V-6.557A1.419,1.419,0,0,0,1.938-7.4Q.567-7.4.453-5.186ZM12.582.176A4.889,4.889,0,0,1,9.04-1.129a4.507,4.507,0,0,1-1.354-3.4v-.246a5.84,5.84,0,0,1,.541-2.575A3.955,3.955,0,0,1,9.8-9.075a4.763,4.763,0,0,1,2.461-.611,4.117,4.117,0,0,1,3.164,1.244,4.887,4.887,0,0,1,1.16,3.467v1.151H10.7A2.135,2.135,0,0,0,11.4-2.566a2.066,2.066,0,0,0,1.389.457,2.662,2.662,0,0,0,2.2-.984l1.354,1.6A3.784,3.784,0,0,1,14.766-.277,5.3,5.3,0,0,1,12.582.176ZM12.248-7.4q-1.3,0-1.547,1.723h2.988v-.229a1.467,1.467,0,0,0-.36-1.1A1.434,1.434,0,0,0,12.248-7.4Zm9.642,2.575a5.809,5.809,0,0,1,.976-3.56,3.211,3.211,0,0,1,2.725-1.3,2.731,2.731,0,0,1,2.145,1V-13.5H30.7V0H28.042l-.149-1.02a2.8,2.8,0,0,1-2.32,1.2,3.205,3.205,0,0,1-2.689-1.3A5.993,5.993,0,0,1,21.889-4.825Zm2.962.185q0,2.531,1.477,2.531a1.458,1.458,0,0,0,1.406-.826V-6.557A1.419,1.419,0,0,0,26.345-7.4q-1.371,0-1.485,2.215ZM36.989.176a4.889,4.889,0,0,1-3.542-1.305,4.507,4.507,0,0,1-1.354-3.4v-.246a5.84,5.84,0,0,1,.541-2.575,3.955,3.955,0,0,1,1.578-1.727,4.763,4.763,0,0,1,2.461-.611,4.117,4.117,0,0,1,3.164,1.244A4.887,4.887,0,0,1,41-4.975v1.151H35.108A2.135,2.135,0,0,0,35.8-2.566a2.066,2.066,0,0,0,1.389.457,2.662,2.662,0,0,0,2.2-.984l1.354,1.6A3.784,3.784,0,0,1,39.173-.277,5.3,5.3,0,0,1,36.989.176ZM36.655-7.4q-1.3,0-1.547,1.723H38.1v-.229a1.467,1.467,0,0,0-.36-1.1A1.434,1.434,0,0,0,36.655-7.4ZM51.016-4.685a5.735,5.735,0,0,1-1,3.538A3.2,3.2,0,0,1,47.325.176a2.742,2.742,0,0,1-2.153-.958V3.656H42.209V-9.51h2.769l.088.879a2.742,2.742,0,0,1,2.241-1.055,3.224,3.224,0,0,1,2.733,1.3,5.805,5.805,0,0,1,.976,3.564Zm-2.962-.185q0-2.531-1.477-2.531a1.394,1.394,0,0,0-1.406.756V-2.9a1.439,1.439,0,0,0,1.424.791q1.415,0,1.459-2.443Zm3.894.026A5.613,5.613,0,0,1,52.5-7.378a3.96,3.96,0,0,1,1.591-1.709,4.791,4.791,0,0,1,2.435-.6,4.373,4.373,0,0,1,3.366,1.323,5.076,5.076,0,0,1,1.23,3.6v.105a4.925,4.925,0,0,1-1.235,3.529A4.384,4.384,0,0,1,56.544.176a4.434,4.434,0,0,1-3.261-1.217,4.761,4.761,0,0,1-1.327-3.3Zm2.962.185a3.538,3.538,0,0,0,.413,1.934,1.376,1.376,0,0,0,1.222.615q1.582,0,1.617-2.435v-.3q0-2.558-1.635-2.558-1.485,0-1.608,2.206ZM68.181-6.829l-.976-.07a1.752,1.752,0,0,0-1.793.879V0H62.451V-9.51h2.777l.1,1.222a2.294,2.294,0,0,1,2.083-1.4,2.888,2.888,0,0,1,.826.105Zm4.957-5.045V-9.51H74.7v2.057H73.138V-3.1a1.111,1.111,0,0,0,.193.747,1.037,1.037,0,0,0,.765.211,4.345,4.345,0,0,0,.738-.053V-.079a5.466,5.466,0,0,1-1.67.255,3.1,3.1,0,0,1-2.259-.721,2.954,2.954,0,0,1-.729-2.188v-4.72H68.963V-9.51h1.213v-2.364ZM80.468.176a4.889,4.889,0,0,1-3.542-1.305,4.507,4.507,0,0,1-1.354-3.4v-.246a5.84,5.84,0,0,1,.541-2.575,3.955,3.955,0,0,1,1.578-1.727,4.763,4.763,0,0,1,2.461-.611,4.117,4.117,0,0,1,3.164,1.244,4.887,4.887,0,0,1,1.16,3.467v1.151H78.587a2.135,2.135,0,0,0,.694,1.257,2.066,2.066,0,0,0,1.389.457,2.662,2.662,0,0,0,2.2-.984l1.354,1.6A3.784,3.784,0,0,1,82.652-.277,5.3,5.3,0,0,1,80.468.176ZM80.134-7.4q-1.3,0-1.547,1.723h2.988v-.229a1.467,1.467,0,0,0-.36-1.1A1.434,1.434,0,0,0,80.134-7.4Z" transform="translate(-11362 -9355)" fill="#12263f"/>
    <path id="Path_179664" data-name="Path 179664" d="M717.738-107.448c-12.178-3.793-20.624-15.96-24.211-28.2a76.675,76.675,0,0,1,2.413-49.7,76.681,76.681,0,0,1,32.643-37.558c4.659-2.679,10.731-4.794,15.148-1.731,3.385,2.347,4.448,6.905,7.344,9.835,5.273,5.337,14.567,3.375,20.558-1.142s10.3-11.026,16.494-15.26c11-7.519,27.319-5.876,36.6,3.683s10.434,25.922,2.591,36.692c-3.357,4.609-8.182,8.379-9.879,13.822-1.8,5.776.427,12.1,3.775,17.137s7.783,9.28,11.151,14.3c7.341,10.949,8.065,25.8,3.383,38.12Z" transform="translate(-12125.369 -9283.217)" fill="#fff"/>
    <path id="Path_179665" data-name="Path 179665" d="M781.426-226.362c-3.954.656-8.389-1.055-10.3-4.582-1.841-3.406-1.031-7.781,1.145-10.984s5.5-5.429,8.884-7.313c3.206-1.784,7.135-3.345,10.42-1.714,3.045,1.513,4.317,5.368,3.854,8.735C794.5-235.424,788.45-227.527,781.426-226.362Z" transform="translate(-12143.219 -9279.693)" fill="#fff"/>
    <path id="Path_179666" data-name="Path 179666" d="M712.282-224.615c-.972,1.463-1.745,3.261-1.244,4.945.641,2.161,3.209,3.259,5.448,3s4.213-1.529,6.1-2.766a18.715,18.715,0,0,0,4.137-3.318c2.65-3.116,2.028-9.009-2.814-9.213C719.352-232.159,714.636-228.159,712.282-224.615Z" transform="translate(-12129.939 -9284.103)" fill="#fff"/>
    <path id="Path_179667" data-name="Path 179667" d="M842.129-70.317H714.053L696.24-57.985H824.315Z" transform="translate(-12126.656 -9320.348)" fill="#7d7d7d"/>
    <path id="Path_179668" data-name="Path 179668" d="M807.541-103.3a7.462,7.462,0,0,0-.415-3.467,27.307,27.307,0,0,0-10.947-3.609l-20.671-23.007a43.133,43.133,0,0,0-12.074-9.384l-21.618,2.438-27.262,12.179a8.265,8.265,0,0,0-4.434,10.268l2.955,8.476a44.729,44.729,0,0,0,11.57-2.815,18.418,18.418,0,0,0-1.805-5.766l24.3-7.848a14.923,14.923,0,0,1,5.223-.709h0a14.93,14.93,0,0,1,8.551,3.148l20.181,15.762a56.694,56.694,0,0,0,13.36,7.763l7.847,3.223a8.663,8.663,0,0,0,2.942-1.947A8.176,8.176,0,0,0,807.541-103.3Z" transform="translate(-12129.665 -9304.105)" fill="#666"/>
    <path id="Path_179669" data-name="Path 179669" d="M719.605-82.181a6.856,6.856,0,0,1-2.088,7.52,6.861,6.861,0,0,1-1.933,1.121l-2.408.949-2.838-.443a2.325,2.325,0,0,0,.509,2.471,2.287,2.287,0,0,0,2.478.347,4.938,4.938,0,0,0,4.6.818l8.934-2.922a2.681,2.681,0,0,0,1.342-4.116l-2.749-3.815c-1.509-9.87.255-16.787-.684-23.138a44.729,44.729,0,0,1-11.57,2.815Z" transform="translate(-12129.784 -9312.933)" fill="#989898"/>
    <path id="Path_179670" data-name="Path 179670" d="M854.983-82.254l-5.166-2.206c-4-1.692-8.8-7.835-15.917-11.9a7.461,7.461,0,0,1,.415,3.467,8.175,8.175,0,0,1-2.3,4.7,8.664,8.664,0,0,1-2.942,1.947l20.586,8.457V-70.9h-4.08a2.426,2.426,0,0,0,.784,2.135,1.833,1.833,0,0,0,1.956.065c-.071.353-.185.73-.255,1.084,1.63-.111,3.286-.151,4.936-.208a3.146,3.146,0,0,0,3.023-2.793c.278-2.608.971-5.038,1.28-7.633A3.864,3.864,0,0,0,854.983-82.254Z" transform="translate(-12156.439 -9314.51)" fill="#989898"/>
    <path id="Path_179671" data-name="Path 179671" d="M745.883-124.463l4.981,2.239h-.922a16.775,16.775,0,0,0-7.669,1.856l-9.745,5.011h0l19.734-6.375a14.923,14.923,0,0,1,5.223-.709,14.892,14.892,0,0,1,1.978.226l-.005-.009A40.992,40.992,0,0,0,745.883-124.463Z" transform="translate(-12134.793 -9308.205)" fill="#585858"/>
    <path id="Path_179672" data-name="Path 179672" d="M732.529-112.722" transform="translate(-12134.793 -9310.841)" fill="#fff"/>
    <path id="Path_179672_-_Outline" data-name="Path 179672 - Outline" transform="translate(-12134.793 -9310.841)" fill="#222221"/>
    <path id="Path_179673" data-name="Path 179673" d="M763.273-122.1a.143.143,0,0,1-.083-.025,41.278,41.278,0,0,0-13.484-2.22.159.159,0,0,1-.168-.15.16.16,0,0,1,.15-.168,41.569,41.569,0,0,1,13.633,2.247.157.157,0,0,1,.085.065.162.162,0,0,1-.045.223A.165.165,0,0,1,763.273-122.1Z" transform="translate(-12138.607 -9308.16)" fill="#4b4b4b"/>
    <path id="Path_179674" data-name="Path 179674" d="M725.794-112.144a.16.16,0,0,1-.147-.1c-1.543-3.757-2.749-4.9-2.761-4.905a.159.159,0,0,1-.009-.225.161.161,0,0,1,.224-.01c.05.047,1.263,1.181,2.841,5.019a.16.16,0,0,1-.087.208A.165.165,0,0,1,725.794-112.144Z" transform="translate(-12132.619 -9309.786)" fill="#4b4b4b"/>
    <path id="Path_179675" data-name="Path 179675" d="M714.657-102.486a.159.159,0,0,1-.158-.141.158.158,0,0,1,.14-.175,27.566,27.566,0,0,0,9.245-2.729.162.162,0,0,1,.213.071.16.16,0,0,1-.071.213,27.866,27.866,0,0,1-9.351,2.759Z" transform="translate(-12130.751 -9312.449)" fill="#4b4b4b"/>
    <path id="Path_179676" data-name="Path 179676" d="M827.786-87.807a.159.159,0,0,1-.144-.091.159.159,0,0,1,.077-.212,6.884,6.884,0,0,0,3.238-3.216,6.885,6.885,0,0,0,.464-4.539.159.159,0,0,1,.116-.192.159.159,0,0,1,.192.116,7.109,7.109,0,0,1-.486,4.752,7.109,7.109,0,0,1-3.389,3.366A.158.158,0,0,1,827.786-87.807Z" transform="translate(-12156.115 -9314.576)" fill="#4b4b4b"/>
    <path id="Path_179677" data-name="Path 179677" d="M826.084-88.512a.158.158,0,0,1-.143-.088.158.158,0,0,1,.071-.213,6.257,6.257,0,0,0,3.412-5.107.147.147,0,0,1,.168-.148.159.159,0,0,1,.148.169,6.572,6.572,0,0,1-3.587,5.37A.157.157,0,0,1,826.084-88.512Z" transform="translate(-12155.733 -9315.023)" fill="#4b4b4b"/>
    <path id="Path_179678" data-name="Path 179678" d="M728.713-67.922a.159.159,0,0,1-.074-.018.158.158,0,0,1-.068-.214,3.631,3.631,0,0,0-.016-3.345,7.45,7.45,0,0,0-.513-.789c-.134-.189-.268-.378-.39-.574a2.561,2.561,0,0,1-.462-1.659.16.16,0,0,1,.178-.137.16.16,0,0,1,.137.178,2.258,2.258,0,0,0,.417,1.45c.118.191.248.374.379.557a7.629,7.629,0,0,1,.534.825,3.952,3.952,0,0,1,.017,3.641A.158.158,0,0,1,728.713-67.922Z" transform="translate(-12133.594 -9319.375)" fill="#4b4b4b"/>
    <path id="Path_179679" data-name="Path 179679" d="M860.344-75.736a.158.158,0,0,1-.148-.1c-.211-.558-.48-1.17-1-1.359a2.05,2.05,0,0,0-.6-.088l-2.175-.11a.159.159,0,0,1-.15-.167.163.163,0,0,1,.167-.151l2.174.11a2.349,2.349,0,0,1,.69.107,2.356,2.356,0,0,1,1.191,1.547.158.158,0,0,1-.093.2A.154.154,0,0,1,860.344-75.736Z" transform="translate(-12162.537 -9318.69)" fill="#4b4b4b"/>
    <path id="Path_179680" data-name="Path 179680" d="M690.362-178.2a3.416,3.416,0,0,1,2.37-.163l4.719,1.39,11.6-2.617a19.506,19.506,0,0,1,8.944.083l4.281,1.051,9.2-3.633a20.408,20.408,0,0,1,12.139-.8l2.819.613-6.173,9.644H697.344l-1.294.961a7.424,7.424,0,0,1-5.839,1.328l-2.246-.435a1.744,1.744,0,0,1,1.79-1.748,7.344,7.344,0,0,0,4.357-1.061l-4.133-1.272-4.834.673a1.107,1.107,0,0,1-1.26-1.1Z" transform="translate(-12123.887 -9294.983)" fill="#989898"/>
    <path id="Path_179681" data-name="Path 179681" d="M749.478-170.86H724.985l27.509-4.713Z" transform="translate(-12133.102 -9296.749)" fill="#8e8e8e"/>
    <path id="Path_179682" data-name="Path 179682" d="M773.3-176.865l.915-3.892h-3.447l-.9,2.418a5.086,5.086,0,0,1-4.764,3.3h-4.178a2.543,2.543,0,0,1-2.32-3.584l1.577-3.515-2.092-.583-5.59,7.375a18.96,18.96,0,0,1-1.918,2.165h0a7.147,7.147,0,0,0-1.131,8.846,65.77,65.77,0,0,0,1.06,15.048c8.8,5.829,21.618-2.438,21.618-2.438v-6.57l5.514-7.5-1.286-1.178A10.244,10.244,0,0,1,773.3-176.865Z" transform="translate(-12138.352 -9295.146)" fill="#7d7d7d"/>
    <path id="Path_179683" data-name="Path 179683" d="M763.8-176.909h4.178a5.086,5.086,0,0,0,4.764-3.3l.9-2.418h-1.689l.5-5.325-7.143-3.119-1.123,7.384-1.137-.317-1.577,3.515A2.543,2.543,0,0,0,763.8-176.909Z" transform="translate(-12141.233 -9293.272)" fill="#989898"/>
    <path id="Path_179684" data-name="Path 179684" d="M838.569-176.475a3.415,3.415,0,0,0-2.37-.163l-4.719,1.39-11.6-2.618a19.51,19.51,0,0,0-8.945.083l-4.28,1.051-9.2-3.633a20.181,20.181,0,0,0-12.067-.867l-2.891.684h-1.168l-.915,3.892a10.244,10.244,0,0,0,3.053,9.9l1.286,1.178,3.918-5.326h42.918l1.294.961a7.424,7.424,0,0,0,5.839,1.328l2.245-.435a1.744,1.744,0,0,0-1.789-1.748,7.344,7.344,0,0,1-4.357-1.061l4.133-1.271,4.834.673a1.107,1.107,0,0,0,1.259-1.1Z" transform="translate(-12145.468 -9295.358)" fill="#989898"/>
    <path id="Path_179685" data-name="Path 179685" d="M773.074-182.261c-3.578,0-6.743-5.347-6.836-7.164l7.174,3.582Z" transform="translate(-12142.352 -9293.643)" fill="#4b4b4b"/>
    <path id="Path_179686" data-name="Path 179686" d="M787.624-165.49c-2.064-1.884-1.557-6.415-1.557-6.415,12.13-.476,27.842,3.206,27.842,3.206H789.985Z" transform="translate(-12146.784 -9297.562)" fill="#8e8e8e"/>
    <path id="Path_179687" data-name="Path 179687" d="M752.759-159.192q-.756,0-1.512-.067a.159.159,0,0,1-.144-.172.151.151,0,0,1,.173-.144,17.078,17.078,0,0,0,8.036-1.242.156.156,0,0,1,.207.085.157.157,0,0,1-.085.207A17.393,17.393,0,0,1,752.759-159.192Z" transform="translate(-12138.958 -9300.054)" fill="#4b4b4b"/>
    <path id="Path_179688" data-name="Path 179688" d="M772.667-157.107a10.162,10.162,0,0,1-2-.2,10.27,10.27,0,0,1-5.563-3.171.159.159,0,0,1,.012-.224.158.158,0,0,1,.224.012,9.95,9.95,0,0,0,5.39,3.072,9.954,9.954,0,0,0,6.158-.744.161.161,0,0,1,.212.076.159.159,0,0,1-.076.212A10.273,10.273,0,0,1,772.667-157.107Z" transform="translate(-12142.088 -9300.074)" fill="#4b4b4b"/>
    <path id="Path_179689" data-name="Path 179689" d="M760.958-140.115a18.843,18.843,0,0,1-6.607-1.173.16.16,0,0,1-.093-.2.159.159,0,0,1,.2-.093,19.113,19.113,0,0,0,16.221-1.484.157.157,0,0,1,.218.054.158.158,0,0,1-.054.218A19.3,19.3,0,0,1,760.958-140.115Z" transform="translate(-12139.663 -9304.03)" fill="#4b4b4b"/>
    <path id="Path_179690" data-name="Path 179690" d="M763.182-141.32a13.239,13.239,0,0,1-3-.343.16.16,0,0,1-.119-.191.158.158,0,0,1,.191-.119,13.019,13.019,0,0,0,8.634-.981.157.157,0,0,1,.212.073.158.158,0,0,1-.073.213A13.33,13.33,0,0,1,763.182-141.32Z" transform="translate(-12140.966 -9304.059)" fill="#4b4b4b"/>
    <path id="Path_179691" data-name="Path 179691" d="M768.891-210.538a6.04,6.04,0,0,0-2.259-5.367,6.041,6.041,0,0,0-5.761-.842,7.607,7.607,0,0,0-4.17,4.587,16.024,16.024,0,0,0-.705,6.309,19.027,19.027,0,0,1-.168,6.06c-.541,1.957-2.168,3.8-4.2,3.811a8.164,8.164,0,0,0,8.447.947,13.617,13.617,0,0,0,6.157-6.365A28.516,28.516,0,0,0,768.891-210.538Z" transform="translate(-12139.075 -9287.431)" fill="#4b4b4b"/>
    <path id="Path_179692" data-name="Path 179692" d="M778.89-203.248c1.671-3.474.161-6.653-7.389-6.653s-15.322,4.827-7.1,15.885C773.487-194.323,778.89-203.248,778.89-203.248Z" transform="translate(-12141.149 -9289.052)" fill="#666"/>
    <path id="Path_179693" data-name="Path 179693" d="M763.573-193.353a3.05,3.05,0,0,0-2.054-1.021,2.063,2.063,0,0,0-1.266.279,1.787,1.787,0,0,0-.764,1.258,2.447,2.447,0,0,0,.291,1.465,3.078,3.078,0,0,0,3,1.569,1.951,1.951,0,0,0,.967-.359C764.763-190.948,764.284-192.54,763.573-193.353Z" transform="translate(-12140.834 -9292.531)" fill="#989898"/>
    <path id="Path_179694" data-name="Path 179694" d="M763.259-190.684a.445.445,0,0,0,.112-.06.336.336,0,0,0,.131-.27,1.9,1.9,0,0,0-.466-1.241,1.9,1.9,0,0,0-1.265-.629,1.134,1.134,0,0,0-.47.054.516.516,0,0,0-.085.043.647.647,0,0,0-.245.441,1.3,1.3,0,0,0,.166.764,1.93,1.93,0,0,0,1.84.963A1.177,1.177,0,0,0,763.259-190.684Z" transform="translate(-12141.168 -9292.866)" fill="#989898"/>
    <path id="Path_179695" data-name="Path 179695" d="M769.5-201.7a6.08,6.08,0,0,1-2.828,5.973,4.982,4.982,0,0,1-.909,3.075,4.871,4.871,0,0,1-.348.411,9.592,9.592,0,0,0,2.424,3.119l1.344,1.128a5.681,5.681,0,0,0,3.649,1.327,5.679,5.679,0,0,0,3.673-1.348,9.639,9.639,0,0,0,3.327-6.123l.472-3.669a8.008,8.008,0,0,0-.4-3.667A36.366,36.366,0,0,0,769.5-201.7Z" transform="translate(-12142.166 -9290.831)" fill="#989898"/>
  </g>
</svg>
