<svg xmlns="http://www.w3.org/2000/svg" xmlns:xlink="http://www.w3.org/1999/xlink" width="177.467" height="177.477" viewBox="0 0 177.467 177.477">
  <defs>
    <filter id="Elipse_4305" x="19.603" y="22.725" width="138" height="138" filterUnits="userSpaceOnUse">
      <feOffset dy="3" input="SourceAlpha"/>
      <feGaussianBlur stdDeviation="3" result="blur"/>
      <feFlood flood-opacity="0.161"/>
      <feComposite operator="in" in2="blur"/>
      <feComposite in="SourceGraphic"/>
    </filter>
  </defs>
  <g id="Grupo_86251" data-name="Grupo 86251" transform="translate(-390 -2039.93)">
    <path id="Trazado_145598" data-name="Trazado 145598" d="M80.808,161.472A80.694,80.694,0,0,1,10.832,121.1,80.743,80.743,0,0,1,80.676,0a80.694,80.694,0,0,1,69.975,40.374,80.743,80.743,0,0,1-69.844,121.1Z" transform="matrix(0.105, 0.995, -0.995, 0.105, 550.588, 2039.93)" fill="#7ae582"/>
    <g transform="matrix(1, 0, 0, 1, 390, 2039.93)" filter="url(#Elipse_4305)">
      <circle id="Elipse_4305-2" data-name="Elipse 4305" cx="60" cy="60" r="60" transform="translate(28.6 28.72)" fill="#fff"/>
    </g>
    <g id="aplaudir" transform="translate(443.447 2074)">
      <path id="Trazado_145602" data-name="Trazado 145602" d="M42.747,87.8a4.385,4.385,0,0,0-4.209,4.52v6.537a4.387,4.387,0,0,0-4.209-4.52,4.386,4.386,0,0,0-4.21,4.52v27.173L21.831,119.5c-4.175-3.288-7.937.883-6.1,4.069l3.2,5.54,5.683,9.844a6.355,6.355,0,0,0,5.5,3.178v5.794H57.088v-5.794c4.1-2.7,6.705-6.7,6.705-11.149v-8.87H73.926V116.32c4.1-2.7,6.705-6.7,6.705-11.15V81.439a4.22,4.22,0,1,0-8.419,0V74.406a4.22,4.22,0,1,0-8.418,0v-7.9a4.22,4.22,0,1,0-8.419,0v6.537a4.22,4.22,0,1,0-8.419,0V92.32A4.386,4.386,0,0,0,42.747,87.8Zm0,0" transform="translate(-12.275 -49.881)" fill="#ffda73" fill-rule="evenodd"/>
      <path id="Trazado_145603" data-name="Trazado 145603" d="M181.432,492h-.053a1.953,1.953,0,0,0,0,3.906h.053a1.953,1.953,0,0,0,0-3.906Zm0,0" transform="translate(-144.382 -395.906)"/>
      <path id="Trazado_145604" data-name="Trazado 145604" d="M68.426,66.931a5.863,5.863,0,0,0-2.257.452V66.371A6.33,6.33,0,0,0,60.006,59.9a5.877,5.877,0,0,0-2.257.451V58.474a6.17,6.17,0,1,0-12.325,0v.515a5.863,5.863,0,0,0-2.256-.452,6.331,6.331,0,0,0-6.163,6.474V78.263a5.871,5.871,0,0,0-2.256-.451,6.331,6.331,0,0,0-6.163,6.473V84.8a5.871,5.871,0,0,0-2.256-.452,6.331,6.331,0,0,0-6.162,6.474v23.148l-5.127-4.037c-3.162-2.49-6.2-1.715-7.838-.3a5.482,5.482,0,0,0-1.16,6.876L14.926,131.9a8.339,8.339,0,0,0,5.243,3.921v4.074a1.953,1.953,0,0,0,1.953,1.953H33.466a1.953,1.953,0,0,0,0-3.906H24.075V134.1a1.953,1.953,0,0,0-1.953-1.953,4.416,4.416,0,0,1-3.813-2.2L9.427,114.56a1.553,1.553,0,0,1,.333-1.969c.71-.614,1.753-.464,2.864.411l8.289,6.528a1.953,1.953,0,0,0,3.162-1.535V90.822a2.46,2.46,0,0,1,2.257-2.567,2.46,2.46,0,0,1,2.256,2.567V111.1a1.953,1.953,0,0,0,3.906,0V84.285a2.459,2.459,0,0,1,2.256-2.567,2.459,2.459,0,0,1,2.257,2.567V111.1a1.953,1.953,0,0,0,3.906,0V92.183a2.275,2.275,0,1,1,4.512,0V111.1a1.953,1.953,0,0,0,3.906,0V99.217a2.275,2.275,0,1,1,4.513,0v23.731c0,3.611-2.123,7.08-5.826,9.518a1.954,1.954,0,0,0-.879,1.631v3.84h-.2a1.953,1.953,0,0,0,0,3.906h2.155a1.953,1.953,0,0,0,1.953-1.953v-4.774c4.276-3.145,6.7-7.529,6.7-12.169v-6.916h8.179a1.953,1.953,0,0,0,1.953-1.953v-4.774c4.276-3.146,6.7-7.529,6.7-12.169V73.4A6.331,6.331,0,0,0,68.426,66.931Zm2.255,30.2c0,3.61-2.123,7.08-5.826,9.518a1.953,1.953,0,0,0-.879,1.631v3.84H57.75V99.217a6.331,6.331,0,0,0-6.163-6.473,5.876,5.876,0,0,0-2.256.451V92.183a6.33,6.33,0,0,0-6.162-6.474,5.863,5.863,0,0,0-2.257.452V65.01a2.275,2.275,0,1,1,4.513,0V80.867a1.953,1.953,0,0,0,3.906,0V58.474a2.275,2.275,0,1,1,4.513,0V80.867a1.953,1.953,0,1,0,3.906,0v-14.5a2.275,2.275,0,1,1,4.513,0v14.5a1.953,1.953,0,1,0,3.906,0V73.4a2.275,2.275,0,1,1,4.512,0Zm0,0" transform="translate(-4.275 -41.844)"/>
      <path id="Trazado_145605" data-name="Trazado 145605" d="M126.434,3.934a1.953,1.953,0,0,0,1.953-1.953V1.953a1.953,1.953,0,0,0-3.906,0v.027A1.953,1.953,0,0,0,126.434,3.934Zm0,0" transform="translate(-100.168)"/>
      <path id="Trazado_145606" data-name="Trazado 145606" d="M11.752,188.066a1.953,1.953,0,0,0,0-3.906h-9.8a1.953,1.953,0,0,0,0,3.906Zm0,0" transform="translate(0 -148.191)"/>
      <path id="Trazado_145607" data-name="Trazado 145607" d="M40.271,84.915a1.953,1.953,0,0,0,2.762-2.763L36.1,75.223a1.953,1.953,0,1,0-2.763,2.763Zm0,0" transform="translate(-26.369 -60.071)"/>
      <path id="Trazado_145608" data-name="Trazado 145608" d="M126.434,39.53a1.953,1.953,0,0,0,1.953-1.953V30.082a1.953,1.953,0,0,0-3.906,0v7.494A1.953,1.953,0,0,0,126.434,39.53Zm0,0" transform="translate(-100.168 -22.635)"/>
    </g>
  </g>
</svg>
