<svg xmlns="http://www.w3.org/2000/svg" xmlns:xlink="http://www.w3.org/1999/xlink" width="177.467" height="177.478" viewBox="0 0 177.467 177.478">
  <defs>
    <filter id="Elipse_4306" x="19.766" y="22.477" width="138" height="138" filterUnits="userSpaceOnUse">
      <feOffset dy="3" input="SourceAlpha"/>
      <feGaussianBlur stdDeviation="3" result="blur"/>
      <feFlood flood-opacity="0.161"/>
      <feComposite operator="in" in2="blur"/>
      <feComposite in="SourceGraphic"/>
    </filter>
  </defs>
  <g id="Grupo_86253" data-name="Grupo 86253" transform="translate(-410.837 -2238.178)">
    <path id="Trazado_145599" data-name="Trazado 145599" d="M80.676,161.472A80.7,80.7,0,1,1,120.5,151,80.718,80.718,0,0,1,80.676,161.472Z" transform="matrix(0.105, 0.995, -0.995, 0.105, 571.425, 2238.178)" fill="#3ca8f4"/>
    <g transform="matrix(1, 0, 0, 1, 410.84, 2238.18)" filter="url(#Elipse_4306)">
      <circle id="Elipse_4306-2" data-name="Elipse 4306" cx="60" cy="60" r="60" transform="translate(28.77 28.48)" fill="#fff"/>
    </g>
    <g id="mueca" transform="translate(464.604 2285.387)">
      <g id="Grupo_84485" data-name="Grupo 84485" transform="translate(1.21 1.141)">
        <g id="Grupo_84476" data-name="Grupo 84476" transform="translate(1.28 11.475)">
          <circle id="Elipse_4310" data-name="Elipse 4310" cx="20.763" cy="20.763" r="20.763" fill="#091946"/>
        </g>
        <g id="Grupo_84477" data-name="Grupo 84477" transform="translate(23.903 11.475)">
          <circle id="Elipse_4311" data-name="Elipse 4311" cx="20.763" cy="20.763" r="20.763" fill="#091946"/>
        </g>
        <g id="Grupo_84483" data-name="Grupo 84483" transform="translate(0 16.284)">
          <circle id="Elipse_4312" data-name="Elipse 4312" cx="7.881" cy="7.881" r="7.881" transform="translate(51.463 23.215)" fill="#ffda73"/>
          <circle id="Elipse_4313" data-name="Elipse 4313" cx="7.881" cy="7.881" r="7.881" transform="translate(0 23.215)" fill="#ffda73"/>
          <path id="Trazado_145609" data-name="Trazado 145609" d="M125.522,172a24.864,24.864,0,0,1-24.864-24.864V127.077A18.982,18.982,0,0,1,119.64,108.1H131.4a18.982,18.982,0,0,1,18.982,18.982v20.055A24.864,24.864,0,0,1,125.522,172Z" transform="translate(-91.909 -108.095)" fill="#ffda73"/>
          <g id="Grupo_84482" data-name="Grupo 84482" transform="translate(13.782 21.416)">
            <g id="Grupo_84479" data-name="Grupo 84479" transform="translate(23.173)">
              <g id="Grupo_84478" data-name="Grupo 84478">
                <circle id="Elipse_4314" data-name="Elipse 4314" cx="8.244" cy="8.244" r="8.244" fill="#faf7f7"/>
                <g id="XMLID_218_" transform="translate(4.978 4.988)">
                  <path id="Trazado_145612" data-name="Trazado 145612" d="M309.789,278.4h-.021a3.256,3.256,0,0,1,0-6.511h.021a3.256,3.256,0,0,1,0,6.511Z" transform="translate(-306.513 -271.89)"/>
                </g>
              </g>
            </g>
            <g id="Grupo_84481" data-name="Grupo 84481">
              <g id="Grupo_84480" data-name="Grupo 84480">
                <circle id="Elipse_4315" data-name="Elipse 4315" cx="8.244" cy="8.244" r="8.244" fill="#faf7f7"/>
                <g id="XMLID_215_" transform="translate(4.978 4.988)">
                  <path id="Trazado_145613" data-name="Trazado 145613" d="M166.041,278.4h-.02a3.256,3.256,0,1,1,0-6.511h.02a3.256,3.256,0,1,1,0,6.511Z" transform="translate(-162.765 -271.89)"/>
                </g>
              </g>
            </g>
          </g>
          <path id="Trazado_145614" data-name="Trazado 145614" d="M159.294,408.886H128.147a5.793,5.793,0,0,1,0-11.586h31.147a5.793,5.793,0,1,1,0,11.586Z" transform="translate(-110.108 -350.68)" fill="#faf7f7"/>
        </g>
        <g id="Grupo_84484" data-name="Grupo 84484" transform="translate(11.911)">
          <path id="Trazado_145616" data-name="Trazado 145616" d="M175.942,23.214c0-8.91-12.462-16.133-27.835-16.133S120.272,14.3,120.272,23.214a9.855,9.855,0,0,0,.838,3.941c.5,4.185,6.834,9.95,15.694,13.9,10.37,4.619,20.276,5,22.125.846a4.092,4.092,0,0,0,.083-2.865c7.335,2.206,13.722,1.57,15.258-1.879.8-1.8.154-4.058-1.572-6.376a11.181,11.181,0,0,0,3.244-7.563Z" transform="translate(-120.272 -7.081)" fill="#091946"/>
        </g>
      </g>
      <g id="Grupo_84486" data-name="Grupo 84486">
        <path id="Trazado_145618" data-name="Trazado 145618" d="M309.769,278.4h.02a3.256,3.256,0,1,0,0-6.511h-.02a3.256,3.256,0,1,0,0,6.511Z" transform="translate(-263.37 -228.061)"/>
        <path id="Trazado_145619" data-name="Trazado 145619" d="M133.831,233.439a9.454,9.454,0,1,0,9.454,9.454A9.465,9.465,0,0,0,133.831,233.439Zm0,16.488a7.034,7.034,0,1,1,7.034-7.034A7.042,7.042,0,0,1,133.831,249.927Z" transform="translate(-110.595 -195.808)"/>
        <path id="Trazado_145620" data-name="Trazado 145620" d="M166.041,271.89h-.02a3.256,3.256,0,1,0,0,6.511h.02a3.256,3.256,0,1,0,0-6.511Z" transform="translate(-142.795 -228.061)"/>
        <path id="Trazado_145621" data-name="Trazado 145621" d="M235.355,351.485a1.21,1.21,0,0,0-1.708.1,3.242,3.242,0,0,1-4.872,0,1.21,1.21,0,0,0-1.812,1.6,5.662,5.662,0,0,0,8.5,0A1.21,1.21,0,0,0,235.355,351.485Z" transform="translate(-196.389 -294.57)"/>
        <path id="Trazado_145622" data-name="Trazado 145622" d="M105.736,46.324a1.21,1.21,0,0,0,2.285-.8,9.074,9.074,0,0,0-2.833-4.042,21.837,21.837,0,0,0,1.544-8.1c0-.316-.008-.635-.022-.952a5,5,0,0,0,.4-.721c.86-1.93.449-4.314-1.148-6.788a12.1,12.1,0,0,0,2.925-7.644C108.883,8.223,97.523.8,82.458,0a1.21,1.21,0,0,0-.128,2.417c13.532.714,24.133,7.24,24.133,14.857a9.92,9.92,0,0,1-2.926,6.745l-.011.015c-.012.014-.025.026-.036.04A8.767,8.767,0,0,1,99,26.548a1.21,1.21,0,1,0,.548,2.357,11.817,11.817,0,0,0,4.659-2.212c.911,1.571,1.157,2.974.686,4.029-.554,1.244-2.148,2.079-4.489,2.35a24.186,24.186,0,0,1-9.315-1.138l-.033-.007a37.417,37.417,0,0,1-4.4-1.641,36.161,36.161,0,0,1-5.758-3.2,1.21,1.21,0,0,0-1.371,1.994A38.563,38.563,0,0,0,85.68,32.5a40.182,40.182,0,0,0,4.035,1.545,2.573,2.573,0,0,1-.16,1.424c-.66,1.482-3.174,2.284-6.716,2.15a39.208,39.208,0,0,1-13.812-3.608c-9.316-4.15-14.59-9.649-14.985-12.936a1.208,1.208,0,0,0-.091-.337,8.672,8.672,0,0,1-.738-3.46c0-7.587,10.556-14.111,24.031-14.851A1.21,1.21,0,0,0,77.111.007c-13.326.733-23.74,6.671-25.9,14.309a21.988,21.988,0,0,0-9.366,27.5A9.085,9.085,0,0,0,47.66,57.605a26.042,26.042,0,0,0,3.477,11.92c0,.1-.008.209-.008.314A7.013,7.013,0,0,0,57.394,76.8a26.074,26.074,0,0,0,32.625,0,7.013,7.013,0,0,0,6.263-6.964c0-.106,0-.211-.008-.315a26.036,26.036,0,0,0,3.477-11.917,9.105,9.105,0,0,0,8.26-6.063,1.21,1.21,0,1,0-2.282-.8,6.682,6.682,0,0,1-5.95,4.444V41.86a6.677,6.677,0,0,1,5.957,4.463ZM104.28,34.478a19.377,19.377,0,0,1-1.191,5.721,9.061,9.061,0,0,0-3.31-.762v-3.03c0-.284-.006-.57-.018-.855A11.983,11.983,0,0,0,104.28,34.478ZM85.291,40.051a7.034,7.034,0,1,1-7.034,7.034A7.042,7.042,0,0,1,85.291,40.051ZM42.582,33.38A19.59,19.59,0,0,1,50.8,17.45a11.065,11.065,0,0,0,.866,4.09,7.706,7.706,0,0,0,.609,1.987,20.174,20.174,0,0,0-4.642,12.88v3.032a9.026,9.026,0,0,0-3.748.967A19.412,19.412,0,0,1,42.582,33.38ZM41.3,48.522a6.68,6.68,0,0,1,6.329-6.663V55.184A6.68,6.68,0,0,1,41.3,48.522ZM53.549,69.839a4.588,4.588,0,0,1,4.583-4.583h.061v9.166h-.061A4.588,4.588,0,0,1,53.549,69.839Zm13.005-1.482a1.21,1.21,0,0,0,1.21-1.21V65.256H72.5v9.166H67.764V72.364a1.21,1.21,0,1,0-2.42,0v2.058H60.613V65.256h4.731v1.892A1.21,1.21,0,0,0,66.554,68.358Zm15.512,6.065V65.256H86.8v9.166Zm-2.42,0H74.915V65.256h4.731ZM61.7,76.842H85.726a23.381,23.381,0,0,1-12.021,3.274A23.725,23.725,0,0,1,61.7,76.842Zm27.58-2.42h-.061V65.256h.061a4.583,4.583,0,0,1,0,9.166Zm8.08-17.96a23.675,23.675,0,0,1-2.1,9.743,7.006,7.006,0,0,0-5.984-3.369H58.132A7.006,7.006,0,0,0,52.148,66.2a23.679,23.679,0,0,1-2.1-9.743V36.407a17.757,17.757,0,0,1,3.541-10.644c2.689,3.693,7.905,7.54,14.451,10.455A45.959,45.959,0,0,0,79.4,39.7a9.451,9.451,0,1,0,10.28-.983,5.026,5.026,0,0,0,2.084-2.265,4.7,4.7,0,0,0,.4-1.714,28.712,28.712,0,0,0,5.172.81c.014.287.022.574.022.86V56.462Z" transform="translate(-38.883 0)"/>
      </g>
    </g>
  </g>
</svg>
