<svg xmlns="http://www.w3.org/2000/svg" width="361.567" height="385.356" viewBox="0 0 361.567 385.356">
  <g id="Grupo_84475" data-name="Grupo 84475" transform="matrix(0.105, 0.995, -0.995, 0.105, 332.265, -8.415)">
    <path id="Trazado_145597" data-name="Trazado 145597" d="M80.724,161.449A80.743,80.743,0,0,1,49.3,6.348,80.743,80.743,0,0,1,112.149,155.1,80.231,80.231,0,0,1,80.724,161.449Z" transform="translate(99.688)" fill="#3ca8f4"/>
    <path id="Trazado_145598" data-name="Trazado 145598" d="M80.808,161.472A80.694,80.694,0,0,1,10.832,121.1,80.743,80.743,0,0,1,80.676,0a80.694,80.694,0,0,1,69.975,40.374,80.743,80.743,0,0,1-69.844,121.1Z" transform="translate(0 172.623)" fill="#3ca8f4"/>
    <path id="Trazado_145599" data-name="Trazado 145599" d="M80.676,161.472A80.7,80.7,0,1,1,120.5,151,80.718,80.718,0,0,1,80.676,161.472Z" transform="translate(199.341 172.623)" fill="#3ca8f4"/>
    <path id="Trazado_145600" data-name="Trazado 145600" d="M272.4,318.788a73.379,73.379,0,0,1-9.009-.559,73.007,73.007,0,0,1-61.548-53.615,73.4,73.4,0,0,1-2.434-15.722H146.1a73.45,73.45,0,0,1-14.719,40.895,73.3,73.3,0,0,1-49.263,28.442A73.317,73.317,0,0,1,29,304,73.107,73.107,0,0,1,64.054,173.177a73.395,73.395,0,0,1,42.928,7.784l26.548-46.233a73.387,73.387,0,0,1-28.1-33.217,73.109,73.109,0,1,1,118.993,23.225,73.4,73.4,0,0,1-12.442,9.992l26.547,46.233a73.076,73.076,0,0,1,42.929-7.784A73.09,73.09,0,0,1,272.4,318.788Zm.134-141.08a68.449,68.449,0,0,0-17.7,2.346A67.988,67.988,0,0,0,272.314,313.7a68.439,68.439,0,0,0,17.7-2.346,67.988,67.988,0,0,0-17.479-133.645Zm-199.566,0a68.177,68.177,0,1,0,17.7,2.346A67.863,67.863,0,0,0,72.972,177.707ZM199.367,243.79c.063-2.375.241-4.764.533-7.118a73.3,73.3,0,0,1,28.442-49.263c1.831-1.384,3.762-2.7,5.751-3.926l-26.51-46.167c-2.088,1.133-4.231,2.166-6.386,3.077a73.3,73.3,0,0,1-56.885,0c-2.154-.911-4.3-1.944-6.386-3.077l-26.509,46.167c1.989,1.224,3.919,2.542,5.751,3.926a73.3,73.3,0,0,1,28.442,49.263c.292,2.354.471,4.743.533,7.118ZM172.756,5.1a67.966,67.966,0,1,0,67.966,67.966A68.043,68.043,0,0,0,172.756,5.1Z" transform="translate(7.657 7.656)" fill="#fff"/>
    <path id="Trazado_145601" data-name="Trazado 145601" d="M340.855,225.981a72.022,72.022,0,0,0-103.841-44.651l-27.6-48.063a71.918,71.918,0,1,0-75.507,0l-27.6,48.063a71.9,71.9,0,1,0,37.641,65.376h55.423a71.894,71.894,0,0,0,35.972,60.236h0a71.954,71.954,0,0,0,105.51-80.96ZM102.6,71.975a69.059,69.059,0,1,1,69.059,69.059A69.137,69.137,0,0,1,102.6,71.975ZM138.7,262.483A69.059,69.059,0,0,1,12.185,279.139,69.059,69.059,0,0,1,89.865,177.9a69.059,69.059,0,0,1,48.832,84.58Zm61.194-26.77a72.058,72.058,0,0,0-.545,8.077H143.978a71.882,71.882,0,0,0-35.133-61.018l27.577-48.025a71.882,71.882,0,0,0,70.481,0l27.577,48.025a72.129,72.129,0,0,0-34.588,52.942ZM331.14,279.139A69.059,69.059,0,1,1,253.459,177.9a69.443,69.443,0,0,1,17.986-2.383A69.085,69.085,0,0,1,331.14,279.139Z" transform="translate(8.75 8.75)" fill="#fff"/>
  </g>
</svg>
