<svg xmlns="http://www.w3.org/2000/svg" xmlns:xlink="http://www.w3.org/1999/xlink" width="177.44" height="177.44" viewBox="0 0 177.44 177.44">
  <defs>
    <filter id="Elipse_4304" x="18.879" y="23.627" width="138" height="138" filterUnits="userSpaceOnUse">
      <feOffset dy="3" input="SourceAlpha"/>
      <feGaussianBlur stdDeviation="3" result="blur"/>
      <feFlood flood-opacity="0.161"/>
      <feComposite operator="in" in2="blur"/>
      <feComposite in="SourceGraphic"/>
    </filter>
  </defs>
  <g id="Grupo_86252" data-name="Grupo 86252" transform="translate(-572.121 -2121.027)">
    <path id="Trazado_145597" data-name="Trazado 145597" d="M80.724,161.449A80.743,80.743,0,0,1,49.3,6.348,80.743,80.743,0,0,1,112.149,155.1,80.231,80.231,0,0,1,80.724,161.449Z" transform="matrix(0.105, 0.995, -0.995, 0.105, 732.686, 2121.027)" fill="#3ca8f4"/>
    <g transform="matrix(1, 0, 0, 1, 572.12, 2121.03)" filter="url(#Elipse_4304)">
      <circle id="Elipse_4304-2" data-name="Elipse 4304" cx="60" cy="60" r="60" transform="translate(27.88 29.63)" fill="#fff"/>
    </g>
    <g id="Page-1" transform="translate(618.309 2173.648)">
      <g id="_090---Person-Speaking" data-name="090---Person-Speaking">
        <g id="Icons" transform="translate(19.834 1.182)">
          <path id="Shape" d="M40.783,46.428c-3.115,3.3-9.928,8.049-23.752,9.216.047-1.412.058-2.94-.012-4.445,13.334-1.26,19.342-6.72,21.792-10.009a10.722,10.722,0,0,0,1.843,5.075C40.69,46.311,40.737,46.37,40.783,46.428Z" transform="translate(2.833 5.696)" fill="#7ae582"/>
          <path id="Shape-2" data-name="Shape" d="M42.533,35.613a17,17,0,0,0-1.295,8.773c.14,1.155.233,2.345.408,3.5-2.45,3.29-8.458,8.749-21.792,10.009-.175-4.188-.933-8.271-3.08-9.461a76.7,76.7,0,0,1-8.189,2.473,2.566,2.566,0,0,1-3.021-1.878c-.8-2.321.3-2.951-.047-4.34-.245-.957-1.155-1.19-1.867-1.7-.572-.408,1.015-2.321,1.015-2.321a6.6,6.6,0,0,1-2.053-.595c-.408-.35.163-.933.688-2.03a2.548,2.548,0,0,0,.175-1.528C3.289,35.5,1.75,35.111,1,34.551-.572,33.373-.654,33.1,3.453,28.66c.91-.968,2.088-1.995,2.088-3.85,0-1.645-2.042-1.645-2.042-3.978s1.972-7.3,2.38-8.388A17.052,17.052,0,0,1,9.449,6.6c2.31-2.45,5.506-3.511,8.749-4.258C30.051-.4,36,1.105,42.755,6.425a14.653,14.653,0,0,1,5.3,7.618A27.971,27.971,0,0,1,49,21.789c-.1,6.918-4.5,9.344-6.463,13.824Z" transform="translate(-0.002 -0.999)" fill="#ffda73"/>
          <path id="Shape-3" data-name="Shape" d="M46.2,59.947a1.153,1.153,0,0,1-1.155,1.272H17.886a1.167,1.167,0,0,1-1.155-1.283c.117-1.155.268-2.963.35-5.04C30.9,53.729,37.718,48.981,40.832,45.68A38.565,38.565,0,0,1,46.2,59.947Z" transform="translate(2.784 6.444)" fill="#29b39d"/>
          <g id="Grupo_84487" data-name="Grupo 84487" transform="translate(26.829 4.667)">
            <path id="Shape-4" data-name="Shape" d="M39.332,17.832a1.167,1.167,0,0,1-1.149-.975c-1.044-6.252-7.841-9.524-14.016-9.524a1.167,1.167,0,1,1,0-2.333c7.158,0,15.061,3.942,16.316,11.474a1.167,1.167,0,0,1-.959,1.342A1.081,1.081,0,0,1,39.332,17.832Z" transform="translate(-23 -5)" fill="#f5f5f5"/>
            <circle id="Oval" cx="1.167" cy="1.167" r="1.167" transform="translate(15.166 15.166)" fill="#f5f5f5"/>
          </g>
        </g>
        <g id="Icons_copy">
          <path id="Shape-5" data-name="Shape" d="M14.428,34.174a1.167,1.167,0,0,0-1.605.38,5.686,5.686,0,0,0,0,5.891,1.167,1.167,0,1,0,1.983-1.225,3.362,3.362,0,0,1,0-3.441A1.167,1.167,0,0,0,14.428,34.174Z" transform="translate(1.999 4.513)"/>
          <path id="Shape-6" data-name="Shape" d="M12.2,30.233a1.167,1.167,0,0,0-1.633.243,12.832,12.832,0,0,0,0,15.39,1.167,1.167,0,1,0,1.867-1.4,10.5,10.5,0,0,1,0-12.608,1.167,1.167,0,0,0-.233-1.624Z" transform="translate(1.333 3.847)"/>
          <path id="Shape-7" data-name="Shape" d="M9.6,28.867a1.167,1.167,0,0,0-1.867-1.4,18.665,18.665,0,0,0,0,22.4,1.167,1.167,0,0,0,1.867-1.4,16.332,16.332,0,0,1,0-19.6Z" transform="translate(0.666 3.347)"/>
          <path id="Shape-8" data-name="Shape" d="M4.9,53.864a1.167,1.167,0,1,0,1.867-1.4,22.165,22.165,0,0,1,0-26.6,1.167,1.167,0,0,0-1.867-1.4A24.5,24.5,0,0,0,4.9,53.864Z" transform="translate(0 2.847)"/>
          <path id="Shape-9" data-name="Shape" d="M61.59,53.428c-1.365-1.785-1.622-4.188-1.89-6.731-.047-.432-.093-.852-.14-1.283a15.649,15.649,0,0,1,1.213-8.166,20.686,20.686,0,0,1,2.461-3.908c1.89-2.555,4.025-5.436,4.095-10.371a28.9,28.9,0,0,0-.992-8.073,15.82,15.82,0,0,0-5.7-8.224C53.155.781,46.7-.3,35.1,2.367c-3.161.735-6.743,1.855-9.333,4.6A18.1,18.1,0,0,0,21.949,13.2l-.163.432C20.724,16.448,19.5,19.948,19.5,22A4.143,4.143,0,0,0,21,25.22c.455.432.537.537.537.77a3.91,3.91,0,0,1-1.47,2.73l-.3.315c-2.823,3.045-3.873,4.316-3.756,5.611a2.906,2.906,0,0,0,1.458,2.007,6.8,6.8,0,0,0,1.015.595,3.635,3.635,0,0,1,1.015.642,1.459,1.459,0,0,1-.093.817c-.128.292-.28.537-.4.758-.35.63-1.015,1.8,0,2.648a2.819,2.819,0,0,0,.9.478,2.545,2.545,0,0,0-.362,1.493,1.444,1.444,0,0,0,.595,1.027c.222.152.443.28.677.42.525.292.688.408.735.618a1.75,1.75,0,0,1-.082.945,5.6,5.6,0,0,0,.163,3.488,3.733,3.733,0,0,0,4.351,2.636A73.26,73.26,0,0,0,33.755,50.9c1.983,1.808,2.671,8.528,1.762,17.534a2.362,2.362,0,0,0,.595,1.8,2.333,2.333,0,0,0,1.727.77H65a2.311,2.311,0,0,0,1.738-.782,2.283,2.283,0,0,0,.583-1.785,39.232,39.232,0,0,0-5.728-15Zm-25.5-3.336c.222-.082.432-.152.63-.222.723-.257,1.26-.443,1.528-.525,4.13-1.307,6.206-3.22,6.148-5.681a1.212,1.212,0,0,0-1.2-1.143,1.153,1.153,0,0,0-1.132,1.19c.012.735-.548,2.158-4.526,3.406-.28.093-.84.292-1.587.548-.665.233-1.482.525-2.38.828h-.012a74.632,74.632,0,0,1-8.038,2.438,1.426,1.426,0,0,1-1.68-1.108,3.266,3.266,0,0,1-.093-2.193,4.1,4.1,0,0,0,.07-2.065,3.266,3.266,0,0,0-1.773-2.03,8.785,8.785,0,0,1,.688-.957,1.167,1.167,0,0,0,.187-1.167A1.154,1.154,0,0,0,22,40.678c-.292-.047-.63-.1-.9-.175.128-.233.28-.5.42-.793a3.69,3.69,0,0,0,.268-2.251c-.233-1.26-1.388-1.855-2.24-2.286a4.8,4.8,0,0,1-.677-.385,6.506,6.506,0,0,1-.513-.408,25.752,25.752,0,0,1,3.126-3.756l.28-.292a6.125,6.125,0,0,0,2.112-4.34,3.215,3.215,0,0,0-1.248-2.45A1.867,1.867,0,0,1,21.832,22c0-1.89,1.61-6.148,2.135-7.548l.163-.443a15.806,15.806,0,0,1,3.336-5.448c2.158-2.286,5.191-3.231,8.154-3.92C47.836,1.831,53.132,3.732,59.2,8.5a13.416,13.416,0,0,1,4.888,7.034,26.236,26.236,0,0,1,.91,7.4c-.058,4.188-1.8,6.533-3.64,9.018a22.617,22.617,0,0,0-2.718,4.363,18.057,18.057,0,0,0-1.388,9.379c.047.408.093.828.128,1.248.07.595.128,1.19.21,1.785C55.232,51.7,49.737,56.38,38.13,57.756c-.233-3.056-.817-5.88-2.042-7.664Zm23.18,4.06c-2.893,2.753-9.1,6.824-21.033,8.061.012-.7.012-1.412,0-2.123C49.084,58.841,55.057,54.8,58.16,51.6a10.532,10.532,0,0,0,1.108,2.555ZM37.838,68.664c.128-1.225.245-2.625.315-4.095,11.969-1.19,18.712-5.028,22.422-8.434A38.583,38.583,0,0,1,65,68.664Z" transform="translate(2.666 -0.986)"/>
        </g>
      </g>
    </g>
  </g>
</svg>
