<svg xmlns="http://www.w3.org/2000/svg" width="65.368" height="50" viewBox="0 0 65.368 50">
  <g id="t1-ico4" transform="translate(0 -60.184)">
    <path id="Path_179562" data-name="Path 179562" d="M24.387,62.724a14.152,14.152,0,0,1,8.8-2.53,13.868,13.868,0,0,1,7.87,2.584A14.214,14.214,0,0,1,46.3,70.654a29.97,29.97,0,0,1,.816,5.721q.272,3.145.545,6.29a8.7,8.7,0,0,1,2.652-3.455,4.305,4.305,0,0,1,.092-2.579,4.8,4.8,0,0,1,3.074-2.864,5.381,5.381,0,0,1,5.776,1.575,4.29,4.29,0,0,1,.826,3.865A8.375,8.375,0,0,1,62.739,82.7a8.057,8.057,0,0,1-.334,6.686,4.534,4.534,0,0,0-.342,1.149,7.138,7.138,0,0,1-2.834,4.083c0,.669-.017,1.338.02,2.006.984.467,1.951.97,2.929,1.453a6.993,6.993,0,0,1,2.043,1.273,4.1,4.1,0,0,1,1.148,2.616v7.3a.968.968,0,0,1-1.14.9,1,1,0,0,1-.774-1.09c-.008-2.261.005-4.521,0-6.782a2.219,2.219,0,0,0-1.349-2.107q-1.505-.756-3.012-1.507a14.174,14.174,0,0,1-1.778,1.554,4.025,4.025,0,0,1-4.119.063,12.521,12.521,0,0,1-1.881-1.616c-.49.243-.975.5-1.473.72a5.588,5.588,0,0,1,1.2,3.663q0,2.942,0,5.882a1.223,1.223,0,0,1-.351,1.02.957.957,0,0,1-1.323-.1,1.344,1.344,0,0,1-.246-.928q.006-3.066,0-6.131a3.243,3.243,0,0,0-2.2-3.124c-1.715-.752-3.424-1.515-5.138-2.267a10.376,10.376,0,0,1-4.168,4.334,10.188,10.188,0,0,1-14.029-4.334c-1.831.808-3.665,1.611-5.492,2.43a3.14,3.14,0,0,0-1.845,2.746c-.027,2.2.011,4.4-.017,6.607a.954.954,0,0,1-1.042.986.967.967,0,0,1-.858-.993c-.01-2.21-.014-4.423,0-6.633a5.2,5.2,0,0,1,2.1-3.981,17.279,17.279,0,0,1-1.842-.591q-1.224,1.22-2.444,2.442c-.005,2.88,0,5.759,0,8.638a1,1,0,0,1-.8,1.109.963.963,0,0,1-1.112-.991c-.014-2.8,0-5.611,0-8.416a.572.572,0,0,0-.162-.5Q8.947,99.129,7.814,98c-1.481.512-3.017.844-4.5,1.343a2.152,2.152,0,0,0-1.392,2.048c-.023,2.6.011,5.2-.015,7.806a.954.954,0,0,1-1.12.963.982.982,0,0,1-.786-.9v-8.142a4.109,4.109,0,0,1,3.027-3.71c1.192-.345,2.386-.682,3.579-1.02.2-.075.485-.119.526-.368a10.834,10.834,0,0,0,.029-1.482A7.555,7.555,0,0,1,4.4,90.6a9.222,9.222,0,0,1-.3-2.866,2.077,2.077,0,0,0-.163-1.122,6.571,6.571,0,0,1-.789-2.089,6.094,6.094,0,0,1,6.049-6.942c2.993-.018,5.987,0,8.979-.008a36.276,36.276,0,0,1,.922-7.023,14.168,14.168,0,0,1,5.293-7.828m-.54,3.016a14.213,14.213,0,0,0-3.5,8.706c-.5,6.01-1.009,12.025-1.957,17.984a22.823,22.823,0,0,0,6,2.529c.541-.25,1.1-.465,1.63-.734a1.086,1.086,0,0,0,.591-1.012c.014-1.074-.009-2.147.01-3.221a11.985,11.985,0,0,1-3.266-3.279,11.017,11.017,0,0,1-1.832-5.745,4.469,4.469,0,0,1,.419-2.7,3.921,3.921,0,0,1,1.328-1.227A5.95,5.95,0,0,0,25.354,74.8c.227-.433.315-1.035.829-1.233a.947.947,0,0,1,1.293,1.018,7.268,7.268,0,0,1-3.285,4.134c-.352.218-.752.507-.77.964a10.6,10.6,0,0,0,.319,3.336,9.272,9.272,0,0,0,17.935-.184,15.587,15.587,0,0,0,.276-4.121A2.195,2.195,0,0,0,41,77a23.084,23.084,0,0,0-11.9-4.589c-.425-.074-.936-.063-1.235-.428a.954.954,0,0,1,.18-1.388c.424-.3.963-.117,1.431-.068a24.951,24.951,0,0,1,12.737,4.991,4.107,4.107,0,0,1,1.641,3.067,15.7,15.7,0,0,1-.465,5.206,11.231,11.231,0,0,1-3.826,5.593,4.639,4.639,0,0,0-.794.636c-.026,1.025,0,2.053-.01,3.078a1.144,1.144,0,0,0,.507,1.078c.553.3,1.149.518,1.72.785a22.887,22.887,0,0,0,6-2.53c-.467-2.954-.839-5.923-1.138-8.9-.377-3.272-.564-6.561-.9-9.836a13.309,13.309,0,0,0-4.668-9.112,12.278,12.278,0,0,0-8.236-2.468,11.644,11.644,0,0,0-8.194,3.625m29.17,10.408a2.539,2.539,0,0,0-.96,2.056,8.3,8.3,0,0,1,6.288,0,2.574,2.574,0,0,0-.553-1.646,3.52,3.52,0,0,0-4.775-.41m-46.372,4.2a4,4,0,0,0-1.292,4.826A4.755,4.755,0,0,1,6,86.844a11.4,11.4,0,0,0,.267,3.3A5.324,5.324,0,0,0,10.2,93.833a5.159,5.159,0,0,0,6.144-4.682c.071-.771.011-1.546.038-2.32.018-.637.466-1.14.663-1.724a5.057,5.057,0,0,0,.36-2.091c0-1.173,0-2.348,0-3.522q-4.039-.008-8.077,0a4.3,4.3,0,0,0-2.677.85m45.874-.223a6.2,6.2,0,0,0-3.268,3.888,5.958,5.958,0,0,0,.087,3.687,12.775,12.775,0,0,1,.771,1.934,5.142,5.142,0,0,0,3.51,4.061,5.176,5.176,0,0,0,6.68-4.028c-1.564-2.056-4.082-3.025-6.453-3.811a5.139,5.139,0,0,1-1.134,1.613.953.953,0,0,1-1.519-.606c-.1-.537.368-.9.637-1.293a4.15,4.15,0,0,0,.479-1.306.987.987,0,0,1,1.19-.481,17.06,17.06,0,0,1,7.585,3.852,6.192,6.192,0,0,0-4.135-7.861,5.976,5.976,0,0,0-4.429.352m-24,13.234a3.025,3.025,0,0,1-.861,2,7,7,0,0,1-2.313,1.282,8.394,8.394,0,0,0,4.271,3.879,8.264,8.264,0,0,0,10.415-3.879,5.8,5.8,0,0,1-2.546-1.547c-.947-1.164-.555-2.739-.638-4.114a11.359,11.359,0,0,1-8.319,0c-.009.794.011,1.59-.009,2.384m19.59.606a21.834,21.834,0,0,1-4.449,2.176c1.492.664,2.989,1.321,4.483,1.984,1.01-.5,2.013-1.01,3.025-1.508.02-.661,0-1.324.014-1.985a7.531,7.531,0,0,1-2.317-2.675,2.068,2.068,0,0,1-.755,2.008m-32.887.659a5.418,5.418,0,0,0,.092,1.55c1.192.517,2.486.757,3.722,1.152.89-.4,1.789-.771,2.667-1.192a20.946,20.946,0,0,1-3.394-1.545,3.665,3.665,0,0,1-1.634-1.3,10.114,10.114,0,0,1-1.453,1.341m-6.126.905a6.952,6.952,0,0,0-.043.988c.7.735,1.431,1.436,2.144,2.156.721-.718,1.436-1.443,2.164-2.155-.026-.322-.047-.645-.06-.968a7.15,7.15,0,0,1-4.2-.022m44,.022a4.568,4.568,0,0,1-.229,1.961c.666.6,1.307,1.44,2.3,1.412,1.025.064,1.706-.786,2.375-1.421a4.474,4.474,0,0,1-.221-1.95A7.638,7.638,0,0,1,53.089,95.546Z" fill="#fe502d"/>
    <path id="Path_179563" data-name="Path 179563" d="M56.735,236.6a2.237,2.237,0,0,1,.978-.1,18.423,18.423,0,0,1,5.445.882c.389.154.859.306,1.016.74a.956.956,0,0,1-.85,1.3,14.559,14.559,0,0,1-1.5-.469,21.148,21.148,0,0,0-4.379-.539,1.21,1.21,0,0,1-1.051-.4A.955.955,0,0,1,56.735,236.6Z" transform="translate(-49.032 -153.797)" fill="#fe502d"/>
    <path id="Path_179564" data-name="Path 179564" d="M32.6,388.957a.953.953,0,0,1,1.2.34,1.559,1.559,0,0,1,.167.866q-.006,2.744,0,5.489a1.26,1.26,0,0,1-.3.987.964.964,0,0,1-1.384-.073,1.527,1.527,0,0,1-.235-1.041c.01-1.878-.008-3.756.008-5.634A.991.991,0,0,1,32.6,388.957Z" transform="translate(-27.949 -286.72)" fill="#fe502d"/>
    <path id="Path_179565" data-name="Path 179565" d="M465.49,398.828a.952.952,0,0,1,1.338.83c.029,1.583.006,3.169.011,4.752a1,1,0,0,1-.771,1.084.959.959,0,0,1-1.136-.972c-.014-1.576-.008-3.15,0-4.724A1,1,0,0,1,465.49,398.828Z" transform="translate(-405.566 -295.332)" fill="#fe502d"/>
    <path id="Path_179566" data-name="Path 179566" d="M168.854,405a.957.957,0,0,1,1.2.3,1.5,1.5,0,0,1,.189.895c-.008,1.194,0,2.386,0,3.58a1.05,1.05,0,0,1-.392.926.952.952,0,0,1-1.357-.239,1.73,1.73,0,0,1-.169-.952c.009-1.189-.005-2.377.005-3.566A1.012,1.012,0,0,1,168.854,405Z" transform="translate(-146.83 -300.706)" fill="#fe502d"/>
    <path id="Path_179567" data-name="Path 179567" d="M329.245,404.965a.953.953,0,0,1,1.126.324,1.74,1.74,0,0,1,.191,1.023c-.015,1.219.017,2.439-.014,3.658a.949.949,0,1,1-1.9-.079c-.014-1.319-.008-2.639,0-3.958A.989.989,0,0,1,329.245,404.965Z" transform="translate(-286.684 -300.702)" fill="#fe502d"/>
  </g>
</svg>
