<svg xmlns="http://www.w3.org/2000/svg" width="47.106" height="50" viewBox="0 0 47.106 50">
  <g id="t1-ico3" transform="translate(-48.73 -35.989)">
    <path id="Path_179546" data-name="Path 179546" d="M67.014,37.081a14.724,14.724,0,0,1,11.905.342,7.182,7.182,0,0,0,3.475.5,2.1,2.1,0,0,1,.991.033,1.212,1.212,0,0,1,.758,1.32A5.708,5.708,0,0,1,82.809,42.1a14.339,14.339,0,0,1,.581,8.1c-.116.362.148.689.216,1.034A4.89,4.89,0,0,1,81.661,56.5a11.2,11.2,0,0,1-3.083,5.546c.166,1.075.3,2.154.4,3.239a3.547,3.547,0,0,1,1.729.253c.911.3,1.759.769,2.677,1.053a3.344,3.344,0,0,1,1.289.447,1.991,1.991,0,0,1,.485.716,36.495,36.495,0,0,1,6.12,2.992,7.786,7.786,0,0,1,1.844,1.572,8.9,8.9,0,0,1,1.268,2.9,52.038,52.038,0,0,1,1.432,9.537,1.048,1.048,0,0,1-.4,1.1.907.907,0,0,1-1.383-.643,71.085,71.085,0,0,0-.856-7.143,19.81,19.81,0,0,0-.945-3.617,3.585,3.585,0,0,0-1.318-1.734A29.016,29.016,0,0,0,84.9,69.6a22.5,22.5,0,0,0-.262,6.568,7.818,7.818,0,0,0,1.665,4.2,4.793,4.793,0,0,0,1.9,1.3,1.362,1.362,0,0,1,.886,1.26c-.009.536-.1,1.067-.131,1.6A1.445,1.445,0,0,1,88.6,85.6a.908.908,0,0,1-1.492-.635c.009-.578.1-1.151.142-1.728a6.715,6.715,0,0,1-3.35-3.192,11.356,11.356,0,0,1-1.082-3.734,25.316,25.316,0,0,1,.447-7.867c-1.219-.3-2.311-.953-3.511-1.307a26.106,26.106,0,0,1-1.365,5.293,8.859,8.859,0,0,1-3.224,4.287,5.182,5.182,0,0,1-4.2.682,6.718,6.718,0,0,1-3.7-2.875,14.692,14.692,0,0,1-1.858-4.5,27.066,27.066,0,0,1-.6-2.9c-1.227.308-2.379.858-3.615,1.136a26.7,26.7,0,0,1,.535,7.852,10.159,10.159,0,0,1-1.772,5.049,6.531,6.531,0,0,1-2.646,2.069c.034.61.159,1.218.133,1.832a.912.912,0,0,1-1.42.581c-.478-.334-.38-.983-.453-1.485-.025-.644-.272-1.359.1-1.945.327-.56,1.03-.632,1.529-.97a5.9,5.9,0,0,0,2.47-3.878A20.658,20.658,0,0,0,59.6,69.6a31.452,31.452,0,0,0-5.167,2.514,4.369,4.369,0,0,0-1.664,1.634,16.072,16.072,0,0,0-1.158,3.733,66.967,66.967,0,0,0-1.061,7.62.908.908,0,1,1-1.809-.127c.11-1.485.291-2.965.492-4.441a36.543,36.543,0,0,1,1.335-6.165A6.737,6.737,0,0,1,52,71.726a13.057,13.057,0,0,1,3.128-2.1,45.341,45.341,0,0,1,4.159-1.854,1.436,1.436,0,0,1,1.173-1.215c1.568-.266,2.983-1.1,4.567-1.3a2.456,2.456,0,0,1,.662.058q.141-1.648.4-3.284A12.088,12.088,0,0,1,63.171,56.6,5.031,5.031,0,0,1,60.9,51.794c.031-.411.252-.819.1-1.231a12.527,12.527,0,0,1,.6-7.628,11.243,11.243,0,0,1,5.409-5.854m.742,1.657a9.362,9.362,0,0,0-4.392,4.684,11,11,0,0,0-.724,6.158,7.413,7.413,0,0,0,1.485-3.944,1.475,1.475,0,0,1,.381-1.056,1.319,1.319,0,0,1,1.4-.251,23.609,23.609,0,0,0,12.624-.036,1.515,1.515,0,0,1,1.042-.02,1.231,1.231,0,0,1,.758,1.141,8.247,8.247,0,0,0,1.329,4.249,12.717,12.717,0,0,0-.594-7.007,1.615,1.615,0,0,1-.165-.982c.068-.4.416-.652.667-.941a3.3,3.3,0,0,0,.567-.959,9.612,9.612,0,0,1-4.351-.872,11.665,11.665,0,0,0-3.938-1.014,11.877,11.877,0,0,0-6.092.85m-1.85,7.475a10.059,10.059,0,0,1-1.7,4.324,4.537,4.537,0,0,1-1.5,1.485A3.18,3.18,0,0,0,64.2,55.09a1.142,1.142,0,0,1,.674.774A9.384,9.384,0,0,0,67.5,61a6.649,6.649,0,0,0,4.2,1.781,7.8,7.8,0,0,0,5.688-2.136,8.376,8.376,0,0,0,2.486-4.532,1.344,1.344,0,0,1,.345-.81,6.145,6.145,0,0,0,.924-.783,3.438,3.438,0,0,0,.831-2.246,2.758,2.758,0,0,1-1.584-1.216,10.662,10.662,0,0,1-1.835-4.879,25.645,25.645,0,0,1-12.649.036m1.822,17.239c-.155.974-.23,1.957-.314,2.939a1.028,1.028,0,0,1-.764.8,23.877,23.877,0,0,0,1.287,4.744,6.653,6.653,0,0,0,2.791,3.434,3.3,3.3,0,0,0,3.177-.035,6.814,6.814,0,0,0,2.753-3.479,23.778,23.778,0,0,0,1.256-4.7,1.025,1.025,0,0,1-.676-.843c-.057-1.016-.194-2.025-.327-3.033A9.08,9.08,0,0,1,67.728,63.452Z" fill="#fe502d"/>
  </g>
</svg>
