<svg id="t2-info2" xmlns="http://www.w3.org/2000/svg" xmlns:xlink="http://www.w3.org/1999/xlink" width="820" height="530" viewBox="0 0 820 530">
  <defs>
    <radialGradient id="radial-gradient" cx="0.5" cy="0.5" r="0.5" gradientUnits="objectBoundingBox">
      <stop offset="0.26"/>
      <stop offset="0.51" stop-color="#020202"/>
      <stop offset="0.61" stop-color="#090909"/>
      <stop offset="0.69" stop-color="#151515"/>
      <stop offset="0.75" stop-color="#272727"/>
      <stop offset="0.8" stop-color="#3d3d3d"/>
      <stop offset="0.85" stop-color="#595959"/>
      <stop offset="0.89" stop-color="#7b7b7b"/>
      <stop offset="0.93" stop-color="#a2a2a2"/>
      <stop offset="0.96" stop-color="#ccc"/>
      <stop offset="1" stop-color="#fbfbfb"/>
      <stop offset="1" stop-color="#fff"/>
    </radialGradient>
    <radialGradient id="radial-gradient-2" cx="0.5" cy="0.5" r="0.5" gradientTransform="translate(0)" xlink:href="#radial-gradient"/>
    <radialGradient id="radial-gradient-3" cx="0.5" cy="0.5" r="0.5" gradientTransform="translate(0)" xlink:href="#radial-gradient"/>
  </defs>
  <g id="Capa_2" data-name="Capa 2">
    <g id="Capa_1" data-name="Capa 1">
      <rect id="Rectángulo_36824" data-name="Rectángulo 36824" width="820" height="530" fill="none"/>
      <path id="Path_180082" data-name="Path 180082" d="M667.91,160.59v4.51h-2.64V152.3h5a5.78,5.78,0,0,1,2.53.53,3.84,3.84,0,0,1,1.68,1.5,4.08,4.08,0,0,1,.59,2.21,3.66,3.66,0,0,1-1.29,3,5.3,5.3,0,0,1-3.56,1.09Zm0-2.14h2.36a2.31,2.31,0,0,0,1.59-.49,1.79,1.79,0,0,0,.55-1.41,2.12,2.12,0,0,0-.55-1.52,2.09,2.09,0,0,0-1.53-.59h-2.42Z" fill="#12263f"/>
      <path id="Path_180083" data-name="Path 180083" d="M682.06,158a6.43,6.43,0,0,0-.91-.07,1.85,1.85,0,0,0-1.89,1v6.22h-2.54v-9.51h2.4l.07,1.13a2.35,2.35,0,0,1,2.11-1.31,2.58,2.58,0,0,1,.8.12Z" fill="#12263f"/>
      <path id="Path_180084" data-name="Path 180084" d="M682.57,160.26a5.7,5.7,0,0,1,.54-2.53,4,4,0,0,1,1.57-1.71,4.56,4.56,0,0,1,2.38-.61,4.31,4.31,0,0,1,3.14,1.18,4.73,4.73,0,0,1,1.36,3.2v.65a5,5,0,0,1-1.22,3.51,4.75,4.75,0,0,1-6.56,0,5.06,5.06,0,0,1-1.23-3.59Zm2.54.17a3.57,3.57,0,0,0,.51,2.08,1.83,1.83,0,0,0,2.9,0,3.88,3.88,0,0,0,.52-2.27,3.49,3.49,0,0,0-.52-2.06,1.68,1.68,0,0,0-1.46-.73,1.65,1.65,0,0,0-1.44.73A3.92,3.92,0,0,0,685.11,160.43Z" fill="#12263f"/>
      <path id="Path_180085" data-name="Path 180085" d="M697.1,163.23a1.64,1.64,0,0,0,1.14-.39,1.37,1.37,0,0,0,.46-1h2.38a3.23,3.23,0,0,1-.53,1.77,3.45,3.45,0,0,1-1.42,1.25,4.37,4.37,0,0,1-2,.44,4.12,4.12,0,0,1-3.21-1.29,5.12,5.12,0,0,1-1.18-3.58v-.17a5.06,5.06,0,0,1,1.17-3.51,4.09,4.09,0,0,1,3.2-1.31,4,4,0,0,1,2.87,1,3.6,3.6,0,0,1,1.09,2.7H698.7a1.77,1.77,0,0,0-.46-1.21,1.51,1.51,0,0,0-1.16-.46,1.53,1.53,0,0,0-1.34.65,3.76,3.76,0,0,0-.45,2.1v.26a3.759,3.759,0,0,0,.45,2.11,1.54,1.54,0,0,0,1.36.64Z" fill="#12263f"/>
      <path id="Path_180086" data-name="Path 180086" d="M706.91,165.27A4.66,4.66,0,0,1,703.5,164a4.54,4.54,0,0,1-1.31-3.42v-.24a5.769,5.769,0,0,1,.55-2.57,4.079,4.079,0,0,1,1.57-1.74,4.49,4.49,0,0,1,2.32-.61,4,4,0,0,1,3.07,1.23,5,5,0,0,1,1.12,3.49v1h-6.06a2.31,2.31,0,0,0,.75,1.49,2.21,2.21,0,0,0,1.56.57,2.75,2.75,0,0,0,2.3-1.07l1.25,1.4a3.8,3.8,0,0,1-1.55,1.26,5.09,5.09,0,0,1-2.16.48Zm-.29-7.81a1.58,1.58,0,0,0-1.23.51,2.69,2.69,0,0,0-.6,1.47h3.53v-.21a1.86,1.86,0,0,0-.46-1.31A1.61,1.61,0,0,0,706.62,157.46Z" fill="#12263f"/>
      <path id="Path_180087" data-name="Path 180087" d="M717.41,162.47a.81.81,0,0,0-.46-.73,5.189,5.189,0,0,0-1.48-.48c-2.26-.48-3.4-1.44-3.4-2.89a2.6,2.6,0,0,1,1.06-2.11,4.18,4.18,0,0,1,2.74-.85,4.63,4.63,0,0,1,2.9.85,2.7,2.7,0,0,1,1.08,2.22h-2.54a1.21,1.21,0,0,0-.35-.9,1.47,1.47,0,0,0-1.1-.36,1.54,1.54,0,0,0-1,.29.94.94,0,0,0-.35.74.77.77,0,0,0,.4.68,3.93,3.93,0,0,0,1.35.45,11.626,11.626,0,0,1,1.6.43,2.62,2.62,0,0,1,2,2.55,2.48,2.48,0,0,1-1.12,2.11,4.77,4.77,0,0,1-2.88.8,5.08,5.08,0,0,1-2.12-.42,3.65,3.65,0,0,1-1.46-1.17,2.73,2.73,0,0,1-.52-1.61h2.4a1.32,1.32,0,0,0,.51,1,2,2,0,0,0,1.24.36,1.82,1.82,0,0,0,1.11-.28.86.86,0,0,0,.39-.68Z" fill="#12263f"/>
      <path id="Path_180088" data-name="Path 180088" d="M721.12,160.26a5.7,5.7,0,0,1,.54-2.53,4,4,0,0,1,1.57-1.71,4.53,4.53,0,0,1,2.38-.61,4.31,4.31,0,0,1,3.14,1.18,4.73,4.73,0,0,1,1.36,3.2v.65a5,5,0,0,1-1.22,3.51,4.75,4.75,0,0,1-6.56,0,5.06,5.06,0,0,1-1.23-3.59Zm2.54.17a3.571,3.571,0,0,0,.51,2.08,1.67,1.67,0,0,0,1.46.72,1.7,1.7,0,0,0,1.44-.71,4,4,0,0,0,.52-2.27,3.56,3.56,0,0,0-.52-2.06,1.68,1.68,0,0,0-1.46-.73,1.65,1.65,0,0,0-1.44.73,3.92,3.92,0,0,0-.51,2.24Z" fill="#12263f"/>
      <path id="Path_180089" data-name="Path 180089" d="M735.78,160.27a5.7,5.7,0,0,1,1-3.54,3.22,3.22,0,0,1,2.73-1.32,2.91,2.91,0,0,1,2.29,1V151.6h2.55v13.5h-2.3l-.12-1a3,3,0,0,1-2.44,1.18,3.24,3.24,0,0,1-2.7-1.32A6,6,0,0,1,735.78,160.27Zm2.54.18a3.79,3.79,0,0,0,.46,2.06,1.54,1.54,0,0,0,1.36.72,1.71,1.71,0,0,0,1.66-1v-3.77a1.67,1.67,0,0,0-1.64-1C738.93,157.46,738.32,158.46,738.32,160.45Z" fill="#12263f"/>
      <path id="Path_180090" data-name="Path 180090" d="M750.69,165.27a4.63,4.63,0,0,1-3.4-1.28,4.55,4.55,0,0,1-1.32-3.42v-.24a5.781,5.781,0,0,1,.56-2.57A4.08,4.08,0,0,1,748.1,156a4.45,4.45,0,0,1,2.31-.61,3.93,3.93,0,0,1,3.07,1.23,5,5,0,0,1,1.13,3.49v1h-6.06a2.34,2.34,0,0,0,.74,1.49,2.23,2.23,0,0,0,1.57.57,2.73,2.73,0,0,0,2.29-1.07l1.25,1.4a3.76,3.76,0,0,1-1.54,1.26,5.11,5.11,0,0,1-2.17.51Zm-.29-7.81a1.58,1.58,0,0,0-1.22.51,2.55,2.55,0,0,0-.6,1.47h3.53v-.21a1.86,1.86,0,0,0-.46-1.31,1.63,1.63,0,0,0-1.25-.46Z" fill="#12263f"/>
      <path id="Path_180091" data-name="Path 180091" d="M664.74,181.87a5.52,5.52,0,0,1,1-3.52,3.37,3.37,0,0,1,2.81-1.34,3,3,0,0,1,2.43,1.08l.11-.9h2.3v9.19a4,4,0,0,1-.57,2.17,3.63,3.63,0,0,1-1.59,1.41,5.66,5.66,0,0,1-2.41.48,5.17,5.17,0,0,1-2-.42,3.54,3.54,0,0,1-1.5-1.07l1.12-1.55a3,3,0,0,0,2.3,1.06,2.19,2.19,0,0,0,1.58-.54,2,2,0,0,0,.56-1.53v-.51a3,3,0,0,1-2.31,1,3.34,3.34,0,0,1-2.77-1.34,5.54,5.54,0,0,1-1.06-3.55Zm2.54.18a3.46,3.46,0,0,0,.52,2,1.64,1.64,0,0,0,1.42.74,1.77,1.77,0,0,0,1.66-.88v-4a1.76,1.76,0,0,0-1.64-.87,1.66,1.66,0,0,0-1.44.75,3.92,3.92,0,0,0-.52,2.26Z" fill="#12263f"/>
      <path id="Path_180092" data-name="Path 180092" d="M679.76,186.87a4.66,4.66,0,0,1-3.41-1.28,4.58,4.58,0,0,1-1.31-3.42v-.25a5.76,5.76,0,0,1,.55-2.56,4.08,4.08,0,0,1,1.57-1.74,4.49,4.49,0,0,1,2.32-.61,4,4,0,0,1,3.07,1.23,5,5,0,0,1,1.12,3.49v1h-6.06a2.35,2.35,0,0,0,.75,1.49,2.21,2.21,0,0,0,1.56.57,2.75,2.75,0,0,0,2.3-1.07l1.25,1.4a3.8,3.8,0,0,1-1.55,1.26,5.09,5.09,0,0,1-2.16.49Zm-.29-7.81a1.58,1.58,0,0,0-1.23.51,2.69,2.69,0,0,0-.6,1.47h3.53v-.2a1.91,1.91,0,0,0-.45-1.32,1.65,1.65,0,0,0-1.25-.46Z" fill="#12263f"/>
      <path id="Path_180093" data-name="Path 180093" d="M690.26,184.07a.8.8,0,0,0-.46-.73,5.19,5.19,0,0,0-1.48-.48q-3.39-.72-3.39-2.89a2.62,2.62,0,0,1,1.05-2.11,4.25,4.25,0,0,1,2.74-.85,4.63,4.63,0,0,1,2.9.85,2.7,2.7,0,0,1,1.08,2.22h-2.54a1.21,1.21,0,0,0-.35-.9,1.47,1.47,0,0,0-1.1-.36,1.54,1.54,0,0,0-1,.29.94.94,0,0,0-.35.74.77.77,0,0,0,.4.68,4,4,0,0,0,1.35.45,11.629,11.629,0,0,1,1.6.43,2.62,2.62,0,0,1,2,2.55,2.48,2.48,0,0,1-1.12,2.11,4.77,4.77,0,0,1-2.88.8,5.08,5.08,0,0,1-2.12-.42,3.719,3.719,0,0,1-1.46-1.17,2.73,2.73,0,0,1-.52-1.61H687a1.35,1.35,0,0,0,.51,1,2,2,0,0,0,1.24.36,1.89,1.89,0,0,0,1.11-.27.87.87,0,0,0,.4-.69Z" fill="#12263f"/>
      <path id="Path_180094" data-name="Path 180094" d="M697.41,174.85v2.34H699v1.86h-1.62v4.75a1.09,1.09,0,0,0,.2.75,1,1,0,0,0,.77.23,4.219,4.219,0,0,0,.75-.06v1.93a5.311,5.311,0,0,1-1.54.22,2.42,2.42,0,0,1-2.72-2.7v-5.12h-1.39v-1.86h1.39v-2.34Z" fill="#12263f"/>
      <path id="Path_180095" data-name="Path 180095" d="M700.43,174.73a1.26,1.26,0,0,1,.38-.94,1.65,1.65,0,0,1,2.08,0,1.23,1.23,0,0,1,.39.94,1.27,1.27,0,0,1-.39,1,1.5,1.5,0,0,1-1,.37,1.48,1.48,0,0,1-1-.37,1.27,1.27,0,0,1-.46-1Zm2.7,12h-2.55v-9.51h2.55Z" fill="#12263f"/>
      <path id="Path_180096" data-name="Path 180096" d="M704.82,181.85a5.691,5.691,0,0,1,.55-2.52,3.89,3.89,0,0,1,1.57-1.71,4.51,4.51,0,0,1,2.38-.61,4.35,4.35,0,0,1,3.14,1.18,4.77,4.77,0,0,1,1.36,3.2V182a4.94,4.94,0,0,1-1.22,3.51,4.748,4.748,0,0,1-6.56.01,5.06,5.06,0,0,1-1.23-3.59Zm2.54.19a3.551,3.551,0,0,0,.51,2.07,1.83,1.83,0,0,0,2.9,0,3.88,3.88,0,0,0,.52-2.27,3.49,3.49,0,0,0-.52-2.06,1.81,1.81,0,0,0-2.9,0,3.939,3.939,0,0,0-.51,2.22Zm2.46-8.84h2.76l-2.43,2.72h-2.07Z" fill="#12263f"/>
      <path id="Path_180097" data-name="Path 180097" d="M717.74,177.19l.07,1.1a3.33,3.33,0,0,1,2.74-1.28,2.76,2.76,0,0,1,2.25.89,4.14,4.14,0,0,1,.75,2.65v6.15H721v-6.1a1.61,1.61,0,0,0-.35-1.17,1.53,1.53,0,0,0-1.17-.37,1.76,1.76,0,0,0-1.61.92v6.72h-2.54v-9.51Z" fill="#12263f"/>
      <path id="Path_180098" data-name="Path 180098" d="M732.64,186.7h-2.55V173.2h2.55Z" fill="#12263f"/>
      <path id="Path_180099" data-name="Path 180099" d="M734.34,181.85a5.69,5.69,0,0,1,.54-2.52,4,4,0,0,1,1.57-1.71,4.53,4.53,0,0,1,2.38-.61,4.35,4.35,0,0,1,3.14,1.18,4.73,4.73,0,0,1,1.36,3.2v.65a4.94,4.94,0,0,1-1.23,3.51,4.23,4.23,0,0,1-3.27,1.32,4.32,4.32,0,0,1-3.29-1.31,5.1,5.1,0,0,1-1.22-3.59Zm2.54.19a3.551,3.551,0,0,0,.51,2.07,1.67,1.67,0,0,0,1.46.72,1.7,1.7,0,0,0,1.44-.71,4,4,0,0,0,.52-2.27,3.56,3.56,0,0,0-.52-2.06,1.68,1.68,0,0,0-1.46-.73,1.65,1.65,0,0,0-1.44.73,3.939,3.939,0,0,0-.51,2.21Z" fill="#12263f"/>
      <path id="Path_180100" data-name="Path 180100" d="M744.54,181.87a5.58,5.58,0,0,1,1-3.52,3.39,3.39,0,0,1,2.81-1.34,3,3,0,0,1,2.44,1.08l.1-.9h2.3v9.19a4.12,4.12,0,0,1-.56,2.17,3.61,3.61,0,0,1-1.6,1.41,5.63,5.63,0,0,1-2.41.48,5.25,5.25,0,0,1-2-.42,3.54,3.54,0,0,1-1.5-1.07l1.13-1.55a3,3,0,0,0,2.3,1.06,2.17,2.17,0,0,0,1.57-.54,2,2,0,0,0,.57-1.53v-.51a3,3,0,0,1-2.32,1,3.35,3.35,0,0,1-2.77-1.34,5.54,5.54,0,0,1-1.06-3.55Zm2.54.18a3.461,3.461,0,0,0,.52,2,1.66,1.66,0,0,0,1.42.74,1.79,1.79,0,0,0,1.67-.88v-4a1.77,1.77,0,0,0-1.65-.87,1.64,1.64,0,0,0-1.43.75,3.921,3.921,0,0,0-.53,2.26Z" fill="#12263f"/>
      <path id="Path_180101" data-name="Path 180101" d="M757.93,186.7h-2.54v-9.51h2.54Zm-.75-13.37H760l-2.44,2.72H755.5Z" fill="#12263f"/>
      <path id="Path_180102" data-name="Path 180102" d="M765.27,184.07a.81.81,0,0,0-.47-.73,5.08,5.08,0,0,0-1.48-.48q-3.39-.72-3.39-2.89a2.62,2.62,0,0,1,1.05-2.11,4.28,4.28,0,0,1,2.75-.85,4.58,4.58,0,0,1,2.89.85,2.68,2.68,0,0,1,1.09,2.22h-2.54a1.25,1.25,0,0,0-.35-.9,1.49,1.49,0,0,0-1.1-.36,1.52,1.52,0,0,0-1,.29.92.92,0,0,0-.36.74.78.78,0,0,0,.41.68,3.941,3.941,0,0,0,1.34.45,10.888,10.888,0,0,1,1.6.43,2.62,2.62,0,0,1,2,2.55,2.5,2.5,0,0,1-1.12,2.11,4.79,4.79,0,0,1-2.88.8,5.12,5.12,0,0,1-2.13-.42,3.68,3.68,0,0,1-1.45-1.17,2.749,2.749,0,0,1-.53-1.61H762a1.31,1.31,0,0,0,.5,1,2,2,0,0,0,1.25.36,1.86,1.86,0,0,0,1.1-.27.88.88,0,0,0,.42-.69Z" fill="#12263f"/>
      <path id="Path_180103" data-name="Path 180103" d="M772.41,174.85v2.34H774v1.86h-1.63v4.75a1.14,1.14,0,0,0,.2.75,1,1,0,0,0,.78.23,4,4,0,0,0,.74-.06v1.93a5.239,5.239,0,0,1-1.53.22,2.43,2.43,0,0,1-2.73-2.7v-5.12h-1.39v-1.86h1.39v-2.34Z" fill="#12263f"/>
      <path id="Path_180104" data-name="Path 180104" d="M775.44,174.73a1.22,1.22,0,0,1,.38-.94,1.41,1.41,0,0,1,1-.37,1.44,1.44,0,0,1,1,.37,1.35,1.35,0,0,1,0,1.89,1.62,1.62,0,0,1-2.06,0,1.27,1.27,0,0,1-.32-.95Zm2.69,12h-2.55v-9.51h2.55Z" fill="#12263f"/>
      <path id="Path_180105" data-name="Path 180105" d="M784.18,184.83a1.64,1.64,0,0,0,1.14-.39,1.33,1.33,0,0,0,.46-1h2.38a3.15,3.15,0,0,1-.53,1.77,3.39,3.39,0,0,1-1.42,1.25,4.37,4.37,0,0,1-2,.44,4.12,4.12,0,0,1-3.21-1.29,5.12,5.12,0,0,1-1.18-3.58v-.17a5.06,5.06,0,0,1,1.17-3.51,4.1,4.1,0,0,1,3.21-1.31,4,4,0,0,1,2.86,1,3.59,3.59,0,0,1,1.09,2.7h-2.38a1.73,1.73,0,0,0-.46-1.21,1.51,1.51,0,0,0-1.16-.46,1.53,1.53,0,0,0-1.34.65,3.76,3.76,0,0,0-.45,2.1v.26a3.76,3.76,0,0,0,.45,2.11A1.55,1.55,0,0,0,784.18,184.83Z" fill="#12263f"/>
      <path id="Path_180106" data-name="Path 180106" d="M795.12,186.7a3,3,0,0,1-.25-.86,3.07,3.07,0,0,1-2.4,1,3.42,3.42,0,0,1-2.32-.8,2.61,2.61,0,0,1-.92-2,2.69,2.69,0,0,1,1.13-2.32,5.44,5.44,0,0,1,3.23-.82h1.17v-.55a1.53,1.53,0,0,0-.34-1.05,1.3,1.3,0,0,0-1.06-.4,1.54,1.54,0,0,0-1,.31,1.06,1.06,0,0,0-.36.84h-2.54a2.55,2.55,0,0,1,.5-1.53,3.5,3.5,0,0,1,1.45-1.1,5.329,5.329,0,0,1,2.09-.4,4.15,4.15,0,0,1,2.79.89,3.06,3.06,0,0,1,1,2.48v4.12a4.55,4.55,0,0,0,.38,2.05v.15Zm-2.1-1.77a2.16,2.16,0,0,0,1-.25,1.62,1.62,0,0,0,.7-.67v-1.64h-1c-1.27,0-1.95.44-2,1.32v.15a1,1,0,0,0,.34.78,1.27,1.27,0,0,0,.94.31Z" fill="#12263f"/>
      <path id="Path_180107" data-name="Path 180107" d="M337.57,12.88v4.51h-2.64V4.59h5a5.79,5.79,0,0,1,2.54.53,3.84,3.84,0,0,1,1.68,1.5,4.08,4.08,0,0,1,.59,2.21,3.66,3.66,0,0,1-1.29,3,5.3,5.3,0,0,1-3.56,1.09Zm0-2.14h2.35a2.32,2.32,0,0,0,1.6-.49,1.77,1.77,0,0,0,.55-1.4,2.13,2.13,0,0,0-.55-1.52,2.05,2.05,0,0,0-1.53-.6h-2.42Z" fill="#12263f"/>
      <path id="Path_180108" data-name="Path 180108" d="M351.72,10.26a6.43,6.43,0,0,0-.91-.07,1.85,1.85,0,0,0-1.89,1v6.22h-2.54V7.88h2.4L348.85,9A2.35,2.35,0,0,1,351,7.7a2.52,2.52,0,0,1,.79.12Z" fill="#12263f"/>
      <path id="Path_180109" data-name="Path 180109" d="M352.23,12.55a5.7,5.7,0,0,1,.54-2.53,4.06,4.06,0,0,1,1.57-1.71,4.66,4.66,0,0,1,2.38-.61,4.35,4.35,0,0,1,3.14,1.18,4.73,4.73,0,0,1,1.36,3.2v.65A5,5,0,0,1,360,16.24a4.75,4.75,0,0,1-6.56,0,5.06,5.06,0,0,1-1.23-3.59Zm2.54.18a3.55,3.55,0,0,0,.51,2.07,1.83,1.83,0,0,0,2.9,0,3.86,3.86,0,0,0,.52-2.27,3.51,3.51,0,0,0-.52-2.06,1.71,1.71,0,0,0-1.46-.73,1.65,1.65,0,0,0-1.44.73,3.94,3.94,0,0,0-.51,2.26Z" fill="#12263f"/>
      <path id="Path_180110" data-name="Path 180110" d="M366.76,15.52a1.64,1.64,0,0,0,1.14-.39,1.37,1.37,0,0,0,.46-1h2.38a3.23,3.23,0,0,1-.53,1.77,3.39,3.39,0,0,1-1.42,1.25,4.37,4.37,0,0,1-2,.44,4.15,4.15,0,0,1-3.22-1.29,5.16,5.16,0,0,1-1.17-3.58v-.17A5.08,5.08,0,0,1,363.58,9a4.07,4.07,0,0,1,3.2-1.31,4,4,0,0,1,2.87,1,3.62,3.62,0,0,1,1.09,2.7h-2.38a1.77,1.77,0,0,0-.46-1.21,1.55,1.55,0,0,0-1.16-.46,1.53,1.53,0,0,0-1.34.65,3.76,3.76,0,0,0-.45,2.1v.26a3.76,3.76,0,0,0,.45,2.11,1.54,1.54,0,0,0,1.36.68Z" fill="#12263f"/>
      <path id="Path_180111" data-name="Path 180111" d="M376.57,17.56a4.66,4.66,0,0,1-3.41-1.28,4.53,4.53,0,0,1-1.31-3.42v-.24a5.77,5.77,0,0,1,.55-2.57A4.08,4.08,0,0,1,374,8.31a4.48,4.48,0,0,1,2.31-.61,4,4,0,0,1,3.08,1.23,5,5,0,0,1,1.12,3.49v1h-6.06a2.34,2.34,0,0,0,.74,1.49,2.25,2.25,0,0,0,1.57.57,2.75,2.75,0,0,0,2.3-1.07l1.25,1.4a3.86,3.86,0,0,1-1.55,1.26,5.09,5.09,0,0,1-2.19.49Zm-.29-7.81a1.58,1.58,0,0,0-1.23.51,2.69,2.69,0,0,0-.6,1.47H378v-.2a1.87,1.87,0,0,0-.46-1.32,1.64,1.64,0,0,0-1.26-.46Z" fill="#12263f"/>
      <path id="Path_180112" data-name="Path 180112" d="M387.07,14.76a.81.81,0,0,0-.46-.73,5.19,5.19,0,0,0-1.48-.48q-3.4-.72-3.4-2.88a2.62,2.62,0,0,1,1-2.12,4.28,4.28,0,0,1,2.75-.85,4.57,4.57,0,0,1,2.9.86,2.67,2.67,0,0,1,1.08,2.21H387a1.21,1.21,0,0,0-.35-.9,1.47,1.47,0,0,0-1.1-.36,1.52,1.52,0,0,0-1,.29.91.91,0,0,0-.35.74.77.77,0,0,0,.4.68,3.72,3.72,0,0,0,1.35.45,11.63,11.63,0,0,1,1.6.43,2.62,2.62,0,0,1,2,2.56,2.48,2.48,0,0,1-1.12,2.1,4.77,4.77,0,0,1-2.88.8,5,5,0,0,1-2.12-.42A3.65,3.65,0,0,1,382,16a2.73,2.73,0,0,1-.52-1.6h2.4a1.33,1.33,0,0,0,.5,1,2,2,0,0,0,1.25.36,1.89,1.89,0,0,0,1.11-.27.9.9,0,0,0,.33-.73Z" fill="#12263f"/>
      <path id="Path_180113" data-name="Path 180113" d="M390.78,12.55a5.7,5.7,0,0,1,.54-2.53,4.06,4.06,0,0,1,1.57-1.71,4.63,4.63,0,0,1,2.38-.61,4.35,4.35,0,0,1,3.14,1.18,4.73,4.73,0,0,1,1.36,3.2v.65a5,5,0,0,1-1.22,3.51,4.76,4.76,0,0,1-6.57,0,5.1,5.1,0,0,1-1.22-3.59Zm2.54.18a3.55,3.55,0,0,0,.51,2.07,1.67,1.67,0,0,0,1.46.72,1.7,1.7,0,0,0,1.44-.71,3.94,3.94,0,0,0,.52-2.27,3.58,3.58,0,0,0-.52-2.06,1.71,1.71,0,0,0-1.46-.73,1.65,1.65,0,0,0-1.44.73,3.94,3.94,0,0,0-.51,2.25Z" fill="#12263f"/>
      <path id="Path_180114" data-name="Path 180114" d="M406.53,17.39V9.74h-1.42V7.88h1.42V7.07a3.24,3.24,0,0,1,.92-2.48A3.55,3.55,0,0,1,410,3.7a5.8,5.8,0,0,1,1.29.18v2a3.37,3.37,0,0,0-.77-.08c-1,0-1.43.45-1.43,1.36v.77H411V9.74h-1.89v7.65Z" fill="#12263f"/>
      <path id="Path_180115" data-name="Path 180115" d="M412.27,5.42a1.26,1.26,0,0,1,.38-.94,1.41,1.41,0,0,1,1-.37,1.44,1.44,0,0,1,1,.37,1.22,1.22,0,0,1,.38.94,1.27,1.27,0,0,1-.39,1,1.62,1.62,0,0,1-2.06,0,1.27,1.27,0,0,1-.31-1Zm2.7,12h-2.55V7.88H415Z" fill="#12263f"/>
      <path id="Path_180116" data-name="Path 180116" d="M419.4,7.88l.07,1.1a3.34,3.34,0,0,1,2.74-1.28,2.76,2.76,0,0,1,2.25.89,4.15,4.15,0,0,1,.75,2.66v6.14h-2.54v-6.1a1.61,1.61,0,0,0-.35-1.17,1.53,1.53,0,0,0-1.17-.37,1.76,1.76,0,0,0-1.61.92v6.72H417V7.88Z" fill="#12263f"/>
      <path id="Path_180117" data-name="Path 180117" d="M432.65,17.39a2.94,2.94,0,0,1-.26-.85,3.07,3.07,0,0,1-2.4,1,3.35,3.35,0,0,1-2.31-.8,2.61,2.61,0,0,1-.92-2,2.68,2.68,0,0,1,1.12-2.32,5.57,5.57,0,0,1,3.24-.82h1.17V11a1.53,1.53,0,0,0-.34-1,1.35,1.35,0,0,0-1.07-.4,1.51,1.51,0,0,0-1,.31,1,1,0,0,0-.37.85H427a2.51,2.51,0,0,1,.51-1.53,3.4,3.4,0,0,1,1.44-1.11A5.37,5.37,0,0,1,431,7.7a4.16,4.16,0,0,1,2.8.89,3.09,3.09,0,0,1,1,2.48v4.12a4.42,4.42,0,0,0,.38,2v.15Zm-2.1-1.77a2.19,2.19,0,0,0,1-.25,1.68,1.68,0,0,0,.7-.67V13.06h-1c-1.27,0-1.95.44-2,1.32v.15a1,1,0,0,0,.33.78,1.3,1.3,0,0,0,.97.31Z" fill="#12263f"/>
      <path id="Path_180118" data-name="Path 180118" d="M439.13,7.88l.08,1.1a3.32,3.32,0,0,1,2.73-1.28,2.76,2.76,0,0,1,2.25.89,4.21,4.21,0,0,1,.76,2.66v6.14H442.4v-6.1a1.61,1.61,0,0,0-.35-1.17,1.53,1.53,0,0,0-1.17-.37,1.74,1.74,0,0,0-1.6.92v6.72h-2.54V7.88Z" fill="#12263f"/>
      <path id="Path_180119" data-name="Path 180119" d="M450.82,15.52a1.69,1.69,0,0,0,1.15-.39,1.36,1.36,0,0,0,.45-1h2.39a3.31,3.31,0,0,1-.53,1.77,3.451,3.451,0,0,1-1.42,1.25,4.37,4.37,0,0,1-2,.44,4.15,4.15,0,0,1-3.22-1.29,5.17,5.17,0,0,1-1.18-3.58v-.17A5.08,5.08,0,0,1,447.64,9a4.1,4.1,0,0,1,3.21-1.31,4,4,0,0,1,2.86,1,3.63,3.63,0,0,1,1.1,2.7h-2.39a1.77,1.77,0,0,0-.45-1.21,1.57,1.57,0,0,0-1.16-.46,1.53,1.53,0,0,0-1.34.65,3.67,3.67,0,0,0-.46,2.1v.26a3.76,3.76,0,0,0,.45,2.11,1.56,1.56,0,0,0,1.36.68Z" fill="#12263f"/>
      <path id="Path_180120" data-name="Path 180120" d="M456.24,5.42a1.26,1.26,0,0,1,.38-.94,1.65,1.65,0,0,1,2.08,0,1.23,1.23,0,0,1,.39.94,1.27,1.27,0,0,1-.39,1,1.5,1.5,0,0,1-1,.37,1.48,1.48,0,0,1-1-.37,1.27,1.27,0,0,1-.46-1Zm2.7,12h-2.55V7.88h2.55Z" fill="#12263f"/>
      <path id="Path_180121" data-name="Path 180121" d="M465.41,17.56A4.66,4.66,0,0,1,462,16.28a4.53,4.53,0,0,1-1.31-3.42v-.24a5.77,5.77,0,0,1,.55-2.57,4.08,4.08,0,0,1,1.57-1.74,4.48,4.48,0,0,1,2.31-.61,4,4,0,0,1,3.08,1.23,5,5,0,0,1,1.12,3.49v1h-6.06A2.34,2.34,0,0,0,464,15a2.25,2.25,0,0,0,1.57.57,2.75,2.75,0,0,0,2.3-1.07l1.24,1.4a3.76,3.76,0,0,1-1.54,1.26,5.09,5.09,0,0,1-2.16.4Zm-.29-7.81a1.58,1.58,0,0,0-1.23.51,2.69,2.69,0,0,0-.6,1.47h3.53v-.2a1.87,1.87,0,0,0-.46-1.32A1.66,1.66,0,0,0,465.12,9.75Z" fill="#12263f"/>
      <path id="Path_180122" data-name="Path 180122" d="M476.1,10.26a6.331,6.331,0,0,0-.91-.07,1.87,1.87,0,0,0-1.89,1v6.22h-2.54V7.88h2.4L473.23,9a2.35,2.35,0,0,1,2.12-1.31,2.56,2.56,0,0,1,.79.12Z" fill="#12263f"/>
      <path id="Path_180123" data-name="Path 180123" d="M476.61,12.55a5.57,5.57,0,0,1,.55-2.53,3.94,3.94,0,0,1,1.57-1.71,4.59,4.59,0,0,1,2.37-.61,4.33,4.33,0,0,1,3.14,1.18,4.68,4.68,0,0,1,1.36,3.2v.65a5,5,0,0,1-1.22,3.51,4.75,4.75,0,0,1-6.56,0,5.06,5.06,0,0,1-1.23-3.59Zm2.54.18a3.55,3.55,0,0,0,.51,2.07,1.83,1.83,0,0,0,2.9,0,3.86,3.86,0,0,0,.52-2.27,3.51,3.51,0,0,0-.52-2.06,1.69,1.69,0,0,0-1.46-.73,1.65,1.65,0,0,0-1.44.73,3.94,3.94,0,0,0-.51,2.26Z" fill="#12263f"/>
      <path id="Path_180124" data-name="Path 180124" d="M375.18,34.53h-4.95v-2h4.95Z" fill="#12263f"/>
      <path id="Path_180125" data-name="Path 180125" d="M385.65,37.12a1.69,1.69,0,0,0,1.15-.39,1.36,1.36,0,0,0,.45-1h2.39a3.31,3.31,0,0,1-.53,1.77,3.52,3.52,0,0,1-1.42,1.25,4.41,4.41,0,0,1-2,.45,4.16,4.16,0,0,1-3.22-1.3,5.17,5.17,0,0,1-1.18-3.58v-.17a5.1,5.1,0,0,1,1.17-3.51,4.1,4.1,0,0,1,3.21-1.31,4,4,0,0,1,2.86,1,3.63,3.63,0,0,1,1.1,2.7h-2.39a1.72,1.72,0,0,0-.45-1.2,1.69,1.69,0,0,0-2.5.18,3.67,3.67,0,0,0-.46,2.1v.26a3.76,3.76,0,0,0,.45,2.11,1.55,1.55,0,0,0,1.37.64Z" fill="#12263f"/>
      <path id="Path_180126" data-name="Path 180126" d="M390.69,34.15a5.57,5.57,0,0,1,.55-2.53,4,4,0,0,1,1.56-1.71,4.66,4.66,0,0,1,2.38-.61,4.35,4.35,0,0,1,3.14,1.18,4.73,4.73,0,0,1,1.36,3.2v.65a5,5,0,0,1-1.22,3.51,4.72,4.72,0,0,1-6.56,0,5.06,5.06,0,0,1-1.23-3.59Zm2.54.18a3.55,3.55,0,0,0,.51,2.07,1.83,1.83,0,0,0,2.9,0,3.86,3.86,0,0,0,.52-2.27,3.51,3.51,0,0,0-.52-2.06,1.68,1.68,0,0,0-1.46-.73,1.65,1.65,0,0,0-1.44.73,3.94,3.94,0,0,0-.51,2.26Z" fill="#12263f"/>
      <path id="Path_180127" data-name="Path 180127" d="M403.6,29.48l.08,1.1a3.32,3.32,0,0,1,2.73-1.28,2.76,2.76,0,0,1,2.25.89,4.08,4.08,0,0,1,.76,2.65V39h-2.54V32.9a1.65,1.65,0,0,0-.35-1.17,1.56,1.56,0,0,0-1.17-.37,1.75,1.75,0,0,0-1.61.92V39h-2.54V29.48Z" fill="#12263f"/>
      <path id="Path_180128" data-name="Path 180128" d="M414.39,27.14v2.34H416v1.86h-1.62v4.75a1.09,1.09,0,0,0,.2.75,1,1,0,0,0,.77.23,4.22,4.22,0,0,0,.75-.06v1.93a5.32,5.32,0,0,1-1.54.23,2.43,2.43,0,0,1-2.72-2.7V31.34h-1.39V29.48h1.39V27.14Z" fill="#12263f"/>
      <path id="Path_180129" data-name="Path 180129" d="M422.94,39a2.94,2.94,0,0,1-.26-.85,3.08,3.08,0,0,1-2.4,1,3.36,3.36,0,0,1-2.31-.81,2.58,2.58,0,0,1-.92-2A2.68,2.68,0,0,1,418.17,34a5.49,5.49,0,0,1,3.24-.82h1.17v-.55a1.58,1.58,0,0,0-.34-1.05,1.35,1.35,0,0,0-1.07-.4,1.56,1.56,0,0,0-1,.31,1.07,1.07,0,0,0-.36.85h-2.54a2.51,2.51,0,0,1,.51-1.53,3.4,3.4,0,0,1,1.44-1.11,5.37,5.37,0,0,1,2.09-.4,4.15,4.15,0,0,1,2.79.89,3.08,3.08,0,0,1,1,2.48v4.12a4.57,4.57,0,0,0,.37,2.05V39Zm-2.1-1.77a2.12,2.12,0,0,0,1-.25,1.71,1.71,0,0,0,.71-.67V34.67h-.95c-1.27,0-1.95.43-2,1.31v.15a1,1,0,0,0,.33.79,1.34,1.34,0,0,0,.91.3Z" fill="#12263f"/>
      <path id="Path_180130" data-name="Path 180130" d="M435.65,34.32a5.8,5.8,0,0,1-1,3.57A3.24,3.24,0,0,1,432,39.17,3,3,0,0,1,429.48,38l-.12,1h-2.28V25.49h2.54v4.84a2.89,2.89,0,0,1,2.31-1,3.27,3.27,0,0,1,2.73,1.28,5.75,5.75,0,0,1,1,3.6Zm-2.54-.19a3.84,3.84,0,0,0-.46-2.11,1.54,1.54,0,0,0-1.36-.67,1.66,1.66,0,0,0-1.67,1v3.76a1.69,1.69,0,0,0,1.68,1,1.58,1.58,0,0,0,1.62-1.22,6.377,6.377,0,0,0,.19-1.76Z" fill="#12263f"/>
      <path id="Path_180131" data-name="Path 180131" d="M439.89,39h-2.55V25.49h2.55Z" fill="#12263f"/>
      <path id="Path_180132" data-name="Path 180132" d="M446.36,39.17A4.68,4.68,0,0,1,443,37.88a4.57,4.57,0,0,1-1.31-3.42v-.24a5.769,5.769,0,0,1,.55-2.57,4.15,4.15,0,0,1,1.57-1.74,4.49,4.49,0,0,1,2.32-.61,4,4,0,0,1,3.07,1.23A5,5,0,0,1,450.27,34v1h-6a2.29,2.29,0,0,0,.74,1.49,2.21,2.21,0,0,0,1.57.57,2.73,2.73,0,0,0,2.29-1.07l1.25,1.4a3.8,3.8,0,0,1-1.55,1.26A5.1,5.1,0,0,1,446.36,39.17Zm-.29-7.82a1.61,1.61,0,0,0-1.23.51,2.69,2.69,0,0,0-.6,1.47h3.54v-.2a2,2,0,0,0-.46-1.32,1.67,1.67,0,0,0-1.25-.46Z" fill="#12263f"/>
      <path id="Path_180133" data-name="Path 180133" d="M614.59,465.88v4.51H612v-12.8h5a5.751,5.751,0,0,1,2.53.53,3.81,3.81,0,0,1,1.69,1.5,4.219,4.219,0,0,1,.59,2.21,3.68,3.68,0,0,1-1.29,3,5.39,5.39,0,0,1-3.56,1.08Zm0-2.13H617a2.37,2.37,0,0,0,1.6-.49,1.82,1.82,0,0,0,.54-1.41,2.09,2.09,0,0,0-.55-1.52,2.05,2.05,0,0,0-1.53-.6h-2.42Z" fill="#12263f"/>
      <path id="Path_180134" data-name="Path 180134" d="M628.74,463.26a8.2,8.2,0,0,0-.91-.07,1.87,1.87,0,0,0-1.89,1v6.22H623.4V460.9h2.4l.07,1.14a2.35,2.35,0,0,1,2.12-1.31,2.56,2.56,0,0,1,.79.11Z" fill="#12263f"/>
      <path id="Path_180135" data-name="Path 180135" d="M629.25,465.55a5.66,5.66,0,0,1,.55-2.52,4,4,0,0,1,1.57-1.72,4.6,4.6,0,0,1,2.38-.6,4.34,4.34,0,0,1,3.14,1.17,4.79,4.79,0,0,1,1.36,3.2v.65a4.94,4.94,0,0,1-1.22,3.51,4.72,4.72,0,0,1-6.56,0,5.06,5.06,0,0,1-1.23-3.59Zm2.54.18a3.55,3.55,0,0,0,.51,2.07,1.83,1.83,0,0,0,2.9,0,3.86,3.86,0,0,0,.52-2.27,3.51,3.51,0,0,0-.52-2.06,1.81,1.81,0,0,0-2.9,0,3.94,3.94,0,0,0-.51,2.26Z" fill="#12263f"/>
      <path id="Path_180136" data-name="Path 180136" d="M643.78,468.52a1.69,1.69,0,0,0,1.15-.39,1.34,1.34,0,0,0,.45-1h2.38a3.279,3.279,0,0,1-.52,1.78,3.5,3.5,0,0,1-1.42,1.24,4.41,4.41,0,0,1-2,.45,4.14,4.14,0,0,1-3.22-1.3,5.1,5.1,0,0,1-1.18-3.58v-.17a5.05,5.05,0,0,1,1.17-3.5,4.06,4.06,0,0,1,3.21-1.31,4,4,0,0,1,2.86,1,3.58,3.58,0,0,1,1.09,2.7h-2.38a1.74,1.74,0,0,0-.45-1.2,1.7,1.7,0,0,0-2.51.18,3.76,3.76,0,0,0-.45,2.1v.26a3.82,3.82,0,0,0,.45,2.12A1.54,1.54,0,0,0,643.78,468.52Z" fill="#12263f"/>
      <path id="Path_180137" data-name="Path 180137" d="M653.59,470.57a4.64,4.64,0,0,1-3.4-1.29,4.53,4.53,0,0,1-1.32-3.41v-.25a5.7,5.7,0,0,1,.56-2.56,4,4,0,0,1,1.56-1.74,4.391,4.391,0,0,1,2.32-.61,4,4,0,0,1,3.07,1.23,5,5,0,0,1,1.12,3.49v1h-6a2.39,2.39,0,0,0,.74,1.5,2.27,2.27,0,0,0,1.57.56,2.73,2.73,0,0,0,2.29-1.06l1.25,1.39a3.8,3.8,0,0,1-1.55,1.26,5,5,0,0,1-2.21.49Zm-.29-7.82a1.59,1.59,0,0,0-1.23.52,2.69,2.69,0,0,0-.6,1.46H655v-.2a1.94,1.94,0,0,0-.46-1.31,1.64,1.64,0,0,0-1.24-.47Z" fill="#12263f"/>
      <path id="Path_180138" data-name="Path 180138" d="M664.09,467.76a.81.81,0,0,0-.46-.73,5.082,5.082,0,0,0-1.48-.48q-3.39-.71-3.39-2.88a2.62,2.62,0,0,1,1-2.12,4.28,4.28,0,0,1,2.75-.84,4.54,4.54,0,0,1,2.89.85,2.68,2.68,0,0,1,1.09,2.21H664a1.25,1.25,0,0,0-.35-.9,1.48,1.48,0,0,0-1.1-.35,1.51,1.51,0,0,0-1,.29.92.92,0,0,0-.35.74.81.81,0,0,0,.4.68,4.129,4.129,0,0,0,1.35.44,11.259,11.259,0,0,1,1.6.43,2.63,2.63,0,0,1,2,2.56,2.47,2.47,0,0,1-1.11,2.1,4.821,4.821,0,0,1-2.89.81,5.11,5.11,0,0,1-2.12-.43A3.46,3.46,0,0,1,659,469a2.72,2.72,0,0,1-.53-1.6h2.41a1.32,1.32,0,0,0,.5,1,2,2,0,0,0,1.25.36,1.88,1.88,0,0,0,1.1-.28.87.87,0,0,0,.36-.72Z" fill="#12263f"/>
      <path id="Path_180139" data-name="Path 180139" d="M667.8,465.55a5.53,5.53,0,0,1,.55-2.52,4,4,0,0,1,1.57-1.72,4.59,4.59,0,0,1,2.37-.6,4.37,4.37,0,0,1,3.15,1.17,4.741,4.741,0,0,1,1.35,3.2v.65a5,5,0,0,1-1.22,3.51,4.72,4.72,0,0,1-6.56,0,5.06,5.06,0,0,1-1.23-3.59Zm2.54.18a3.55,3.55,0,0,0,.51,2.07,1.83,1.83,0,0,0,2.9,0,3.86,3.86,0,0,0,.52-2.27,3.511,3.511,0,0,0-.52-2.06,1.69,1.69,0,0,0-1.46-.73,1.67,1.67,0,0,0-1.44.73,3.94,3.94,0,0,0-.51,2.26Z" fill="#12263f"/>
      <path id="Path_180140" data-name="Path 180140" d="M682.46,465.57a5.781,5.781,0,0,1,1-3.55,3.27,3.27,0,0,1,2.73-1.31,2.89,2.89,0,0,1,2.29,1v-4.85H691v13.5h-2.29l-.12-1a3,3,0,0,1-2.45,1.19,3.2,3.2,0,0,1-2.69-1.33,5.87,5.87,0,0,1-.99-3.65Zm2.54.18a3.739,3.739,0,0,0,.47,2.05,1.51,1.51,0,0,0,1.35.72,1.69,1.69,0,0,0,1.66-1v-3.77a1.67,1.67,0,0,0-1.64-1C685.62,462.75,685,463.75,685,465.75Z" fill="#12263f"/>
      <path id="Path_180141" data-name="Path 180141" d="M697.38,470.57a4.66,4.66,0,0,1-3.41-1.29,4.56,4.56,0,0,1-1.31-3.41v-.25a5.7,5.7,0,0,1,.55-2.56,4,4,0,0,1,1.57-1.74,4.391,4.391,0,0,1,2.32-.61,4,4,0,0,1,3.07,1.23,5,5,0,0,1,1.12,3.49v1h-6.06A2.4,2.4,0,0,0,696,468a2.25,2.25,0,0,0,1.57.56,2.74,2.74,0,0,0,2.29-1.06l1.25,1.39a3.8,3.8,0,0,1-1.55,1.26,5,5,0,0,1-2.18.42Zm-.29-7.82a1.57,1.57,0,0,0-1.23.52,2.689,2.689,0,0,0-.6,1.46h3.53v-.2a1.88,1.88,0,0,0-.45-1.31,1.65,1.65,0,0,0-1.25-.47Z" fill="#12263f"/>
      <path id="Path_180142" data-name="Path 180142" d="M706.84,465.57a5.56,5.56,0,0,1,1-3.53,3.36,3.36,0,0,1,2.8-1.33,2.94,2.94,0,0,1,2.44,1.07l.1-.9h2.31v9.2a4.06,4.06,0,0,1-.57,2.17,3.65,3.65,0,0,1-1.6,1.4,5.58,5.58,0,0,1-2.4.49,5.171,5.171,0,0,1-2-.42,3.61,3.61,0,0,1-1.51-1.08l1.13-1.55a3,3,0,0,0,2.3,1.07,2.19,2.19,0,0,0,1.58-.54,2,2,0,0,0,.56-1.54v-.51a2.93,2.93,0,0,1-2.31,1,3.38,3.38,0,0,1-2.78-1.34,5.63,5.63,0,0,1-1.06-3.56Zm2.54.18a3.52,3.52,0,0,0,.52,2,1.66,1.66,0,0,0,1.43.74,1.77,1.77,0,0,0,1.66-.87v-4a1.77,1.77,0,0,0-1.65-.88,1.65,1.65,0,0,0-1.43.75A4,4,0,0,0,709.38,465.75Z" fill="#12263f"/>
      <path id="Path_180143" data-name="Path 180143" d="M721.86,470.57a4.64,4.64,0,0,1-3.4-1.29,4.53,4.53,0,0,1-1.32-3.41v-.25a5.7,5.7,0,0,1,.56-2.56,4,4,0,0,1,1.57-1.74,4.36,4.36,0,0,1,2.31-.61,3.93,3.93,0,0,1,3.07,1.23,5,5,0,0,1,1.13,3.49v1h-6.06a2.39,2.39,0,0,0,.74,1.5,2.29,2.29,0,0,0,1.57.56,2.76,2.76,0,0,0,2.3-1.06l1.24,1.39a3.76,3.76,0,0,1-1.54,1.26,5,5,0,0,1-2.17.49Zm-.29-7.82a1.55,1.55,0,0,0-1.22.52,2.55,2.55,0,0,0-.6,1.46h3.53v-.2a1.84,1.84,0,0,0-.46-1.31,1.64,1.64,0,0,0-1.25-.47Z" fill="#12263f"/>
      <path id="Path_180144" data-name="Path 180144" d="M732.37,467.76a.83.83,0,0,0-.46-.73,5.3,5.3,0,0,0-1.48-.48q-3.4-.71-3.4-2.88a2.62,2.62,0,0,1,1.05-2.12,4.28,4.28,0,0,1,2.75-.84,4.57,4.57,0,0,1,2.9.85,2.7,2.7,0,0,1,1.08,2.21h-2.54a1.25,1.25,0,0,0-.35-.9,1.48,1.48,0,0,0-1.1-.35,1.46,1.46,0,0,0-1,.29.9.9,0,0,0-.35.74.78.78,0,0,0,.4.68,4,4,0,0,0,1.34.44,10.891,10.891,0,0,1,1.6.43,2.63,2.63,0,0,1,2,2.56,2.45,2.45,0,0,1-1.12,2.1,4.77,4.77,0,0,1-2.88.81,5,5,0,0,1-2.12-.43,3.491,3.491,0,0,1-1.46-1.17,2.72,2.72,0,0,1-.53-1.6h2.41a1.35,1.35,0,0,0,.5,1,2,2,0,0,0,1.25.36,1.85,1.85,0,0,0,1.1-.28A.88.88,0,0,0,732.37,467.76Z" fill="#12263f"/>
      <path id="Path_180145" data-name="Path 180145" d="M739.51,458.54v2.34h1.63v1.87h-1.63v4.74a1.13,1.13,0,0,0,.21.76,1,1,0,0,0,.77.23,3.42,3.42,0,0,0,.75-.07v1.93a5.37,5.37,0,0,1-1.54.23,2.43,2.43,0,0,1-2.73-2.7v-5.12h-1.39v-1.87H737v-2.34Z" fill="#12263f"/>
      <path id="Path_180146" data-name="Path 180146" d="M742.54,458.42a1.24,1.24,0,0,1,.38-.94,1.41,1.41,0,0,1,1-.37,1.44,1.44,0,0,1,1,.37,1.352,1.352,0,0,1-.01,1.89,1.62,1.62,0,0,1-2.06,0A1.25,1.25,0,0,1,742.54,458.42Zm2.69,12h-2.54v-9.51h2.54Z" fill="#12263f"/>
      <path id="Path_180147" data-name="Path 180147" d="M746.93,465.55a5.53,5.53,0,0,1,.55-2.52,4,4,0,0,1,1.56-1.72,4.65,4.65,0,0,1,2.38-.6,4.33,4.33,0,0,1,3.14,1.17,4.7,4.7,0,0,1,1.36,3.2v.65a5,5,0,0,1-1.22,3.51,4.72,4.72,0,0,1-6.56,0,5.06,5.06,0,0,1-1.23-3.59Zm2.54.18a3.55,3.55,0,0,0,.51,2.07,1.83,1.83,0,0,0,2.9,0,3.861,3.861,0,0,0,.52-2.27,3.511,3.511,0,0,0-.52-2.06,1.69,1.69,0,0,0-1.46-.73,1.67,1.67,0,0,0-1.44.73,3.94,3.94,0,0,0-.51,2.26Zm2.45-8.84h2.77l-2.43,2.73h-2.07Z" fill="#12263f"/>
      <path id="Path_180148" data-name="Path 180148" d="M759.84,460.88l.08,1.1a3.31,3.31,0,0,1,2.73-1.27,2.76,2.76,0,0,1,2.25.88,4.11,4.11,0,0,1,.76,2.66v6.14h-2.54V464.3a1.68,1.68,0,0,0-.35-1.18,1.61,1.61,0,0,0-1.17-.37,1.75,1.75,0,0,0-1.61.92v6.72h-2.54v-9.51Z" fill="#12263f"/>
      <path id="Path_180149" data-name="Path 180149" d="M611.39,487.17a5.78,5.78,0,0,1,1-3.55,3.27,3.27,0,0,1,2.73-1.31,2.93,2.93,0,0,1,2.3,1v-4.85H620V492h-2.29l-.12-1a3,3,0,0,1-2.45,1.19,3.21,3.21,0,0,1-2.69-1.33,5.87,5.87,0,0,1-1.06-3.69Zm2.54.18a3.74,3.74,0,0,0,.47,2,1.51,1.51,0,0,0,1.35.72,1.71,1.71,0,0,0,1.67-1V485.3a1.7,1.7,0,0,0-1.65-1C614.55,484.35,613.93,485.35,613.93,487.35Z" fill="#12263f"/>
      <path id="Path_180150" data-name="Path 180150" d="M626.31,492.17a4.68,4.68,0,0,1-3.41-1.29,4.57,4.57,0,0,1-1.31-3.42v-.24a5.7,5.7,0,0,1,.55-2.56,4,4,0,0,1,1.57-1.74,4.39,4.39,0,0,1,2.32-.61,4,4,0,0,1,3.07,1.23,5,5,0,0,1,1.12,3.49v1h-6.05a2.34,2.34,0,0,0,.74,1.5,2.25,2.25,0,0,0,1.57.56,2.75,2.75,0,0,0,2.29-1.06l1.25,1.39a3.8,3.8,0,0,1-1.55,1.26,5,5,0,0,1-2.16.49Zm-.29-7.82a1.59,1.59,0,0,0-1.23.52,2.69,2.69,0,0,0-.6,1.46h3.53v-.2a1.88,1.88,0,0,0-.45-1.31,1.65,1.65,0,0,0-1.27-.47Z" fill="#12263f"/>
      <path id="Path_180151" data-name="Path 180151" d="M644.71,487.32a5.72,5.72,0,0,1-1,3.52,3.2,3.2,0,0,1-2.7,1.33,3,3,0,0,1-2.33-1v4.48h-2.54V482.48h2.36l.09.93a3,3,0,0,1,2.41-1.1,3.21,3.21,0,0,1,2.73,1.3,5.829,5.829,0,0,1,1,3.58Zm-2.54-.19a3.68,3.68,0,0,0-.48-2.05,1.5,1.5,0,0,0-1.36-.73,1.67,1.67,0,0,0-1.65.92v3.91a1.72,1.72,0,0,0,1.67.94c1.21,0,1.82-1,1.82-2.99Z" fill="#12263f"/>
      <path id="Path_180152" data-name="Path 180152" d="M651.62,484.86a8.2,8.2,0,0,0-.91-.07,1.87,1.87,0,0,0-1.89,1V492h-2.54v-9.51h2.4l.07,1.14a2.34,2.34,0,0,1,2.12-1.31,2.561,2.561,0,0,1,.79.11Z" fill="#12263f"/>
      <path id="Path_180153" data-name="Path 180153" d="M652.13,487.15a5.53,5.53,0,0,1,.55-2.52,4,4,0,0,1,1.57-1.72,4.59,4.59,0,0,1,2.37-.6,4.33,4.33,0,0,1,3.14,1.17,4.7,4.7,0,0,1,1.36,3.2v.65a5,5,0,0,1-1.22,3.51,4.72,4.72,0,0,1-6.56,0,5.06,5.06,0,0,1-1.23-3.59Zm2.54.18a3.551,3.551,0,0,0,.51,2.07,1.83,1.83,0,0,0,2.9,0,3.86,3.86,0,0,0,.52-2.27,3.511,3.511,0,0,0-.52-2.06,1.69,1.69,0,0,0-1.46-.73,1.67,1.67,0,0,0-1.44.73A3.94,3.94,0,0,0,654.67,487.33Z" fill="#12263f"/>
      <path id="Path_180154" data-name="Path 180154" d="M662.31,487.17a5.711,5.711,0,0,1,1-3.55,3.24,3.24,0,0,1,2.73-1.31,2.91,2.91,0,0,1,2.29,1v-4.85h2.55V492h-2.29l-.13-1a3,3,0,0,1-2.44,1.19,3.2,3.2,0,0,1-2.69-1.33,5.869,5.869,0,0,1-1.02-3.69Zm2.54.18a3.739,3.739,0,0,0,.47,2,1.51,1.51,0,0,0,1.35.72,1.69,1.69,0,0,0,1.66-1V485.3a1.68,1.68,0,0,0-1.64-1C665.46,484.35,664.85,485.35,664.85,487.35Z" fill="#12263f"/>
      <path id="Path_180155" data-name="Path 180155" d="M678.54,491a3.15,3.15,0,0,1-2.6,1.15,3,3,0,0,1-2.33-.88,3.75,3.75,0,0,1-.82-2.58v-6.23h2.54v6.15c0,1,.45,1.49,1.35,1.49a1.85,1.85,0,0,0,1.78-.9v-6.74H681V492h-2.39Z" fill="#12263f"/>
      <path id="Path_180156" data-name="Path 180156" d="M686.88,490.12a1.68,1.68,0,0,0,1.14-.39,1.36,1.36,0,0,0,.45-1h2.39a3.29,3.29,0,0,1-.53,1.78,3.5,3.5,0,0,1-1.42,1.24,4.381,4.381,0,0,1-2,.45,4.12,4.12,0,0,1-3.22-1.3,5.15,5.15,0,0,1-1.18-3.58v-.17a5.05,5.05,0,0,1,1.17-3.5,4.06,4.06,0,0,1,3.21-1.31,4,4,0,0,1,2.86,1,3.63,3.63,0,0,1,1.1,2.7h-2.39a1.74,1.74,0,0,0-.45-1.2,1.69,1.69,0,0,0-2.5.18,3.75,3.75,0,0,0-.46,2.1v.26a3.82,3.82,0,0,0,.45,2.12A1.56,1.56,0,0,0,686.88,490.12Z" fill="#12263f"/>
      <path id="Path_180157" data-name="Path 180157" d="M695.35,480.14v2.34H697v1.86h-1.62v4.75a1.19,1.19,0,0,0,.2.76,1,1,0,0,0,.77.23,4.161,4.161,0,0,0,.75-.07v1.93a5.318,5.318,0,0,1-1.54.23,2.42,2.42,0,0,1-2.72-2.7v-5.13h-1.39v-1.86h1.39v-2.34Z" fill="#12263f"/>
      <path id="Path_180158" data-name="Path 180158" d="M698.37,480a1.27,1.27,0,0,1,.38-.94,1.45,1.45,0,0,1,1-.37,1.42,1.42,0,0,1,1,.37,1.34,1.34,0,0,1,0,1.89,1.63,1.63,0,0,1-2.07,0A1.25,1.25,0,0,1,698.37,480Zm2.7,12h-2.55v-9.51h2.55Z" fill="#12263f"/>
      <path id="Path_180159" data-name="Path 180159" d="M706.72,488.89l1.77-6.41h2.65L707.93,492h-2.42l-3.21-9.51H705Z" fill="#12263f"/>
      <path id="Path_180160" data-name="Path 180160" d="M712.24,480a1.27,1.27,0,0,1,.38-.94,1.65,1.65,0,0,1,2.08,0,1.34,1.34,0,0,1,0,1.89,1.63,1.63,0,0,1-2.07,0A1.25,1.25,0,0,1,712.24,480Zm2.7,12h-2.55v-9.51h2.55Z" fill="#12263f"/>
      <path id="Path_180161" data-name="Path 180161" d="M716.63,487.17a5.78,5.78,0,0,1,1-3.55,3.27,3.27,0,0,1,2.73-1.31,2.93,2.93,0,0,1,2.3,1v-4.85h2.54V492h-2.29l-.12-1a3,3,0,0,1-2.45,1.19,3.21,3.21,0,0,1-2.69-1.33A5.87,5.87,0,0,1,716.63,487.17Zm2.55.18a3.751,3.751,0,0,0,.46,2,1.51,1.51,0,0,0,1.35.72,1.71,1.71,0,0,0,1.67-1V485.3a1.7,1.7,0,0,0-1.65-1Q719.18,484.35,719.18,487.35Z" fill="#12263f"/>
      <path id="Path_180162" data-name="Path 180162" d="M732.68,492a3,3,0,0,1-.25-.85,3.11,3.11,0,0,1-2.4,1,3.4,3.4,0,0,1-2.32-.81,2.6,2.6,0,0,1-.91-2,2.68,2.68,0,0,1,1.12-2.32,5.51,5.51,0,0,1,3.23-.82h1.17v-.54a1.57,1.57,0,0,0-.34-1.06,1.32,1.32,0,0,0-1.06-.39,1.54,1.54,0,0,0-1,.3,1.07,1.07,0,0,0-.36.85H727a2.56,2.56,0,0,1,.51-1.53,3.31,3.31,0,0,1,1.44-1.1,5.19,5.19,0,0,1,2.09-.4,4.15,4.15,0,0,1,2.79.88,3.09,3.09,0,0,1,1,2.48v4.12a4.52,4.52,0,0,0,.38,2V492Zm-2.1-1.77a2.16,2.16,0,0,0,1-.25,1.571,1.571,0,0,0,.7-.67v-1.63h-1c-1.27,0-1.94.44-2,1.32v.14a1,1,0,0,0,.33.79,1.31,1.31,0,0,0,.97.29Z" fill="#12263f"/>
      <path id="Path_180163" data-name="Path 180163" d="M736.43,487.17a5.71,5.71,0,0,1,1-3.55,3.24,3.24,0,0,1,2.72-1.31,2.93,2.93,0,0,1,2.3,1v-4.85H745V492h-2.3l-.12-1a3,3,0,0,1-2.44,1.19,3.23,3.23,0,0,1-2.7-1.33,5.931,5.931,0,0,1-1.01-3.69Zm2.54.18a3.75,3.75,0,0,0,.46,2,1.53,1.53,0,0,0,1.36.72,1.69,1.69,0,0,0,1.66-1V485.3a1.7,1.7,0,0,0-1.65-1q-1.8.05-1.8,3.05Z" fill="#12263f"/>
      <path id="Path_180164" data-name="Path 180164" d="M9.32,160.59v4.51H6.68V152.3h5a5.78,5.78,0,0,1,2.53.53,3.84,3.84,0,0,1,1.68,1.5,4.08,4.08,0,0,1,.59,2.21,3.68,3.68,0,0,1-1.28,3,5.35,5.35,0,0,1-3.57,1.09Zm0-2.14h2.36a2.31,2.31,0,0,0,1.59-.49,1.79,1.79,0,0,0,.55-1.41,2.12,2.12,0,0,0-.55-1.52,2.09,2.09,0,0,0-1.53-.59H9.32Z" fill="#12263f"/>
      <path id="Path_180165" data-name="Path 180165" d="M23.47,158a6.431,6.431,0,0,0-.91-.07,1.85,1.85,0,0,0-1.89,1v6.22H18.13v-9.51h2.4l.07,1.13a2.35,2.35,0,0,1,2.11-1.31,2.58,2.58,0,0,1,.8.12Z" fill="#12263f"/>
      <path id="Path_180166" data-name="Path 180166" d="M24,160.26a5.57,5.57,0,0,1,.55-2.53A3.92,3.92,0,0,1,26.09,156a4.56,4.56,0,0,1,2.38-.61,4.31,4.31,0,0,1,3.14,1.18,4.73,4.73,0,0,1,1.36,3.2v.65a5,5,0,0,1-1.2,3.58,4.26,4.26,0,0,1-3.28,1.32A4.28,4.28,0,0,1,25.21,164,5.06,5.06,0,0,1,24,160.37Zm2.54.17a3.57,3.57,0,0,0,.51,2.08,1.83,1.83,0,0,0,2.9,0,3.88,3.88,0,0,0,.52-2.27,3.49,3.49,0,0,0-.52-2.06,1.68,1.68,0,0,0-1.46-.73,1.65,1.65,0,0,0-1.44.73,3.92,3.92,0,0,0-.53,2.25Z" fill="#12263f"/>
      <path id="Path_180167" data-name="Path 180167" d="M38.51,163.23a1.64,1.64,0,0,0,1.14-.39,1.37,1.37,0,0,0,.46-1h2.38a3.23,3.23,0,0,1-.53,1.77,3.45,3.45,0,0,1-1.42,1.25,4.37,4.37,0,0,1-2,.44,4.12,4.12,0,0,1-3.2-1.3,5.12,5.12,0,0,1-1.18-3.58v-.17a5.06,5.06,0,0,1,1.17-3.51,4.09,4.09,0,0,1,3.2-1.31,4,4,0,0,1,2.87,1,3.6,3.6,0,0,1,1.09,2.7H40.11a1.77,1.77,0,0,0-.46-1.21,1.51,1.51,0,0,0-1.16-.46,1.53,1.53,0,0,0-1.34.65,3.76,3.76,0,0,0-.45,2.1v.26a3.76,3.76,0,0,0,.45,2.11,1.55,1.55,0,0,0,1.36.65Z" fill="#12263f"/>
      <path id="Path_180168" data-name="Path 180168" d="M48.32,165.27A4.66,4.66,0,0,1,44.91,164a4.54,4.54,0,0,1-1.31-3.42v-.24a5.77,5.77,0,0,1,.55-2.57A4.08,4.08,0,0,1,45.72,156a4.49,4.49,0,0,1,2.32-.61,4,4,0,0,1,3.07,1.23,5,5,0,0,1,1.12,3.49v1H46.17a2.31,2.31,0,0,0,.75,1.49,2.21,2.21,0,0,0,1.56.57,2.75,2.75,0,0,0,2.3-1.07l1.25,1.4a3.8,3.8,0,0,1-1.55,1.26A5.09,5.09,0,0,1,48.32,165.27ZM48,157.46a1.58,1.58,0,0,0-1.23.51,2.69,2.69,0,0,0-.6,1.47H49.7v-.21a1.9,1.9,0,0,0-.45-1.31A1.65,1.65,0,0,0,48,157.46Z" fill="#12263f"/>
      <path id="Path_180169" data-name="Path 180169" d="M58.82,162.47a.81.81,0,0,0-.46-.73,5.19,5.19,0,0,0-1.48-.48q-3.39-.72-3.39-2.89a2.59,2.59,0,0,1,1-2.11,4.19,4.19,0,0,1,2.74-.85,4.63,4.63,0,0,1,2.9.85,2.7,2.7,0,0,1,1.08,2.22H58.72a1.21,1.21,0,0,0-.35-.9,1.47,1.47,0,0,0-1.1-.36,1.54,1.54,0,0,0-1,.29.94.94,0,0,0-.35.74.77.77,0,0,0,.4.68,3.93,3.93,0,0,0,1.35.45,11.629,11.629,0,0,1,1.6.43,2.62,2.62,0,0,1,2,2.55,2.48,2.48,0,0,1-1.12,2.11,4.77,4.77,0,0,1-2.88.8,5.08,5.08,0,0,1-2.12-.42,3.72,3.72,0,0,1-1.46-1.17,2.73,2.73,0,0,1-.52-1.61h2.4a1.32,1.32,0,0,0,.51,1,2,2,0,0,0,1.24.36,1.82,1.82,0,0,0,1.11-.28.84.84,0,0,0,.39-.68Z" fill="#12263f"/>
      <path id="Path_180170" data-name="Path 180170" d="M62.53,160.26a5.7,5.7,0,0,1,.54-2.53A4,4,0,0,1,64.64,156a4.53,4.53,0,0,1,2.38-.61,4.31,4.31,0,0,1,3.14,1.18,4.73,4.73,0,0,1,1.36,3.2v.65a5,5,0,0,1-1.2,3.58,4.75,4.75,0,0,1-6.56,0,5.06,5.06,0,0,1-1.23-3.59Zm2.54.17a3.57,3.57,0,0,0,.51,2.08,1.67,1.67,0,0,0,1.46.72,1.7,1.7,0,0,0,1.44-.71,4,4,0,0,0,.52-2.27,3.56,3.56,0,0,0-.52-2.06,1.68,1.68,0,0,0-1.46-.73,1.65,1.65,0,0,0-1.44.73,3.92,3.92,0,0,0-.51,2.24Z" fill="#12263f"/>
      <path id="Path_180171" data-name="Path 180171" d="M77.19,160.27a5.7,5.7,0,0,1,1-3.54,3.22,3.22,0,0,1,2.73-1.32,2.91,2.91,0,0,1,2.29,1V151.6h2.55v13.5h-2.3l-.12-1a3,3,0,0,1-2.44,1.18A3.24,3.24,0,0,1,78.2,164,6,6,0,0,1,77.19,160.27Zm2.54.18a3.7,3.7,0,0,0,.47,2.06,1.51,1.51,0,0,0,1.35.72,1.71,1.71,0,0,0,1.66-1v-3.77a1.67,1.67,0,0,0-1.64-1C80.34,157.46,79.73,158.46,79.73,160.45Z" fill="#12263f"/>
      <path id="Path_180172" data-name="Path 180172" d="M92.1,165.27A4.63,4.63,0,0,1,88.7,164a4.55,4.55,0,0,1-1.32-3.42v-.24a5.78,5.78,0,0,1,.56-2.57A4.08,4.08,0,0,1,89.51,156a4.45,4.45,0,0,1,2.31-.61,3.93,3.93,0,0,1,3.07,1.23A5,5,0,0,1,96,160.13v1H90a2.34,2.34,0,0,0,.74,1.49,2.23,2.23,0,0,0,1.57.57,2.77,2.77,0,0,0,2.3-1.07l1.24,1.4a3.76,3.76,0,0,1-1.54,1.26,5.11,5.11,0,0,1-2.21.49Zm-.29-7.81a1.58,1.58,0,0,0-1.22.51,2.55,2.55,0,0,0-.6,1.47h3.53v-.21a1.86,1.86,0,0,0-.46-1.31A1.63,1.63,0,0,0,91.81,157.46Z" fill="#12263f"/>
      <path id="Path_180173" data-name="Path 180173" d="M101.57,160.27a5.58,5.58,0,0,1,1-3.52,3.39,3.39,0,0,1,2.81-1.34,3,3,0,0,1,2.43,1.07l.11-.89h2.3v9.19a4.12,4.12,0,0,1-.56,2.17,3.61,3.61,0,0,1-1.6,1.41,5.66,5.66,0,0,1-2.41.48,5.21,5.21,0,0,1-2-.42,3.54,3.54,0,0,1-1.5-1.07l1.13-1.55a3,3,0,0,0,2.3,1.06,2.17,2.17,0,0,0,1.57-.54,2,2,0,0,0,.56-1.53v-.51a2.92,2.92,0,0,1-2.31,1,3.34,3.34,0,0,1-2.77-1.34,5.54,5.54,0,0,1-1.06-3.55Zm2.54.18a3.46,3.46,0,0,0,.52,2,1.64,1.64,0,0,0,1.42.74,1.76,1.76,0,0,0,1.66-.88v-4a1.75,1.75,0,0,0-1.64-.87,1.66,1.66,0,0,0-1.44.75,3.92,3.92,0,0,0-.52,2.26Z" fill="#12263f"/>
      <path id="Path_180174" data-name="Path 180174" d="M116.59,165.27a4.63,4.63,0,0,1-3.4-1.28,4.55,4.55,0,0,1-1.32-3.42v-.24a5.91,5.91,0,0,1,.55-2.57A4.15,4.15,0,0,1,114,156a4.49,4.49,0,0,1,2.32-.61,4,4,0,0,1,3.07,1.23,5,5,0,0,1,1.12,3.49v1h-6a2.34,2.34,0,0,0,.74,1.49,2.21,2.21,0,0,0,1.57.57,2.73,2.73,0,0,0,2.29-1.07l1.25,1.4a3.8,3.8,0,0,1-1.55,1.26,5.09,5.09,0,0,1-2.22.51Zm-.29-7.81a1.61,1.61,0,0,0-1.23.51,2.69,2.69,0,0,0-.6,1.47H118v-.21a2,2,0,0,0-.46-1.31,1.63,1.63,0,0,0-1.24-.46Z" fill="#12263f"/>
      <path id="Path_180175" data-name="Path 180175" d="M127.09,162.47a.81.81,0,0,0-.46-.73,5.19,5.19,0,0,0-1.48-.48q-3.39-.72-3.39-2.89a2.62,2.62,0,0,1,1-2.11,4.2,4.2,0,0,1,2.75-.85,4.6,4.6,0,0,1,2.89.85,2.71,2.71,0,0,1,1.09,2.22H127a1.25,1.25,0,0,0-.35-.9,1.5,1.5,0,0,0-1.1-.36,1.57,1.57,0,0,0-1,.29.94.94,0,0,0-.35.74.77.77,0,0,0,.4.68,4.09,4.09,0,0,0,1.35.45,11.251,11.251,0,0,1,1.6.43,2.62,2.62,0,0,1,2,2.55,2.49,2.49,0,0,1-1.11,2.11,4.82,4.82,0,0,1-2.89.8,5.11,5.11,0,0,1-2.12-.42,3.62,3.62,0,0,1-1.45-1.17,2.75,2.75,0,0,1-.53-1.61h2.41a1.31,1.31,0,0,0,.5,1,2,2,0,0,0,1.25.36,1.81,1.81,0,0,0,1.1-.28.84.84,0,0,0,.38-.68Z" fill="#12263f"/>
      <path id="Path_180176" data-name="Path 180176" d="M134.24,153.25v2.34h1.62v1.86h-1.62v4.75a1.14,1.14,0,0,0,.2.75,1,1,0,0,0,.77.23,4.14,4.14,0,0,0,.75-.06v1.93a5.311,5.311,0,0,1-1.54.22,2.42,2.42,0,0,1-2.72-2.69v-5.13h-1.39v-1.86h1.39v-2.34Z" fill="#12263f"/>
      <path id="Path_180177" data-name="Path 180177" d="M137.26,153.13a1.26,1.26,0,0,1,.38-.94,1.45,1.45,0,0,1,1.05-.37,1.4,1.4,0,0,1,1,.37,1.23,1.23,0,0,1,.39.94,1.27,1.27,0,0,1-.39,1,1.63,1.63,0,0,1-2.07,0A1.27,1.27,0,0,1,137.26,153.13Zm2.7,12h-2.55v-9.51H140Z" fill="#12263f"/>
      <path id="Path_180178" data-name="Path 180178" d="M141.66,160.26a5.7,5.7,0,0,1,.54-2.53,4,4,0,0,1,1.57-1.71,4.53,4.53,0,0,1,2.38-.61,4.31,4.31,0,0,1,3.14,1.18,4.77,4.77,0,0,1,1.36,3.2v.65a4.94,4.94,0,0,1-1.23,3.51,4.23,4.23,0,0,1-3.27,1.32,4.3,4.3,0,0,1-3.29-1.31,5.1,5.1,0,0,1-1.22-3.59Zm2.54.17a3.57,3.57,0,0,0,.51,2.08,1.67,1.67,0,0,0,1.46.72,1.7,1.7,0,0,0,1.44-.71,4,4,0,0,0,.52-2.27,3.56,3.56,0,0,0-.52-2.06,1.68,1.68,0,0,0-1.46-.73,1.65,1.65,0,0,0-1.44.73,3.92,3.92,0,0,0-.51,2.24Zm2.45-8.83h2.77L147,154.32h-2.06Z" fill="#12263f"/>
      <path id="Path_180179" data-name="Path 180179" d="M154.57,155.59l.08,1.1a3.32,3.32,0,0,1,2.73-1.28,2.76,2.76,0,0,1,2.25.89,4.2,4.2,0,0,1,.76,2.65v6.15h-2.54V159a1.61,1.61,0,0,0-.36-1.17,1.52,1.52,0,0,0-1.16-.37,1.74,1.74,0,0,0-1.61.92v6.72h-2.54v-9.51Z" fill="#12263f"/>
      <path id="Path_180180" data-name="Path 180180" d="M11.13,181.87a5.7,5.7,0,0,1,1-3.54A3.22,3.22,0,0,1,14.86,177a2.91,2.91,0,0,1,2.29,1v-4.8H19.7v13.5H17.41l-.13-1a3,3,0,0,1-2.44,1.18,3.21,3.21,0,0,1-2.69-1.32,5.9,5.9,0,0,1-1.02-3.69Zm2.54.18a3.78,3.78,0,0,0,.47,2.06,1.51,1.51,0,0,0,1.35.72,1.7,1.7,0,0,0,1.66-1v-3.77a1.67,1.67,0,0,0-1.64-1c-1.23,0-1.84,1-1.84,2.99Z" fill="#12263f"/>
      <path id="Path_180181" data-name="Path 180181" d="M26.05,186.87a4.66,4.66,0,0,1-3.41-1.28,4.54,4.54,0,0,1-1.31-3.42v-.25a5.76,5.76,0,0,1,.55-2.56,4.08,4.08,0,0,1,1.57-1.74,4.45,4.45,0,0,1,2.31-.61,4,4,0,0,1,3.08,1.23A5,5,0,0,1,30,181.73v1H23.9a2.34,2.34,0,0,0,.74,1.49,2.25,2.25,0,0,0,1.57.57,2.75,2.75,0,0,0,2.3-1.07l1.24,1.4a3.76,3.76,0,0,1-1.54,1.26A5.09,5.09,0,0,1,26.05,186.87Zm-.29-7.81a1.58,1.58,0,0,0-1.23.51,2.69,2.69,0,0,0-.6,1.47h3.53v-.2a1.87,1.87,0,0,0-.46-1.32,1.62,1.62,0,0,0-1.24-.46Z" fill="#12263f"/>
      <path id="Path_180182" data-name="Path 180182" d="M38.92,174.85v2.34h1.63v1.86H38.92v4.75a1.14,1.14,0,0,0,.2.75,1,1,0,0,0,.78.23,4,4,0,0,0,.74-.06v1.93a5.24,5.24,0,0,1-1.53.22,2.43,2.43,0,0,1-2.73-2.7v-5.12H35v-1.86h1.39v-2.34Z" fill="#12263f"/>
      <path id="Path_180183" data-name="Path 180183" d="M47.47,186.7a3,3,0,0,1-.25-.86,3.07,3.07,0,0,1-2.4,1,3.42,3.42,0,0,1-2.32-.8,2.61,2.61,0,0,1-.92-2,2.69,2.69,0,0,1,1.13-2.32,5.44,5.44,0,0,1,3.23-.82h1.17v-.55a1.53,1.53,0,0,0-.34-1.05,1.3,1.3,0,0,0-1.06-.4,1.54,1.54,0,0,0-1,.31,1.06,1.06,0,0,0-.36.84H41.8a2.56,2.56,0,0,1,.51-1.53,3.46,3.46,0,0,1,1.44-1.1,5.369,5.369,0,0,1,2.09-.4,4.15,4.15,0,0,1,2.79.89,3.06,3.06,0,0,1,1,2.48v4.12a4.55,4.55,0,0,0,.38,2.05v.15Zm-2.1-1.77a2.16,2.16,0,0,0,1-.25,1.62,1.62,0,0,0,.7-.67v-1.64h-1c-1.27,0-1.94.44-2,1.32v.15a1,1,0,0,0,.34.78,1.27,1.27,0,0,0,.96.31Z" fill="#12263f"/>
      <path id="Path_180184" data-name="Path 180184" d="M54.29,186.7H51.74V173.2h2.55Z" fill="#12263f"/>
      <path id="Path_180185" data-name="Path 180185" d="M60.76,186.87a4.63,4.63,0,0,1-3.4-1.28A4.55,4.55,0,0,1,56,182.17v-.25a5.76,5.76,0,0,1,.56-2.56,4.08,4.08,0,0,1,1.57-1.74,4.42,4.42,0,0,1,2.31-.61,3.93,3.93,0,0,1,3.07,1.23,5,5,0,0,1,1.12,3.49v1H58.62a2.34,2.34,0,0,0,.74,1.49,2.23,2.23,0,0,0,1.57.57,2.73,2.73,0,0,0,2.29-1.07l1.25,1.4a3.8,3.8,0,0,1-1.55,1.26A5.09,5.09,0,0,1,60.76,186.87Zm-.29-7.81a1.58,1.58,0,0,0-1.22.51,2.62,2.62,0,0,0-.61,1.47h3.54v-.2a1.92,1.92,0,0,0-.46-1.32,1.63,1.63,0,0,0-1.25-.46Z" fill="#12263f"/>
      <path id="Path_180186" data-name="Path 180186" d="M68.45,177.19l.08,1.1A3.33,3.33,0,0,1,71.27,177a2.79,2.79,0,0,1,2.25.89,4.14,4.14,0,0,1,.75,2.65v6.15H71.73v-6.1a1.65,1.65,0,0,0-.35-1.17,1.53,1.53,0,0,0-1.17-.37,1.76,1.76,0,0,0-1.61.92v6.72H66.06v-9.51Z" fill="#12263f"/>
      <path id="Path_180187" data-name="Path 180187" d="M79.24,174.85v2.34h1.62v1.86H79.24v4.75a1.09,1.09,0,0,0,.2.75,1,1,0,0,0,.77.23,4.22,4.22,0,0,0,.75-.06v1.93a5.311,5.311,0,0,1-1.54.22,2.42,2.42,0,0,1-2.72-2.7v-5.12H75.31v-1.86H76.7v-2.34Z" fill="#12263f"/>
      <path id="Path_180188" data-name="Path 180188" d="M81.62,181.85a5.69,5.69,0,0,1,.54-2.52,4,4,0,0,1,1.57-1.71,4.53,4.53,0,0,1,2.38-.61,4.35,4.35,0,0,1,3.14,1.18,4.73,4.73,0,0,1,1.36,3.2v.65a5,5,0,0,1-1.22,3.51,4.75,4.75,0,0,1-6.56,0A5.06,5.06,0,0,1,81.62,182Zm2.54.19a3.55,3.55,0,0,0,.51,2.07,1.67,1.67,0,0,0,1.46.72,1.7,1.7,0,0,0,1.44-.71,4,4,0,0,0,.52-2.27,3.56,3.56,0,0,0-.52-2.06,1.68,1.68,0,0,0-1.46-.73,1.65,1.65,0,0,0-1.44.73,3.94,3.94,0,0,0-.51,2.21Z" fill="#12263f"/>
      <path id="Path_180189" data-name="Path 180189" d="M99.15,178.23a3.18,3.18,0,0,1,2.54-1.22c2.07,0,3.11,1.2,3.14,3.6v6.09h-2.54v-6a1.8,1.8,0,0,0-.35-1.21,1.51,1.51,0,0,0-1.17-.39,1.75,1.75,0,0,0-1.62.86v6.78H96.61V173.2h2.54Z" fill="#12263f"/>
      <path id="Path_180190" data-name="Path 180190" d="M112.44,185.73a3.17,3.17,0,0,1-2.6,1.14,3,3,0,0,1-2.33-.87,3.75,3.75,0,0,1-.82-2.58v-6.23h2.54v6.15c0,1,.45,1.49,1.35,1.49a1.82,1.82,0,0,0,1.77-.9v-6.74h2.55v9.51h-2.39Z" fill="#12263f"/>
      <path id="Path_180191" data-name="Path 180191" d="M119.2,177.19l.08,1.06A3.32,3.32,0,0,1,122,177a2.55,2.55,0,0,1,2.53,1.45,3.27,3.27,0,0,1,2.85-1.45,2.86,2.86,0,0,1,2.31.9,4.17,4.17,0,0,1,.75,2.71v6.08H127.9v-6.08a1.84,1.84,0,0,0-.31-1.19,1.42,1.42,0,0,0-1.12-.37,1.58,1.58,0,0,0-1.58,1.09v6.55h-2.54v-6.07a1.79,1.79,0,0,0-.33-1.2,1.4,1.4,0,0,0-1.11-.37,1.64,1.64,0,0,0-1.56.9v6.74h-2.54v-9.51Z" fill="#12263f"/>
      <path id="Path_180192" data-name="Path 180192" d="M137.91,186.7a3,3,0,0,1-.25-.86,3.07,3.07,0,0,1-2.4,1,3.42,3.42,0,0,1-2.32-.8,2.61,2.61,0,0,1-.92-2,2.69,2.69,0,0,1,1.13-2.32,5.44,5.44,0,0,1,3.23-.82h1.17v-.55a1.53,1.53,0,0,0-.34-1.05,1.3,1.3,0,0,0-1.06-.4,1.54,1.54,0,0,0-1,.31,1.06,1.06,0,0,0-.36.84h-2.54a2.55,2.55,0,0,1,.5-1.53,3.5,3.5,0,0,1,1.45-1.1,5.33,5.33,0,0,1,2.09-.4,4.15,4.15,0,0,1,2.79.89,3.06,3.06,0,0,1,1,2.48v4.12a4.55,4.55,0,0,0,.38,2.05v.15Zm-2.1-1.77a2.16,2.16,0,0,0,1-.25,1.62,1.62,0,0,0,.7-.67v-1.64h-1c-1.27,0-1.95.44-2,1.32v.15a1,1,0,0,0,.34.78,1.27,1.27,0,0,0,.96.31Z" fill="#12263f"/>
      <path id="Path_180193" data-name="Path 180193" d="M144.39,177.19l.08,1.1A3.32,3.32,0,0,1,147.2,177a2.76,2.76,0,0,1,2.25.89,4.08,4.08,0,0,1,.76,2.65v6.15h-2.54v-6.1a1.65,1.65,0,0,0-.35-1.17,1.56,1.56,0,0,0-1.17-.37,1.75,1.75,0,0,0-1.61.92v6.72H142v-9.51Z" fill="#12263f"/>
      <path id="Path_180194" data-name="Path 180194" d="M151.74,181.85a5.69,5.69,0,0,1,.54-2.52,4,4,0,0,1,1.57-1.71,4.53,4.53,0,0,1,2.38-.61,4.35,4.35,0,0,1,3.14,1.18,4.73,4.73,0,0,1,1.36,3.2v.65a5,5,0,0,1-1.22,3.51,4.26,4.26,0,0,1-3.28,1.32,4.32,4.32,0,0,1-3.29-1.31,5.1,5.1,0,0,1-1.22-3.59Zm2.54.19a3.55,3.55,0,0,0,.51,2.07,1.67,1.67,0,0,0,1.46.72,1.7,1.7,0,0,0,1.44-.71,4,4,0,0,0,.52-2.27,3.56,3.56,0,0,0-.52-2.06,1.68,1.68,0,0,0-1.46-.73,1.65,1.65,0,0,0-1.44.73,3.94,3.94,0,0,0-.51,2.21Z" fill="#12263f"/>
      <path id="Path_180195" data-name="Path 180195" d="M59,465.88v4.51H56.34v-12.8h5a5.819,5.819,0,0,1,2.54.53,3.84,3.84,0,0,1,1.68,1.5,4.22,4.22,0,0,1,.59,2.21,3.68,3.68,0,0,1-1.29,3,5.37,5.37,0,0,1-3.56,1.08Zm0-2.13h2.35a2.37,2.37,0,0,0,1.6-.49,1.82,1.82,0,0,0,.55-1.41,2.09,2.09,0,0,0-.56-1.52,2,2,0,0,0-1.53-.6H59Z" fill="#12263f"/>
      <path id="Path_180196" data-name="Path 180196" d="M73.13,463.26a8.352,8.352,0,0,0-.92-.07,1.87,1.87,0,0,0-1.89,1v6.22H67.78V460.9h2.4l.07,1.13a2.35,2.35,0,0,1,2.12-1.3,2.521,2.521,0,0,1,.79.11Z" fill="#12263f"/>
      <path id="Path_180197" data-name="Path 180197" d="M73.64,465.55a5.63,5.63,0,0,1,.54-2.52,4.09,4.09,0,0,1,1.57-1.72,4.62,4.62,0,0,1,2.38-.6,4.34,4.34,0,0,1,3.14,1.17,4.75,4.75,0,0,1,1.36,3.2v.65a5,5,0,0,1-1.22,3.51,4.24,4.24,0,0,1-3.28,1.33,4.29,4.29,0,0,1-3.29-1.32,5.1,5.1,0,0,1-1.22-3.59Zm2.54.18a3.55,3.55,0,0,0,.51,2.07,1.67,1.67,0,0,0,1.46.72,1.7,1.7,0,0,0,1.44-.71,3.94,3.94,0,0,0,.52-2.27,3.58,3.58,0,0,0-.52-2.06,1.71,1.71,0,0,0-1.46-.73,1.67,1.67,0,0,0-1.44.73,3.94,3.94,0,0,0-.51,2.25Z" fill="#12263f"/>
      <path id="Path_180198" data-name="Path 180198" d="M88.17,468.52a1.66,1.66,0,0,0,1.14-.39,1.4,1.4,0,0,0,.46-1h2.38a3.29,3.29,0,0,1-.53,1.78,3.5,3.5,0,0,1-1.42,1.24,4.38,4.38,0,0,1-2,.45,4.16,4.16,0,0,1-3.22-1.3,5.15,5.15,0,0,1-1.17-3.58v-.17A5.14,5.14,0,0,1,85,462a4.09,4.09,0,0,1,3.21-1.3,4,4,0,0,1,2.86,1,3.59,3.59,0,0,1,1.1,2.7h-2.4a1.8,1.8,0,0,0-.46-1.2,1.69,1.69,0,0,0-2.5.18,3.76,3.76,0,0,0-.45,2.1v.26a3.92,3.92,0,0,0,.44,2.12,1.56,1.56,0,0,0,1.37.66Z" fill="#12263f"/>
      <path id="Path_180199" data-name="Path 180199" d="M98,470.57a4.64,4.64,0,0,1-3.4-1.29,4.53,4.53,0,0,1-1.31-3.42v-.24a5.7,5.7,0,0,1,.55-2.56,4,4,0,0,1,1.57-1.74,4.36,4.36,0,0,1,2.31-.61,3.93,3.93,0,0,1,3.07,1.23,5,5,0,0,1,1.13,3.48v1H95.83a2.39,2.39,0,0,0,.74,1.5,2.29,2.29,0,0,0,1.57.56,2.76,2.76,0,0,0,2.3-1.06l1.24,1.39a3.76,3.76,0,0,1-1.54,1.26,5,5,0,0,1-2.14.5Zm-.29-7.82a1.55,1.55,0,0,0-1.22.52,2.52,2.52,0,0,0-.6,1.46h3.53v-.2a1.84,1.84,0,0,0-.46-1.31,1.64,1.64,0,0,0-1.28-.47Z" fill="#12263f"/>
      <path id="Path_180200" data-name="Path 180200" d="M108.48,467.76A.83.83,0,0,0,108,467a5.19,5.19,0,0,0-1.48-.48c-2.27-.47-3.4-1.44-3.4-2.88a2.62,2.62,0,0,1,1-2.12,4.28,4.28,0,0,1,2.75-.84,4.57,4.57,0,0,1,2.9.85,2.68,2.68,0,0,1,1.08,2.21h-2.54a1.25,1.25,0,0,0-.35-.9,1.87,1.87,0,0,0-2.09-.06.89.89,0,0,0-.35.73.79.79,0,0,0,.4.69,4,4,0,0,0,1.35.44,11.073,11.073,0,0,1,1.59.43,2.62,2.62,0,0,1,2,2.56,2.46,2.46,0,0,1-1.12,2.1,4.77,4.77,0,0,1-2.88.81,5,5,0,0,1-2.12-.43,3.49,3.49,0,0,1-1.46-1.17,2.72,2.72,0,0,1-.53-1.6h2.41a1.35,1.35,0,0,0,.5,1,2,2,0,0,0,1.25.35,1.86,1.86,0,0,0,1.1-.27.88.88,0,0,0,.47-.66Z" fill="#12263f"/>
      <path id="Path_180201" data-name="Path 180201" d="M112.19,465.55a5.63,5.63,0,0,1,.54-2.52,4,4,0,0,1,1.57-1.72,4.62,4.62,0,0,1,2.38-.6,4.34,4.34,0,0,1,3.14,1.17,4.79,4.79,0,0,1,1.36,3.2v.65a4.94,4.94,0,0,1-1.23,3.51,4.2,4.2,0,0,1-3.27,1.33,4.27,4.27,0,0,1-3.29-1.32,5.06,5.06,0,0,1-1.22-3.59Zm2.54.18a3.55,3.55,0,0,0,.51,2.07,1.67,1.67,0,0,0,1.46.72,1.7,1.7,0,0,0,1.44-.71,3.94,3.94,0,0,0,.52-2.27,3.58,3.58,0,0,0-.52-2.06,1.72,1.72,0,0,0-1.46-.73,1.67,1.67,0,0,0-1.44.73A3.94,3.94,0,0,0,114.73,465.73Z" fill="#12263f"/>
      <path id="Path_180202" data-name="Path 180202" d="M126.85,465.57a5.77,5.77,0,0,1,1-3.55,3.27,3.27,0,0,1,2.73-1.31,2.93,2.93,0,0,1,2.3,1v-4.85h2.55v13.5h-2.3l-.12-1a3,3,0,0,1-2.44,1.19,3.23,3.23,0,0,1-2.7-1.33,5.87,5.87,0,0,1-1.02-3.65Zm2.54.18a3.75,3.75,0,0,0,.46,2.05,1.51,1.51,0,0,0,1.36.72,1.69,1.69,0,0,0,1.66-1v-3.77a1.7,1.7,0,0,0-1.65-1Q129.39,462.75,129.39,465.75Z" fill="#12263f"/>
      <path id="Path_180203" data-name="Path 180203" d="M141.76,470.57a4.64,4.64,0,0,1-3.4-1.29,4.53,4.53,0,0,1-1.32-3.42v-.24a5.7,5.7,0,0,1,.56-2.56,4,4,0,0,1,1.57-1.74,4.33,4.33,0,0,1,2.31-.61,3.93,3.93,0,0,1,3.07,1.23,5,5,0,0,1,1.12,3.48v1h-6a2.39,2.39,0,0,0,.74,1.5,2.27,2.27,0,0,0,1.57.56,2.73,2.73,0,0,0,2.29-1.06l1.25,1.39a3.8,3.8,0,0,1-1.55,1.26A5,5,0,0,1,141.76,470.57Zm-.29-7.82a1.55,1.55,0,0,0-1.22.52,2.59,2.59,0,0,0-.61,1.46h3.54v-.2a1.89,1.89,0,0,0-.46-1.31,1.64,1.64,0,0,0-1.25-.47Z" fill="#12263f"/>
      <path id="Path_180204" data-name="Path 180204" d="M151.23,465.57a5.55,5.55,0,0,1,1-3.53,3.37,3.37,0,0,1,2.81-1.33,2.94,2.94,0,0,1,2.43,1.07l.11-.9h2.3v9.2a4.06,4.06,0,0,1-.57,2.17,3.67,3.67,0,0,1-1.59,1.4,5.66,5.66,0,0,1-2.41.49,5.17,5.17,0,0,1-2-.42,3.64,3.64,0,0,1-1.5-1.08l1.12-1.55a3,3,0,0,0,2.31,1.07,2.19,2.19,0,0,0,1.57-.54,2,2,0,0,0,.56-1.54v-.51a2.91,2.91,0,0,1-2.31,1,3.37,3.37,0,0,1-2.77-1.34,5.57,5.57,0,0,1-1.06-3.56Zm2.54.18a3.45,3.45,0,0,0,.52,2,1.64,1.64,0,0,0,1.42.74,1.76,1.76,0,0,0,1.66-.87v-4a1.77,1.77,0,0,0-1.64-.88,1.66,1.66,0,0,0-1.44.75,4,4,0,0,0-.52,2.26Z" fill="#12263f"/>
      <path id="Path_180205" data-name="Path 180205" d="M166.25,470.57a4.66,4.66,0,0,1-3.41-1.29,4.57,4.57,0,0,1-1.31-3.42v-.24a5.7,5.7,0,0,1,.55-2.56,4,4,0,0,1,1.57-1.74,4.39,4.39,0,0,1,2.32-.61,4,4,0,0,1,3.07,1.23,5,5,0,0,1,1.12,3.48v1H164.1a2.4,2.4,0,0,0,.75,1.5,2.25,2.25,0,0,0,1.57.56,2.74,2.74,0,0,0,2.29-1.06l1.25,1.39a3.8,3.8,0,0,1-1.55,1.26,5,5,0,0,1-2.16.5Zm-.29-7.82a1.57,1.57,0,0,0-1.23.52,2.65,2.65,0,0,0-.6,1.46h3.53v-.2a1.88,1.88,0,0,0-.45-1.31,1.65,1.65,0,0,0-1.21-.47Z" fill="#12263f"/>
      <path id="Path_180206" data-name="Path 180206" d="M176.75,467.76a.81.81,0,0,0-.46-.73,5.19,5.19,0,0,0-1.48-.48c-2.26-.47-3.39-1.44-3.39-2.88a2.62,2.62,0,0,1,1.05-2.12,4.25,4.25,0,0,1,2.74-.84,4.57,4.57,0,0,1,2.9.85,2.68,2.68,0,0,1,1.08,2.21h-2.54a1.21,1.21,0,0,0-.35-.9,1.47,1.47,0,0,0-1.1-.35,1.5,1.5,0,0,0-1,.29.92.92,0,0,0-.35.73.79.79,0,0,0,.4.69,4.13,4.13,0,0,0,1.35.44,11.639,11.639,0,0,1,1.6.43,2.62,2.62,0,0,1,2,2.56,2.46,2.46,0,0,1-1.12,2.1,4.77,4.77,0,0,1-2.88.81,5.11,5.11,0,0,1-2.12-.43,3.55,3.55,0,0,1-1.46-1.17,2.7,2.7,0,0,1-.52-1.6h2.41a1.32,1.32,0,0,0,.5,1,2,2,0,0,0,1.24.35,1.89,1.89,0,0,0,1.11-.27.87.87,0,0,0,.39-.69Z" fill="#12263f"/>
      <path id="Path_180207" data-name="Path 180207" d="M183.9,458.54v2.34h1.62v1.87H183.9v4.74a1.13,1.13,0,0,0,.2.76,1,1,0,0,0,.77.23,4.156,4.156,0,0,0,.75-.07v1.93a5.319,5.319,0,0,1-1.54.23,2.42,2.42,0,0,1-2.72-2.7v-5.12H180v-1.87h1.39v-2.34Z" fill="#12263f"/>
      <path id="Path_180208" data-name="Path 180208" d="M186.92,458.42a1.27,1.27,0,0,1,.38-.94,1.65,1.65,0,0,1,2.08,0,1.34,1.34,0,0,1,0,1.89,1.63,1.63,0,0,1-2.07,0,1.25,1.25,0,0,1-.39-.95Zm2.7,12h-2.55v-9.51h2.55Z" fill="#12263f"/>
      <path id="Path_180209" data-name="Path 180209" d="M191.31,465.55a5.63,5.63,0,0,1,.55-2.52,4,4,0,0,1,1.57-1.72,4.6,4.6,0,0,1,2.38-.6,4.34,4.34,0,0,1,3.14,1.17,4.79,4.79,0,0,1,1.36,3.2v.65a4.94,4.94,0,0,1-1.22,3.51,4.72,4.72,0,0,1-6.56,0,5.06,5.06,0,0,1-1.23-3.59Zm2.54.18a3.55,3.55,0,0,0,.51,2.07,1.83,1.83,0,0,0,2.9,0,3.86,3.86,0,0,0,.52-2.27,3.51,3.51,0,0,0-.52-2.06,1.81,1.81,0,0,0-2.9,0,3.94,3.94,0,0,0-.51,2.26Zm2.46-8.84h2.77l-2.44,2.73h-2.06Z" fill="#12263f"/>
      <path id="Path_180210" data-name="Path 180210" d="M204.23,460.88l.07,1.1a3.33,3.33,0,0,1,2.74-1.27,2.76,2.76,0,0,1,2.25.88,4.15,4.15,0,0,1,.75,2.66v6.14H207.5V464.3a1.63,1.63,0,0,0-.35-1.18,1.58,1.58,0,0,0-1.17-.37,1.74,1.74,0,0,0-1.6.92v6.72h-2.54v-9.51Z" fill="#12263f"/>
      <path id="Path_180211" data-name="Path 180211" d="M106.42,487.17a5.71,5.71,0,0,1,1-3.55,3.24,3.24,0,0,1,2.73-1.31,2.91,2.91,0,0,1,2.29,1v-4.85H115V492h-2.3l-.13-1a3,3,0,0,1-2.44,1.19,3.2,3.2,0,0,1-2.69-1.33A5.87,5.87,0,0,1,106.42,487.17Zm2.54.18a3.74,3.74,0,0,0,.47,2,1.51,1.51,0,0,0,1.35.72,1.69,1.69,0,0,0,1.66-1V485.3a1.67,1.67,0,0,0-1.64-1c-1.23.05-1.8,1.05-1.8,3.05Z" fill="#12263f"/>
      <path id="Path_180212" data-name="Path 180212" d="M121.34,492.17a4.66,4.66,0,0,1-3.41-1.29,4.53,4.53,0,0,1-1.31-3.42v-.24a5.7,5.7,0,0,1,.55-2.56,4,4,0,0,1,1.57-1.74,4.38,4.38,0,0,1,2.31-.61,4,4,0,0,1,3.08,1.23,5,5,0,0,1,1.12,3.49v1h-6.06a2.39,2.39,0,0,0,.74,1.5,2.29,2.29,0,0,0,1.57.56,2.77,2.77,0,0,0,2.3-1.06l1.25,1.39a3.86,3.86,0,0,1-1.55,1.26,5,5,0,0,1-2.16.49Zm-.29-7.82a1.56,1.56,0,0,0-1.23.52,2.69,2.69,0,0,0-.6,1.46h3.53v-.2a1.84,1.84,0,0,0-.46-1.31,1.61,1.61,0,0,0-1.24-.47Z" fill="#12263f"/>
      <path id="Path_180213" data-name="Path 180213" d="M133.55,482.48l.08,1.07a3.35,3.35,0,0,1,2.74-1.24,2.53,2.53,0,0,1,2.52,1.45,3.26,3.26,0,0,1,2.85-1.45,2.85,2.85,0,0,1,2.31.9,4.15,4.15,0,0,1,.75,2.71V492h-2.55v-6.08a1.81,1.81,0,0,0-.31-1.18,1.41,1.41,0,0,0-1.12-.38,1.59,1.59,0,0,0-1.58,1.1V492H136.7v-6.07a1.79,1.79,0,0,0-.33-1.2,1.41,1.41,0,0,0-1.1-.37,1.64,1.64,0,0,0-1.57.9V492h-2.54v-9.51Z" fill="#12263f"/>
      <path id="Path_180214" data-name="Path 180214" d="M151.13,492.17a4.64,4.64,0,0,1-3.4-1.29,4.53,4.53,0,0,1-1.32-3.42v-.24a5.7,5.7,0,0,1,.56-2.56,4,4,0,0,1,1.56-1.74,4.39,4.39,0,0,1,2.32-.61,3.93,3.93,0,0,1,3.07,1.23A5,5,0,0,1,155,487v1h-6a2.39,2.39,0,0,0,.74,1.5,2.27,2.27,0,0,0,1.57.56A2.75,2.75,0,0,0,153.6,489l1.25,1.39a3.8,3.8,0,0,1-1.55,1.26A5,5,0,0,1,151.13,492.17Zm-.29-7.82a1.59,1.59,0,0,0-1.23.52,2.69,2.69,0,0,0-.6,1.46h3.54v-.2a1.94,1.94,0,0,0-.46-1.31,1.64,1.64,0,0,0-1.25-.47Z" fill="#12263f"/>
      <path id="Path_180215" data-name="Path 180215" d="M161.83,484.86a8.359,8.359,0,0,0-.92-.07,1.87,1.87,0,0,0-1.89,1V492h-2.54v-9.51h2.4l.07,1.14a2.35,2.35,0,0,1,2.12-1.31,2.521,2.521,0,0,1,.79.11Z" fill="#12263f"/>
      <path id="Path_180216" data-name="Path 180216" d="M166.84,490.12a1.64,1.64,0,0,0,1.14-.39,1.37,1.37,0,0,0,.46-1h2.38a3.29,3.29,0,0,1-.53,1.78,3.43,3.43,0,0,1-1.42,1.24,4.38,4.38,0,0,1-2,.45,4.12,4.12,0,0,1-3.22-1.3,5.15,5.15,0,0,1-1.17-3.58v-.17a5.05,5.05,0,0,1,1.17-3.5,4.576,4.576,0,0,1,6.06-.31,3.59,3.59,0,0,1,1.1,2.7h-2.38a1.75,1.75,0,0,0-.46-1.2,1.69,1.69,0,0,0-2.5.18,3.76,3.76,0,0,0-.45,2.1v.26a3.92,3.92,0,0,0,.44,2.12A1.56,1.56,0,0,0,166.84,490.12Z" fill="#12263f"/>
      <path id="Path_180217" data-name="Path 180217" d="M177.78,492a2.94,2.94,0,0,1-.26-.85,3.07,3.07,0,0,1-2.39,1,3.36,3.36,0,0,1-2.32-.81,2.61,2.61,0,0,1-.92-2A2.68,2.68,0,0,1,173,487a5.57,5.57,0,0,1,3.24-.82h1.17v-.54a1.57,1.57,0,0,0-.34-1.06,1.35,1.35,0,0,0-1.07-.39,1.53,1.53,0,0,0-1,.3,1,1,0,0,0-.37.85H172.1a2.56,2.56,0,0,1,.51-1.53,3.31,3.31,0,0,1,1.44-1.1,5.19,5.19,0,0,1,2.09-.4,4.16,4.16,0,0,1,2.8.88,3.12,3.12,0,0,1,1,2.48v4.12a4.39,4.39,0,0,0,.38,2V492Zm-2.1-1.77a2.19,2.19,0,0,0,1-.25,1.62,1.62,0,0,0,.7-.67v-1.63h-.95c-1.27,0-1.95.44-2,1.32v.14a1,1,0,0,0,.33.79,1.34,1.34,0,0,0,.92.29Z" fill="#12263f"/>
      <path id="Path_180218" data-name="Path 180218" d="M181.52,487.17a5.78,5.78,0,0,1,1-3.55,3.27,3.27,0,0,1,2.73-1.31,2.89,2.89,0,0,1,2.29,1v-4.85h2.55V492H187.8l-.12-1a3,3,0,0,1-2.45,1.19,3.21,3.21,0,0,1-2.69-1.33,5.87,5.87,0,0,1-1.02-3.69Zm2.54.18a3.74,3.74,0,0,0,.47,2,1.51,1.51,0,0,0,1.35.72,1.69,1.69,0,0,0,1.66-1V485.3a1.67,1.67,0,0,0-1.64-1C184.68,484.35,184.06,485.35,184.06,487.35Z" fill="#12263f"/>
      <path id="Path_180219" data-name="Path 180219" d="M196.44,492.17a4.66,4.66,0,0,1-3.41-1.29,4.57,4.57,0,0,1-1.31-3.42v-.24a5.7,5.7,0,0,1,.55-2.56,4,4,0,0,1,1.57-1.74,4.39,4.39,0,0,1,2.32-.61,4,4,0,0,1,3.07,1.23,5,5,0,0,1,1.12,3.49v1h-6.06a2.4,2.4,0,0,0,.75,1.5,2.25,2.25,0,0,0,1.57.56,2.77,2.77,0,0,0,2.29-1.06l1.25,1.39a3.8,3.8,0,0,1-1.55,1.26,5,5,0,0,1-2.16.49Zm-.29-7.82a1.57,1.57,0,0,0-1.23.52,2.69,2.69,0,0,0-.6,1.46h3.53v-.2a1.88,1.88,0,0,0-.45-1.31,1.65,1.65,0,0,0-1.25-.47Z" fill="#12263f"/>
      <path id="Path_180220" data-name="Path 180220" d="M201.4,487.15a5.66,5.66,0,0,1,.54-2.52,4,4,0,0,1,1.57-1.72,4.6,4.6,0,0,1,2.38-.6,4.34,4.34,0,0,1,3.14,1.17,4.79,4.79,0,0,1,1.36,3.2v.65a4.94,4.94,0,0,1-1.22,3.51,4.21,4.21,0,0,1-3.28,1.33,4.26,4.26,0,0,1-3.28-1.32,5.06,5.06,0,0,1-1.22-3.59Zm2.54.18a3.55,3.55,0,0,0,.51,2.07,1.67,1.67,0,0,0,1.45.72,1.71,1.71,0,0,0,1.45-.71,4,4,0,0,0,.51-2.27,3.58,3.58,0,0,0-.51-2.06,1.72,1.72,0,0,0-1.46-.73,1.67,1.67,0,0,0-1.44.73,3.94,3.94,0,0,0-.51,2.25Z" fill="#12263f"/>
      <g id="Group">
        <path id="Path_180260" data-name="Path 180260" d="M6.993-5.532H4.952V0H1.182V-15.641H7.337a6.87,6.87,0,0,1,4.351,1.234,4.181,4.181,0,0,1,1.568,3.488,5.078,5.078,0,0,1-.661,2.7,4.689,4.689,0,0,1-2.068,1.738L13.793-.161V0H9.754Zm-2.041-2.9H7.337A2.141,2.141,0,0,0,8.954-9,2.186,2.186,0,0,0,9.5-10.576a2.211,2.211,0,0,0-.548-1.588,2.121,2.121,0,0,0-1.611-.576H4.952ZM14.91-5.919a6.86,6.86,0,0,1,.677-3.1,4.84,4.84,0,0,1,1.944-2.089,5.856,5.856,0,0,1,2.976-.73,5.344,5.344,0,0,1,4.114,1.617,6.2,6.2,0,0,1,1.5,4.4v.129A6.019,6.019,0,0,1,24.616-1.38a5.359,5.359,0,0,1-4.087,1.6,5.42,5.42,0,0,1-3.985-1.488,5.819,5.819,0,0,1-1.622-4.034Zm3.62.226a4.325,4.325,0,0,0,.5,2.363,1.682,1.682,0,0,0,1.493.752q1.934,0,1.977-2.976v-.365q0-3.126-2-3.126-1.815,0-1.966,2.7ZM31.539,0H27.908V-16.5h3.631ZM38.79-5.9a7.1,7.1,0,0,1,1.192-4.351,3.925,3.925,0,0,1,3.33-1.59,3.338,3.338,0,0,1,2.621,1.225V-16.5h3.631V0H46.31l-.183-1.246A3.428,3.428,0,0,1,43.291.215,3.918,3.918,0,0,1,40-1.375,7.325,7.325,0,0,1,38.79-5.9Zm3.62.226q0,3.094,1.8,3.094a1.782,1.782,0,0,0,1.719-1.01V-8.014a1.734,1.734,0,0,0-1.7-1.031q-1.676,0-1.815,2.707ZM57.245.215a5.975,5.975,0,0,1-4.329-1.6,5.509,5.509,0,0,1-1.654-4.152v-.3a7.138,7.138,0,0,1,.661-3.147,4.834,4.834,0,0,1,1.928-2.111,5.821,5.821,0,0,1,3.008-.747,5.031,5.031,0,0,1,3.867,1.52A5.973,5.973,0,0,1,62.144-6.08v1.407h-7.2a2.609,2.609,0,0,0,.849,1.536,2.525,2.525,0,0,0,1.7.559,3.254,3.254,0,0,0,2.686-1.2l1.654,1.955A4.624,4.624,0,0,1,59.915-.338,6.48,6.48,0,0,1,57.245.215Zm-.408-9.26q-1.59,0-1.891,2.105H58.6v-.279a1.793,1.793,0,0,0-.44-1.348A1.753,1.753,0,0,0,56.837-9.045ZM67.418,0H63.787V-16.5h3.631ZM74.7-5.9a7.848,7.848,0,0,1,.58-3.115A4.67,4.67,0,0,1,76.946-11.1a4.389,4.389,0,0,1,2.524-.736,3.49,3.49,0,0,1,2.836,1.225l.129-1.01h3.287V-.44a4.9,4.9,0,0,1-.714,2.669,4.584,4.584,0,0,1-2.068,1.74,7.6,7.6,0,0,1-3.137.607,6.557,6.557,0,0,1-2.476-.483A4.47,4.47,0,0,1,75.5,2.836L77.011.709A3.319,3.319,0,0,0,79.675,1.9,2.156,2.156,0,0,0,82.081-.569V-.935A3.4,3.4,0,0,1,79.449.215a4.2,4.2,0,0,1-3.437-1.627A6.743,6.743,0,0,1,74.7-5.769Zm3.631.226a4.135,4.135,0,0,0,.537,2.261,1.7,1.7,0,0,0,1.5.833,1.923,1.923,0,0,0,1.708-.784V-8.25a1.875,1.875,0,0,0-1.687-.795,1.706,1.706,0,0,0-1.515.865A4.715,4.715,0,0,0,78.332-5.672ZM93.4.215a5.975,5.975,0,0,1-4.329-1.6A5.509,5.509,0,0,1,87.42-5.532v-.3a7.138,7.138,0,0,1,.661-3.147,4.834,4.834,0,0,1,1.928-2.111,5.821,5.821,0,0,1,3.008-.747,5.031,5.031,0,0,1,3.867,1.52A5.973,5.973,0,0,1,98.3-6.08v1.407H91.1a2.609,2.609,0,0,0,.849,1.536,2.525,2.525,0,0,0,1.7.559,3.254,3.254,0,0,0,2.686-1.2L97.99-1.826A4.624,4.624,0,0,1,96.073-.338,6.48,6.48,0,0,1,93.4.215ZM93-9.045q-1.59,0-1.891,2.105h3.652v-.279a1.793,1.793,0,0,0-.44-1.348A1.753,1.753,0,0,0,93-9.045Zm12.848,5.779a.836.836,0,0,0-.483-.741,7.353,7.353,0,0,0-1.837-.58,8.376,8.376,0,0,1-2.234-.79,3.743,3.743,0,0,1-1.343-1.187,2.834,2.834,0,0,1-.462-1.6A3.212,3.212,0,0,1,100.8-10.8a5.443,5.443,0,0,1,3.459-1.037,6.03,6.03,0,0,1,3.7,1.042,3.258,3.258,0,0,1,1.4,2.739h-3.631q0-1.4-1.472-1.4a1.459,1.459,0,0,0-.956.317.981.981,0,0,0-.387.79.9.9,0,0,0,.473.784,4.466,4.466,0,0,0,1.509.494,13.043,13.043,0,0,1,1.821.462q2.621.9,2.621,3.233a3.044,3.044,0,0,1-1.413,2.589,6.2,6.2,0,0,1-3.658,1A6.322,6.322,0,0,1,101.6-.322a4.455,4.455,0,0,1-1.826-1.461,3.308,3.308,0,0,1-.655-1.944H102.5a1.4,1.4,0,0,0,.537,1.176,2.209,2.209,0,0,0,1.321.371,1.738,1.738,0,0,0,1.112-.3A.962.962,0,0,0,105.843-3.266Z" transform="translate(341.04 310.98)" fill="#12263f"/>
        <path id="Path_180262" data-name="Path 180262" d="M5.231-14.513v2.89H7.144v2.514H5.231v5.317a1.358,1.358,0,0,0,.236.913,1.268,1.268,0,0,0,.935.258,5.311,5.311,0,0,0,.9-.064V-.1A6.681,6.681,0,0,1,5.264.215,3.792,3.792,0,0,1,2.5-.666a3.61,3.61,0,0,1-.892-2.675V-9.109H.129v-2.514H1.611v-2.89Z" transform="translate(451.05 310.98)" fill="#12263f"/>
        <path id="Path_180261" data-name="Path 180261" d="M.559-5.919a6.86,6.86,0,0,1,.677-3.1A4.84,4.84,0,0,1,3.18-11.107a5.856,5.856,0,0,1,2.976-.73,5.344,5.344,0,0,1,4.114,1.617,6.2,6.2,0,0,1,1.5,4.4v.129A6.019,6.019,0,0,1,10.264-1.38,5.359,5.359,0,0,1,6.177.215,5.42,5.42,0,0,1,2.191-1.273,5.819,5.819,0,0,1,.569-5.307Zm3.62.226a4.325,4.325,0,0,0,.5,2.363,1.682,1.682,0,0,0,1.493.752q1.934,0,1.977-2.976v-.365q0-3.126-2-3.126-1.815,0-1.966,2.7ZM20.4-8.347l-1.192-.086a2.142,2.142,0,0,0-2.191,1.074V0H13.4V-11.623H16.79l.118,1.493a2.8,2.8,0,0,1,2.546-1.708,3.53,3.53,0,0,1,1.01.129Z" transform="translate(458.28 310.98)" fill="#12263f"/>
        <path id="Path_180259" data-name="Path 180259" d="M.559-5.9a7.1,7.1,0,0,1,1.192-4.351,3.925,3.925,0,0,1,3.33-1.59A3.338,3.338,0,0,1,7.7-10.613V-16.5h3.631V0H8.078L7.9-1.246A3.428,3.428,0,0,1,5.06.215a3.918,3.918,0,0,1-3.287-1.59A7.325,7.325,0,0,1,.559-5.9Zm3.62.226q0,3.094,1.8,3.094A1.782,1.782,0,0,0,7.7-3.588V-8.014A1.734,1.734,0,0,0,6-9.045q-1.676,0-1.815,2.707ZM19.014.215a5.975,5.975,0,0,1-4.329-1.6A5.509,5.509,0,0,1,13.03-5.532v-.3a7.138,7.138,0,0,1,.661-3.147,4.834,4.834,0,0,1,1.928-2.111,5.821,5.821,0,0,1,3.008-.747,5.031,5.031,0,0,1,3.867,1.52A5.973,5.973,0,0,1,23.912-6.08v1.407h-7.2a2.609,2.609,0,0,0,.849,1.536,2.525,2.525,0,0,0,1.7.559,3.254,3.254,0,0,0,2.686-1.2L23.6-1.826A4.624,4.624,0,0,1,21.683-.338,6.48,6.48,0,0,1,19.014.215Zm-.408-9.26q-1.59,0-1.891,2.105h3.652v-.279a1.793,1.793,0,0,0-.44-1.348A1.753,1.753,0,0,0,18.605-9.045ZM36.158-5.726A7.009,7.009,0,0,1,34.939-1.4,3.909,3.909,0,0,1,31.646.215,3.351,3.351,0,0,1,29.015-.956V4.469h-3.62V-11.623h3.384l.107,1.074a3.351,3.351,0,0,1,2.739-1.289,3.941,3.941,0,0,1,3.341,1.584A7.1,7.1,0,0,1,36.158-5.9Zm-3.62-.226q0-3.094-1.8-3.094a1.7,1.7,0,0,0-1.719.924v4.576a1.759,1.759,0,0,0,1.74.967q1.729,0,1.783-2.986Zm4.759.032a6.86,6.86,0,0,1,.677-3.1,4.84,4.84,0,0,1,1.944-2.089,5.856,5.856,0,0,1,2.976-.73,5.344,5.344,0,0,1,4.114,1.617,6.2,6.2,0,0,1,1.5,4.4v.129A6.019,6.019,0,0,1,47-1.38a5.359,5.359,0,0,1-4.087,1.6A5.42,5.42,0,0,1,38.93-1.273a5.819,5.819,0,0,1-1.622-4.034Zm3.62.226a4.325,4.325,0,0,0,.5,2.363,1.682,1.682,0,0,0,1.493.752q1.934,0,1.977-2.976v-.365q0-3.126-2-3.126-1.815,0-1.966,2.7Z" transform="translate(362.44 337.38)" fill="#12263f"/>
        <path id="Path_180263" data-name="Path 180263" d="M8.046-8.347,6.854-8.433A2.142,2.142,0,0,0,4.662-7.358V0H1.042V-11.623H4.437l.118,1.493A2.8,2.8,0,0,1,7.1-11.838a3.53,3.53,0,0,1,1.01.129Z" transform="translate(411.54 337.38)" fill="#12263f"/>
        <path id="Path_180264" data-name="Path 180264" d="M5.231-14.513v2.89H7.144v2.514H5.231v5.317a1.358,1.358,0,0,0,.236.913,1.268,1.268,0,0,0,.935.258,5.311,5.311,0,0,0,.9-.064V-.1A6.681,6.681,0,0,1,5.264.215,3.792,3.792,0,0,1,2.5-.666a3.61,3.61,0,0,1-.892-2.675V-9.109H.129v-2.514H1.611v-2.89ZM12.386,0H8.755V-11.623h3.631ZM8.54-14.631A1.63,1.63,0,0,1,9.1-15.906a2.1,2.1,0,0,1,1.45-.5,2.1,2.1,0,0,1,1.45.5,1.63,1.63,0,0,1,.559,1.275A1.63,1.63,0,0,1,12-13.356a2.1,2.1,0,0,1-1.45.5,2.1,2.1,0,0,1-1.45-.5A1.63,1.63,0,0,1,8.54-14.631Z" transform="translate(420.41 337.38)" fill="#12263f"/>
        <path id="Path_180265" data-name="Path 180265" d="M5.65-4.308l1.837-7.315H11.3L7.509,0h-3.7L.021-11.623H3.846Z" transform="translate(434.01 337.38)" fill="#12263f"/>
        <path id="Path_180266" data-name="Path 180266" d="M.559-5.919a6.86,6.86,0,0,1,.677-3.1A4.84,4.84,0,0,1,3.18-11.107a5.856,5.856,0,0,1,2.976-.73,5.344,5.344,0,0,1,4.114,1.617,6.2,6.2,0,0,1,1.5,4.4v.129A6.019,6.019,0,0,1,10.264-1.38,5.359,5.359,0,0,1,6.177.215,5.42,5.42,0,0,1,2.191-1.273,5.819,5.819,0,0,1,.569-5.307Zm3.62.226a4.325,4.325,0,0,0,.5,2.363,1.682,1.682,0,0,0,1.493.752q1.934,0,1.977-2.976v-.365q0-3.126-2-3.126-1.815,0-1.966,2.7Z" transform="translate(445.21 337.38)" fill="#12263f"/>
      </g>
      <path id="Path_180221" data-name="Path 180221" d="M605.28,235.69a2,2,0,0,1-.92-3.78l58.85-30.58a2,2,0,0,1,.92-.23h67.93a2,2,0,0,1,0,4H664.62L606.2,235.46a2,2,0,0,1-.92.23Z" fill="#fe502d"/>
      <path id="Path_180222" data-name="Path 180222" d="M224.72,235.69a2.05,2.05,0,0,1-.92-.23L165.39,205.1H98a2,2,0,0,1,0-4h67.93a2,2,0,0,1,.92.23l58.85,30.58a2,2,0,0,1-.98,3.78Z" fill="#2d54fe"/>
      <path id="Path_180223" data-name="Path 180223" d="M674.2,511.62H606.27a2,2,0,0,1-.92-.23L546.5,480.81a2,2,0,1,1,1.85-3.55l58.41,30.36H674.2a2,2,0,0,1,0,4Z" fill="#2d54fe"/>
      <path id="Path_180224" data-name="Path 180224" d="M213.73,511.62H145.8a2,2,0,0,1,0-4h67.44l58.41-30.36a2,2,0,0,1,1.85,3.55l-58.85,30.58a2,2,0,0,1-.92.23Z" fill="#fe502d"/>
      <path id="Path_180225" data-name="Path 180225" d="M379.91,360.3a2.54,2.54,0,1,1-2.54-2.54A2.54,2.54,0,0,1,379.91,360.3Z" fill="#fe502d"/>
      <path id="Path_180226" data-name="Path 180226" d="M412.54,360.3a2.54,2.54,0,1,1-2.54-2.54,2.54,2.54,0,0,1,2.54,2.54Z" fill="#ffca00"/>
      <path id="Path_180227" data-name="Path 180227" d="M396.22,360.3a2.54,2.54,0,1,1-2.54-2.54A2.54,2.54,0,0,1,396.22,360.3Z" fill="#2d54fe"/>
      <path id="Path_180228" data-name="Path 180228" d="M428.86,360.3a2.54,2.54,0,1,1-2.54-2.54A2.54,2.54,0,0,1,428.86,360.3Z" fill="#fe502d"/>
      <path id="Path_180229" data-name="Path 180229" d="M445.17,360.3a2.54,2.54,0,1,1-2.54-2.54A2.54,2.54,0,0,1,445.17,360.3Z" fill="#2d54fe"/>
      <g id="_05" data-name="05">
        <path id="Path_180230" data-name="Path 180230" d="M405.57,413.32a100.09,100.09,0,0,1-89.28-64.87l-73.55,23.9a177.38,177.38,0,0,0,162.83,118.3Z" fill="#fe502d"/>
      </g>
      <g id="_04" data-name="04">
        <path id="Path_180231" data-name="Path 180231" d="M503.71,348.45a100.09,100.09,0,0,1-89.28,64.87v77.33a177.38,177.38,0,0,0,162.83-118.3Z" fill="#2d54fe"/>
      </g>
      <g id="_03" data-name="03">
        <path id="Path_180232" data-name="Path 180232" d="M472.35,235.07a100.09,100.09,0,0,1,34.1,105L580,363.92a177.36,177.36,0,0,0-62.2-191.41Z" fill="#fe502d"/>
      </g>
      <g id="_02" data-name="02">
        <path id="Path_180233" data-name="Path 180233" d="M354.82,229.86a100.06,100.06,0,0,1,110.36,0l45.45-62.57a177.41,177.41,0,0,0-201.26,0Z" fill="#ffca00"/>
      </g>
      <g id="_01" data-name="01">
        <path id="Path_180234" data-name="Path 180234" d="M313.55,340a100.09,100.09,0,0,1,34.1-104.95L302.2,172.51A177.36,177.36,0,0,0,240,363.92Z" fill="#2d54fe"/>
      </g>
      <g id="_05-2" data-name="05">
        <circle id="Ellipse_5767" data-name="Ellipse 5767" cx="62.22" cy="62.22" r="62.22" transform="translate(247.32 389.4)" fill="#fe502d"/>
      </g>
      <g id="_04-2" data-name="04">
        <circle id="Ellipse_5768" data-name="Ellipse 5768" cx="62.22" cy="62.22" r="62.22" transform="translate(448.24 389.4)" fill="#2d54fe"/>
      </g>
      <g id="_03-2" data-name="03">
        <circle id="Ellipse_5769" data-name="Ellipse 5769" cx="62.22" cy="62.22" r="62.22" transform="translate(510.34 198.3)" fill="#fe502d"/>
      </g>
      <g id="_02-2" data-name="02">
        <circle id="Ellipse_5770" data-name="Ellipse 5770" cx="62.22" cy="62.22" r="62.22" transform="translate(347.78 80.2)" fill="#ffca00"/>
      </g>
      <g id="_01-2" data-name="01">
        <circle id="Ellipse_5771" data-name="Ellipse 5771" cx="62.22" cy="62.22" r="62.22" transform="translate(185.22 198.3)" fill="#2d54fe"/>
      </g>
      <g id="Shadows_1">
        <g id="_05-3" data-name="05" opacity="0.4" style="mix-blend-mode: multiply;isolation: isolate">
          <g id="Group_117697" data-name="Group 117697">
            <circle id="Ellipse_5772" data-name="Ellipse 5772" cx="50.62" cy="50.62" r="50.62" transform="translate(264.79 405.98)" fill="url(#radial-gradient)"/>
          </g>
        </g>
        <g id="_04-3" data-name="04" opacity="0.4" style="mix-blend-mode: multiply;isolation: isolate">
          <g id="Group_117698" data-name="Group 117698">
            <circle id="Ellipse_5773" data-name="Ellipse 5773" cx="50.62" cy="50.62" r="50.62" transform="translate(466.08 406)" fill="url(#radial-gradient-2)"/>
          </g>
        </g>
        <g id="_03-3" data-name="03" opacity="0.4" style="mix-blend-mode: multiply;isolation: isolate">
          <g id="Group_117699" data-name="Group 117699">
            <circle id="Ellipse_5774" data-name="Ellipse 5774" cx="50.62" cy="50.62" r="50.62" transform="translate(527.81 216.02)" fill="url(#radial-gradient-3)"/>
          </g>
        </g>
        <g id="_02-3" data-name="02" opacity="0.4" style="mix-blend-mode: multiply;isolation: isolate">
          <g id="Group_117700" data-name="Group 117700">
            <circle id="Ellipse_5775" data-name="Ellipse 5775" cx="50.62" cy="50.62" r="50.62" transform="translate(366.35 97.5)" fill="url(#radial-gradient)"/>
          </g>
        </g>
        <g id="_01-3" data-name="01" opacity="0.4" style="mix-blend-mode: multiply;isolation: isolate">
          <g id="Group_117701" data-name="Group 117701">
            <circle id="Ellipse_5776" data-name="Ellipse 5776" cx="50.62" cy="50.62" r="50.62" transform="translate(203.99 215.18)" fill="url(#radial-gradient)"/>
          </g>
        </g>
      </g>
      <g id="_05-4" data-name="05">
        <circle id="Ellipse_5777" data-name="Ellipse 5777" cx="47.99" cy="47.99" r="47.99" transform="matrix(0.609, -0.793, 0.793, 0.609, 242.249, 460.468)" fill="#fff"/>
      </g>
      <g id="_04-4" data-name="04">
        <circle id="Ellipse_5778" data-name="Ellipse 5778" cx="47.99" cy="47.99" r="47.99" transform="translate(457.845 494.487) rotate(-84.21)" fill="#fff"/>
      </g>
      <g id="_03-4" data-name="03">
        <circle id="Ellipse_5779" data-name="Ellipse 5779" cx="47.99" cy="47.99" r="47.99" transform="translate(508.96 236.789) rotate(-24.57)" fill="#fff"/>
      </g>
      <g id="_02-4" data-name="02">
        <circle id="Ellipse_5780" data-name="Ellipse 5780" cx="47.99" cy="47.99" r="47.99" transform="translate(342.439 148.787) rotate(-50.37)" fill="#fff"/>
      </g>
      <g id="_01-4" data-name="01">
        <circle id="Ellipse_5781" data-name="Ellipse 5781" cx="47.99" cy="47.99" r="47.99" transform="matrix(0.863, -0.505, 0.505, 0.863, 181.775, 243.353)" fill="#fff"/>
      </g>
      <path id="Path_180235" data-name="Path 180235" d="M407.49,123.19a6.43,6.43,0,1,0-6.42-6.42,6.43,6.43,0,0,0,6.42,6.42Z" fill="#ffca00"/>
      <path id="Path_180236" data-name="Path 180236" d="M425.56,150.08h-4.81a3,3,0,0,0,1.62-2.7V130.92s0-6.92-6.12-7H398.76c-6.12.07-6.14,7-6.14,7v16.46a3.08,3.08,0,1,0,6.15,0l.05-17.3h.95v12.64h0l.07,28.32a3.46,3.46,0,1,0,6.92,0V150.39a3.51,3.51,0,0,0,1.49,0V171a3.46,3.46,0,0,0,6.92,0v-7.66H413a2.89,2.89,0,0,1-2.88-2.89v-8.61A2.89,2.89,0,0,1,413,149h2.26v-6.28h0V130.08h.94v17.3a3,3,0,0,0,1.64,2.7H413a1.81,1.81,0,0,0-1.8,1.8v1a28.9,28.9,0,0,0,16.21,0v-1a1.82,1.82,0,0,0-1.85-1.8Zm-18.06-7.26-2-3.94,1.18-8.58h1.69l1.18,8.58Zm5.11-17.9L409.53,127l-1.28-2.08Zm-4.14,1.92.71,2.14-.83.85h-1.69l-.84-.85.71-2.14h1.94Zm-1.77-1.92L405.41,127l-3.07-2.08Z" fill="#ffca00"/>
      <path id="Path_180237" data-name="Path 180237" d="M419.28,156.93a2.39,2.39,0,0,1-2.37-2,27.8,27.8,0,0,1-5.74-1v6.64a1.81,1.81,0,0,0,1.8,1.81h12.59a1.81,1.81,0,0,0,1.82-1.81v-6.64a27.92,27.92,0,0,1-5.74,1A2.4,2.4,0,0,1,419.28,156.93Z" fill="#ffca00"/>
      <path id="Path_180238" data-name="Path 180238" d="M230.81,241.64a6.31,6.31,0,1,0-4.5-1.766,6.32,6.32,0,0,0,4.5,1.766Z" fill="#2d54fe"/>
      <path id="Path_180239" data-name="Path 180239" d="M247.06,262.12c.8-1.46.3-3-1.19-4.09l-6.73-5-3.79-6.49s-2.11-3.57-5.51-3.74a6.356,6.356,0,0,0-.75-.08,7.28,7.28,0,0,0-7,7.36h0v.21L222,261.46h0a7.74,7.74,0,0,0,3.24,6.24l.06,20.95a3.4,3.4,0,0,0,6.8,0v-20.6a7.69,7.69,0,0,0,3.82-6.52h0v-3.64l6.92,5.11a3,3,0,0,0,4.22-.88Z" fill="#2d54fe"/>
      <path id="Path_180240" data-name="Path 180240" d="M264.08,241.64a6.3,6.3,0,1,0-4.44-1.93,6.32,6.32,0,0,0,4.44,1.93Z" fill="#2d54fe"/>
      <path id="Path_180241" data-name="Path 180241" d="M272.8,250.08h0c-.11-4.11-3.21-7.39-7-7.36a6.355,6.355,0,0,0-.75.08c-3.4.17-5.51,3.74-5.51,3.74L255.75,253,249,258c-1.49,1.13-2,2.63-1.19,4.09A3,3,0,0,0,252,263l6.92-5.11v3.64h0a7.67,7.67,0,0,0,3.82,6.52,3.82,3.82,0,0,0,0,.41v20.19a3.43,3.43,0,0,0,3.44,3.4,3.39,3.39,0,0,0,3.37-3.4l.06-20.95a7.74,7.74,0,0,0,3.24-6.24h0l-.06-11.17C272.83,250.22,272.8,250.15,272.8,250.08Z" fill="#2d54fe"/>
      <path id="Path_180242" data-name="Path 180242" d="M256.28,276.62h-4.6v-1.83a.36.36,0,0,0,.22-.35.41.41,0,0,0-.41-.43h-7.28a.44.44,0,0,0-.45.43.42.42,0,0,0,.22.35v1.83h-4.57A1.4,1.4,0,0,0,238,278v1.28l9.83,2.83,9.86-2.83V278a1.42,1.42,0,0,0-1.41-1.38Z" fill="#2d54fe"/>
      <path id="Path_180243" data-name="Path 180243" d="M249.05,284.46a.42.42,0,0,1-.42.42h-1.57a.4.4,0,0,1-.42-.42V283L238,280.52v10.12a1.4,1.4,0,0,0,1.41,1.41h16.87a1.42,1.42,0,0,0,1.41-1.41V280.52L249.05,283Z" fill="#2d54fe"/>
      <path id="Path_180244" data-name="Path 180244" d="M510.47,432.47a6.39,6.39,0,1,0-6.4-6.38,6.39,6.39,0,0,0,6.4,6.38Z" fill="#2d54fe"/>
      <path id="Path_180245" data-name="Path 180245" d="M528.75,445.4v-5.54h-3.92c-.08-1.26-.67-6.24-5.53-6.63H501.65c-4.87.39-5.47,5.37-5.54,6.63h-3.7v5.49a2.86,2.86,0,0,0,0,5.65v13.1H502.8v16a3.45,3.45,0,1,0,6.9,0v-16h1.47v16a3.45,3.45,0,1,0,6.9,0v-16h10.61V451a2.85,2.85,0,0,0,0-5.55ZM493.5,463V440.93h34.16V463Z" fill="#2d54fe"/>
      <path id="Path_180246" data-name="Path 180246" d="M306.43,433.68a6.31,6.31,0,1,0-5.28-7.21,6.31,6.31,0,0,0,5.28,7.21Z" fill="#fe502d"/>
      <path id="Path_180247" data-name="Path 180247" d="M328.94,420.59a3,3,0,0,0-4.26,0l-.86.84h-1.06v1.07l-13.53,13.44a6.41,6.41,0,0,0-8.67-.25l-10,6.41-5.5,9.66a3,3,0,0,0,1.33,4c1.54.64,3,0,3.93-1.63l4.36-7.56,2.2-1.13-1.08,6h0a10.654,10.654,0,0,0-.1,1.49l-9.78,26a3.4,3.4,0,1,0,6.36,2.4l8.51-21.56a3.569,3.569,0,0,0,.53.16,6.24,6.24,0,0,0,3.13-.24L312,464.9l-5.25,7.65a3.4,3.4,0,1,0,5.39,4.14l7.09-10a3.43,3.43,0,0,0-.56-4.86l-9.56-6.68a6.889,6.889,0,0,0,.38-1.24h0a1.664,1.664,0,0,1,.05-.19l2-11h0v-.05l11.32-11.53v7.58h11.56v-17.3h-4.81a2.72,2.72,0,0,0-.67-.83ZM307,440l.79.08h0l.8.08.32,8.15-2.28,3.5-1.53-3.86Zm1.63-.3-.8-.08-.79-.09-.7-.85.87-1.93.9.08h.23l.68.08.2.85.27,1.19Zm24.61-17.17v15.15H323.8V422.5h9.44Z" fill="#fe502d"/>
      <path id="Path_180248" data-name="Path 180248" d="M572.12,263.27l1.75,1.76,2.07-2.07V292.6h9.13V253.72l2.52-2.52-1.79-1.76Z" fill="#fe502d"/>
      <path id="Path_180249" data-name="Path 180249" d="M564.38,241.4a6.46,6.46,0,1,0-4.6-1.892A6.48,6.48,0,0,0,564.38,241.4Z" fill="#fe502d"/>
      <path id="Path_180250" data-name="Path 180250" d="M575.91,257.21a3,3,0,0,0-2.94-2.95h-1.14v-4.53h0c-.11-4.22-3.23-7.62-7.08-7.62s-7,3.34-7.17,7.53h0v.23l-.09,11.42h0a7.89,7.89,0,0,0,3.32,6.38v21.45a3.5,3.5,0,1,0,7,0V268.46a3.888,3.888,0,0,0,0-.42,7.86,7.86,0,0,0,3.92-6.66h0a.721.721,0,0,0,0-.23v-1h1.16a2.93,2.93,0,0,0,3.02-2.94Z" fill="#fe502d"/>
      <path id="Path_180251" data-name="Path 180251" d="M408.23,87.27a2,2,0,0,1-2-2V55.7a2,2,0,0,1,4,0V85.27A2,2,0,0,1,408.23,87.27Z" fill="#ffca00"/>
      <circle id="Ellipse_5782" data-name="Ellipse 5782" cx="7.37" cy="7.37" r="7.37" transform="translate(88.58 195.81)" fill="#2d54fe"/>
      <circle id="Ellipse_5783" data-name="Ellipse 5783" cx="7.37" cy="7.37" r="7.37" transform="translate(400.88 46.33)" fill="#ffca00"/>
      <circle id="Ellipse_5784" data-name="Ellipse 5784" cx="7.37" cy="7.37" r="7.37" transform="translate(726.69 195.81)" fill="#fe502d"/>
      <circle id="Ellipse_5785" data-name="Ellipse 5785" cx="7.37" cy="7.37" r="7.37" transform="translate(668.83 501.7)" fill="#2d54fe"/>
      <circle id="Ellipse_5786" data-name="Ellipse 5786" cx="7.37" cy="7.37" r="7.37" transform="translate(136.43 501.7)" fill="#fe502d"/>
    </g>
  </g>
</svg>
