<svg xmlns="http://www.w3.org/2000/svg" xmlns:xlink="http://www.w3.org/1999/xlink" width="820" height="311.981" viewBox="0 0 820 311.981">
  <defs>
    <radialGradient id="radial-gradient" cx="0.375" cy="0.505" r="0.649" gradientTransform="matrix(0.577, 0.765, -0.093, 0.088, 0.172, 0.235)" gradientUnits="objectBoundingBox">
      <stop offset="0"/>
      <stop offset="0.866" stop-opacity="0"/>
      <stop offset="1" stop-opacity="0"/>
    </radialGradient>
    <radialGradient id="radial-gradient-2" cx="0.554" cy="0.537" r="0.6" gradientTransform="matrix(0.7, -0.769, 0.109, 0.083, 0.079, 0.845)" xlink:href="#radial-gradient"/>
    <radialGradient id="radial-gradient-3" cx="0.558" cy="0.549" r="0.589" gradientTransform="matrix(0.686, -0.765, 0.132, 0.104, 0.064, 0.824)" xlink:href="#radial-gradient"/>
    <radialGradient id="radial-gradient-4" cx="0.587" cy="0.572" r="0.554" gradientTransform="matrix(0.656, -0.761, 0.133, 0.112, 0.066, 0.822)" xlink:href="#radial-gradient"/>
    <radialGradient id="radial-gradient-5" cx="0.501" cy="-0.024" r="18.04" gradientTransform="matrix(0.027, 0, 0, -0.032, 0.749, 1.078)" xlink:href="#radial-gradient"/>
  </defs>
  <g id="t2-i2" transform="translate(1009.908 -961.16)">
    <rect id="Rectangle_36749" data-name="Rectangle 36749" width="466.429" height="64.998" transform="translate(-739.735 961.16)" fill="#2d54fe"/>
    <rect id="Rectangle_36750" data-name="Rectangle 36750" width="422.21" height="65.027" transform="translate(-695.517 1026.158)" fill="#fe502d"/>
    <rect id="Rectangle_36751" data-name="Rectangle 36751" width="377.991" height="65.027" transform="translate(-651.298 1091.185)" fill="#ffca00"/>
    <rect id="Rectangle_36752" data-name="Rectangle 36752" width="333.795" height="64.998" transform="translate(-607.102 1156.212)" fill="#d3d3d3"/>
    <g id="Group_117539" data-name="Group 117539" transform="translate(-270.328 1156.211)">
      <rect id="Rectangle_36753" data-name="Rectangle 36753" width="1.733" height="64.998" transform="translate(78.687)" fill="#d3d3d3"/>
      <rect id="Rectangle_36754" data-name="Rectangle 36754" width="2.926" height="64.998" transform="translate(65.573 0)" fill="#d3d3d3"/>
      <rect id="Rectangle_36755" data-name="Rectangle 36755" width="4.118" height="64.998" transform="translate(52.458 0)" fill="#d3d3d3"/>
      <rect id="Rectangle_36756" data-name="Rectangle 36756" width="5.31" height="64.998" transform="translate(39.344 0)" fill="#d3d3d3"/>
      <rect id="Rectangle_36757" data-name="Rectangle 36757" width="6.503" height="64.998" transform="translate(26.229 0)" fill="#d3d3d3"/>
      <rect id="Rectangle_36758" data-name="Rectangle 36758" width="7.695" height="64.998" transform="translate(13.115 0.001)" fill="#d3d3d3"/>
      <rect id="Rectangle_36759" data-name="Rectangle 36759" width="8.888" height="64.998" transform="translate(0 0.001)" fill="#d3d3d3"/>
    </g>
    <g id="Group_117540" data-name="Group 117540" transform="translate(-270.328 1091.185)">
      <rect id="Rectangle_36760" data-name="Rectangle 36760" width="1.733" height="64.998" transform="translate(78.687)" fill="#ffca00"/>
      <rect id="Rectangle_36761" data-name="Rectangle 36761" width="2.926" height="64.998" transform="translate(65.573 0)" fill="#ffca00"/>
      <rect id="Rectangle_36762" data-name="Rectangle 36762" width="4.118" height="64.998" transform="translate(52.458 0)" fill="#ffca00"/>
      <rect id="Rectangle_36763" data-name="Rectangle 36763" width="5.31" height="64.998" transform="translate(39.344 0)" fill="#ffca00"/>
      <rect id="Rectangle_36764" data-name="Rectangle 36764" width="6.503" height="64.998" transform="translate(26.229 0)" fill="#ffca00"/>
      <rect id="Rectangle_36765" data-name="Rectangle 36765" width="7.695" height="64.998" transform="translate(13.115 0.001)" fill="#ffca00"/>
      <rect id="Rectangle_36766" data-name="Rectangle 36766" width="8.888" height="64.998" transform="translate(0 0.001)" fill="#ffca00"/>
    </g>
    <g id="Group_117541" data-name="Group 117541" transform="translate(-270.328 1026.158)">
      <rect id="Rectangle_36767" data-name="Rectangle 36767" width="1.733" height="64.998" transform="translate(78.687)" fill="#fe502d"/>
      <rect id="Rectangle_36768" data-name="Rectangle 36768" width="2.926" height="64.998" transform="translate(65.573 0)" fill="#fe502d"/>
      <rect id="Rectangle_36769" data-name="Rectangle 36769" width="4.118" height="64.998" transform="translate(52.458 0)" fill="#fe502d"/>
      <rect id="Rectangle_36770" data-name="Rectangle 36770" width="5.31" height="64.998" transform="translate(39.344 0)" fill="#fe502d"/>
      <rect id="Rectangle_36771" data-name="Rectangle 36771" width="6.503" height="64.998" transform="translate(26.229 0)" fill="#fe502d"/>
      <rect id="Rectangle_36772" data-name="Rectangle 36772" width="7.695" height="64.998" transform="translate(13.115 0)" fill="#fe502d"/>
      <rect id="Rectangle_36773" data-name="Rectangle 36773" width="8.888" height="64.998" transform="translate(0 0.001)" fill="#fe502d"/>
    </g>
    <g id="Group_117542" data-name="Group 117542" transform="translate(-270.328 961.16)">
      <rect id="Rectangle_36774" data-name="Rectangle 36774" width="1.733" height="64.998" transform="translate(78.687)" fill="#2d54fe"/>
      <rect id="Rectangle_36775" data-name="Rectangle 36775" width="2.926" height="64.998" transform="translate(65.573 0)" fill="#2d54fe"/>
      <rect id="Rectangle_36776" data-name="Rectangle 36776" width="4.118" height="64.998" transform="translate(52.458 0)" fill="#2d54fe"/>
      <rect id="Rectangle_36777" data-name="Rectangle 36777" width="5.31" height="64.998" transform="translate(39.344 0)" fill="#2d54fe"/>
      <rect id="Rectangle_36778" data-name="Rectangle 36778" width="6.503" height="64.998" transform="translate(26.229 0)" fill="#2d54fe"/>
      <rect id="Rectangle_36779" data-name="Rectangle 36779" width="7.695" height="64.998" transform="translate(13.115 0.001)" fill="#2d54fe"/>
      <rect id="Rectangle_36780" data-name="Rectangle 36780" width="8.888" height="64.998" transform="translate(0 0.001)" fill="#2d54fe"/>
    </g>
    <path id="Path_179841" data-name="Path 179841" d="M-739.656,961.16l-129.574,155.99-129.545,155.991h518.266l-129.574-155.991Z" transform="translate(-0.08)" fill="#2d54fe"/>
    <path id="Path_179842" data-name="Path 179842" d="M-666.051,961.16h-71.738l216,260.05h71.738Z" transform="translate(-1.946)" opacity="0.6" fill="url(#radial-gradient)" style="mix-blend-mode: multiply;isolation: isolate"/>
    <path id="Path_179843" data-name="Path 179843" d="M-738.178,961.16l-54.008,65H-684.17Z" transform="translate(-1.557)" fill="#2341c7"/>
    <path id="Path_179844" data-name="Path 179844" d="M-920.057,1273.141H-879.3l199.68-240.406L-700,1008.187Z" transform="translate(-0.643)" opacity="0.6" fill="url(#radial-gradient-2)" style="mix-blend-mode: multiply;isolation: isolate"/>
    <path id="Path_179845" data-name="Path 179845" d="M-890.009,1273.141h410.279L-684.87,1026.158Z" transform="translate(-0.858)" fill="#fe502d"/>
    <path id="Path_179846" data-name="Path 179846" d="M-737.789,1091.185l54.008-65.027,54.008,65.027Z" transform="translate(-1.946)" fill="#d94427"/>
    <path id="Path_179847" data-name="Path 179847" d="M-811.291,1273.141h40.752l145.672-175.38-20.376-24.548Z" transform="translate(-1.421)" opacity="0.6" fill="url(#radial-gradient-3)" style="mix-blend-mode: multiply;isolation: isolate"/>
    <path id="Path_179848" data-name="Path 179848" d="M-781.216,1273.141h302.263l-151.132-181.956Z" transform="translate(-1.636)" fill="#ffca00"/>
    <path id="Path_179849" data-name="Path 179849" d="M-683.392,1156.212l54.008-65.027,53.98,65.027Z" transform="translate(-2.336)" fill="#e3b400"/>
    <path id="Path_179850" data-name="Path 179850" d="M-702.5,1273.141h40.724l91.692-110.381-20.376-24.52Z" transform="translate(-2.199)" opacity="0.6" fill="url(#radial-gradient-4)" style="mix-blend-mode: multiply;isolation: isolate"/>
    <path id="Path_179851" data-name="Path 179851" d="M-478.174,1273.141l-97.152-116.929-97.124,116.929Z" transform="translate(-2.414)" fill="#d3d3d3"/>
    <path id="Path_179852" data-name="Path 179852" d="M-629,1221.21l53.98-65,54.008,65Z" transform="translate(-2.725)" fill="#bababa"/>
    <rect id="Rectangle_36781" data-name="Rectangle 36781" width="694.995" height="19" transform="translate(-314.913 1273) rotate(180)" opacity="0.6" fill="url(#radial-gradient-5)" style="mix-blend-mode: multiply;isolation: isolate"/>
    <path id="Path_179857" data-name="Path 179857" d="M.809-6.422H2.742v2.73H.809V0H-2.578V-3.691h-7l-.152-2.133,7.113-11.238H.809Zm-7.16,0h3.773v-6.023l-.223.387ZM4.875-1.664A1.7,1.7,0,0,1,5.42-2.977a1.934,1.934,0,0,1,1.365-.5,1.949,1.949,0,0,1,1.377.5,1.7,1.7,0,0,1,.545,1.313A1.682,1.682,0,0,1,8.168-.369a1.958,1.958,0,0,1-1.383.5,1.941,1.941,0,0,1-1.371-.5A1.682,1.682,0,0,1,4.875-1.664Z" transform="translate(-740.657 1006.112)" fill="#fff"/>
    <path id="Path_179858" data-name="Path 179858" d="M-5.766-10.031h1.8a2.543,2.543,0,0,0,1.91-.645,2.362,2.362,0,0,0,.621-1.711,2.088,2.088,0,0,0-.615-1.605,2.384,2.384,0,0,0-1.693-.574,2.5,2.5,0,0,0-1.629.533,1.7,1.7,0,0,0-.656,1.389H-9.41a4.165,4.165,0,0,1,.721-2.4A4.8,4.8,0,0,1-6.674-16.7a6.727,6.727,0,0,1,2.854-.6A6.38,6.38,0,0,1,.422-16a4.418,4.418,0,0,1,1.535,3.568,3.59,3.59,0,0,1-.715,2.156A4.644,4.644,0,0,1-.633-8.766a4.24,4.24,0,0,1,2.15,1.547,4.2,4.2,0,0,1,.709,2.438A4.491,4.491,0,0,1,.568-1.137,6.667,6.667,0,0,1-3.82.234,6.322,6.322,0,0,1-8-1.113,4.4,4.4,0,0,1-9.621-4.676h3.387a1.962,1.962,0,0,0,.721,1.57A2.656,2.656,0,0,0-3.738-2.5a2.668,2.668,0,0,0,1.893-.639A2.2,2.2,0,0,0-1.16-4.828q0-2.555-2.812-2.555H-5.766ZM4.875-1.664A1.7,1.7,0,0,1,5.42-2.977a1.934,1.934,0,0,1,1.365-.5,1.949,1.949,0,0,1,1.377.5,1.7,1.7,0,0,1,.545,1.313A1.682,1.682,0,0,1,8.168-.369a1.958,1.958,0,0,1-1.383.5,1.941,1.941,0,0,1-1.371-.5A1.682,1.682,0,0,1,4.875-1.664Z" transform="translate(-686.649 1071.139)" fill="#fff"/>
    <path id="Path_179859" data-name="Path 179859" d="M2.484,0h-11.7V-2.32L-3.691-8.2A13.617,13.617,0,0,0-2.01-10.371a3.483,3.483,0,0,0,.545-1.758,2.606,2.606,0,0,0-.574-1.787,2.073,2.073,0,0,0-1.641-.65,2.236,2.236,0,0,0-1.811.791,3.133,3.133,0,0,0-.662,2.08h-3.4a5.594,5.594,0,0,1,.744-2.848,5.245,5.245,0,0,1,2.1-2.021A6.394,6.394,0,0,1-3.621-17.3a6.054,6.054,0,0,1,4.1,1.266,4.478,4.478,0,0,1,1.459,3.574,5.737,5.737,0,0,1-.656,2.578A14.327,14.327,0,0,1-.973-6.82L-4.852-2.73H2.484ZM4.875-1.664A1.7,1.7,0,0,1,5.42-2.977a1.934,1.934,0,0,1,1.365-.5,1.949,1.949,0,0,1,1.377.5,1.7,1.7,0,0,1,.545,1.313A1.682,1.682,0,0,1,8.168-.369a1.958,1.958,0,0,1-1.383.5,1.941,1.941,0,0,1-1.371-.5A1.682,1.682,0,0,1,4.875-1.664Z" transform="translate(-632.655 1136.166)" fill="#00213e"/>
    <path id="Path_179860" data-name="Path 179860" d="M-.984,0H-4.371V-13.055L-8.414-11.8v-2.754l7.066-2.531h.363ZM4.875-1.664A1.7,1.7,0,0,1,5.42-2.977a1.934,1.934,0,0,1,1.365-.5,1.949,1.949,0,0,1,1.377.5,1.7,1.7,0,0,1,.545,1.313A1.682,1.682,0,0,1,8.168-.369a1.958,1.958,0,0,1-1.383.5,1.941,1.941,0,0,1-1.371-.5A1.682,1.682,0,0,1,4.875-1.664Z" transform="translate(-578.648 1201.165)" fill="#00213e"/>
    <path id="Path_179854" data-name="Path 179854" d="M-96.053-7.126a9.013,9.013,0,0,1-.779,3.866A5.869,5.869,0,0,1-99.063-.7a6.169,6.169,0,0,1-3.327.9A6.211,6.211,0,0,1-105.7-.687a5.926,5.926,0,0,1-2.256-2.548,8.755,8.755,0,0,1-.81-3.809v-.738a8.965,8.965,0,0,1,.795-3.881,5.917,5.917,0,0,1,2.246-2.574,6.177,6.177,0,0,1,3.317-.9,6.177,6.177,0,0,1,3.317.9,5.917,5.917,0,0,1,2.246,2.574,8.94,8.94,0,0,1,.795,3.871ZM-99.171-7.8a6.283,6.283,0,0,0-.841-3.568,2.74,2.74,0,0,0-2.4-1.22,2.741,2.741,0,0,0-2.389,1.2,6.211,6.211,0,0,0-.851,3.532v.728a6.361,6.361,0,0,0,.841,3.548,2.733,2.733,0,0,0,2.42,1.261,2.708,2.708,0,0,0,2.379-1.215,6.324,6.324,0,0,0,.841-3.543Zm11.392-.513A8.051,8.051,0,0,0-88.845-8.4a2.171,2.171,0,0,0-2.2,1.138V0h-2.963V-11.095h2.8l.082,1.323A2.746,2.746,0,0,1-88.66-11.3a3.105,3.105,0,0,1,.923.133Zm.8,2.687a6.5,6.5,0,0,1,1.215-4.112A3.937,3.937,0,0,1-82.488-11.3a3.453,3.453,0,0,1,2.84,1.251l.123-1.046h2.687V-.369A4.742,4.742,0,0,1-77.5,2.164,4.248,4.248,0,0,1-79.36,3.8a6.543,6.543,0,0,1-2.81.564,6.084,6.084,0,0,1-2.379-.487A4.222,4.222,0,0,1-86.3,2.625L-84.99.82A3.471,3.471,0,0,0-82.3,2.061a2.541,2.541,0,0,0,1.835-.631,2.365,2.365,0,0,0,.656-1.789V-.954a3.428,3.428,0,0,1-2.7,1.159,3.927,3.927,0,0,1-3.235-1.564,6.5,6.5,0,0,1-1.236-4.148Zm2.963.221a4.049,4.049,0,0,0,.6,2.367,1.925,1.925,0,0,0,1.661.857A2.058,2.058,0,0,0-79.811-3.2V-7.873A2.053,2.053,0,0,0-81.729-8.89a1.937,1.937,0,0,0-1.677.873A4.563,4.563,0,0,0-84.015-5.409ZM-68.132,0a3.291,3.291,0,0,1-.3-.995,3.586,3.586,0,0,1-2.8,1.2,3.939,3.939,0,0,1-2.7-.943A3.034,3.034,0,0,1-75-3.117a3.135,3.135,0,0,1,1.307-2.707,6.451,6.451,0,0,1,3.779-.954h1.364v-.636a1.828,1.828,0,0,0-.395-1.23,1.553,1.553,0,0,0-1.246-.461,1.766,1.766,0,0,0-1.174.359,1.219,1.219,0,0,0-.426.984h-2.963a2.977,2.977,0,0,1,.595-1.784,3.931,3.931,0,0,1,1.682-1.287,6.129,6.129,0,0,1,2.44-.467,4.842,4.842,0,0,1,3.256,1.031,3.605,3.605,0,0,1,1.2,2.9v4.809a5.3,5.3,0,0,0,.441,2.389V0Zm-2.451-2.061a2.552,2.552,0,0,0,1.21-.292,1.919,1.919,0,0,0,.82-.784V-5.045H-69.66q-2.225,0-2.369,1.538l-.01.174a1.186,1.186,0,0,0,.39.913A1.514,1.514,0,0,0-70.583-2.061Zm10.008-9.034.092,1.282A3.874,3.874,0,0,1-57.294-11.3a3.219,3.219,0,0,1,2.625,1.036,4.832,4.832,0,0,1,.882,3.1V0H-56.75V-7.1a1.923,1.923,0,0,0-.41-1.369,1.836,1.836,0,0,0-1.364-.426A2.039,2.039,0,0,0-60.4-7.824V0h-2.963V-11.095ZM-48.414,0h-2.974V-11.095h2.974Zm-3.148-13.966a1.459,1.459,0,0,1,.446-1.1,1.676,1.676,0,0,1,1.215-.431,1.679,1.679,0,0,1,1.21.431,1.451,1.451,0,0,1,.451,1.1,1.455,1.455,0,0,1-.456,1.107,1.684,1.684,0,0,1-1.2.431,1.684,1.684,0,0,1-1.2-.431A1.455,1.455,0,0,1-51.562-13.966Zm8.993,11.577h5.424V0h-9.208V-1.8l5.219-6.9H-46.2v-2.389h8.89v1.746ZM-28.86,0a3.291,3.291,0,0,1-.3-.995,3.586,3.586,0,0,1-2.8,1.2,3.939,3.939,0,0,1-2.7-.943A3.034,3.034,0,0,1-35.73-3.117a3.135,3.135,0,0,1,1.307-2.707,6.451,6.451,0,0,1,3.779-.954h1.364v-.636a1.828,1.828,0,0,0-.395-1.23,1.553,1.553,0,0,0-1.246-.461,1.766,1.766,0,0,0-1.174.359,1.219,1.219,0,0,0-.426.984h-2.963a2.977,2.977,0,0,1,.595-1.784,3.931,3.931,0,0,1,1.682-1.287,6.129,6.129,0,0,1,2.44-.467,4.842,4.842,0,0,1,3.256,1.031,3.605,3.605,0,0,1,1.2,2.9v4.809a5.3,5.3,0,0,0,.441,2.389V0ZM-31.31-2.061a2.552,2.552,0,0,0,1.21-.292,1.919,1.919,0,0,0,.82-.784V-5.045h-1.107q-2.225,0-2.369,1.538l-.01.174a1.186,1.186,0,0,0,.39.913A1.514,1.514,0,0,0-31.31-2.061Zm11.895-.123a1.944,1.944,0,0,0,1.333-.451,1.581,1.581,0,0,0,.533-1.2h2.779a3.8,3.8,0,0,1-.615,2.066A4.06,4.06,0,0,1-17.042-.313a5.183,5.183,0,0,1-2.323.518,4.817,4.817,0,0,1-3.753-1.512,5.985,5.985,0,0,1-1.374-4.178v-.195a5.917,5.917,0,0,1,1.364-4.091A4.761,4.761,0,0,1-19.385-11.3a4.667,4.667,0,0,1,3.338,1.184,4.193,4.193,0,0,1,1.277,3.153H-17.55a2.036,2.036,0,0,0-.533-1.407,1.778,1.778,0,0,0-1.354-.541A1.785,1.785,0,0,0-21-8.156a4.374,4.374,0,0,0-.528,2.449V-5.4a4.43,4.43,0,0,0,.523,2.465A1.807,1.807,0,0,0-19.416-2.184ZM-9.951,0h-2.974V-11.095h2.974ZM-13.1-13.966a1.459,1.459,0,0,1,.446-1.1,1.676,1.676,0,0,1,1.215-.431,1.679,1.679,0,0,1,1.21.431,1.451,1.451,0,0,1,.451,1.1,1.455,1.455,0,0,1-.456,1.107,1.684,1.684,0,0,1-1.2.431,1.684,1.684,0,0,1-1.2-.431A1.455,1.455,0,0,1-13.1-13.966ZM-7.972-5.65a6.58,6.58,0,0,1,.636-2.943,4.654,4.654,0,0,1,1.83-2A5.34,5.34,0,0,1-2.733-11.3,5.052,5.052,0,0,1,.933-9.926,5.515,5.515,0,0,1,2.517-6.193l.021.759a5.8,5.8,0,0,1-1.425,4.1A4.954,4.954,0,0,1-2.712.205a4.979,4.979,0,0,1-3.83-1.538,5.9,5.9,0,0,1-1.43-4.184Zm2.963.21a4.147,4.147,0,0,0,.595,2.418,1.962,1.962,0,0,0,1.7.837,1.966,1.966,0,0,0,1.682-.827,4.538,4.538,0,0,0,.6-2.644,4.106,4.106,0,0,0-.6-2.4,1.967,1.967,0,0,0-1.7-.852,1.934,1.934,0,0,0-1.682.847A4.614,4.614,0,0,0-5.009-5.44Zm2.861-10.31h3.23l-2.84,3.179h-2.41Zm9.239,4.655.092,1.282A3.874,3.874,0,0,1,10.372-11.3,3.219,3.219,0,0,1,13-10.264a4.832,4.832,0,0,1,.882,3.1V0H10.915V-7.1a1.923,1.923,0,0,0-.41-1.369A1.836,1.836,0,0,0,9.141-8.89,2.039,2.039,0,0,0,7.265-7.824V0H4.3V-11.095Zm13.8,5.465a6.686,6.686,0,0,1,1.164-4.132A3.776,3.776,0,0,1,25.24-11.3a3.4,3.4,0,0,1,2.676,1.21v-5.66H30.89V0H28.214L28.07-1.179A3.487,3.487,0,0,1,25.219.205a3.766,3.766,0,0,1-3.143-1.543A6.9,6.9,0,0,1,20.892-5.629Zm2.963.221A4.38,4.38,0,0,0,24.4-3.016a1.77,1.77,0,0,0,1.579.832,1.983,1.983,0,0,0,1.938-1.16V-7.73A1.954,1.954,0,0,0,26-8.89Q23.856-8.89,23.856-5.409ZM38.293.205a5.447,5.447,0,0,1-3.973-1.5,5.321,5.321,0,0,1-1.533-3.989v-.287a6.7,6.7,0,0,1,.646-2.989,4.741,4.741,0,0,1,1.83-2.03,5.137,5.137,0,0,1,2.7-.713,4.6,4.6,0,0,1,3.584,1.436,5.833,5.833,0,0,1,1.307,4.071v1.21H35.791a2.753,2.753,0,0,0,.866,1.743,2.619,2.619,0,0,0,1.83.656,3.2,3.2,0,0,0,2.676-1.241l1.456,1.63a4.449,4.449,0,0,1-1.8,1.471A5.921,5.921,0,0,1,38.293.205Zm-.338-9.116a1.852,1.852,0,0,0-1.43.6,3.093,3.093,0,0,0-.7,1.71h4.122V-6.84a2.206,2.206,0,0,0-.533-1.529A1.91,1.91,0,0,0,37.955-8.911Zm16.57,3.466a6.654,6.654,0,0,1-1.164,4.107A3.731,3.731,0,0,1,50.219.205,3.456,3.456,0,0,1,47.5-.964V4.266H44.538v-15.36h2.748l.1,1.087A3.483,3.483,0,0,1,50.2-11.3a3.757,3.757,0,0,1,3.189,1.518A6.834,6.834,0,0,1,54.525-5.6ZM51.562-5.66a4.366,4.366,0,0,0-.549-2.389,1.787,1.787,0,0,0-1.594-.841A1.941,1.941,0,0,0,47.5-7.824v4.542a1.973,1.973,0,0,0,1.938,1.1Q51.562-2.184,51.562-5.66Zm4.337.01a6.58,6.58,0,0,1,.636-2.943,4.654,4.654,0,0,1,1.83-2,5.34,5.34,0,0,1,2.774-.708A5.052,5.052,0,0,1,64.8-9.926a5.514,5.514,0,0,1,1.584,3.732l.021.759a5.8,5.8,0,0,1-1.425,4.1A4.954,4.954,0,0,1,61.159.205a4.979,4.979,0,0,1-3.83-1.538A5.9,5.9,0,0,1,55.9-5.517Zm2.963.21a4.147,4.147,0,0,0,.595,2.418,1.962,1.962,0,0,0,1.7.837,1.966,1.966,0,0,0,1.682-.827,4.538,4.538,0,0,0,.6-2.644,4.106,4.106,0,0,0-.6-2.4,1.967,1.967,0,0,0-1.7-.852,1.934,1.934,0,0,0-1.682.847A4.614,4.614,0,0,0,58.863-5.44ZM74.469-8.316A8.051,8.051,0,0,0,73.4-8.4,2.171,2.171,0,0,0,71.2-7.26V0H68.235V-11.095h2.8l.082,1.323A2.746,2.746,0,0,1,73.587-11.3a3.105,3.105,0,0,1,.923.133Zm5.486-5.506v2.728h1.9v2.174h-1.9v5.537a1.322,1.322,0,0,0,.236.882,1.184,1.184,0,0,0,.9.267,4.726,4.726,0,0,0,.872-.072V-.062A6.1,6.1,0,0,1,80.17.205q-3.117,0-3.179-3.148V-8.921h-1.62v-2.174h1.62v-2.728ZM86.63,0H83.656V-11.095H86.63ZM83.482-13.966a1.459,1.459,0,0,1,.446-1.1,1.676,1.676,0,0,1,1.215-.431,1.679,1.679,0,0,1,1.21.431,1.451,1.451,0,0,1,.451,1.1,1.455,1.455,0,0,1-.456,1.107,1.684,1.684,0,0,1-1.2.431,1.684,1.684,0,0,1-1.2-.431A1.455,1.455,0,0,1,83.482-13.966ZM93.223-3.62l2.061-7.475h3.1L94.638,0h-2.83L88.066-11.095h3.1ZM105.959,0a3.291,3.291,0,0,1-.3-.995,3.586,3.586,0,0,1-2.8,1.2,3.939,3.939,0,0,1-2.7-.943,3.034,3.034,0,0,1-1.072-2.379A3.135,3.135,0,0,1,100.4-5.824a6.451,6.451,0,0,1,3.779-.954h1.364v-.636a1.828,1.828,0,0,0-.395-1.23,1.553,1.553,0,0,0-1.246-.461,1.766,1.766,0,0,0-1.174.359,1.219,1.219,0,0,0-.426.984H99.335a2.977,2.977,0,0,1,.595-1.784,3.931,3.931,0,0,1,1.682-1.287,6.129,6.129,0,0,1,2.44-.467,4.842,4.842,0,0,1,3.256,1.031,3.605,3.605,0,0,1,1.2,2.9v4.809a5.3,5.3,0,0,0,.441,2.389V0Zm-2.451-2.061a2.552,2.552,0,0,0,1.21-.292,1.919,1.919,0,0,0,.82-.784V-5.045h-1.107q-2.225,0-2.369,1.538l-.01.174a1.186,1.186,0,0,0,.39.913A1.514,1.514,0,0,0,103.508-2.061Z" transform="translate(-527.677 1001.112)" fill="#fff"/>
    <path id="Path_179853" data-name="Path 179853" d="M-104.882-5.26V0h-3.076V-14.93h5.824a6.738,6.738,0,0,1,2.958.615,4.534,4.534,0,0,1,1.964,1.748,4.875,4.875,0,0,1,.687,2.579,4.287,4.287,0,0,1-1.5,3.461,6.257,6.257,0,0,1-4.158,1.266Zm0-2.492h2.748a2.7,2.7,0,0,0,1.861-.574,2.088,2.088,0,0,0,.641-1.641,2.463,2.463,0,0,0-.646-1.774,2.413,2.413,0,0,0-1.784-.7h-2.82Zm16.509-.564A8.051,8.051,0,0,0-89.44-8.4a2.171,2.171,0,0,0-2.2,1.138V0h-2.963V-11.095h2.8l.082,1.323A2.746,2.746,0,0,1-89.255-11.3a3.105,3.105,0,0,1,.923.133Zm.595,2.666a6.58,6.58,0,0,1,.636-2.943,4.654,4.654,0,0,1,1.83-2,5.34,5.34,0,0,1,2.774-.708,5.052,5.052,0,0,1,3.666,1.374,5.514,5.514,0,0,1,1.584,3.732l.021.759a5.8,5.8,0,0,1-1.425,4.1A4.954,4.954,0,0,1-82.518.205a4.979,4.979,0,0,1-3.83-1.538,5.9,5.9,0,0,1-1.43-4.184Zm2.963.21a4.147,4.147,0,0,0,.595,2.418,1.962,1.962,0,0,0,1.7.837,1.966,1.966,0,0,0,1.682-.827,4.538,4.538,0,0,0,.6-2.644,4.106,4.106,0,0,0-.6-2.4,1.967,1.967,0,0,0-1.7-.852,1.934,1.934,0,0,0-1.682.847A4.614,4.614,0,0,0-84.815-5.44Zm13.986,3.255A1.944,1.944,0,0,0-69.5-2.635a1.581,1.581,0,0,0,.533-1.2h2.779A3.8,3.8,0,0,1-66.8-1.769,4.06,4.06,0,0,1-68.455-.313a5.183,5.183,0,0,1-2.323.518,4.817,4.817,0,0,1-3.753-1.512A5.985,5.985,0,0,1-75.9-5.486v-.195a5.917,5.917,0,0,1,1.364-4.091A4.761,4.761,0,0,1-70.8-11.3a4.667,4.667,0,0,1,3.338,1.184,4.193,4.193,0,0,1,1.277,3.153h-2.779A2.036,2.036,0,0,0-69.5-8.369a1.778,1.778,0,0,0-1.354-.541,1.785,1.785,0,0,0-1.564.755,4.374,4.374,0,0,0-.528,2.449V-5.4a4.43,4.43,0,0,0,.523,2.465A1.807,1.807,0,0,0-70.829-2.184ZM-59.385.205a5.447,5.447,0,0,1-3.973-1.5,5.321,5.321,0,0,1-1.533-3.989v-.287a6.7,6.7,0,0,1,.646-2.989,4.741,4.741,0,0,1,1.83-2.03,5.137,5.137,0,0,1,2.7-.713A4.6,4.6,0,0,1-56.13-9.864a5.833,5.833,0,0,1,1.307,4.071v1.21h-7.065a2.753,2.753,0,0,0,.866,1.743,2.619,2.619,0,0,0,1.83.656,3.2,3.2,0,0,0,2.676-1.241l1.456,1.63a4.449,4.449,0,0,1-1.8,1.471A5.921,5.921,0,0,1-59.385.205Zm-.338-9.116a1.852,1.852,0,0,0-1.43.6,3.093,3.093,0,0,0-.7,1.71h4.122V-6.84a2.206,2.206,0,0,0-.533-1.529A1.91,1.91,0,0,0-59.724-8.911Zm12.592,5.845a.955.955,0,0,0-.538-.856A6.115,6.115,0,0,0-49.4-4.481q-3.958-.831-3.958-3.363a3.049,3.049,0,0,1,1.225-2.466,4.943,4.943,0,0,1,3.2-.99,5.32,5.32,0,0,1,3.379.995,3.135,3.135,0,0,1,1.266,2.584h-2.963a1.434,1.434,0,0,0-.41-1.051,1.736,1.736,0,0,0-1.282-.415,1.774,1.774,0,0,0-1.159.338,1.068,1.068,0,0,0-.41.861.913.913,0,0,0,.467.795,4.8,4.8,0,0,0,1.574.523,12.856,12.856,0,0,1,1.866.5,3.066,3.066,0,0,1,2.348,2.984,2.894,2.894,0,0,1-1.3,2.456,5.618,5.618,0,0,1-3.363.938,5.867,5.867,0,0,1-2.476-.5,4.155,4.155,0,0,1-1.7-1.364A3.169,3.169,0,0,1-53.7-3.527h2.81a1.547,1.547,0,0,0,.584,1.21,2.318,2.318,0,0,0,1.456.42,2.146,2.146,0,0,0,1.287-.323A1,1,0,0,0-47.132-3.066ZM-42.8-5.65a6.58,6.58,0,0,1,.636-2.943,4.654,4.654,0,0,1,1.83-2,5.34,5.34,0,0,1,2.774-.708A5.052,5.052,0,0,1-33.9-9.926a5.514,5.514,0,0,1,1.584,3.732l.021.759a5.8,5.8,0,0,1-1.425,4.1A4.954,4.954,0,0,1-37.545.205a4.979,4.979,0,0,1-3.83-1.538A5.9,5.9,0,0,1-42.8-5.517Zm2.963.21a4.147,4.147,0,0,0,.595,2.418,1.962,1.962,0,0,0,1.7.837,1.966,1.966,0,0,0,1.682-.827,4.538,4.538,0,0,0,.6-2.644,4.106,4.106,0,0,0-.6-2.4,1.967,1.967,0,0,0-1.7-.852,1.934,1.934,0,0,0-1.682.847A4.614,4.614,0,0,0-39.842-5.44ZM-18.811,0a3.291,3.291,0,0,1-.3-.995,3.586,3.586,0,0,1-2.8,1.2,3.939,3.939,0,0,1-2.7-.943,3.034,3.034,0,0,1-1.072-2.379,3.135,3.135,0,0,1,1.307-2.707,6.451,6.451,0,0,1,3.779-.954h1.364v-.636a1.828,1.828,0,0,0-.395-1.23,1.553,1.553,0,0,0-1.246-.461,1.766,1.766,0,0,0-1.174.359,1.219,1.219,0,0,0-.426.984h-2.963a2.977,2.977,0,0,1,.595-1.784,3.931,3.931,0,0,1,1.682-1.287,6.129,6.129,0,0,1,2.44-.467,4.842,4.842,0,0,1,3.256,1.031,3.605,3.605,0,0,1,1.2,2.9v4.809a5.3,5.3,0,0,0,.441,2.389V0Zm-2.451-2.061a2.552,2.552,0,0,0,1.21-.292,1.919,1.919,0,0,0,.82-.784V-5.045h-1.107q-2.225,0-2.369,1.538l-.01.174a1.186,1.186,0,0,0,.39.913A1.514,1.514,0,0,0-21.261-2.061Zm6.819-3.568a6.686,6.686,0,0,1,1.164-4.132A3.776,3.776,0,0,1-10.095-11.3a3.4,3.4,0,0,1,2.676,1.21v-5.66h2.974V0H-7.121l-.144-1.179A3.487,3.487,0,0,1-10.115.205a3.766,3.766,0,0,1-3.143-1.543A6.9,6.9,0,0,1-14.443-5.629Zm2.963.221a4.38,4.38,0,0,0,.543,2.393,1.77,1.77,0,0,0,1.579.832,1.983,1.983,0,0,0,1.938-1.16V-7.73A1.954,1.954,0,0,0-9.336-8.89Q-11.479-8.89-11.479-5.409ZM.631-11.095.723-9.854A3.9,3.9,0,0,1,3.912-11.3,2.959,2.959,0,0,1,6.855-9.608,3.809,3.809,0,0,1,10.187-11.3a3.309,3.309,0,0,1,2.687,1.051,4.831,4.831,0,0,1,.882,3.163V0H10.782V-7.075a2.113,2.113,0,0,0-.369-1.379,1.636,1.636,0,0,0-1.3-.436A1.85,1.85,0,0,0,7.265-7.619L7.275,0H4.312V-7.065a2.087,2.087,0,0,0-.379-1.395A1.652,1.652,0,0,0,2.64-8.89,1.92,1.92,0,0,0,.815-7.844V0H-2.148V-11.095ZM19.159,0H16.186V-11.095h2.974ZM16.011-13.966a1.459,1.459,0,0,1,.446-1.1,1.676,1.676,0,0,1,1.215-.431,1.679,1.679,0,0,1,1.21.431,1.451,1.451,0,0,1,.451,1.1,1.455,1.455,0,0,1-.456,1.107,1.684,1.684,0,0,1-1.2.431,1.684,1.684,0,0,1-1.2-.431A1.455,1.455,0,0,1,16.011-13.966Zm8.316,2.871.092,1.282A3.874,3.874,0,0,1,27.609-11.3a3.219,3.219,0,0,1,2.625,1.036,4.832,4.832,0,0,1,.882,3.1V0H28.152V-7.1a1.923,1.923,0,0,0-.41-1.369,1.836,1.836,0,0,0-1.364-.426A2.039,2.039,0,0,0,24.5-7.824V0H21.538V-11.095ZM36.489,0H33.515V-11.095h2.974ZM33.341-13.966a1.459,1.459,0,0,1,.446-1.1A1.676,1.676,0,0,1,35-15.494a1.679,1.679,0,0,1,1.21.431,1.451,1.451,0,0,1,.451,1.1,1.455,1.455,0,0,1-.456,1.107,1.684,1.684,0,0,1-1.2.431,1.684,1.684,0,0,1-1.2-.431A1.455,1.455,0,0,1,33.341-13.966Zm11.6,10.9a.955.955,0,0,0-.538-.856,6.115,6.115,0,0,0-1.728-.559q-3.958-.831-3.958-3.363a3.049,3.049,0,0,1,1.225-2.466,4.943,4.943,0,0,1,3.2-.99,5.32,5.32,0,0,1,3.379.995,3.135,3.135,0,0,1,1.266,2.584H44.825a1.434,1.434,0,0,0-.41-1.051,1.736,1.736,0,0,0-1.282-.415,1.774,1.774,0,0,0-1.159.338,1.068,1.068,0,0,0-.41.861.913.913,0,0,0,.467.795A4.8,4.8,0,0,0,43.6-6.67a12.856,12.856,0,0,1,1.866.5,3.066,3.066,0,0,1,2.348,2.984,2.894,2.894,0,0,1-1.3,2.456,5.618,5.618,0,0,1-3.363.938,5.867,5.867,0,0,1-2.476-.5,4.155,4.155,0,0,1-1.7-1.364,3.169,3.169,0,0,1-.615-1.871h2.81a1.547,1.547,0,0,0,.584,1.21,2.318,2.318,0,0,0,1.456.42A2.146,2.146,0,0,0,44.5-2.22,1,1,0,0,0,44.938-3.066Zm8.336-10.756v2.728h1.9v2.174h-1.9v5.537a1.322,1.322,0,0,0,.236.882,1.184,1.184,0,0,0,.9.267,4.726,4.726,0,0,0,.872-.072V-.062A6.1,6.1,0,0,1,53.49.205q-3.117,0-3.179-3.148V-8.921h-1.62v-2.174h1.62v-2.728Zm9.782,5.506A8.051,8.051,0,0,0,61.99-8.4a2.171,2.171,0,0,0-2.2,1.138V0H56.822V-11.095h2.8L59.7-9.772A2.746,2.746,0,0,1,62.175-11.3a3.105,3.105,0,0,1,.923.133ZM70.6,0a3.291,3.291,0,0,1-.3-.995,3.586,3.586,0,0,1-2.8,1.2,3.939,3.939,0,0,1-2.7-.943,3.034,3.034,0,0,1-1.072-2.379,3.135,3.135,0,0,1,1.307-2.707,6.451,6.451,0,0,1,3.779-.954h1.364v-.636a1.828,1.828,0,0,0-.395-1.23,1.553,1.553,0,0,0-1.246-.461,1.766,1.766,0,0,0-1.174.359,1.219,1.219,0,0,0-.426.984H63.979a2.977,2.977,0,0,1,.595-1.784,3.931,3.931,0,0,1,1.682-1.287A6.129,6.129,0,0,1,68.7-11.3a4.842,4.842,0,0,1,3.256,1.031,3.605,3.605,0,0,1,1.2,2.9v4.809A5.3,5.3,0,0,0,73.6-.174V0ZM68.153-2.061a2.552,2.552,0,0,0,1.21-.292,1.919,1.919,0,0,0,.82-.784V-5.045H69.075q-2.225,0-2.369,1.538l-.01.174a1.186,1.186,0,0,0,.39.913A1.514,1.514,0,0,0,68.153-2.061ZM78.981-13.822v2.728h1.9v2.174h-1.9v5.537a1.322,1.322,0,0,0,.236.882,1.184,1.184,0,0,0,.9.267,4.726,4.726,0,0,0,.872-.072V-.062A6.1,6.1,0,0,1,79.2.205q-3.117,0-3.179-3.148V-8.921H74.4v-2.174h1.62v-2.728ZM85.656,0H82.682V-11.095h2.974ZM82.508-13.966a1.459,1.459,0,0,1,.446-1.1,1.676,1.676,0,0,1,1.215-.431,1.679,1.679,0,0,1,1.21.431,1.451,1.451,0,0,1,.451,1.1,1.455,1.455,0,0,1-.456,1.107,1.684,1.684,0,0,1-1.2.431,1.684,1.684,0,0,1-1.2-.431A1.455,1.455,0,0,1,82.508-13.966ZM92.249-3.62l2.061-7.475h3.1L93.664,0h-2.83L87.092-11.095h3.1Zm5.845-2.03a6.58,6.58,0,0,1,.636-2.943,4.654,4.654,0,0,1,1.83-2,5.34,5.34,0,0,1,2.774-.708A5.052,5.052,0,0,1,107-9.926a5.514,5.514,0,0,1,1.584,3.732l.021.759a5.8,5.8,0,0,1-1.425,4.1A4.954,4.954,0,0,1,103.354.205a4.979,4.979,0,0,1-3.83-1.538,5.9,5.9,0,0,1-1.43-4.184Zm2.963.21a4.147,4.147,0,0,0,.595,2.418,1.962,1.962,0,0,0,1.7.837,1.966,1.966,0,0,0,1.682-.827,4.538,4.538,0,0,0,.6-2.644,4.106,4.106,0,0,0-.6-2.4,1.967,1.967,0,0,0-1.7-.852,1.934,1.934,0,0,0-1.682.847A4.614,4.614,0,0,0,101.057-5.44Z" transform="translate(-473.45 1066.139)" fill="#fff"/>
    <path id="Path_179855" data-name="Path 179855" d="M-62.087-3.076h-5.394L-68.506,0h-3.271l5.558-14.93h2.851L-57.781,0h-3.271ZM-66.65-5.568h3.732l-1.876-5.588Zm9.608-.062a6.686,6.686,0,0,1,1.164-4.132A3.776,3.776,0,0,1-52.695-11.3a3.4,3.4,0,0,1,2.676,1.21v-5.66h2.974V0h-2.676l-.144-1.179A3.487,3.487,0,0,1-52.715.205a3.766,3.766,0,0,1-3.143-1.543A6.9,6.9,0,0,1-57.042-5.629Zm2.963.221a4.38,4.38,0,0,0,.543,2.393,1.77,1.77,0,0,0,1.579.832,1.983,1.983,0,0,0,1.938-1.16V-7.73a1.954,1.954,0,0,0-1.917-1.16Q-54.079-8.89-54.079-5.409Zm12.11-5.686.092,1.241A3.9,3.9,0,0,1-38.688-11.3a2.959,2.959,0,0,1,2.943,1.692A3.809,3.809,0,0,1-32.413-11.3a3.309,3.309,0,0,1,2.687,1.051,4.831,4.831,0,0,1,.882,3.163V0h-2.974V-7.075a2.113,2.113,0,0,0-.369-1.379,1.636,1.636,0,0,0-1.3-.436,1.85,1.85,0,0,0-1.846,1.271L-35.325,0h-2.963V-7.065a2.087,2.087,0,0,0-.379-1.395,1.652,1.652,0,0,0-1.292-.431,1.92,1.92,0,0,0-1.825,1.046V0h-2.963V-11.095ZM-23.44,0h-2.974V-11.095h2.974Zm-3.148-13.966a1.459,1.459,0,0,1,.446-1.1,1.676,1.676,0,0,1,1.215-.431,1.679,1.679,0,0,1,1.21.431,1.451,1.451,0,0,1,.451,1.1,1.455,1.455,0,0,1-.456,1.107,1.684,1.684,0,0,1-1.2.431,1.684,1.684,0,0,1-1.2-.431A1.455,1.455,0,0,1-26.588-13.966Zm8.316,2.871.092,1.282A3.874,3.874,0,0,1-14.991-11.3a3.219,3.219,0,0,1,2.625,1.036,4.832,4.832,0,0,1,.882,3.1V0h-2.963V-7.1a1.923,1.923,0,0,0-.41-1.369,1.836,1.836,0,0,0-1.364-.426A2.039,2.039,0,0,0-18.1-7.824V0h-2.963V-11.095ZM-6.111,0H-9.085V-11.095h2.974ZM-9.259-13.966a1.459,1.459,0,0,1,.446-1.1A1.676,1.676,0,0,1-7.6-15.494a1.679,1.679,0,0,1,1.21.431,1.451,1.451,0,0,1,.451,1.1,1.455,1.455,0,0,1-.456,1.107,1.684,1.684,0,0,1-1.2.431,1.684,1.684,0,0,1-1.2-.431A1.455,1.455,0,0,1-9.259-13.966Zm11.6,10.9A.955.955,0,0,0,1.8-3.922,6.115,6.115,0,0,0,.072-4.481q-3.958-.831-3.958-3.363A3.049,3.049,0,0,1-2.661-10.31a4.943,4.943,0,0,1,3.2-.99,5.32,5.32,0,0,1,3.379.995A3.135,3.135,0,0,1,5.188-7.721H2.225a1.434,1.434,0,0,0-.41-1.051A1.736,1.736,0,0,0,.533-9.187a1.774,1.774,0,0,0-1.159.338,1.068,1.068,0,0,0-.41.861.913.913,0,0,0,.467.795A4.8,4.8,0,0,0,1-6.67a12.856,12.856,0,0,1,1.866.5A3.066,3.066,0,0,1,5.219-3.189a2.894,2.894,0,0,1-1.3,2.456A5.618,5.618,0,0,1,.554.205a5.867,5.867,0,0,1-2.476-.5,4.155,4.155,0,0,1-1.7-1.364,3.169,3.169,0,0,1-.615-1.871h2.81a1.547,1.547,0,0,0,.584,1.21A2.318,2.318,0,0,0,.615-1.9,2.146,2.146,0,0,0,1.9-2.22,1,1,0,0,0,2.338-3.066Zm8.336-10.756v2.728h1.9v2.174h-1.9v5.537a1.322,1.322,0,0,0,.236.882,1.184,1.184,0,0,0,.9.267,4.726,4.726,0,0,0,.872-.072V-.062A6.1,6.1,0,0,1,10.89.205q-3.117,0-3.179-3.148V-8.921H6.091v-2.174h1.62v-2.728Zm9.782,5.506A8.051,8.051,0,0,0,19.39-8.4a2.171,2.171,0,0,0-2.2,1.138V0H14.222V-11.095h2.8L17.1-9.772A2.746,2.746,0,0,1,19.575-11.3a3.105,3.105,0,0,1,.923.133ZM28,0a3.291,3.291,0,0,1-.3-.995,3.586,3.586,0,0,1-2.8,1.2,3.939,3.939,0,0,1-2.7-.943,3.034,3.034,0,0,1-1.072-2.379,3.135,3.135,0,0,1,1.307-2.707,6.451,6.451,0,0,1,3.779-.954h1.364v-.636a1.828,1.828,0,0,0-.395-1.23,1.553,1.553,0,0,0-1.246-.461,1.766,1.766,0,0,0-1.174.359,1.219,1.219,0,0,0-.426.984H21.379a2.977,2.977,0,0,1,.595-1.784,3.931,3.931,0,0,1,1.682-1.287A6.129,6.129,0,0,1,26.1-11.3a4.842,4.842,0,0,1,3.256,1.031,3.605,3.605,0,0,1,1.2,2.9v4.809A5.3,5.3,0,0,0,31-.174V0ZM25.553-2.061a2.552,2.552,0,0,0,1.21-.292,1.919,1.919,0,0,0,.82-.784V-5.045H26.476q-2.225,0-2.369,1.538l-.01.174a1.186,1.186,0,0,0,.39.913A1.514,1.514,0,0,0,25.553-2.061Zm11.895-.123a1.944,1.944,0,0,0,1.333-.451,1.581,1.581,0,0,0,.533-1.2h2.779a3.8,3.8,0,0,1-.615,2.066A4.06,4.06,0,0,1,39.821-.313,5.183,5.183,0,0,1,37.5.205a4.817,4.817,0,0,1-3.753-1.512,5.985,5.985,0,0,1-1.374-4.178v-.195a5.917,5.917,0,0,1,1.364-4.091A4.761,4.761,0,0,1,37.478-11.3a4.667,4.667,0,0,1,3.338,1.184,4.193,4.193,0,0,1,1.277,3.153H39.313a2.036,2.036,0,0,0-.533-1.407,1.778,1.778,0,0,0-1.354-.541,1.785,1.785,0,0,0-1.564.755,4.374,4.374,0,0,0-.528,2.449V-5.4a4.43,4.43,0,0,0,.523,2.465A1.807,1.807,0,0,0,37.447-2.184ZM46.912,0H43.938V-11.095h2.974ZM43.764-13.966a1.459,1.459,0,0,1,.446-1.1,1.676,1.676,0,0,1,1.215-.431,1.679,1.679,0,0,1,1.21.431,1.451,1.451,0,0,1,.451,1.1,1.455,1.455,0,0,1-.456,1.107,1.684,1.684,0,0,1-1.2.431,1.684,1.684,0,0,1-1.2-.431A1.455,1.455,0,0,1,43.764-13.966ZM48.891-5.65a6.58,6.58,0,0,1,.636-2.943,4.654,4.654,0,0,1,1.83-2A5.34,5.34,0,0,1,54.13-11.3,5.052,5.052,0,0,1,57.8-9.926,5.514,5.514,0,0,1,59.38-6.193l.021.759a5.8,5.8,0,0,1-1.425,4.1A4.954,4.954,0,0,1,54.151.205a4.979,4.979,0,0,1-3.83-1.538,5.9,5.9,0,0,1-1.43-4.184Zm2.963.21a4.147,4.147,0,0,0,.595,2.418,1.962,1.962,0,0,0,1.7.837,1.966,1.966,0,0,0,1.682-.827,4.538,4.538,0,0,0,.6-2.644,4.106,4.106,0,0,0-.6-2.4,1.967,1.967,0,0,0-1.7-.852,1.934,1.934,0,0,0-1.682.847A4.614,4.614,0,0,0,51.854-5.44Zm2.861-10.31h3.23L55.1-12.571h-2.41Zm9.239,4.655.092,1.282A3.874,3.874,0,0,1,67.235-11.3a3.219,3.219,0,0,1,2.625,1.036,4.832,4.832,0,0,1,.882,3.1V0H67.778V-7.1a1.923,1.923,0,0,0-.41-1.369A1.836,1.836,0,0,0,66-8.89a2.039,2.039,0,0,0-1.876,1.066V0H61.165V-11.095Z" transform="translate(-456.068 1131.166)" fill="#00213e"/>
    <path id="Path_179856" data-name="Path 179856" d="M-23.23-1.887A5.339,5.339,0,0,1-25.578-.344a9.834,9.834,0,0,1-3.363.549,6.662,6.662,0,0,1-3.4-.846A5.642,5.642,0,0,1-34.6-3.1a8.643,8.643,0,0,1-.815-3.784V-7.9a9.179,9.179,0,0,1,.754-3.871,5.575,5.575,0,0,1,2.174-2.5,6.262,6.262,0,0,1,3.327-.866A6.236,6.236,0,0,1-25-13.868a5.412,5.412,0,0,1,1.774,3.686h-2.994a2.977,2.977,0,0,0-.907-1.876,2.9,2.9,0,0,0-1.933-.595,2.728,2.728,0,0,0-2.389,1.179,6.2,6.2,0,0,0-.831,3.507v.954a5.9,5.9,0,0,0,.892,3.548,3.055,3.055,0,0,0,2.615,1.2A3.412,3.412,0,0,0-26.306-3V-5.578h-2.8V-7.844h5.875Zm7.4,2.092a5.447,5.447,0,0,1-3.973-1.5,5.321,5.321,0,0,1-1.533-3.989v-.287a6.7,6.7,0,0,1,.646-2.989,4.741,4.741,0,0,1,1.83-2.03,5.137,5.137,0,0,1,2.7-.713,4.6,4.6,0,0,1,3.584,1.436,5.833,5.833,0,0,1,1.307,4.071v1.21h-7.065a2.753,2.753,0,0,0,.866,1.743,2.619,2.619,0,0,0,1.83.656,3.2,3.2,0,0,0,2.676-1.241l1.456,1.63A4.449,4.449,0,0,1-13.3-.323,5.921,5.921,0,0,1-15.827.205Zm-.338-9.116a1.852,1.852,0,0,0-1.43.6,3.093,3.093,0,0,0-.7,1.71h4.122V-6.84a2.206,2.206,0,0,0-.533-1.529A1.91,1.91,0,0,0-16.165-8.911ZM-3.573-3.066a.955.955,0,0,0-.538-.856A6.115,6.115,0,0,0-5.84-4.481Q-9.8-5.312-9.8-7.844A3.049,3.049,0,0,1-8.572-10.31a4.943,4.943,0,0,1,3.2-.99,5.32,5.32,0,0,1,3.379.995A3.135,3.135,0,0,1-.723-7.721H-3.686A1.434,1.434,0,0,0-4.1-8.772a1.736,1.736,0,0,0-1.282-.415,1.774,1.774,0,0,0-1.159.338,1.068,1.068,0,0,0-.41.861.913.913,0,0,0,.467.795,4.8,4.8,0,0,0,1.574.523,12.856,12.856,0,0,1,1.866.5A3.066,3.066,0,0,1-.692-3.189a2.894,2.894,0,0,1-1.3,2.456A5.618,5.618,0,0,1-5.358.205a5.867,5.867,0,0,1-2.476-.5,4.155,4.155,0,0,1-1.7-1.364,3.169,3.169,0,0,1-.615-1.871h2.81a1.547,1.547,0,0,0,.584,1.21A2.318,2.318,0,0,0-5.3-1.9,2.146,2.146,0,0,0-4.009-2.22,1,1,0,0,0-3.573-3.066ZM4.763-13.822v2.728h1.9v2.174h-1.9v5.537A1.322,1.322,0,0,0,5-2.5a1.184,1.184,0,0,0,.9.267,4.726,4.726,0,0,0,.872-.072V-.062A6.1,6.1,0,0,1,4.978.205Q1.861.205,1.8-2.943V-8.921H.179v-2.174H1.8v-2.728ZM11.438,0H8.465V-11.095h2.974ZM8.29-13.966a1.459,1.459,0,0,1,.446-1.1,1.676,1.676,0,0,1,1.215-.431,1.679,1.679,0,0,1,1.21.431,1.451,1.451,0,0,1,.451,1.1,1.455,1.455,0,0,1-.456,1.107,1.684,1.684,0,0,1-1.2.431,1.684,1.684,0,0,1-1.2-.431A1.455,1.455,0,0,1,8.29-13.966ZM13.417-5.65a6.58,6.58,0,0,1,.636-2.943,4.654,4.654,0,0,1,1.83-2,5.34,5.34,0,0,1,2.774-.708,5.052,5.052,0,0,1,3.666,1.374,5.514,5.514,0,0,1,1.584,3.732l.021.759a5.8,5.8,0,0,1-1.425,4.1A4.954,4.954,0,0,1,18.677.205a4.979,4.979,0,0,1-3.83-1.538,5.9,5.9,0,0,1-1.43-4.184Zm2.963.21a4.147,4.147,0,0,0,.595,2.418,1.962,1.962,0,0,0,1.7.837,1.966,1.966,0,0,0,1.682-.827,4.538,4.538,0,0,0,.6-2.644,4.106,4.106,0,0,0-.6-2.4,1.967,1.967,0,0,0-1.7-.852,1.934,1.934,0,0,0-1.682.847A4.614,4.614,0,0,0,16.381-5.44Zm2.861-10.31h3.23l-2.84,3.179h-2.41Zm9.239,4.655.092,1.282A3.874,3.874,0,0,1,31.761-11.3a3.219,3.219,0,0,1,2.625,1.036,4.832,4.832,0,0,1,.882,3.1V0H32.3V-7.1a1.923,1.923,0,0,0-.41-1.369,1.836,1.836,0,0,0-1.364-.426,2.039,2.039,0,0,0-1.876,1.066V0H25.691V-11.095Z" transform="translate(-437.623 1196.165)" fill="#00213e"/>
  </g>
</svg>
