<svg xmlns="http://www.w3.org/2000/svg" width="295" height="200" viewBox="0 0 295 200">
  <g id="b2" transform="translate(-495 -1061)">
    <g id="Component_2_2" data-name="Component 2 – 2" transform="translate(495 1061)">
      <g id="Rectangle_36701" data-name="Rectangle 36701" fill="none" stroke="#ffe891" stroke-width="1">
        <rect width="295" height="200" rx="12" stroke="none"/>
        <rect x="0.5" y="0.5" width="294" height="199" rx="11.5" fill="none"/>
      </g>
      <path id="Path_180073" data-name="Path 180073" d="M-101.606-4.333a4.673,4.673,0,0,1-.721,2.36,4.35,4.35,0,0,1-1.85,1.586,6.3,6.3,0,0,1-2.72.563,5.025,5.025,0,0,1-3.973-1.644,6.786,6.786,0,0,1-1.45-4.641v-.633a7.746,7.746,0,0,1,.655-3.292,4.961,4.961,0,0,1,1.885-2.18,5.26,5.26,0,0,1,2.848-.769,5.516,5.516,0,0,1,3.744,1.226,4.844,4.844,0,0,1,1.608,3.379h-3.076a2.292,2.292,0,0,0-.589-1.679,2.422,2.422,0,0,0-1.687-.51,1.843,1.843,0,0,0-1.687.861,5.536,5.536,0,0,0-.562,2.751v.905a6.126,6.126,0,0,0,.514,2.927,1.882,1.882,0,0,0,1.771.879,2.369,2.369,0,0,0,1.626-.5,2.126,2.126,0,0,0,.6-1.591Zm.949-.51a5.613,5.613,0,0,1,.554-2.536,3.96,3.96,0,0,1,1.591-1.709,4.791,4.791,0,0,1,2.435-.6,4.373,4.373,0,0,1,3.366,1.323,5.076,5.076,0,0,1,1.23,3.6v.105a4.925,4.925,0,0,1-1.235,3.529A4.384,4.384,0,0,1-96.06.176a4.434,4.434,0,0,1-3.261-1.217,4.761,4.761,0,0,1-1.327-3.3Zm2.962.185a3.538,3.538,0,0,0,.413,1.934,1.376,1.376,0,0,0,1.222.615q1.582,0,1.617-2.435v-.3q0-2.558-1.635-2.558-1.485,0-1.608,2.206ZM-87.456-9.51l.1,1.116a3.225,3.225,0,0,1,2.716-1.292,2.713,2.713,0,0,1,2.219.888,4.226,4.226,0,0,1,.76,2.672V0h-2.971V-6a1.6,1.6,0,0,0-.29-1.059A1.342,1.342,0,0,0-85.979-7.4a1.413,1.413,0,0,0-1.292.686V0h-2.962V-9.51ZM-76-2.109a1.317,1.317,0,0,0,.967-.338,1.241,1.241,0,0,0,.334-.945h2.777A3.288,3.288,0,0,1-73.046-.826a4.168,4.168,0,0,1-2.887,1,4.22,4.22,0,0,1-3.27-1.3,5.125,5.125,0,0,1-1.2-3.6v-.123A5.792,5.792,0,0,1-79.866-7.4a3.872,3.872,0,0,1,1.534-1.7,4.573,4.573,0,0,1,2.373-.593,4.116,4.116,0,0,1,2.944,1.028,3.647,3.647,0,0,1,1.09,2.786H-74.7A1.626,1.626,0,0,0-75.063-7a1.244,1.244,0,0,0-.967-.4q-1.151,0-1.345,1.468a10.357,10.357,0,0,0-.062,1.283,4.068,4.068,0,0,0,.343,1.986A1.187,1.187,0,0,0-76-2.109ZM-66.072.176a4.889,4.889,0,0,1-3.542-1.305,4.507,4.507,0,0,1-1.354-3.4v-.246a5.84,5.84,0,0,1,.541-2.575,3.955,3.955,0,0,1,1.578-1.727,4.763,4.763,0,0,1,2.461-.611,4.117,4.117,0,0,1,3.164,1.244,4.887,4.887,0,0,1,1.16,3.467v1.151h-5.889a2.135,2.135,0,0,0,.694,1.257,2.066,2.066,0,0,0,1.389.457,2.662,2.662,0,0,0,2.2-.984l1.354,1.6A3.784,3.784,0,0,1-63.888-.277,5.3,5.3,0,0,1-66.072.176ZM-66.406-7.4q-1.3,0-1.547,1.723h2.988v-.229a1.467,1.467,0,0,0-.36-1.1A1.434,1.434,0,0,0-66.406-7.4Zm14.361,2.716a5.735,5.735,0,0,1-1,3.538A3.2,3.2,0,0,1-55.736.176a2.742,2.742,0,0,1-2.153-.958V3.656h-2.962V-9.51h2.769l.088.879a2.742,2.742,0,0,1,2.241-1.055,3.224,3.224,0,0,1,2.733,1.3,5.805,5.805,0,0,1,.976,3.564Zm-2.962-.185q0-2.531-1.477-2.531a1.394,1.394,0,0,0-1.406.756V-2.9a1.439,1.439,0,0,0,1.424.791q1.415,0,1.459-2.443Zm7.717-7V-9.51h1.564v2.057H-47.29V-3.1a1.111,1.111,0,0,0,.193.747,1.037,1.037,0,0,0,.765.211,4.345,4.345,0,0,0,.738-.053V-.079a5.466,5.466,0,0,1-1.67.255,3.1,3.1,0,0,1-2.259-.721,2.954,2.954,0,0,1-.729-2.188v-4.72h-1.213V-9.51h1.213v-2.364ZM-45.2-4.843a5.613,5.613,0,0,1,.554-2.536,3.96,3.96,0,0,1,1.591-1.709,4.791,4.791,0,0,1,2.435-.6,4.373,4.373,0,0,1,3.366,1.323,5.076,5.076,0,0,1,1.23,3.6v.105a4.925,4.925,0,0,1-1.235,3.529A4.384,4.384,0,0,1-40.6.176a4.434,4.434,0,0,1-3.261-1.217,4.761,4.761,0,0,1-1.327-3.3Zm2.962.185a3.538,3.538,0,0,0,.413,1.934,1.376,1.376,0,0,0,1.222.615q1.582,0,1.617-2.435v-.3q0-2.558-1.635-2.558-1.485,0-1.608,2.206Zm11.628-.167a5.809,5.809,0,0,1,.976-3.56,3.211,3.211,0,0,1,2.725-1.3,2.731,2.731,0,0,1,2.145,1V-13.5h2.971V0h-2.663L-24.6-1.02a2.8,2.8,0,0,1-2.32,1.2,3.205,3.205,0,0,1-2.689-1.3A5.993,5.993,0,0,1-30.608-4.825Zm2.962.185q0,2.531,1.477,2.531a1.458,1.458,0,0,0,1.406-.826V-6.557A1.419,1.419,0,0,0-26.152-7.4q-1.371,0-1.485,2.215ZM-15.508.176A4.889,4.889,0,0,1-19.05-1.129a4.507,4.507,0,0,1-1.354-3.4v-.246a5.84,5.84,0,0,1,.541-2.575,3.955,3.955,0,0,1,1.578-1.727,4.763,4.763,0,0,1,2.461-.611,4.117,4.117,0,0,1,3.164,1.244A4.887,4.887,0,0,1-11.5-4.975v1.151h-5.889a2.135,2.135,0,0,0,.694,1.257,2.066,2.066,0,0,0,1.389.457,2.662,2.662,0,0,0,2.2-.984l1.354,1.6A3.784,3.784,0,0,1-13.324-.277,5.3,5.3,0,0,1-15.508.176ZM-15.842-7.4q-1.3,0-1.547,1.723H-14.4v-.229a1.467,1.467,0,0,0-.36-1.1A1.434,1.434,0,0,0-15.842-7.4ZM-1.226.176A4.889,4.889,0,0,1-4.768-1.129a4.507,4.507,0,0,1-1.354-3.4v-.246a5.84,5.84,0,0,1,.541-2.575A3.955,3.955,0,0,1-4-9.075a4.763,4.763,0,0,1,2.461-.611A4.117,4.117,0,0,1,1.622-8.442a4.887,4.887,0,0,1,1.16,3.467v1.151H-3.107a2.135,2.135,0,0,0,.694,1.257,2.066,2.066,0,0,0,1.389.457,2.662,2.662,0,0,0,2.2-.984l1.354,1.6A3.784,3.784,0,0,1,.958-.277,5.3,5.3,0,0,1-1.226.176ZM-1.56-7.4q-1.3,0-1.547,1.723H-.119v-.229a1.467,1.467,0,0,0-.36-1.1A1.434,1.434,0,0,0-1.56-7.4ZM7.159-9.51V.325a3.452,3.452,0,0,1-.967,2.6,3.714,3.714,0,0,1-2.672.914,6.308,6.308,0,0,1-1.4-.149V1.45a5.667,5.667,0,0,0,.835.079A1.084,1.084,0,0,0,4.188.308V-9.51Zm-3.19-2.461a1.334,1.334,0,0,1,.457-1.043,1.718,1.718,0,0,1,1.187-.407,1.718,1.718,0,0,1,1.187.407,1.334,1.334,0,0,1,.457,1.043A1.334,1.334,0,0,1,6.8-10.927a1.718,1.718,0,0,1-1.187.407,1.718,1.718,0,0,1-1.187-.407A1.334,1.334,0,0,1,3.968-11.971ZM13.434.176A4.889,4.889,0,0,1,9.892-1.129a4.507,4.507,0,0,1-1.354-3.4v-.246a5.84,5.84,0,0,1,.541-2.575,3.955,3.955,0,0,1,1.578-1.727,4.763,4.763,0,0,1,2.461-.611,4.117,4.117,0,0,1,3.164,1.244,4.887,4.887,0,0,1,1.16,3.467v1.151H11.553a2.135,2.135,0,0,0,.694,1.257,2.066,2.066,0,0,0,1.389.457,2.662,2.662,0,0,0,2.2-.984l1.354,1.6A3.784,3.784,0,0,1,15.618-.277,5.3,5.3,0,0,1,13.434.176ZM13.1-7.4q-1.3,0-1.547,1.723h2.988v-.229a1.467,1.467,0,0,0-.36-1.1A1.434,1.434,0,0,0,13.1-7.4Zm11.285.571L23.41-6.9a1.752,1.752,0,0,0-1.793.879V0H18.655V-9.51h2.777l.1,1.222a2.294,2.294,0,0,1,2.083-1.4,2.888,2.888,0,0,1,.826.105Zm4.922,4.72a1.317,1.317,0,0,0,.967-.338,1.241,1.241,0,0,0,.334-.945h2.777A3.288,3.288,0,0,1,32.265-.826a4.168,4.168,0,0,1-2.887,1,4.22,4.22,0,0,1-3.27-1.3,5.125,5.125,0,0,1-1.2-3.6v-.123A5.792,5.792,0,0,1,25.444-7.4a3.872,3.872,0,0,1,1.534-1.7,4.573,4.573,0,0,1,2.373-.593A4.116,4.116,0,0,1,32.3-8.657a3.647,3.647,0,0,1,1.09,2.786H30.608A1.626,1.626,0,0,0,30.248-7a1.244,1.244,0,0,0-.967-.4q-1.151,0-1.345,1.468a10.357,10.357,0,0,0-.062,1.283,4.068,4.068,0,0,0,.343,1.986A1.187,1.187,0,0,0,29.307-2.109ZM37.762,0H34.792V-9.51h2.971ZM34.616-11.971a1.334,1.334,0,0,1,.457-1.043,1.718,1.718,0,0,1,1.187-.407,1.718,1.718,0,0,1,1.187.407,1.334,1.334,0,0,1,.457,1.043,1.334,1.334,0,0,1-.457,1.043,1.718,1.718,0,0,1-1.187.407,1.718,1.718,0,0,1-1.187-.407A1.334,1.334,0,0,1,34.616-11.971Zm8.991,9.861a1.317,1.317,0,0,0,.967-.338,1.241,1.241,0,0,0,.334-.945h2.777A3.288,3.288,0,0,1,46.564-.826a4.168,4.168,0,0,1-2.887,1,4.22,4.22,0,0,1-3.27-1.3,5.125,5.125,0,0,1-1.2-3.6v-.123A5.792,5.792,0,0,1,39.744-7.4a3.872,3.872,0,0,1,1.534-1.7,4.573,4.573,0,0,1,2.373-.593A4.116,4.116,0,0,1,46.6-8.657a3.647,3.647,0,0,1,1.09,2.786H44.908A1.626,1.626,0,0,0,44.547-7a1.244,1.244,0,0,0-.967-.4q-1.151,0-1.345,1.468a10.357,10.357,0,0,0-.062,1.283,4.068,4.068,0,0,0,.343,1.986A1.187,1.187,0,0,0,43.607-2.109ZM52.062,0H49.091V-9.51h2.971ZM48.916-11.971a1.334,1.334,0,0,1,.457-1.043,1.718,1.718,0,0,1,1.187-.407,1.718,1.718,0,0,1,1.187.407,1.334,1.334,0,0,1,.457,1.043,1.334,1.334,0,0,1-.457,1.043,1.718,1.718,0,0,1-1.187.407,1.718,1.718,0,0,1-1.187-.407A1.334,1.334,0,0,1,48.916-11.971Zm4.6,7.128a5.613,5.613,0,0,1,.554-2.536,3.96,3.96,0,0,1,1.591-1.709,4.791,4.791,0,0,1,2.435-.6,4.373,4.373,0,0,1,3.366,1.323,5.076,5.076,0,0,1,1.23,3.6v.105a4.925,4.925,0,0,1-1.235,3.529A4.384,4.384,0,0,1,58.109.176a4.434,4.434,0,0,1-3.261-1.217,4.761,4.761,0,0,1-1.327-3.3Zm2.962.185a3.538,3.538,0,0,0,.413,1.934,1.376,1.376,0,0,0,1.222.615q1.582,0,1.617-2.435v-.3q0-2.558-1.635-2.558-1.485,0-1.608,2.206ZM69.13,0V-7.453H67.75V-9.51h1.38v-.756a3.286,3.286,0,0,1,.958-2.522,3.785,3.785,0,0,1,2.689-.9,5.89,5.89,0,0,1,1.389.185l.009,2.18a2.706,2.706,0,0,0-.729-.079q-1.345,0-1.345,1.16v.729h1.854v2.057H72.1V0Zm9.1,0H75.248V-9.51h2.979ZM77.12-13.324h3.129l-2.443,2.76-2.417,0ZM85.109-2.672a.684.684,0,0,0-.4-.606,6.016,6.016,0,0,0-1.5-.475A6.853,6.853,0,0,1,81.382-4.4a3.062,3.062,0,0,1-1.1-.971,2.319,2.319,0,0,1-.378-1.31,2.628,2.628,0,0,1,1.081-2.158,4.453,4.453,0,0,1,2.83-.848,4.934,4.934,0,0,1,3.023.853,2.666,2.666,0,0,1,1.143,2.241H85.012q0-1.143-1.2-1.143a1.194,1.194,0,0,0-.782.259.8.8,0,0,0-.316.646.737.737,0,0,0,.387.642,3.654,3.654,0,0,0,1.235.4,10.671,10.671,0,0,1,1.49.378A2.706,2.706,0,0,1,87.965-2.76,2.491,2.491,0,0,1,86.81-.642a5.068,5.068,0,0,1-2.993.817,5.172,5.172,0,0,1-2.18-.439,3.645,3.645,0,0,1-1.494-1.2,2.707,2.707,0,0,1-.536-1.591h2.769a1.145,1.145,0,0,0,.439.962,1.808,1.808,0,0,0,1.081.3,1.422,1.422,0,0,0,.91-.246A.787.787,0,0,0,85.109-2.672ZM92.474,0H89.5V-9.51h2.971ZM89.328-11.971a1.334,1.334,0,0,1,.457-1.043,1.718,1.718,0,0,1,1.187-.407,1.718,1.718,0,0,1,1.187.407,1.334,1.334,0,0,1,.457,1.043,1.334,1.334,0,0,1-.457,1.043,1.718,1.718,0,0,1-1.187.407,1.718,1.718,0,0,1-1.187-.407A1.334,1.334,0,0,1,89.328-11.971Zm8.991,9.861a1.317,1.317,0,0,0,.967-.338,1.241,1.241,0,0,0,.334-.945H102.4a3.288,3.288,0,0,1-1.121,2.566,4.168,4.168,0,0,1-2.887,1,4.22,4.22,0,0,1-3.27-1.3,5.125,5.125,0,0,1-1.2-3.6v-.123A5.792,5.792,0,0,1,94.456-7.4a3.872,3.872,0,0,1,1.534-1.7,4.573,4.573,0,0,1,2.373-.593,4.116,4.116,0,0,1,2.944,1.028,3.647,3.647,0,0,1,1.09,2.786H99.62A1.626,1.626,0,0,0,99.259-7a1.244,1.244,0,0,0-.967-.4q-1.151,0-1.345,1.468a10.357,10.357,0,0,0-.062,1.283,4.068,4.068,0,0,0,.343,1.986A1.187,1.187,0,0,0,98.319-2.109Zm4.957-2.733a5.613,5.613,0,0,1,.554-2.536,3.96,3.96,0,0,1,1.591-1.709,4.791,4.791,0,0,1,2.435-.6,4.373,4.373,0,0,1,3.366,1.323,5.076,5.076,0,0,1,1.23,3.6v.105a4.925,4.925,0,0,1-1.235,3.529A4.384,4.384,0,0,1,107.873.176a4.434,4.434,0,0,1-3.261-1.217,4.761,4.761,0,0,1-1.327-3.3Zm2.962.185a3.538,3.538,0,0,0,.413,1.934,1.376,1.376,0,0,0,1.222.615q1.582,0,1.617-2.435v-.3q0-2.558-1.635-2.558-1.485,0-1.608,2.206Z" transform="translate(148 185)" fill="#12263f"/>
      <g id="Group_117352" data-name="Group 117352" transform="translate(-406.418 261.946)">
        <g id="Group_117325" data-name="Group 117325" transform="translate(494.418 -253.344)">
          <path id="Path_179624" data-name="Path 179624" d="M591.954-111.192c16.056-9.673,23.961-31.042,18.065-48.836-1.678-5.062-4.346-9.888-4.824-15.2-.533-5.933,1.724-11.707,3.452-17.408s2.908-12.064.371-17.455a14.327,14.327,0,0,0-17.545-6.98c-3.1,1.215-5.825,3.563-9.14,3.868-4.751.437-8.866-3.572-10.765-7.949s-2.3-9.257-3.882-13.757A28.36,28.36,0,0,0,540.5-253.322a28.358,28.358,0,0,0-25.528,20.646c-2.51,9.706.372,20.235-2.368,29.878-2.369,8.336-8.615,14.936-12.7,22.578a47.362,47.362,0,0,0-3.413,35.975,47.361,47.361,0,0,0,23.236,27.675C540.718-105.751,571.726-99.006,591.954-111.192Z" transform="translate(-494.418 253.344)" fill="#fff"/>
          <path id="Path_179625" data-name="Path 179625" d="M597.848-232.647a16.649,16.649,0,0,0,3.469,9.907,10.117,10.117,0,0,0,9.48,3.688,10.122,10.122,0,0,0,6.761-5.639,17.122,17.122,0,0,0,1.347-8.91,18.381,18.381,0,0,0-3.065-9.1,11.487,11.487,0,0,0-8.026-4.932C598.9-248.478,597.519-239.322,597.848-232.647Z" transform="translate(-518.252 252.04)" fill="#fff"/>
        </g>
        <g id="Group_117351" data-name="Group 117351" transform="translate(495.421 -230.096)">
          <ellipse id="Ellipse_5710" data-name="Ellipse 5710" cx="58.992" cy="10.131" rx="58.992" ry="10.131" transform="translate(0 109.555)" fill="#868686"/>
          <g id="Group_117350" data-name="Group 117350" transform="translate(3.025)">
            <g id="Group_117336" data-name="Group 117336" transform="translate(4.941 46.961)">
              <g id="Group_117329" data-name="Group 117329" transform="translate(65.616 25.594)">
                <g id="Group_117326" data-name="Group 117326" transform="translate(28.823 31.677)">
                  <path id="Path_179626" data-name="Path 179626" d="M639.619-69.729a4.263,4.263,0,0,0,1.5-3.739,12.574,12.574,0,0,0-1.189-4.012l-3.726-8.508c-.063-.029-.121-.068-.186-.093l-1.718-.644c-.373-.3-.729-.615-1.073-.946v0a4.856,4.856,0,0,1-4.423,4.522l1.428,1.723a6.55,6.55,0,0,1,1.414,3.06,20.161,20.161,0,0,0,1.487,5.2,8.979,8.979,0,0,0,2.941,3.762c.026.017.055.03.082.046A3.814,3.814,0,0,0,639.619-69.729Z" transform="translate(-628.807 87.671)" fill="#868686"/>
                  <path id="Path_179627" data-name="Path 179627" d="M644.325-72.486a12.586,12.586,0,0,0-1.189-4.012l-3.1-7.338a3.167,3.167,0,0,0-1.627-1.647l3.726,8.508a12.576,12.576,0,0,1,1.189,4.012,4.263,4.263,0,0,1-1.5,3.739,3.814,3.814,0,0,1-3.459.375,4.083,4.083,0,0,0,4.461.1A4.261,4.261,0,0,0,644.325-72.486Z" transform="translate(-631.01 87.167)" fill="#4d4d4d"/>
                </g>
                <g id="Group_117328" data-name="Group 117328">
                  <path id="Path_179628" data-name="Path 179628" d="M624.594-97.158v0c-5.977-5.752-7.853-16.367-15.767-19.324l-3.53-12.353-13.949,5.128,3.539,9a17.55,17.55,0,0,0,5.875,7.672l19.41,14.4A4.856,4.856,0,0,0,624.594-97.158Z" transform="translate(-591.348 128.838)" fill="#7a7a7a"/>
                  <path id="Path_179629" data-name="Path 179629" d="M591.348-123.71l13.949-5.128,1.167,4.086c-3.386,7.763-12.467,7.782-12.467,7.782Z" transform="translate(-591.348 128.838)" fill="#4f4f4f"/>
                  <g id="Group_117327" data-name="Group 117327" transform="translate(14.14 16.751)">
                    <path id="Path_179630" data-name="Path 179630" d="M620.758-104.352a28.986,28.986,0,0,0-1.928-2.717,9.49,9.49,0,0,1-3.7,6.748,9.4,9.4,0,0,1-5.406,1.809l2.19,1.625a9.394,9.394,0,0,0,5.3-1.805A9.466,9.466,0,0,0,620.758-104.352Z" transform="translate(-609.724 107.069)" fill="#fff"/>
                    <path id="Path_179631" data-name="Path 179631" d="M623.319-100.319c-.62-1.095-1.246-2.18-1.9-3.219a9.466,9.466,0,0,1-3.543,5.66,9.394,9.394,0,0,1-5.3,1.805l2.739,2.032a9.347,9.347,0,0,0,4.781-1.777A9.388,9.388,0,0,0,623.319-100.319Z" transform="translate(-610.38 106.255)" fill="#868686"/>
                    <path id="Path_179632" data-name="Path 179632" d="M630.306-90.364c-2.535-2.44-4.334-5.756-6.167-8.99a9.388,9.388,0,0,1-3.229,4.5,9.347,9.347,0,0,1-4.781,1.777l9.755,7.238a4.856,4.856,0,0,0,4.423-4.522Z" transform="translate(-611.201 105.29)" fill="#fff"/>
                  </g>
                </g>
              </g>
              <path id="Path_179633" data-name="Path 179633" d="M536.883-144.558c-6.273,9.777,2.32,18.152,11.093,16.841C557.555-142.39,543.185-148.238,536.883-144.558Z" transform="translate(-512.681 158.303)" fill="#666"/>
              <g id="Group_117333" data-name="Group 117333" transform="translate(0 12.636)">
                <path id="Path_179634" data-name="Path 179634" d="M540.022-130.653l6.243-4.639a17.647,17.647,0,0,0-9.983-10.386l-3.5,2.7a15.132,15.132,0,0,0-5.585,8.99l-6.45,32.076c2.286,1.752,5.3,1.44,7.387.888.091-.391.193-.779.322-1.162C531.862-112.31,539.588-118.464,540.022-130.653Z" transform="translate(-509.458 145.678)" fill="#7a7a7a"/>
                <g id="Group_117330" data-name="Group 117330" transform="translate(0 43.765)">
                  <path id="Path_179635" data-name="Path 179635" d="M513.325-76.48l1.76-.184a7.684,7.684,0,0,0,4.2-1.809h0a4.248,4.248,0,0,1,2.318-1l1.728-.184a1.934,1.934,0,0,0,1.607-1.243c-.054-.4-.122-.769-.2-1.11a13.426,13.426,0,0,1,.009-5.9c-2.09.552-5.1.864-7.387-.888l-.565.927a18.234,18.234,0,0,1-5.325,5.59l-5.4,3.668v.808l.562.074A11.924,11.924,0,0,0,513.325-76.48Z" transform="translate(-506.074 88.801)" fill="#868686"/>
                  <path id="Path_179636" data-name="Path 179636" d="M523.335-77.29l-1.728.184a4.248,4.248,0,0,0-2.318,1h0a7.684,7.684,0,0,1-4.2,1.809l-1.76.184a11.924,11.924,0,0,1-6.689-1.253l-.562-.074v1.713l.562.289a11.924,11.924,0,0,0,6.689,1.253l1.76-.184a7.684,7.684,0,0,0,4.2-1.809h0a4.248,4.248,0,0,1,2.318-1l1.728-.184a1.913,1.913,0,0,0,1.721-1.978c-.022-.419-.062-.817-.114-1.193A1.934,1.934,0,0,1,523.335-77.29Z" transform="translate(-506.074 86.434)" fill="#4d4d4d"/>
                </g>
                <path id="Path_179637" data-name="Path 179637" d="M537.874-143.86c6.843,3.426,8.138,9.488,7.919,11.852l4.42-3.284-.2-9.933-9.781-.453Z" transform="translate(-513.405 145.678)" fill="#4e4e4e"/>
                <g id="Group_117331" data-name="Group 117331" transform="translate(11.294 22.212)">
                  <path id="Path_179638" data-name="Path 179638" d="M530.153-106.6a12.357,12.357,0,0,1-6.225-2.732l-3.176,15.8c2.286,1.752,5.3,1.44,7.387.888.091-.391.193-.779.322-1.162,1.67-4.97,4.381-8.984,6.761-13.224A12.251,12.251,0,0,1,530.153-106.6Z" transform="translate(-520.752 115.086)" fill="#fff"/>
                  <path id="Path_179639" data-name="Path 179639" d="M532-110.433a12.374,12.374,0,0,1-6.5-2.955l-.628,3.123a12.356,12.356,0,0,0,6.225,2.732,12.251,12.251,0,0,0,5.068-.435c.577-1.028,1.133-2.071,1.651-3.142A12.328,12.328,0,0,1,532-110.433Z" transform="translate(-521.704 116.022)" fill="#868686"/>
                  <path id="Path_179640" data-name="Path 179640" d="M533.008-113.585a12.371,12.371,0,0,1-6.782-3.226l-.53,2.634a12.374,12.374,0,0,0,6.5,2.955,12.328,12.328,0,0,0,5.82-.676c.39-.806.757-1.63,1.094-2.478A12.327,12.327,0,0,1,533.008-113.585Z" transform="translate(-521.892 116.811)" fill="#fff"/>
                </g>
                <g id="Group_117332" data-name="Group 117332" transform="translate(29.321 8.91)">
                  <path id="Path_179641" data-name="Path 179641" d="M545.422-127.831h-.006a.152.152,0,0,1-.145-.158c.187-4.72-1.026-5.832-1.04-5.843a.152.152,0,0,1-.016-.212.149.149,0,0,1,.212-.018c.055.045,1.34,1.177,1.147,6.086A.151.151,0,0,1,545.422-127.831Z" transform="translate(-544.179 134.098)" fill="#4e4e4e"/>
                </g>
              </g>
              <g id="Group_117335" data-name="Group 117335" transform="translate(24.202)">
                <path id="Path_179642" data-name="Path 179642" d="M558.528-161.868a123.2,123.2,0,0,0-21,13.513c10.387,1.513,11.6,12.4,11.093,16.841l19.765-15.176,6.857,19.815c10.386,1.21,19.261-7.361,19.261-7.361s-6.137-20.766-8.968-24.9S558.528-161.868,558.528-161.868Z" transform="translate(-537.527 162.1)" fill="#7b7b7b"/>
                <path id="Path_179643" data-name="Path 179643" d="M573.656-142.565l-8.42-1.639,3.857,3.253-.412.122a11.409,11.409,0,0,0-6.88,5.71l-1.41,2.739Z" transform="translate(-542.798 157.974)" fill="#707070"/>
                <g id="Group_117334" data-name="Group 117334" transform="translate(22.286 13.619)">
                  <path id="Path_179644" data-name="Path 179644" d="M581.919-122.644a.151.151,0,0,1-.143-.1l-6.829-19.733-8.335-1.622a.152.152,0,0,1-.119-.178.149.149,0,0,1,.177-.119l8.421,1.639a.149.149,0,0,1,.114.1l6.857,19.815a.151.151,0,0,1-.093.192A.157.157,0,0,1,581.919-122.644Z" transform="translate(-566.49 144.401)" fill="#4e4e4e"/>
                </g>
              </g>
            </g>
            <g id="Group_117338" data-name="Group 117338" transform="translate(10.585 16.624)">
              <path id="Path_179645" data-name="Path 179645" d="M543.943-201.2h0A12.376,12.376,0,0,0,531-196.251l-7.051,10.067-1.362-3.328-9.18,5.6.96,4.815a8.493,8.493,0,0,0,8.329,6.832h0a8.493,8.493,0,0,0,6.359-2.862l10.726-12.112Z" transform="translate(-513.409 201.526)" fill="#8c8c8c"/>
              <path id="Path_179646" data-name="Path 179646" d="M528.653-184.453a12.623,12.623,0,0,1,.229,7.107l-1.774-4.9Z" transform="translate(-516.567 197.59)" fill="#6d6d6d"/>
              <path id="Path_179647" data-name="Path 179647" d="M530.138-171.37a8.5,8.5,0,0,0,2.775-2.064l10.726-12.112,2.57-8.625A45.007,45.007,0,0,0,530.138-171.37Z" transform="translate(-517.266 199.831)" fill="#6d6d6d"/>
              <g id="Group_117337" data-name="Group 117337" transform="translate(9.029 11.863)">
                <path id="Path_179648" data-name="Path 179648" d="M528.429-177.577a.152.152,0,0,1-.142-.1l-3.135-8.229a.15.15,0,0,1,.088-.195.15.15,0,0,1,.195.087l3.136,8.229a.151.151,0,0,1-.088.195A.148.148,0,0,1,528.429-177.577Z" transform="translate(-525.143 186.109)" fill="#422c4f"/>
              </g>
            </g>
            <g id="Group_117341" data-name="Group 117341" transform="translate(35.505 16.118)">
              <path id="Path_179649" data-name="Path 179649" d="M554.613-192.506a5.738,5.738,0,0,0,3.449,4.588,4.977,4.977,0,0,0,5.493-1.3c1.15-1.359,1.4-3.234,1.781-4.972a25.477,25.477,0,0,1,2.268-6.219c-3.59-.614-6.587-.853-6.587-.853l-4.448-.478c-.586,1.731-1.1,3.488-1.532,5.265A11.154,11.154,0,0,0,554.613-192.506Z" transform="translate(-547.817 202.08)" fill="#8c8c8c"/>
              <path id="Path_179650" data-name="Path 179650" d="M587.441-168.381c-1.82-15.515-7.028-25.636-11.3-28.744-2.283-1.66-6.752-2.732-10.556-3.383a25.48,25.48,0,0,0-2.268,6.219c-.386,1.737-.632,3.613-1.781,4.972a4.977,4.977,0,0,1-5.493,1.3,5.738,5.738,0,0,1-3.449-4.588,11.155,11.155,0,0,1,.426-3.964c.431-1.777.946-3.533,1.532-5.265l-3.211-.345c-6.762,5.26-5.854,15.244-4.846,17.16s12.044,11.6,13.081,16.134,13.127,12.2,20.091,8.874a21.653,21.653,0,0,0,6.47-4.388A4.937,4.937,0,0,0,587.441-168.381Z" transform="translate(-545.795 202.184)" fill="#ababab"/>
              <g id="Group_117339" data-name="Group 117339" transform="translate(5.108 15.53)">
                <path id="Path_179651" data-name="Path 179651" d="M570.451-173.832a.147.147,0,0,1-.072-.018,24.91,24.91,0,0,0-6.984-2.118c-.859-.172-1.747-.349-2.609-.554-4.18-1-6.984-2.768-8.336-5.257a.152.152,0,0,1,.061-.2.151.151,0,0,1,.205.061c1.308,2.41,4.047,4.128,8.14,5.106.856.2,1.741.381,2.6.552a25.168,25.168,0,0,1,7.068,2.148.151.151,0,0,1,.062.2A.151.151,0,0,1,570.451-173.832Z" transform="translate(-552.434 182.001)" fill="#4e4e4e"/>
              </g>
              <g id="Group_117340" data-name="Group 117340" transform="translate(11.991 22.532)">
                <path id="Path_179652" data-name="Path 179652" d="M568.715-171.017h-.01a25.648,25.648,0,0,1-7.229-1.593.151.151,0,0,1-.088-.195.153.153,0,0,1,.2-.088,25.316,25.316,0,0,0,7.142,1.573.151.151,0,0,1,.14.162A.151.151,0,0,1,568.715-171.017Z" transform="translate(-561.378 172.901)" fill="#4e4e4e"/>
              </g>
            </g>
            <g id="Group_117344" data-name="Group 117344" transform="translate(24.945 21.176)">
              <path id="Path_179653" data-name="Path 179653" d="M568.311-195.61h0a6.912,6.912,0,0,0-6.834,7.949l2.423,15.95H543.328l-2.168-5.5a9.071,9.071,0,0,0-7.453-1.361,1.072,1.072,0,0,0-.763,1.147l0,.019a1.071,1.071,0,0,0,1.083.955,9.988,9.988,0,0,1,4.221.873,8.216,8.216,0,0,0-5.756,1.359.961.961,0,0,0-.331,1.206l.007.015a.965.965,0,0,0,1.141.522,11.72,11.72,0,0,1,4.874-.24,18.052,18.052,0,0,0-4.811,1.413.915.915,0,0,0-.486,1.178l.007.016a.91.91,0,0,0,.969.564c1.525-.206,3.047-.394,4.574-.607-1.222.384-2.472.825-3.7,1.227a.682.682,0,0,0-.426.9l0,.012a.687.687,0,0,0,.767.426c1.237-.235,2.465-.492,3.705-.719h0a3.9,3.9,0,0,0,3.634,2.493h.4l22.876,6.3a7.264,7.264,0,0,0,5.576-.721h0a7.264,7.264,0,0,0,3.616-6.281v-7.718c4.681-6.656,2.625-13.47-.011-17.751A7.7,7.7,0,0,0,568.311-195.61Z" transform="translate(-532.072 195.61)" fill="#8c8c8c"/>
              <path id="Path_179654" data-name="Path 179654" d="M587.721-171.6v-12.605C590.473-179.073,589.158-173.519,587.721-171.6Z" transform="translate(-544.901 192.981)" fill="#6d6d6d"/>
              <g id="Group_117342" data-name="Group 117342" transform="translate(19.223 23.748)">
                <path id="Path_179655" data-name="Path 179655" d="M575.584-164.444H557.206a.152.152,0,0,1-.152-.152.152.152,0,0,1,.152-.152h18.379a.151.151,0,0,1,.151.152A.151.151,0,0,1,575.584-164.444Z" transform="translate(-557.054 164.747)" fill="#4e4e4e"/>
              </g>
              <g id="Group_117343" data-name="Group 117343" transform="translate(42.669 8.622)">
                <path id="Path_179656" data-name="Path 179656" d="M587.676-163.779a.152.152,0,0,1-.152-.152v-20.323a.152.152,0,0,1,.152-.152.152.152,0,0,1,.152.152v20.323A.152.152,0,0,1,587.676-163.779Z" transform="translate(-587.524 184.405)" fill="#4e4e4e"/>
              </g>
            </g>
            <g id="Group_117346" data-name="Group 117346" transform="translate(0 14.927)">
              <circle id="Ellipse_5711" data-name="Ellipse 5711" cx="10.727" cy="10.727" r="10.727" fill="#858585"/>
              <g id="Group_117345" data-name="Group 117345" transform="translate(0.355 0.055)">
                <path id="Path_179657" data-name="Path 179657" d="M507.242-186.123c-.071-.313-.14-.626-.218-.936a6.353,6.353,0,0,0-1.9-3.478,3.758,3.758,0,0,0-1.17-.629,14.757,14.757,0,0,1,.862-2.092,13.162,13.162,0,0,0,5.849,3.608,22.329,22.329,0,0,0,6.562.873c1.019,0,1.984-.046,2.862-.1l.317-.024c.063-.153.115-.311.171-.468-.173.014-.347.028-.517.039a25.963,25.963,0,0,1-9.261-.75,12.647,12.647,0,0,1-5.752-3.588,16.6,16.6,0,0,1,2.823-3.767c.082-.082.169-.153.252-.232a4.7,4.7,0,0,0,2.5,1.837,5.193,5.193,0,0,0,1.453.2,12.832,12.832,0,0,0,4.374-1.08,12.252,12.252,0,0,1,3.694-.923c-.072-.15-.138-.3-.217-.451a13.284,13.284,0,0,0-3.637.95c-1.743.655-3.719,1.4-5.541.87a4.246,4.246,0,0,1-2.292-1.711,15.218,15.218,0,0,1,8.029-3.9c-.2-.132-.4-.249-.6-.367a15.817,15.817,0,0,0-7.667,3.878,4.1,4.1,0,0,1-.5-1.736,4.332,4.332,0,0,1,1.68-3.552c-.272.028-.538.075-.8.123a4.759,4.759,0,0,0-1.33,3.452,4.56,4.56,0,0,0,.609,2.033c-.105.1-.215.19-.319.293a17.072,17.072,0,0,0-2.812,3.716,9.291,9.291,0,0,1-1.037-1.571,10.683,10.683,0,0,1-1.1-4.623c-.145.158-.292.314-.427.48a10.9,10.9,0,0,0,1.125,4.349,9.748,9.748,0,0,0,1.2,1.8,15.211,15.211,0,0,0-.98,2.328,3.827,3.827,0,0,0-1.787.054,3.813,3.813,0,0,0-1.611.936c.044.171.081.345.133.512a3.388,3.388,0,0,1,1.6-1.011,3.348,3.348,0,0,1,1.532-.055,13.7,13.7,0,0,0-.463,2.233,11.672,11.672,0,0,0,.073,3.291q.275.268.568.516a10.955,10.955,0,0,1-.19-3.754,13.274,13.274,0,0,1,.452-2.171,3.31,3.31,0,0,1,1.02.55,5.936,5.936,0,0,1,1.745,3.234c.076.305.145.615.215.924a12.051,12.051,0,0,0,.89,2.847,5.106,5.106,0,0,0,.391.635c.226.052.456.093.687.131a4.5,4.5,0,0,1-.673-.971A11.642,11.642,0,0,1,507.242-186.123Z" transform="translate(-500.114 203.66)" fill="#797979"/>
              </g>
            </g>
            <g id="Group_117349" data-name="Group 117349" transform="translate(37.592)">
              <path id="Path_179658" data-name="Path 179658" d="M567.147-200.058a5.69,5.69,0,0,1-1.428,3.633,4.467,4.467,0,0,1-3.563,1.461,5.371,5.371,0,0,1-3.905-2.652,9.542,9.542,0,0,1-1.417-3.492A65.947,65.947,0,0,1,567.147-200.058Z" transform="translate(-550.427 218.054)" fill="#4e4e4e"/>
              <g id="Group_117348" data-name="Group 117348">
                <g id="Group_117347" data-name="Group 117347" transform="translate(3.526)">
                  <path id="Path_179659" data-name="Path 179659" d="M555.081-211.181A4.554,4.554,0,0,0,557-214.893v-2.616l6.958.731,5.464-.972a8.448,8.448,0,0,0-7.87-5.381h0a8.459,8.459,0,0,0-8.426,9.205l.229,2.577a10.043,10.043,0,0,0,.873,3.269A6.236,6.236,0,0,0,555.081-211.181Z" transform="translate(-553.09 223.131)" fill="#4e4e4e"/>
                  <path id="Path_179660" data-name="Path 179660" d="M564.3-215.166l-6.958-.731v2.616a4.554,4.554,0,0,1-1.916,3.712,6.236,6.236,0,0,1-.856,3.1,10.053,10.053,0,0,0,2.688,3.559l1.406,1.179a5.931,5.931,0,0,0,3.813,1.387,5.932,5.932,0,0,0,3.838-1.408,10.073,10.073,0,0,0,3.477-6.4l.493-3.833a8.392,8.392,0,0,0-.519-4.157Z" transform="translate(-553.43 221.519)" fill="#8c8c8c"/>
                </g>
                <path id="Path_179661" data-name="Path 179661" d="M552.8-207.326a3.185,3.185,0,0,0-2.147-1.067,2.153,2.153,0,0,0-1.323.292,1.868,1.868,0,0,0-.8,1.313,2.558,2.558,0,0,0,.3,1.53,3.214,3.214,0,0,0,3.132,1.64,2.03,2.03,0,0,0,1.011-.375C554.039-204.814,553.539-206.477,552.8-207.326Z" transform="translate(-548.507 219.735)" fill="#8c8c8c"/>
                <path id="Path_179662" data-name="Path 179662" d="M552.48-204.525a.488.488,0,0,0,.118-.062.35.35,0,0,0,.136-.282,1.986,1.986,0,0,0-.486-1.3,1.98,1.98,0,0,0-1.322-.657,1.168,1.168,0,0,0-.491.056.542.542,0,0,0-.09.045.68.68,0,0,0-.256.462,1.355,1.355,0,0,0,.174.8,2.014,2.014,0,0,0,1.922,1.006A1.2,1.2,0,0,0,552.48-204.525Z" transform="translate(-548.87 219.372)" fill="#6d6d6d"/>
                <path id="Path_179663" data-name="Path 179663" d="M552.985-212.859c6.193-1.037,16.884-.432,16.884-.432.956-2.975-.95-4.187-.95-4.187-5.2-1.51-11.353-1.438-15.387.795A2.887,2.887,0,0,0,552.985-212.859Z" transform="translate(-549.425 222.064)" fill="#ababab"/>
              </g>
            </g>
          </g>
        </g>
      </g>
    </g>
  </g>
</svg>
