<svg xmlns="http://www.w3.org/2000/svg" width="295" height="200" viewBox="0 0 295 200">
  <g id="b3-h" transform="translate(8607 10419)">
    <path id="Path_180071" data-name="Path 180071" d="M-85-4.333a4.673,4.673,0,0,1-.721,2.36A4.35,4.35,0,0,1-87.57-.387a6.3,6.3,0,0,1-2.72.563,5.025,5.025,0,0,1-3.973-1.644,6.786,6.786,0,0,1-1.45-4.641v-.633a7.746,7.746,0,0,1,.655-3.292,4.961,4.961,0,0,1,1.885-2.18,5.26,5.26,0,0,1,2.848-.769,5.516,5.516,0,0,1,3.744,1.226,4.844,4.844,0,0,1,1.608,3.379h-3.076a2.292,2.292,0,0,0-.589-1.679,2.422,2.422,0,0,0-1.687-.51,1.843,1.843,0,0,0-1.687.861,5.536,5.536,0,0,0-.562,2.751v.905a6.126,6.126,0,0,0,.514,2.927,1.882,1.882,0,0,0,1.771.879,2.369,2.369,0,0,0,1.626-.5,2.126,2.126,0,0,0,.6-1.591Zm.949-.51A5.613,5.613,0,0,1-83.5-7.378a3.96,3.96,0,0,1,1.591-1.709,4.791,4.791,0,0,1,2.435-.6A4.373,4.373,0,0,1-76.1-8.363a5.076,5.076,0,0,1,1.23,3.6v.105a4.925,4.925,0,0,1-1.235,3.529A4.384,4.384,0,0,1-79.453.176a4.434,4.434,0,0,1-3.261-1.217,4.761,4.761,0,0,1-1.327-3.3Zm2.962.185a3.538,3.538,0,0,0,.413,1.934,1.376,1.376,0,0,0,1.222.615q1.582,0,1.617-2.435v-.3q0-2.558-1.635-2.558-1.485,0-1.608,2.206ZM-70.849-9.51l.1,1.116a3.225,3.225,0,0,1,2.716-1.292,2.713,2.713,0,0,1,2.219.888,4.226,4.226,0,0,1,.76,2.672V0h-2.971V-6a1.6,1.6,0,0,0-.29-1.059A1.342,1.342,0,0,0-69.372-7.4a1.413,1.413,0,0,0-1.292.686V0h-2.962V-9.51Zm11.452,7.4a1.317,1.317,0,0,0,.967-.338,1.241,1.241,0,0,0,.334-.945h2.777A3.288,3.288,0,0,1-56.439-.826a4.168,4.168,0,0,1-2.887,1,4.22,4.22,0,0,1-3.27-1.3,5.125,5.125,0,0,1-1.2-3.6v-.123A5.792,5.792,0,0,1-63.259-7.4a3.872,3.872,0,0,1,1.534-1.7,4.573,4.573,0,0,1,2.373-.593,4.116,4.116,0,0,1,2.944,1.028,3.647,3.647,0,0,1,1.09,2.786H-58.1A1.626,1.626,0,0,0-58.456-7a1.244,1.244,0,0,0-.967-.4q-1.151,0-1.345,1.468a10.357,10.357,0,0,0-.062,1.283,4.068,4.068,0,0,0,.343,1.986A1.187,1.187,0,0,0-59.4-2.109ZM-49.465.176a4.889,4.889,0,0,1-3.542-1.305,4.507,4.507,0,0,1-1.354-3.4v-.246a5.84,5.84,0,0,1,.541-2.575,3.955,3.955,0,0,1,1.578-1.727,4.763,4.763,0,0,1,2.461-.611,4.117,4.117,0,0,1,3.164,1.244,4.887,4.887,0,0,1,1.16,3.467v1.151h-5.889a2.135,2.135,0,0,0,.694,1.257,2.066,2.066,0,0,0,1.389.457,2.662,2.662,0,0,0,2.2-.984l1.354,1.6A3.784,3.784,0,0,1-47.281-.277,5.3,5.3,0,0,1-49.465.176ZM-49.8-7.4q-1.3,0-1.547,1.723h2.988v-.229a1.467,1.467,0,0,0-.36-1.1A1.434,1.434,0,0,0-49.8-7.4Zm14.361,2.716a5.735,5.735,0,0,1-1,3.538A3.2,3.2,0,0,1-39.129.176a2.742,2.742,0,0,1-2.153-.958V3.656h-2.962V-9.51h2.769l.088.879a2.742,2.742,0,0,1,2.241-1.055,3.224,3.224,0,0,1,2.733,1.3,5.805,5.805,0,0,1,.976,3.564ZM-38.4-4.869q0-2.531-1.477-2.531a1.394,1.394,0,0,0-1.406.756V-2.9a1.439,1.439,0,0,0,1.424.791q1.415,0,1.459-2.443Zm7.717-7V-9.51h1.564v2.057h-1.564V-3.1a1.111,1.111,0,0,0,.193.747,1.037,1.037,0,0,0,.765.211,4.345,4.345,0,0,0,.738-.053V-.079a5.466,5.466,0,0,1-1.67.255,3.1,3.1,0,0,1-2.259-.721,2.954,2.954,0,0,1-.729-2.188v-4.72h-1.213V-9.51h1.213v-2.364Zm2.092,7.031a5.613,5.613,0,0,1,.554-2.536,3.96,3.96,0,0,1,1.591-1.709,4.791,4.791,0,0,1,2.435-.6,4.373,4.373,0,0,1,3.366,1.323,5.076,5.076,0,0,1,1.23,3.6v.105A4.925,4.925,0,0,1-20.65-1.129,4.384,4.384,0,0,1-23.994.176a4.434,4.434,0,0,1-3.261-1.217,4.761,4.761,0,0,1-1.327-3.3Zm2.962.185a3.538,3.538,0,0,0,.413,1.934,1.376,1.376,0,0,0,1.222.615q1.582,0,1.617-2.435v-.3q0-2.558-1.635-2.558-1.485,0-1.608,2.206ZM-14-4.825a5.809,5.809,0,0,1,.976-3.56,3.211,3.211,0,0,1,2.725-1.3,2.731,2.731,0,0,1,2.145,1V-13.5h2.971V0H-7.849L-8-1.02a2.8,2.8,0,0,1-2.32,1.2,3.205,3.205,0,0,1-2.689-1.3A5.993,5.993,0,0,1-14-4.825Zm2.962.185q0,2.531,1.477,2.531a1.458,1.458,0,0,0,1.406-.826V-6.557A1.419,1.419,0,0,0-9.545-7.4q-1.371,0-1.485,2.215ZM1.1.176A4.889,4.889,0,0,1-2.443-1.129,4.507,4.507,0,0,1-3.8-4.526v-.246a5.84,5.84,0,0,1,.541-2.575A3.955,3.955,0,0,1-1.679-9.075,4.763,4.763,0,0,1,.782-9.686,4.117,4.117,0,0,1,3.946-8.442a4.887,4.887,0,0,1,1.16,3.467v1.151H-.782A2.135,2.135,0,0,0-.088-2.566,2.066,2.066,0,0,0,1.3-2.109a2.662,2.662,0,0,0,2.2-.984l1.354,1.6A3.784,3.784,0,0,1,3.283-.277,5.3,5.3,0,0,1,1.1.176ZM.765-7.4q-1.3,0-1.547,1.723H2.206v-.229a1.467,1.467,0,0,0-.36-1.1A1.434,1.434,0,0,0,.765-7.4Zm15.768.571-.976-.07a1.752,1.752,0,0,0-1.793.879V0H10.8V-9.51h2.777l.1,1.222a2.294,2.294,0,0,1,2.083-1.4,2.888,2.888,0,0,1,.826.105Zm5.5,7a4.889,4.889,0,0,1-3.542-1.305,4.507,4.507,0,0,1-1.354-3.4v-.246a5.84,5.84,0,0,1,.541-2.575,3.955,3.955,0,0,1,1.578-1.727,4.763,4.763,0,0,1,2.461-.611,4.117,4.117,0,0,1,3.164,1.244,4.887,4.887,0,0,1,1.16,3.467v1.151H20.153a2.135,2.135,0,0,0,.694,1.257,2.066,2.066,0,0,0,1.389.457,2.662,2.662,0,0,0,2.2-.984l1.354,1.6A3.784,3.784,0,0,1,24.218-.277,5.3,5.3,0,0,1,22.034.176ZM21.7-7.4q-1.3,0-1.547,1.723h2.988v-.229a1.467,1.467,0,0,0-.36-1.1A1.434,1.434,0,0,0,21.7-7.4Zm9.554,5.291a1.317,1.317,0,0,0,.967-.338,1.241,1.241,0,0,0,.334-.945h2.777A3.288,3.288,0,0,1,34.211-.826a4.168,4.168,0,0,1-2.887,1,4.22,4.22,0,0,1-3.27-1.3,5.125,5.125,0,0,1-1.2-3.6v-.123A5.792,5.792,0,0,1,27.391-7.4a3.872,3.872,0,0,1,1.534-1.7A4.573,4.573,0,0,1,31.3-9.686a4.116,4.116,0,0,1,2.944,1.028,3.647,3.647,0,0,1,1.09,2.786H32.555A1.626,1.626,0,0,0,32.194-7a1.244,1.244,0,0,0-.967-.4q-1.151,0-1.345,1.468a10.357,10.357,0,0,0-.062,1.283,4.068,4.068,0,0,0,.343,1.986A1.187,1.187,0,0,0,31.254-2.109Zm11.083-4.72-.976-.07a1.752,1.752,0,0,0-1.793.879V0H36.606V-9.51h2.777l.1,1.222a2.294,2.294,0,0,1,2.083-1.4,2.888,2.888,0,0,1,.826.105Zm5.5,7A4.889,4.889,0,0,1,44.3-1.129a4.507,4.507,0,0,1-1.354-3.4v-.246a5.84,5.84,0,0,1,.541-2.575,3.955,3.955,0,0,1,1.578-1.727,4.763,4.763,0,0,1,2.461-.611,4.117,4.117,0,0,1,3.164,1.244,4.887,4.887,0,0,1,1.16,3.467v1.151H45.958a2.135,2.135,0,0,0,.694,1.257,2.066,2.066,0,0,0,1.389.457,2.662,2.662,0,0,0,2.2-.984l1.354,1.6A3.784,3.784,0,0,1,50.023-.277,5.3,5.3,0,0,1,47.839.176ZM47.5-7.4q-1.3,0-1.547,1.723h2.988v-.229a1.467,1.467,0,0,0-.36-1.1A1.434,1.434,0,0,0,47.5-7.4ZM58.395,0a3.344,3.344,0,0,1-.281-.853A2.754,2.754,0,0,1,55.828.176a3.374,3.374,0,0,1-2.285-.813,2.588,2.588,0,0,1-.94-2.043,2.66,2.66,0,0,1,1.143-2.338,5.821,5.821,0,0,1,3.322-.791h.914v-.5q0-1.316-1.134-1.316a.927.927,0,0,0-1.055,1.042H52.831A2.655,2.655,0,0,1,54-8.825,4.931,4.931,0,0,1,57-9.686a4.323,4.323,0,0,1,2.874.888,3.086,3.086,0,0,1,1.081,2.435v4.21a4.311,4.311,0,0,0,.4,2V0ZM56.54-1.934a1.652,1.652,0,0,0,.918-.237,1.487,1.487,0,0,0,.523-.536V-4.228H57.12q-1.547,0-1.547,1.389a.848.848,0,0,0,.272.655A.986.986,0,0,0,56.54-1.934Zm10.072-.176a1.317,1.317,0,0,0,.967-.338,1.241,1.241,0,0,0,.334-.945H70.69A3.288,3.288,0,0,1,69.57-.826a4.168,4.168,0,0,1-2.887,1,4.22,4.22,0,0,1-3.27-1.3,5.125,5.125,0,0,1-1.2-3.6v-.123A5.792,5.792,0,0,1,62.75-7.4a3.872,3.872,0,0,1,1.534-1.7,4.573,4.573,0,0,1,2.373-.593A4.116,4.116,0,0,1,69.6-8.657a3.647,3.647,0,0,1,1.09,2.786H67.913A1.626,1.626,0,0,0,67.553-7a1.244,1.244,0,0,0-.967-.4q-1.151,0-1.345,1.468a10.357,10.357,0,0,0-.062,1.283,4.068,4.068,0,0,0,.343,1.986A1.187,1.187,0,0,0,66.612-2.109ZM75.067,0H72.1V-9.51h2.971ZM71.921-11.971a1.334,1.334,0,0,1,.457-1.043,1.718,1.718,0,0,1,1.187-.407,1.718,1.718,0,0,1,1.187.407,1.334,1.334,0,0,1,.457,1.043,1.334,1.334,0,0,1-.457,1.043,1.718,1.718,0,0,1-1.187.407,1.718,1.718,0,0,1-1.187-.407A1.334,1.334,0,0,1,71.921-11.971Zm4.6,7.128a5.613,5.613,0,0,1,.554-2.536,3.96,3.96,0,0,1,1.591-1.709,4.791,4.791,0,0,1,2.435-.6,4.373,4.373,0,0,1,3.366,1.323,5.076,5.076,0,0,1,1.23,3.6v.105a4.925,4.925,0,0,1-1.235,3.529A4.384,4.384,0,0,1,81.114.176a4.434,4.434,0,0,1-3.261-1.217,4.761,4.761,0,0,1-1.327-3.3Zm2.962.185a3.538,3.538,0,0,0,.413,1.934,1.376,1.376,0,0,0,1.222.615q1.582,0,1.617-2.435v-.3Q82.731-7.4,81.1-7.4q-1.485,0-1.608,2.206ZM81.5-13.5H84.63l-2.443,2.76-2.417,0Zm8.218,3.99.1,1.116a3.225,3.225,0,0,1,2.716-1.292A2.713,2.713,0,0,1,94.75-8.8a4.226,4.226,0,0,1,.76,2.672V0H92.54V-6a1.6,1.6,0,0,0-.29-1.059A1.342,1.342,0,0,0,91.2-7.4a1.413,1.413,0,0,0-1.292.686V0H86.941V-9.51Z" transform="translate(-8459 -10234)" fill="#12263f"/>
    <path id="Rectangle_36817" data-name="Rectangle 36817" d="M12,3a9.01,9.01,0,0,0-9,9V188a9.01,9.01,0,0,0,9,9H283a9.01,9.01,0,0,0,9-9V12a9.01,9.01,0,0,0-9-9H12m0-3H283a12,12,0,0,1,12,12V188a12,12,0,0,1-12,12H12A12,12,0,0,1,0,188V12A12,12,0,0,1,12,0Z" transform="translate(-8607 -10419)" fill="#fe502d"/>
    <g id="Group_117658" data-name="Group 117658" transform="translate(-5887.004 -11114.985)">
      <g id="Group_117660" data-name="Group 117660" transform="translate(-2627.996 704.652)">
        <g id="Group_117658-2" data-name="Group 117658">
          <path id="Path_179998" data-name="Path 179998" d="M-2543.558,735.9c4.313-.5,8.652-2.168,11.52-5.429a14.594,14.594,0,0,0,2.7-13.8,17.348,17.348,0,0,0-9.718-10.428,21.451,21.451,0,0,0-14.4-.646,28.2,28.2,0,0,0-12.289,7.763,14.412,14.412,0,0,0-3.222,4.746c-3.46,9.286,10.253,16.071,17.376,17.464A26.188,26.188,0,0,0-2543.558,735.9Z" transform="translate(2608.244 -704.652)" fill="#fff"/>
          <path id="Path_179999" data-name="Path 179999" d="M-2530.791,837.252h-79.042c-7.97-3.336-14.434-11.153-16.936-19.424a29.87,29.87,0,0,1,3.663-24.823c2.987-4.492,7.288-8.327,8.661-13.544,1.312-4.983-.346-10.284-2.723-14.855s-5.487-8.771-7.4-13.553-2.481-10.507.223-14.893c2.96-4.8,9.244-6.786,14.83-5.977s10.566,3.93,14.984,7.441,8.483,7.5,13.252,10.516,10.486,5.035,16.041,4.036c4.406-.793,8.242-3.372,12.242-5.383s8.7-3.5,12.9-1.953c5.311,1.949,7.95,8.2,7.736,13.853s-2.6,10.956-4.516,16.28-3.377,11.174-1.716,16.582c1.809,5.888,6.933,10.076,10.12,15.347C-2523.186,815.65-2524.527,829.175-2530.791,837.252Z" transform="translate(2627.995 -713.216)" fill="#fff"/>
        </g>
        <g id="Group_117659" data-name="Group 117659" transform="translate(2.752 124.036)">
          <path id="Path_180000" data-name="Path 180000" d="M-2531.131,895.64h0a1.232,1.232,0,0,1,1.233-1.233h2.731a1.232,1.232,0,0,0,1.232-1.233h0a1.232,1.232,0,0,0-1.232-1.232h-85.176a1.232,1.232,0,0,0-1.232,1.232h0a1.232,1.232,0,0,0,1.232,1.233h2.731a1.232,1.232,0,0,1,1.232,1.233h0a1.232,1.232,0,0,1-1.232,1.232h-13a1.232,1.232,0,0,0-1.233,1.232h0a1.232,1.232,0,0,0,1.233,1.233h20.218a1.232,1.232,0,0,1,1.232,1.232h0a1.232,1.232,0,0,1-1.232,1.233h-5.327a1.232,1.232,0,0,0-1.232,1.232h0a1.232,1.232,0,0,0,1.232,1.232h72.273a1.233,1.233,0,0,0,1.232-1.232h0a1.233,1.233,0,0,0-1.232-1.232h-1.678a1.232,1.232,0,0,1-1.232-1.233h0a1.232,1.232,0,0,1,1.232-1.232h20.218a1.233,1.233,0,0,0,1.233-1.233h0a1.233,1.233,0,0,0-1.233-1.232H-2529.9A1.232,1.232,0,0,1-2531.131,895.64Z" transform="translate(2623.84 -891.942)" fill="#fca695"/>
          <path id="Path_180001" data-name="Path 180001" d="M-2614.507,909.293h3.024a1.232,1.232,0,0,0,1.232-1.232h0a1.232,1.232,0,0,0-1.232-1.232h-3.024a1.232,1.232,0,0,0-1.233,1.232h0A1.232,1.232,0,0,0-2614.507,909.293Z" transform="translate(2621.104 -896.97)" fill="#fca695"/>
          <path id="Path_180002" data-name="Path 180002" d="M-2483.814,909.293h8.627a1.233,1.233,0,0,0,1.232-1.232h0a1.233,1.233,0,0,0-1.232-1.232h-8.627a1.232,1.232,0,0,0-1.233,1.232h0A1.232,1.232,0,0,0-2483.814,909.293Z" transform="translate(2576.966 -896.97)" fill="#fca695"/>
        </g>
      </g>
      <g id="Group_117689" data-name="Group 117689" transform="translate(-2617.665 709.161)">
        <ellipse id="Ellipse_5766" data-name="Ellipse 5766" cx="48.063" cy="8.254" rx="48.063" ry="8.254" transform="translate(1.86 131.984)" fill="#c79d00"/>
        <g id="Group_117688" data-name="Group 117688" transform="translate(0 0)">
          <g id="Group_117685" data-name="Group 117685" transform="translate(12.125)">
            <g id="Group_117662" data-name="Group 117662" transform="translate(31.18 43.124)">
              <path id="Path_180003" data-name="Path 180003" d="M-2500.269,781.337c1.756-3.173,4.683-3.542,6.5-3.7h0a2.282,2.282,0,0,1-1.286,2.064,5.582,5.582,0,0,0-.84.493l-.389,4.19c-.753,1.722-1.707,2.619-4.449,2.9C-2501.594,784.572-2500.269,781.337-2500.269,781.337Z" transform="translate(2531.478 -776.935)" fill="#ff8882"/>
              <path id="Path_180004" data-name="Path 180004" d="M-2547.009,776.843l2.068-.223a7.719,7.719,0,0,1,7.526,3.837l6.2,10.821,12.9-6.572a12.924,12.924,0,0,1,2.979-7.086h0a1.839,1.839,0,0,1,.327,2.238,6.092,6.092,0,0,0-.636,1.521,5.219,5.219,0,0,1-.616,5.546l-12.183,10.521a4.548,4.548,0,0,1-6.121-.16l-8.747-8.39Z" transform="translate(2547.009 -776.575)" fill="#ffa68d"/>
              <path id="Path_180005" data-name="Path 180005" d="M-2494.335,781.5a6.119,6.119,0,0,0-1.77,1.726,1.9,1.9,0,0,0-.16,1.753,16.391,16.391,0,0,1,.789,2.433.61.61,0,0,0,.978.337,4.683,4.683,0,0,0,1.122-1.348,2.912,2.912,0,0,0,.19-2.284A12.463,12.463,0,0,0-2494.335,781.5Z" transform="translate(2529.92 -778.239)" fill="#ffa68d"/>
              <path id="Path_180006" data-name="Path 180006" d="M-2535.217,797.476l2.169-8.814-4.072-7.106-9.016-1.727,3.118,10.166Z" transform="translate(2546.714 -777.674)" fill="#ff8882"/>
              <g id="Group_117661" data-name="Group 117661" transform="translate(13.414 12.215)">
                <path id="Path_180007" data-name="Path 180007" d="M-2526.632,798.781a.124.124,0,0,1-.11-.068.124.124,0,0,1,.054-.166l6.9-3.515a.123.123,0,0,1,.166.054.123.123,0,0,1-.054.166l-6.9,3.515A.122.122,0,0,1-2526.632,798.781Z" transform="translate(2526.755 -795.02)" fill="#00213e"/>
              </g>
            </g>
            <g id="Group_117675" data-name="Group 117675" transform="translate(0 67.214)">
              <path id="Path_180008" data-name="Path 180008" d="M-2552.933,844.759c-9.366-.411-22.1,6.326-26.27-.411C-2577.745,836.132-2563.777,837.118-2552.933,844.759Z" transform="translate(2589.062 -821.611)" fill="#1d349c"/>
              <g id="Group_117667" data-name="Group 117667" transform="translate(31.759 19.862)">
                <g id="Group_117664" data-name="Group 117664" transform="translate(29.811 42.303)">
                  <g id="Group_117663" data-name="Group 117663" transform="translate(0 2.099)">
                    <path id="Path_180009" data-name="Path 180009" d="M-2488.557,918.276a25.284,25.284,0,0,1-11.854-.763,7.187,7.187,0,0,0,.652,1.224c1.334.564,4.968,1.4,11.406.436a1.042,1.042,0,0,0,.652-1.684A1.019,1.019,0,0,1-2488.557,918.276Z" transform="translate(2500.882 -912.52)" fill="#fff"/>
                    <path id="Path_180010" data-name="Path 180010" d="M-2498.184,909.986l-2.855,1.878a5.286,5.286,0,0,0,.388,3.115,25.282,25.282,0,0,0,11.854.763,1.018,1.018,0,0,0,.855-.787,1.058,1.058,0,0,0-.211-.205A34.679,34.679,0,0,0-2498.184,909.986Z" transform="translate(2501.123 -909.986)" fill="#00213e"/>
                  </g>
                  <path id="Path_180011" data-name="Path 180011" d="M-2494.346,907.105a1.583,1.583,0,0,1,.853-.289.677.677,0,0,1,.664.517c.054.377-.3.673-.627.874-.387.241-2.252,1.6-2.689,1.109S-2494.72,907.336-2494.346,907.105Z" transform="translate(2499.464 -906.816)" fill="#00213e"/>
                </g>
                <g id="Group_117666" data-name="Group 117666">
                  <path id="Path_180012" data-name="Path 180012" d="M-2532.07,842.94l7.766,14.855a22.243,22.243,0,0,1,1.207,2.742l9.709,26.805c-.28,2.182-2.855,1.878-2.855,1.878-10.94-11.61-14.432-22.085-15.828-27.878l-14.065-17.746Z" transform="translate(2546.135 -842.94)" fill="#ffa68d"/>
                  <g id="Group_117665" data-name="Group 117665">
                    <path id="Path_180013" data-name="Path 180013" d="M-2529.334,848.172l-2.735-5.232-14.065.657,3.843,4.848C-2536.871,850.96-2531.536,850.647-2529.334,848.172Z" transform="translate(2546.135 -842.94)" fill="#a66c5c"/>
                    <path id="Path_180014" data-name="Path 180014" d="M-2513.309,876.365l-.985-2.717a14.1,14.1,0,0,1-8.716,2.43c.276.829.593,1.707.952,2.624A14.1,14.1,0,0,0-2513.309,876.365Z" transform="translate(2538.325 -853.311)" fill="#fdefb9"/>
                    <path id="Path_180015" data-name="Path 180015" d="M-2509.548,886.107a14.117,14.117,0,0,1-8.261,2.269,68.907,68.907,0,0,0,11.134,15.424s2.575.3,2.855-1.878Z" transform="translate(2536.569 -857.519)" fill="#fdefb9"/>
                    <path id="Path_180016" data-name="Path 180016" d="M-2512.138,879.642l-.685-1.891a14.094,14.094,0,0,1-8.749,2.337q.35.89.757,1.83A14.1,14.1,0,0,0-2512.138,879.642Z" transform="translate(2537.839 -854.697)" fill="#fc502e"/>
                    <path id="Path_180017" data-name="Path 180017" d="M-2510.017,885.144l-.683-1.888a14.107,14.107,0,0,1-8.5,2.316q.43.9.918,1.841A14.115,14.115,0,0,0-2510.017,885.144Z" transform="translate(2537.037 -856.556)" fill="#fdc800"/>
                    <path id="Path_180018" data-name="Path 180018" d="M-2511.117,882.361l-.636-1.755a14.1,14.1,0,0,1-8.677,2.276q.382.877.817,1.795A14.108,14.108,0,0,0-2511.117,882.361Z" transform="translate(2537.453 -855.661)" fill="#fdefb9"/>
                  </g>
                </g>
              </g>
              <g id="Group_117672" data-name="Group 117672" transform="translate(0 12.75)">
                <g id="Group_117669" data-name="Group 117669" transform="translate(0 51.067)">
                  <g id="Group_117668" data-name="Group 117668">
                    <path id="Path_180019" data-name="Path 180019" d="M-2588.176,922.83a25.282,25.282,0,0,1-5.168-10.7,7.269,7.269,0,0,0-.745,1.17c.166,1.438,1.226,5.013,5.233,10.144a1.042,1.042,0,0,0,1.787-.261A1.021,1.021,0,0,1-2588.176,922.83Z" transform="translate(2594.089 -910.264)" fill="#fff"/>
                    <path id="Path_180020" data-name="Path 180020" d="M-2587.4,910.871l-3.04-1.561a5.285,5.285,0,0,0-2.521,1.87,25.285,25.285,0,0,0,5.168,10.7,1.021,1.021,0,0,0,1.106.357,1.067,1.067,0,0,0,.074-.285A34.675,34.675,0,0,0-2587.4,910.871Z" transform="translate(2593.709 -909.31)" fill="#00213e"/>
                  </g>
                  <path id="Path_180021" data-name="Path 180021" d="M-2582.009,912.831a1.581,1.581,0,0,1,.672.6.677.677,0,0,1-.123.832c-.3.232-.736.066-1.069-.116-.4-.219-2.5-1.175-2.288-1.795C-2584.6,911.716-2582.393,912.618-2582.009,912.831Z" transform="translate(2590.963 -910.262)" fill="#00213e"/>
                </g>
                <g id="Group_117671" data-name="Group 117671" transform="translate(3.266)">
                  <path id="Path_180022" data-name="Path 180022" d="M-2563.323,838.435l-4.824,19.387a11.346,11.346,0,0,1-1.546,3.518l-16.424,24.829a3.467,3.467,0,0,1-3.04-1.561c2.136-14.3,7.394-23.169,12.323-29.166l.164-18.65C-2567.222,834.739-2563.323,838.435-2563.323,838.435Z" transform="translate(2589.158 -833.542)" fill="#ffa68d"/>
                  <path id="Path_180023" data-name="Path 180023" d="M-2570.377,841.14c5.431-1.6,8.269-.907,12.242.595l1.154-4.64-6.117-4.894-7.23,3.25Z" transform="translate(2582.815 -832.201)" fill="#a66c5c"/>
                  <g id="Group_117670" data-name="Group 117670" transform="translate(0 24.929)">
                    <path id="Path_180024" data-name="Path 180024" d="M-2580.53,879.649q-.53,1.034-1.037,2.142a12.222,12.222,0,0,0,7.574,4.607l1.217-1.84A12.22,12.22,0,0,1-2580.53,879.649Z" transform="translate(2586.594 -873.155)" fill="#fdc800"/>
                    <path id="Path_180025" data-name="Path 180025" d="M-2584.131,882.883a64.678,64.678,0,0,0-5.027,17.5,3.468,3.468,0,0,0,3.04,1.561l9.562-14.455A12.222,12.222,0,0,1-2584.131,882.883Z" transform="translate(2589.158 -874.247)" fill="#fdefb9"/>
                    <path id="Path_180026" data-name="Path 180026" d="M-2579.04,876.945q-.488.868-.961,1.791a12.221,12.221,0,0,0,7.755,4.909l1.128-1.706A12.209,12.209,0,0,1-2579.04,876.945Z" transform="translate(2586.065 -872.242)" fill="#fdefb9"/>
                    <path id="Path_180027" data-name="Path 180027" d="M-2574.975,869.843q-.913,1.283-1.81,2.722a12.2,12.2,0,0,0,7.97,5.136l1.7-2.565A12.206,12.206,0,0,1-2574.975,869.843Z" transform="translate(2584.979 -869.843)" fill="#fdefb9"/>
                    <path id="Path_180028" data-name="Path 180028" d="M-2577.381,873.953q-.592.954-1.169,1.982a12.209,12.209,0,0,0,7.922,4.994l1.217-1.84A12.2,12.2,0,0,1-2577.381,873.953Z" transform="translate(2585.575 -871.231)" fill="#fc502e"/>
                  </g>
                </g>
              </g>
              <path id="Path_180029" data-name="Path 180029" d="M-2568.065,812.949c-.677,3.328-11.831,13.865-11.153,22.738,8.853-14.706,29.063,10.68,38.512,0a151.5,151.5,0,0,0-12.14-22.738Z" transform="translate(2589.077 -812.949)" fill="#2e54fc"/>
              <g id="Group_117673" data-name="Group 117673" transform="translate(13.638 13.827)">
                <path id="Path_180030" data-name="Path 180030" d="M-2545.881,840.782c-4.073,0-8.126-1.6-11.658-3.258l-.97-.458a33.843,33.843,0,0,0-6.778-2.633,10.619,10.619,0,0,0-8.021.946.123.123,0,0,1-.17-.039.123.123,0,0,1,.039-.17,10.862,10.862,0,0,1,8.206-.978,34.079,34.079,0,0,1,6.828,2.651q.485.229.969.457c4.2,1.968,9.15,3.867,13.957,3.033a.122.122,0,0,1,.142.1.123.123,0,0,1-.1.142A14.224,14.224,0,0,1-2545.881,840.782Z" transform="translate(2573.496 -833.827)" fill="#00213e"/>
              </g>
              <g id="Group_117674" data-name="Group 117674" transform="translate(30.584 14.679)">
                <path id="Path_180031" data-name="Path 180031" d="M-2546.763,837.311q-.515,0-1.028-.023a.123.123,0,0,1-.117-.128.124.124,0,0,1,.128-.118,23.692,23.692,0,0,0,10.395-1.919.124.124,0,0,1,.162.064.124.124,0,0,1-.064.162A23.935,23.935,0,0,1-2546.763,837.311Z" transform="translate(2547.908 -835.113)" fill="#00213e"/>
              </g>
            </g>
            <g id="Group_117678" data-name="Group 117678" transform="translate(17.421 43.332)">
              <path id="Path_180032" data-name="Path 180032" d="M-2564.6,778.421l10.575-1.472a6.37,6.37,0,0,1,5.2,1.633h0a6.373,6.373,0,0,1,1.721,2.674l1.358,4.1a5.352,5.352,0,0,1-1.252,5.42l-.312.321-1.665,9.674c-6.716,4.375-15.219,0-15.219,0l.185-3.921a6.313,6.313,0,0,0-.409-2.547l-3.368-8.8Z" transform="translate(2567.785 -776.888)" fill="#fde06f"/>
              <g id="Group_117676" data-name="Group 117676" transform="translate(6.565 22.4)">
                <path id="Path_180033" data-name="Path 180033" d="M-2553.127,812.24a12.453,12.453,0,0,1-4.668-.9.123.123,0,0,1-.068-.16.123.123,0,0,1,.161-.068,12.4,12.4,0,0,0,10.048-.392.124.124,0,0,1,.166.056.124.124,0,0,1-.056.165A12.546,12.546,0,0,1-2553.127,812.24Z" transform="translate(2557.872 -810.711)" fill="#00213e"/>
              </g>
              <g id="Group_117677" data-name="Group 117677" transform="translate(11.477 19.818)">
                <path id="Path_180034" data-name="Path 180034" d="M-2550.332,809.3a.123.123,0,0,1-.123-.117.124.124,0,0,1,.117-.13,9.916,9.916,0,0,0,5.725-2.217.122.122,0,0,1,.173.018.123.123,0,0,1-.017.173,10.166,10.166,0,0,1-5.867,2.274Z" transform="translate(2550.455 -806.812)" fill="#00213e"/>
              </g>
            </g>
            <path id="Path_180035" data-name="Path 180035" d="M-2581.738,763.206a17.083,17.083,0,0,0,5.275-1.47,10.854,10.854,0,0,1-4.165,2.558,15.824,15.824,0,0,0,8.53,3.324,14.394,14.394,0,0,0,9.245-2.41,12.2,12.2,0,0,0,5.113-7.982,8.674,8.674,0,0,0-.736-5.308,8,8,0,0,0-7.242-4.05,10.384,10.384,0,0,0-7.539,3.89c-1.781,2.16-2.864,4.982-5.195,6.534a6.651,6.651,0,0,1-5.339.873A11.069,11.069,0,0,0-2581.738,763.206Z" transform="translate(2590.611 -723.755)" fill="#00213e"/>
            <g id="Group_117679" data-name="Group 117679" transform="translate(23.908 38.492)">
              <path id="Path_180036" data-name="Path 180036" d="M-2557.989,771.652l.308,4.19,5.634,2.708-.581-3.633V769.58Z" transform="translate(2557.989 -769.58)" fill="#ffa68d"/>
              <path id="Path_180037" data-name="Path 180037" d="M-2557.786,774.42c2.23.5,4.263-2.666,5.158-4.161v-.679l-5.361,2.072Z" transform="translate(2557.989 -769.58)" fill="#47284f"/>
            </g>
            <g id="Group_117681" data-name="Group 117681" transform="translate(18.444 29.269)">
              <path id="Path_180038" data-name="Path 180038" d="M-2555.154,761.362a9.175,9.175,0,0,1-6.935-5.707,10.572,10.572,0,0,1-4.151,4.982l.278,2.16a7.57,7.57,0,0,0,2.613,4.809,4.46,4.46,0,0,0,2.885,1.059,4.461,4.461,0,0,0,2.866-1.043l1.056-.886a7.535,7.535,0,0,0,1.964-2.566A6.192,6.192,0,0,1-2555.154,761.362Z" transform="translate(2566.24 -755.655)" fill="#ffa68d"/>
              <g id="Group_117680" data-name="Group 117680" transform="translate(11.406 5.612)">
                <path id="Path_180039" data-name="Path 180039" d="M-2548.423,764.936a2.392,2.392,0,0,1,1.613-.8,1.622,1.622,0,0,1,.995.219,1.405,1.405,0,0,1,.6.987,1.924,1.924,0,0,1-.229,1.15,2.416,2.416,0,0,1-2.354,1.233,1.536,1.536,0,0,1-.76-.282C-2549.358,766.824-2548.982,765.575-2548.423,764.936Z" transform="translate(2549.018 -764.129)" fill="#ffa68d"/>
                <path id="Path_180040" data-name="Path 180040" d="M-2547.45,767.233a.337.337,0,0,1-.088-.047.261.261,0,0,1-.1-.212,1.5,1.5,0,0,1,.366-.975,1.487,1.487,0,0,1,.993-.494.875.875,0,0,1,.369.042.323.323,0,0,1,.067.034.507.507,0,0,1,.193.346,1.024,1.024,0,0,1-.131.6,1.514,1.514,0,0,1-1.445.756A.938.938,0,0,1-2547.45,767.233Z" transform="translate(2548.554 -764.593)" fill="#ff8882"/>
              </g>
            </g>
            <g id="Group_117682" data-name="Group 117682" transform="translate(33.71)">
              <path id="Path_180041" data-name="Path 180041" d="M-2523.409,727.69l-.082-.233-.863.3-.36-1.027,1.028-.36.149.426.232-.081-.149-.426.126-.044-.081-.232-.127.044-.36-1.028.563-.2-.082-.233-.563.2-.36-1.027.736-.258-.081-.233-.737.258-.36-1.027,1.066-.374-.082-.232-1.066.374-.36-1.027,1.066-.373-.082-.233-1.066.374-.36-1.027,1.066-.374-.082-.232-1.066.374-.36-1.027.737-.258-.082-.232-.737.258-.361-1.027.563-.2-.082-.232-.563.2-.36-1.028.126-.044-.081-.232-.126.044-.15-.427-.232.081.149.427-1.027.36-.36-1.027.863-.3-.082-.232-.863.3-.36-1.027.182-.064-.081-.233-1.442.505-.36-1.028.291-.1-.081-.233-.291.1-.088-.252-.233.081.089.252-1.028.36-.4-1.144-.117.041-.041-.117-1.144.4-.2-.562-.233.081.2.562-1.028.36-.305-.872-.232.081.305.872-1.027.36-.431-1.231-.232.081.431,1.231-1.028.36-.305-.872-.233.082.305.872-1.027.36-.2-.562-.232.082.2.562-1.144.4.04.116-.116.041.4,1.144-1.028.36-.088-.252-.232.081.088.252-.291.1.082.232.291-.1.36,1.028-1.442.505.082.232.183-.064.359,1.028-.862.3.081.232.862-.3.36,1.027-1.027.36-.149-.427-.233.081.149.427-.126.044.082.233.126-.044.36,1.027-.562.2.082.232.562-.2.36,1.027-.737.258.082.233.737-.258.36,1.027-1.066.374.081.233,1.066-.374.36,1.027-1.066.374.082.232,1.066-.373.36,1.028-1.066.374.081.232,1.066-.374.36,1.027-.737.258.082.232.737-.258.36,1.028-.562.2.082.232.562-.2.36,1.027-.126.044.082.232.126-.044.149.427.232-.081-.149-.426,1.027-.36.36,1.027-.862.3.081.233.862-.3.36,1.028-.183.064.082.233,1.442-.505.36,1.027-.291.1.082.232.291-.1.088.252.232-.081-.088-.252,1.027-.36.4,1.143.116-.04.041.117,1.144-.4.2.562.233-.081-.2-.562,1.028-.36.305.872.233-.081-.305-.872,1.027-.36.432,1.231.232-.081-.431-1.23,1.027-.36.305.872.233-.081-.305-.872,1.027-.36.2.562.232-.081-.2-.562,1.143-.4-.04-.117.116-.04-.4-1.144,1.027-.36.089.252.233-.081-.088-.252.291-.1-.081-.232-.291.1-.36-1.027,1.442-.505-.082-.232-.182.064-.359-1.027Zm-1.177.151-1.027.36-.36-1.027,1.027-.36Zm-6.934-4.383,1.028-.36.36,1.028-1.027.36Zm.127,1.109-1.027.36-.36-1.028,1.027-.36Zm-.208-1.341-.36-1.028,1.027-.36.36,1.027Zm-.232.081-1.027.36-.36-1.027,1.028-.36Zm-1.469-.9-.36-1.027,1.027-.36.36,1.027Zm-.441-1.26-.36-1.027,1.028-.36.36,1.028Zm-.232.081-1.028.36-.36-1.028,1.027-.36Zm.081.232.36,1.027-1.027.36-.36-1.027Zm.441,1.26.36,1.027-1.028.36-.36-1.028Zm-.9,1.469-1.027.36-.36-1.027,1.028-.36Zm.082.232.36,1.027-1.027.36-.359-1.028Zm.232-.081,1.028-.36.36,1.028-1.027.36Zm1.469.9.36,1.027-1.028.36-.36-1.028Zm.442,1.26.36,1.028-1.027.36-.36-1.027Zm.232-.081,1.027-.36.36,1.027-1.027.36Zm-.081-.232-.36-1.027,1.028-.36.36,1.027Zm.9-1.468,1.027-.36.36,1.027-1.028.36Zm1.26-.442,1.027-.36.36,1.027-1.027.36Zm-.082-.233-.36-1.028,1.027-.36.36,1.027Zm-.441-1.26-.36-1.027,1.027-.36.36,1.028Zm-.442-1.26-.36-1.027,1.027-.36.36,1.027Zm-.232.082-1.027.36-.36-1.027,1.028-.36Zm-1.469-.9-.36-1.028,1.027-.36.36,1.027Zm-.441-1.26-.36-1.027,1.028-.36.36,1.028Zm-.232.081-1.028.36-.359-1.027,1.027-.36Zm-1.469-.9-.36-1.027,1.027-.36.36,1.027Zm-.232.081-1.028.36-.36-1.027,1.027-.36Zm.081.232.36,1.027-1.027.36-.36-1.028Zm-.9,1.469-1.028.36-.359-1.027,1.027-.36Zm.082.232.36,1.028-1.027.36-.36-1.027Zm.441,1.26.36,1.027-1.027.36-.359-1.027Zm-.9,1.468-1.027.36-.36-1.027,1.027-.36Zm.082.233.36,1.027-1.027.36-.36-1.027Zm.441,1.26.36,1.028-1.027.36-.36-1.027Zm.442,1.26.36,1.027-1.027.36-.36-1.027Zm.232-.082,1.028-.36.36,1.027-1.028.36Zm1.469.9.36,1.027-1.027.36-.36-1.028Zm.441,1.26.36,1.027-1.028.36-.36-1.027Zm.233-.082,1.027-.36.36,1.027-1.028.36Zm1.469.9.36,1.027-1.027.36-.36-1.027Zm.232-.082,1.027-.36.36,1.027-1.027.36Zm-.081-.233-.36-1.027,1.027-.36.36,1.027Zm.9-1.468,1.027-.36.36,1.027-1.028.36Zm-.082-.233-.36-1.027,1.028-.36.36,1.028Zm.9-1.469,1.027-.36.36,1.027-1.027.36Zm1.26-.441,1.028-.36.36,1.028-1.027.36Zm-.082-.232-.359-1.027,1.028-.36.359,1.027Zm-.441-1.26-.36-1.027,1.028-.36.36,1.028Zm-.442-1.26-.36-1.028,1.027-.36.36,1.027Zm-.441-1.26-.36-1.027,1.028-.36.36,1.027Zm-.442-1.26-.36-1.028,1.028-.36.36,1.027Zm-.233.081-1.027.36-.36-1.027,1.028-.36Zm-1.469-.9-.36-1.027,1.027-.36.36,1.027Zm-.441-1.26-.36-1.027,1.027-.36.359,1.027Zm-.233.081-1.028.36-.36-1.027,1.027-.36Zm-1.469-.9-.36-1.027,1.028-.36.36,1.028Zm-.232.081-1.027.36-.36-1.027,1.027-.36Zm-1.26.441-1.027.36-.36-1.028,1.028-.36Zm-1.26.442-1.028.36-.359-1.027,1.027-.36Zm.082.232.36,1.027-1.027.36-.36-1.027Zm-.9,1.469-1.027.36-.36-1.027,1.027-.36Zm.081.232.36,1.027-1.027.36-.36-1.028Zm.442,1.26.36,1.027-1.027.36-.36-1.027Zm-.9,1.469-1.027.36-.36-1.027,1.028-.36Zm.082.233.359,1.027-1.027.36-.36-1.027Zm.441,1.26.36,1.027-1.027.36-.36-1.027Zm.441,1.26.36,1.027-1.028.36-.36-1.028Zm.441,1.26.36,1.027-1.028.36-.36-1.027Zm.441,1.26.359,1.027-1.027.36-.36-1.028Zm.232-.081,1.027-.36.36,1.028-1.027.36Zm1.469.9.36,1.027-1.027.36-.36-1.028Zm.441,1.26.36,1.027-1.027.36-.36-1.027Zm.233-.081,1.027-.36.36,1.027-1.027.36Zm1.468.9.36,1.027-1.028.36-.36-1.027Zm.233-.082,1.027-.36.36,1.027-1.028.36Zm1.26-.441,1.027-.36.36,1.027-1.027.36Zm1.26-.441,1.027-.36.36,1.027-1.028.36Zm-.082-.233-.36-1.027,1.028-.36.36,1.027Zm.9-1.468,1.027-.36.36,1.027-1.027.36Zm-.081-.233-.36-1.027,1.027-.36.36,1.027Zm.9-1.468,1.027-.36.36,1.027-1.028.36Zm1.26-.442,1.027-.36.359,1.027-1.027.36Zm-.082-.232-.36-1.028,1.027-.36.36,1.027Zm-.442-1.26-.36-1.027,1.027-.36.359,1.027Zm-.441-1.26-.36-1.028,1.027-.36.36,1.027Zm-.442-1.26-.36-1.027,1.027-.36.359,1.028Zm-.441-1.26-.36-1.027,1.027-.36.36,1.027Zm-.442-1.26-.36-1.027,1.027-.36.359,1.028Zm-.441-1.26-.36-1.027,1.027-.36.36,1.027Zm-.232.081-1.028.36-.36-1.027,1.028-.36Zm-1.469-.9-.36-1.027,1.028-.36.36,1.027Zm-.441-1.26-.36-1.027,1.028-.36.36,1.027Zm-.232.082-1.027.36-.36-1.027,1.027-.36Zm-1.469-.9-.36-1.028,1.027-.36.359,1.027Zm-.233.081-1.028.36-.36-1.027,1.027-.36Zm-1.26.441-1.027.36-.36-1.028,1.027-.36Zm-1.26.442-1.028.36-.36-1.027,1.027-.36Zm-1.26.441-1.027.36-.36-1.028,1.028-.36Zm-1.26.442-1.027.36-.36-1.027,1.027-.36Zm.081.232.36,1.027-1.027.36-.36-1.028Zm-.9,1.469-1.028.36-.36-1.027,1.027-.36Zm.081.232.36,1.027-1.027.36-.36-1.027Zm.441,1.26.36,1.028-1.028.36-.36-1.027Zm-.9,1.469-1.028.36-.359-1.028,1.027-.36Zm.082.233.36,1.027-1.027.36-.36-1.028Zm.441,1.26.36,1.027-1.028.36-.359-1.027Zm.442,1.26.36,1.027-1.027.36-.36-1.027Zm.441,1.26.36,1.028-1.028.36-.359-1.027Zm.442,1.26.36,1.027-1.027.36-.36-1.027Zm.441,1.26.36,1.028-1.028.36-.359-1.027Zm.442,1.26.36,1.027-1.027.36-.36-1.028Zm.232-.081,1.027-.36.36,1.028-1.027.36Zm1.469.9.359,1.027-1.027.36-.36-1.027Zm.441,1.26.36,1.028-1.028.36-.36-1.027Zm.233-.082,1.027-.36.359,1.027-1.027.36Zm1.468.9.36,1.027-1.027.36-.36-1.027Zm.233-.081,1.028-.36.36,1.028-1.027.36Zm1.26-.442,1.028-.36.36,1.027-1.027.36Zm1.26-.441,1.027-.36.36,1.028-1.027.36Zm1.26-.442,1.028-.36.36,1.027-1.027.36Zm1.26-.441,1.027-.36.36,1.028-1.027.36Zm-.081-.233-.36-1.027,1.027-.36.36,1.027Zm.9-1.468,1.027-.36.36,1.027-1.028.36Zm-.082-.233-.36-1.027,1.028-.36.36,1.027Zm3.106-2.5-1.028.36-.359-1.027,1.027-.36Zm-.441-1.26-1.027.36-.36-1.027,1.028-.36Zm-.441-1.26-1.028.36-.359-1.027,1.027-.36Zm-.441-1.26-1.027.36-.36-1.027,1.027-.36Zm-.441-1.26-1.027.36-.36-1.028,1.027-.36Zm-.441-1.26-1.027.36-.36-1.027,1.027-.36Zm-.441-1.26-1.027.36-.36-1.028,1.027-.36Zm-.8-2.287.36,1.028-1.027.36-.36-1.027Zm-1.342.209-1.027.36-.36-1.027,1.027-.36Zm-.8-2.287.36,1.027-1.027.36-.36-1.027Zm-1.7-.819.36,1.028-1.028.36-.36-1.027Zm-1.7-.818.36,1.027-1.028.36-.36-1.027Zm-1.26.441.36,1.027-1.027.36-.36-1.027Zm-1.26.442.36,1.027-1.028.36-.359-1.027Zm-1.26.441.36,1.027-1.027.36-.36-1.028Zm-1.26.442.36,1.027-1.028.36-.359-1.027Zm-2.287.8,1.027-.36.359,1.027-1.027.36Zm-.819,1.7,1.028-.36.36,1.027-1.027.36Zm-.818,1.7,1.028-.36.359,1.027-1.027.36Zm.442,1.26,1.027-.36.36,1.027-1.027.36Zm-.819,1.7,1.027-.36.359,1.027-1.027.36Zm.441,1.26,1.027-.36.36,1.028-1.027.36Zm.442,1.26,1.027-.36.359,1.027-1.027.36Zm.441,1.26,1.027-.36.36,1.028-1.027.36Zm.442,1.26,1.027-.36.359,1.027-1.027.36Zm.441,1.26,1.027-.36.36,1.028-1.027.36Zm.442,1.26,1.027-.36.36,1.027-1.027.36Zm.8,2.288-.36-1.027,1.027-.36.36,1.028Zm1.341-.209,1.027-.36.36,1.027-1.028.36Zm.8,2.287-.36-1.028,1.028-.36.36,1.027Zm1.7.819-.36-1.027,1.027-.36.359,1.027Zm1.7.819-.36-1.027,1.027-.36.359,1.027Zm1.26-.442-.36-1.027,1.027-.36.36,1.027Zm1.26-.441-.36-1.027,1.027-.36.36,1.027Zm1.26-.442-.36-1.027,1.027-.36.36,1.027Zm1.26-.441-.36-1.027,1.027-.36.359,1.027Zm2.287-.8-1.027.36-.36-1.027,1.027-.36Zm.819-1.7-1.027.36-.36-1.028,1.028-.36Zm.819-1.7-1.027.36-.36-1.027,1.027-.36Z" transform="translate(2542.979 -711.69)" fill="#fde06f"/>
              <path id="Path_180042" data-name="Path 180042" d="M-2513.114,777.463l1.163-.407,1.163-.407-5.317-15.178-2.326.815Z" transform="translate(2534.827 -728.349)" fill="#00325e"/>
              <path id="Path_180043" data-name="Path 180043" d="M-2522.047,740.821a7.646,7.646,0,0,1-1.333,1.487l-.183.157a7.645,7.645,0,0,1-5.25,1.839l-.24-.009a7.648,7.648,0,0,1-1.969-.331l-2.68-.821,5.166,3.919a13.238,13.238,0,0,1,4.492,6.168l.455,1.3,2.326-.815-.455-1.3a13.228,13.228,0,0,1-.339-7.623l1.591-6.286Zm-1.444,3.609a14.674,14.674,0,0,0-.28,5.855,14.673,14.673,0,0,0-3.872-4.4l-.164-.125a9.087,9.087,0,0,0,2.281-.483,9.121,9.121,0,0,0,2.085-1.046Z" transform="translate(2539.984 -720.594)" fill="#bd3c23"/>
              <path id="Path_180044" data-name="Path 180044" d="M-2537.221,711.9c-5.074,1.778-7.355,8.452-5.094,14.908s8.208,10.248,13.283,8.47,7.355-8.452,5.093-14.908S-2532.147,710.12-2537.221,711.9Zm7.864,22.448c-4.554,1.595-9.948-1.934-12.027-7.866s-.064-12.056,4.489-13.651,9.949,1.934,12.027,7.866S-2524.8,732.75-2529.357,734.345Z" transform="translate(2543.188 -711.46)" fill="#fc502e"/>
            </g>
            <g id="Group_117684" data-name="Group 117684" transform="translate(16.708 35.938)">
              <path id="Path_180045" data-name="Path 180045" d="M-2568.255,776.914h0a4.6,4.6,0,0,1,6.166-1.777l12.979,6.93,13.228-11.091,1.273-4.725.822,1.492,3.039-1.858a1.093,1.093,0,0,1,1.511.376h0a1.094,1.094,0,0,1-.013,1.136l-.387.621.515,2.946a1.479,1.479,0,0,1-1.023,1.668l-3.436,1.054-11.011,13.666a4.929,4.929,0,0,1-5.654,1.49l-12.645-5.01c.244,7.134-3.683,1.249-5.525-2.661A4.615,4.615,0,0,1-2568.255,776.914Z" transform="translate(2568.861 -765.725)" fill="#ffa68d"/>
              <path id="Path_180046" data-name="Path 180046" d="M-2561.46,792.477l-3.158-1.16C-2563.139,794.875-2562.092,795.609-2561.46,792.477Z" transform="translate(2567.428 -774.368)" fill="#ff8882"/>
              <g id="Group_117683" data-name="Group 117683" transform="translate(2.686 16.826)">
                <path id="Path_180047" data-name="Path 180047" d="M-2557.131,794.277a.128.128,0,0,1-.044-.008l-7.55-2.9a.124.124,0,0,1-.071-.16.123.123,0,0,1,.16-.071l7.55,2.9a.124.124,0,0,1,.071.16A.123.123,0,0,1-2557.131,794.277Z" transform="translate(2564.804 -791.13)" fill="#00213e"/>
              </g>
            </g>
          </g>
          <g id="Group_117687" data-name="Group 117687" transform="translate(0 57.43)">
            <path id="Path_180048" data-name="Path 180048" d="M-2604.045,802.353a4.176,4.176,0,0,1-4.177,4.176,4.176,4.176,0,0,1-4.176-4.176,4.176,4.176,0,0,1,4.176-4.176A4.176,4.176,0,0,1-2604.045,802.353Z" transform="translate(2612.397 -798.177)" fill="#2e54fc"/>
            <g id="Group_117686" data-name="Group 117686" transform="translate(0.591 0.078)">
              <path id="Path_180049" data-name="Path 180049" d="M-2611.5,801.391a4.21,4.21,0,0,0,.7,2.262,2.63,2.63,0,0,0,2.075,1.152h0a1.942,1.942,0,0,0,1.887-1.41,3.17,3.17,0,0,0-.123-1.492c-.03-.121-.06-.242-.085-.362a5.43,5.43,0,0,1,.282-3.156c-.119-.034-.24-.066-.364-.089a5.8,5.8,0,0,0-.279,3.323c.026.123.056.248.087.373a2.855,2.855,0,0,1,.123,1.319,1.587,1.587,0,0,1-1.529,1.125h0a2.257,2.257,0,0,1-1.774-1,3.848,3.848,0,0,1-.632-2.064,9.83,9.83,0,0,1,.125-1.789,4.139,4.139,0,0,0-.445.583A8.258,8.258,0,0,0-2611.5,801.391Z" transform="translate(2611.504 -798.295)" fill="#fde06f"/>
            </g>
          </g>
        </g>
      </g>
    </g>
  </g>
</svg>
