<svg xmlns="http://www.w3.org/2000/svg" width="1328" height="583.999" viewBox="0 0 1328 583.999">
  <g id="bg-curve" transform="translate(-588.664 -1027.41)">
    <path id="Path_179748" data-name="Path 179748" d="M588.664,1027.41v540.678c390.952-79.845,814.178,22.806,1328,43.321V1070.731C1525.712,1150.576,1102.486,1047.925,588.664,1027.41Z" fill="#fcf6d8"/>
    <path id="Path_179749" data-name="Path 179749" d="M822.51,1206.053c36.631-51.141,65.6-103.54,86.616-156.515l-2.624-.238c-19.514,49.35-47.308,101.73-86.171,155.987-51.974,72.56-78.157,143.531-77.824,210.942.223,44.77,12.108,87.156,35.3,126.606.86-.061,1.723-.114,2.583-.174C722.314,1443.726,736.472,1326.17,822.51,1206.053Z" transform="translate(0 -0.038)" fill="#fff"/>
    <path id="Path_179750" data-name="Path 179750" d="M993.806,1109.341c9.687-12.865,19.7-26.165,29.226-39.118,2.244-3.051,4.4-6.092,6.5-9.129l-2.544-.252c-1.985,2.862-4.007,5.727-6.121,8.6-9.519,12.942-19.532,26.242-29.215,39.1-85.951,114.157-174.828,232.2-119.036,350.1q19.572,41.364,61.845,79.61l3.1.027q-42.971-38.58-62.634-80.174C819.464,1340.9,908.094,1223.181,993.806,1109.341Z" transform="translate(0 -0.058)" fill="#fff"/>
    <path id="Path_179751" data-name="Path 179751" d="M706.045,1351.224c6.083-58.2-5.261-109.828-34.68-157.821-19.146-31.234-46.1-61.278-82.7-91.422v2.632c35.5,29.5,61.734,58.915,80.461,89.464,58.722,95.8,46.7,206.48-39,358.885-1.549,2.755-3.017,5.5-4.447,8.252.944-.165,1.893-.313,2.838-.476,1.254-2.379,2.536-4.761,3.878-7.148C675.788,1476.416,699.879,1410.221,706.045,1351.224Z" transform="translate(0 -0.13)" fill="#fff"/>
    <path id="Path_179752" data-name="Path 179752" d="M1655.3,1387.521c-24.775-102.61,22.387-205.913,133.64-296.887q-1.977.216-3.955.425c-45.739,37.539-80.54,77.106-103.912,118.236-33.193,58.414-42.673,118.472-28.178,178.509,16.333,67.647,63.607,133.435,136.711,190.251q19.44,15.109,41.166,29.255,1.648.1,3.3.189C1738.206,1545.5,1675.069,1469.419,1655.3,1387.521Z" transform="translate(0 -0.11)" fill="#fff"/>
    <path id="Path_179753" data-name="Path 179753" d="M1816.033,1324.232c-5.871,66.007,27.238,136.972,100.631,214.836v-3.128c-71.648-76.677-103.98-146.589-98.2-211.6,5.435-61.105,43.81-113.067,98.2-160.078v-2.723C1860.992,1209.21,1821.571,1261.969,1816.033,1324.232Z" transform="translate(0 -0.234)" fill="#fff"/>
    <path id="Path_179754" data-name="Path 179754" d="M1474.579,1353.947c-8.065-61.74,23.526-119.474,93.893-171.6,38.791-28.734,72.169-56.3,100.516-83.032-1.013.039-2.028.072-3.041.109-28.155,26.372-61.12,53.508-99.247,81.749-70.869,52.494-102.681,110.676-94.549,172.925,7.4,56.619,51.713,139.971,203.342,242.251,1.332.11,2.66.223,3.993.332C1526.53,1494.068,1481.975,1410.559,1474.579,1353.947Z" transform="translate(0 -0.125)" fill="#fff"/>
  </g>
</svg>
