<svg xmlns="http://www.w3.org/2000/svg" width="190" height="100" viewBox="0 0 190 100">
  <g id="t1-ic1" transform="translate(-180 -885)">
    <g id="Group_117243" data-name="Group 117243">
      <path id="Path_178448" data-name="Path 178448" d="M791.013-1163H941.987c-.282-39.809-33.964-72-75.487-72S791.295-1202.809,791.013-1163Z" transform="translate(1141.5 -278) rotate(180)" fill="#ffca00" opacity="0.15"/>
      <g id="Group_117240" data-name="Group 117240" transform="translate(370 985) rotate(180)">
        <path id="Path_100600" data-name="Path 100600" d="M713.6-210.305l2.423-2.423,8.456,8.456,2.423,2.423-2.423,2.423-8.456,8.456-2.423-2.423,8.456-8.456Z" transform="translate(-702.564 212.728)" fill="#2d54fe"/>
        <path id="Path_100601" data-name="Path 100601" d="M776.91-201.849l-8.456-8.456,2.423-2.423,8.456,8.456,2.423,2.423-2.423,2.423-8.456,8.456-2.423-2.423Z" transform="translate(-768.453 212.728)" fill="#2d54fe"/>
      </g>
      <g id="Group_117241" data-name="Group 117241" transform="translate(195.667 949.479) rotate(90)">
        <path id="Path_100600-2" data-name="Path 100600" d="M0,13.922l1.744,1.744L7.833,9.578,9.578,7.833,7.833,6.089,1.744,0,0,1.744,6.089,7.833Z" transform="translate(7.944)" fill="#fe502d"/>
        <path id="Path_100601-2" data-name="Path 100601" d="M6.089,7.833,0,13.922l1.744,1.744L7.833,9.578,9.578,7.833,7.833,6.089,1.744,0,0,1.744Z" fill="#fe502d"/>
      </g>
      <rect id="Rectangle_36648" data-name="Rectangle 36648" width="39" height="10" transform="translate(370 905) rotate(180)" fill="#ffca00"/>
      <rect id="Rectangle_36650" data-name="Rectangle 36650" width="39" height="10" transform="translate(219 925.12) rotate(180)" fill="#2d54fe"/>
    </g>
    <g id="Group_117242" data-name="Group 117242" transform="translate(231 862.03)">
      <path id="Path_179526" data-name="Path 179526" d="M51.536,109.05h19.52s.11-5.977-4.5-5.977H54.99S51.536,103.621,51.536,109.05Z" transform="translate(-42.744 -55.656)" fill="#d3d3d3"/>
      <path id="Path_179527" data-name="Path 179527" d="M36.185,141.645H10.523A4.208,4.208,0,0,0,6.429,146.2s.292,5.246,4.46,5.246H36.621a5.332,5.332,0,0,0,4.023-5.246C40.645,141.864,36.185,141.645,36.185,141.645Z" transform="translate(-5.332 -87.648)" fill="#949494"/>
      <rect id="Rectangle_36651" data-name="Rectangle 36651" width="6.904" height="24.632" transform="translate(14.659 63.8)" fill="#ebebeb"/>
      <rect id="Rectangle_36652" data-name="Rectangle 36652" width="6.904" height="4.694" transform="translate(14.659 42.723)" fill="#ebebeb"/>
      <rect id="Rectangle_36653" data-name="Rectangle 36653" width="6.904" height="4.694" transform="translate(14.659 104.778)" fill="#ebebeb"/>
      <path id="Path_179528" data-name="Path 179528" d="M247.842,44.062V56.3s-2.245,4.413-5.824,4.484l-1.3.448v7.48l22.685,9.8,21.973-11.076v-6.65l-2.836-.577-3.049-1.971-.475-14.817-1.582-.768h-4.011l-1.645,1.864s2.5,14.476-8.292,14.476-8.378-14.923-8.378-14.923l-1.864-1.417h-4.068Z" transform="translate(-199.653 -5.536)" fill="#ebebeb"/>
      <path id="Path_179529" data-name="Path 179529" d="M241.334,187.93,263.4,199.006l22.083-10.527.768,29.485-2.522,3.194-4.24.954V208.4l-2.632-2.978-3.107.126-3.071,5.41-4.5,2.851-6.249-.678-4.827-7-5.227-.585-9.163,5.25v-22.32Z" transform="translate(-199.653 -126.037)" fill="#fe7256"/>
      <path id="Path_179530" data-name="Path 179530" d="M189.674,415.47l-56.734.005-.512,1.2s.34,6.038,8.87,6.038l43.843.458S189.674,422.922,189.674,415.47Z" transform="translate(-109.838 -314.761)" fill="#ebebeb"/>
      <path id="Path_179531" data-name="Path 179531" d="M163.354,290.6h-3.29l-23.615,13.53-3.582,3.412-.439,4.254h57.245V293.453l-2.632-2.978-2.658.126-2.094,3.071-3.729,4.146-5.7,1.045-4.167-2.705-2.851-3.712Z" transform="translate(-109.837 -211.089)" fill="#5e7cfe"/>
      <path id="Path_179532" data-name="Path 179532" d="M191.14,312.182c5.606-3.424,11.266-6.764,16.894-10.152a2.5,2.5,0,0,1-.9,2.521q-6.766,4.079-13.552,8.125A1.865,1.865,0,0,1,191.14,312.182Z" transform="translate(-158.533 -220.673)" fill="#e9e9ea"/>
      <path id="Path_179533" data-name="Path 179533" d="M440.33,50.959c.824.026,1.655-.056,2.477.039.268.089.285.4.287.636,0,3.526-.01,7.052.005,10.578a6.538,6.538,0,0,0,2.557,5.063,5.12,5.12,0,0,1-4.889-3.176,9.908,9.908,0,0,1-.4-3.93C440.344,57.1,440.407,54.028,440.33,50.959Z" transform="translate(-365.214 -12.425)" fill="#d3d3d3"/>
      <path id="Path_179534" data-name="Path 179534" d="M480.19,151.57a7.513,7.513,0,0,0,2.364.481c.237-.014.52.138.491.415.032,1.761,0,3.521.012,5.282-.906.43-1.807.872-2.711,1.3-.039-2.015-.01-4.031-.015-6.047A10.351,10.351,0,0,0,480.19,151.57Z" transform="translate(-398.274 -95.88)" fill="#d3d3d3"/>
      <path id="Path_179535" data-name="Path 179535" d="M95.8,206.13h3.976v2.55c-1.325.005-2.651.019-3.976-.012Z" transform="translate(-79.457 -141.132)" fill="#d3d3d3"/>
      <path id="Path_179536" data-name="Path 179536" d="M437.809,422.534q1.553,0,3.108,0c-.01.882.022,1.764-.012,2.646a2.321,2.321,0,0,1-1.837,2.16,15.358,15.358,0,0,1-2.078.061,4.342,4.342,0,0,0,.776-1.941C437.834,424.485,437.768,423.508,437.809,422.534Z" transform="translate(-362.443 -320.618)" fill="#d3d3d3"/>
      <g id="_252d4cff" data-name="#252d4cff" transform="translate(29.785 55.255)">
        <path id="Path_179537" data-name="Path 179537" d="M174.614,149.02a5.424,5.424,0,0,1,1.9.206,3.589,3.589,0,0,1,.708,6.428,4.407,4.407,0,0,1-2.625.551,5.318,5.318,0,0,0,1.5-3.772A5.482,5.482,0,0,0,174.614,149.02Z" transform="translate(-174.6 -149.02)" fill="#696969"/>
      </g>
      <g id="_ba365fff" data-name="#ba365fff" transform="translate(80.988 64.706)">
        <path id="Path_179538" data-name="Path 179538" d="M475.758,205.744c.942-.413,1.854-.887,2.786-1.324q0,13.27,0,26.539a3.078,3.078,0,0,1-1.81,2.8,4.327,4.327,0,0,1-1.982.271l.077-.249a7.759,7.759,0,0,0,.774-1.47,8.987,8.987,0,0,0,.217-2.721q-.005-7.758,0-15.519c-.034-2.765.072-5.536-.056-8.3Z" transform="translate(-474.75 -204.42)" fill="#fe502d"/>
      </g>
      <g id="_5692d8ff" data-name="#5692d8ff" transform="translate(74.779 81.065)">
        <path id="Path_179539" data-name="Path 179539" d="M438.35,300.619a2.7,2.7,0,0,1,1.909-.242,2.176,2.176,0,0,1,1.786,2.262c0,5.324.01,10.648-.007,15.972-1.037-.007-2.074,0-3.11,0-.015-5.322,0-10.647-.007-15.969A3.505,3.505,0,0,0,438.35,300.619Z" transform="translate(-438.35 -300.318)" fill="#2d54fe"/>
      </g>
      <path id="Path_179540" data-name="Path 179540" d="M225.936,326.466l10.912,14.8H217.906l-4.692-7.786,4-2.333,6.532,9.571h6.573L221.659,328.6Z" transform="translate(-176.842 -240.94)" fill="#ffca00"/>
      <path id="Path_179541" data-name="Path 179541" d="M121.071,104.359s2.705,1.535,2.705,5.922h4.715s.037-5.922-3.034-5.922Z" transform="translate(-100.417 -56.723)" fill="#949494"/>
      <path id="Path_179542" data-name="Path 179542" d="M14.1,351.73H28.549l1.63-3.436,8.115-5.3-1.974-1.207L10.8,342.08a4.455,4.455,0,0,0-3.948,4.679C6.857,351.072,10.659,351.73,14.1,351.73Z" transform="translate(-5.687 -253.647)" fill="#949494"/>
      <path id="Path_179543" data-name="Path 179543" d="M51.826,400.149l14.016-.076v5.922l-11.749.346S51.68,405.855,51.826,400.149Z" transform="translate(-42.98 -301.99)" fill="#d3d3d3"/>
      <g id="_000000ff" data-name="#000000ff" transform="translate(0 35.97)">
        <path id="Path_179544" data-name="Path 179544" d="M47.332,37.742a3.032,3.032,0,0,1,2.818-1.766c1.259,0,2.518-.022,3.777.014a3.009,3.009,0,0,1,2.8,2.881c.029,2.219-.01,4.439.015,6.658a7.033,7.033,0,0,0,6.192,6.815,6.882,6.882,0,0,0,5.242-1.573,7.222,7.222,0,0,0,2.583-5.4c.027-2.165-.015-4.33.017-6.494A3,3,0,0,1,73.513,36c.971-.055,1.945,0,2.919-.022a5.353,5.353,0,0,1,2.151.235,3.034,3.034,0,0,1,1.854,2.823q.005,4.785,0,9.57a6.911,6.911,0,0,0,.225,2.383,3.927,3.927,0,0,0,2.769,2.5,7.614,7.614,0,0,1,2.312.457,3.114,3.114,0,0,1,1.6,2.281v35.51a5.787,5.787,0,0,1-2.8,4.369,6.345,6.345,0,0,1-3.507.778c-.005,2.552.012,5.106-.007,7.66a4.9,4.9,0,0,1-3.072,4.444,8.252,8.252,0,0,1-3.236.353q-21.661,0-43.325,0a12.866,12.866,0,0,1-3.756-.334,9.173,9.173,0,0,1-4.758-3.231c-.014.9.027,1.807-.014,2.709a2.644,2.644,0,0,1-2.549,2.475c-1.319.014-2.639.012-3.956,0a2.674,2.674,0,0,1-2.424-1.757,16.178,16.178,0,0,1-.154-3.391,8.42,8.42,0,0,1-2.856-.258A5.051,5.051,0,0,1,7.76,102.41a8.96,8.96,0,0,1-.27-3.008,8.284,8.284,0,0,1-3.959-.592A6.306,6.306,0,0,1,0,93.826v-.812a6.19,6.19,0,0,1,5.809-5.9c2.658-.048,5.316-.005,7.973-.019q.005-11.049,0-22.1c-2.55-.007-5.1.007-7.648-.007a6.162,6.162,0,0,1-4.657-2.158A6.475,6.475,0,0,1,0,59.385V58.319a1.816,1.816,0,0,1,.575-1.31,1.645,1.645,0,0,1,1.158-.246,1.374,1.374,0,0,1,.87,1.378,3.977,3.977,0,0,0,.411,2.451,3.642,3.642,0,0,0,3.3,1.846q11.735,0,23.468,0a4.407,4.407,0,0,0,2.625-.551,3.589,3.589,0,0,0-.708-6.428,5.423,5.423,0,0,0-1.9-.206q-11.661-.013-23.323-.005c-.573-.005-1.134.126-1.7.167a1.438,1.438,0,0,1-1.15-.752,1.382,1.382,0,0,1,.619-1.636,8.615,8.615,0,0,1,3.25-.336,9.468,9.468,0,0,1,.229-2.886,5.047,5.047,0,0,1,3.553-3.371,10.4,10.4,0,0,1,2.511-.159c.012-.873-.024-1.749.01-2.624a2.656,2.656,0,0,1,1.755-2.373,5,5,0,0,1,1.679-.157c1.029.017,2.059-.015,3.088.01a2.645,2.645,0,0,1,2.537,2.341c.065.933.007,1.87.027,2.8a10.142,10.142,0,0,1,2.521.16,5.05,5.05,0,0,1,3.552,3.405,9.612,9.612,0,0,1,.218,2.849,8.066,8.066,0,0,1,4.1.664,6.143,6.143,0,0,1-2.393,11.621c-2.666.049-5.334.005-8,.022q0,11.047,0,22.1c2.552,0,5.1-.007,7.656,0a6.543,6.543,0,0,1,3.05.807q3.291-1.963,6.571-3.939-.005-13.675,0-27.349a2.969,2.969,0,0,1,2.822-3,4.018,4.018,0,0,0,3.733-2.334c.542-1.116.256-2.373.38-3.557a1.388,1.388,0,0,1,1.215-1.083,1.364,1.364,0,0,1,1.3,1.276,11.218,11.218,0,0,1-.307,3.743A6.529,6.529,0,0,1,45.265,55.8a9.485,9.485,0,0,1-2.252.4c-.281.026-.3.357-.3.575-.009,1.7,0,3.391,0,5.087Q53.23,66.914,63.748,71.959q9.168-4.381,18.325-8.789c.9-.432,1.8-.873,2.711-1.3-.012-1.761.02-3.521-.012-5.282.029-.276-.254-.428-.491-.415a7.514,7.514,0,0,1-2.364-.481,7.77,7.77,0,0,1-1.474-.839,6.538,6.538,0,0,1-2.557-5.063c-.015-3.526,0-7.052-.005-10.578,0-.235-.019-.548-.287-.636-.822-.1-1.653-.014-2.477-.039a8.228,8.228,0,0,0-1.549.056c-.247.107-.234.406-.244.629-.012,2.1.019,4.207-.012,6.308a9.775,9.775,0,0,1-3.594,7.279A9.424,9.424,0,0,1,62.774,54.9a9.567,9.567,0,0,1-8.593-9.374c-.026-2.153.01-4.306-.014-6.459a.445.445,0,0,0-.413-.513c-1.2-.039-2.412-.022-3.617-.01a.452.452,0,0,0-.51.49c-.046,1.308.027,2.622-.027,3.932a1.355,1.355,0,0,1-1.291,1.2A1.382,1.382,0,0,1,47.1,43.128c-.1-.957-.012-1.924-.043-2.886a5.881,5.881,0,0,1,.275-2.5M16.349,43.689c-.014.863-.005,1.726-.007,2.59h3.976c0-.863.005-1.726-.005-2.588-1.322-.009-2.642-.005-3.965,0M10.316,50.2a5.71,5.71,0,0,0-.264,2.492q6.894,0,13.791,0c.923.007,1.846,0,2.769,0,.007-1.049.15-2.271-.676-3.077-.759-.882-2-.8-3.05-.78-3.424.005-6.848,0-10.27,0a2.489,2.489,0,0,0-2.3,1.36m32.4,32.238q2.357-1.407,4.708-2.82a7.229,7.229,0,0,1,1.894-.926,12.728,12.728,0,0,1,3.057-.159,8.575,8.575,0,0,1,2.392.162,3.97,3.97,0,0,1,2.586,2.446,7.9,7.9,0,0,0,4.232,4.476,7.837,7.837,0,0,0,10.546-4.662,3.605,3.605,0,0,1,2.938-2.392,5.849,5.849,0,0,1,3.576.577,4.705,4.705,0,0,1,2.38,3.908c.046,3.671-.038,7.346.043,11.017l-.077.249a4.326,4.326,0,0,0,1.982-.271,3.078,3.078,0,0,0,1.81-2.8q.01-13.268,0-26.539c-.931.437-1.844.911-2.786,1.324l0,.027c-5.86,2.786-11.7,5.611-17.557,8.412a1.374,1.374,0,0,1-1.3.031q-10.218-4.885-20.427-9.792-.005,8.864,0,17.73M16.343,65v2.538q0,9.777,0,19.555c1.324.01,2.649,0,3.975.005q.013-9.775,0-19.548V65H16.343M52.059,81.079a5.5,5.5,0,0,1-1.138,4.168c.916,1.341,1.88,2.653,2.774,4.009a1.267,1.267,0,0,1-2.11,1.4c-.938-1.293-1.829-2.622-2.753-3.925q-1.082.647-2.163,1.3,3.946,5.665,7.9,11.326c1.025.009,2.051,0,3.076,0-1.058-1.53-2.139-3.045-3.187-4.58a1.359,1.359,0,0,1,.31-1.783,1.643,1.643,0,0,1,1.046-.162c.582.116.868.687,1.187,1.128q1.881,2.7,3.77,5.4,7.3-.005,14.589,0c1.035,0,2.073,0,3.11,0,.017-5.324,0-10.648.007-15.972a2.176,2.176,0,0,0-1.786-2.262,2.7,2.7,0,0,0-1.909.242c-.377.648-.565,1.383-.943,2.03a10.381,10.381,0,0,1-16.9,1.928,11.573,11.573,0,0,1-2.095-3.54c-.549-1.008-1.846-.64-2.777-.7M32.607,91.509A1.865,1.865,0,0,0,35.045,92q6.781-4.051,13.552-8.125a2.5,2.5,0,0,0,.9-2.521c-5.628,3.388-11.288,6.728-16.894,10.152m9.758-.9c2.04,2.915,4.067,5.843,6.116,8.755.989-.009,1.981,0,2.97-.005q-3.488-5.005-6.979-10.009c-.7.415-1.4.839-2.107,1.259m-39.3.814a3.588,3.588,0,0,0,3.064,5.42c3.7.014,7.4-.005,11.1.007a1.338,1.338,0,0,1,1.354,1.216l-.005.194a1.351,1.351,0,0,1-1.334,1.138c-2.4.017-4.792,0-7.189.009a5.736,5.736,0,0,0,.264,2.492,2.5,2.5,0,0,0,2.31,1.363q4.468-.005,8.937,0a9.018,9.018,0,0,1-.142-5.1,8.9,8.9,0,0,1,3.588-5.084c1.733-1.122,3.57-2.078,5.276-3.241a3.9,3.9,0,0,0-1.126-.183c-7.666.01-15.334-.005-23,.007a3.6,3.6,0,0,0-3.093,1.76M38.013,93.2c1.385,2.074,2.851,4.094,4.263,6.15,1.024.005,2.049,0,3.072,0-1.723-2.477-3.458-4.949-5.179-7.428-.723.418-1.431.861-2.156,1.276M26.682,95.039a6.466,6.466,0,0,0-2.921,4.314q7.7.005,15.4,0-1.7-2.421-3.383-4.845a4.423,4.423,0,0,1-5.36-1.714c-1.245.747-2.5,1.486-3.736,2.243m-2.84,6.878a6.437,6.437,0,0,0,3.976,4.464,7.87,7.87,0,0,0,3.052.4q21.837,0,43.676,0a15.353,15.353,0,0,0,2.078-.061,2.321,2.321,0,0,0,1.837-2.16c.034-.882,0-1.764.012-2.646q-1.553,0-3.108,0-25.763,0-51.524,0m-7.5,3.9a18.136,18.136,0,0,0,.075,2.578c1.3.031,2.6,0,3.895.009.014-.865.015-1.73,0-2.595C18.987,105.822,17.665,105.808,16.341,105.818Z" transform="translate(0 -35.97)"/>
        <path id="Path_179545" data-name="Path 179545" d="M353.807,168.4a2.441,2.441,0,0,1,1.725-.305,1.969,1.969,0,0,1,1.926,1.861c.029,1.694.005,3.388.01,5.082a1.449,1.449,0,0,1,1.341.836,1.276,1.276,0,0,1-1.044,1.742c-1.034.029-2.069.022-3.1,0a1.272,1.272,0,0,1-1.1-1.72,1.415,1.415,0,0,1,1.348-.856c0-1.457,0-2.914,0-4.371a1.728,1.728,0,0,1-1.124-.353A1.285,1.285,0,0,1,353.807,168.4Z" transform="translate(-293.085 -145.543)"/>
      </g>
    </g>
  </g>
</svg>
