<svg xmlns="http://www.w3.org/2000/svg" width="83.202" height="50" viewBox="0 0 83.202 50">
  <g id="t1-ico2" transform="translate(0 -102.168)">
    <path id="Path_179547" data-name="Path 179547" d="M21.815,103.645a2.518,2.518,0,0,1,2.23-1.469c1.089,0,2.178-.02,3.265.007a1.206,1.206,0,0,1,0,2.412c-1.09.05-2.182,0-3.273.018q-.01,1.445,0,2.889,17.57,0,35.14,0,.01-1.445,0-2.889-13.419-.007-26.838,0a1.283,1.283,0,0,1-1.342-.847,1.211,1.211,0,0,1,1.167-1.583c8.946-.018,17.892,0,26.839-.008a2.541,2.541,0,0,1,2.483,1.713,15.96,15.96,0,0,1,.137,3.13,2.705,2.705,0,0,1-1.012,2.42,4.2,4.2,0,0,1-2.78.509q0,8.785,0,17.57,10.333,0,20.664,0a1.441,1.441,0,0,1,1.1.353,1.6,1.6,0,0,1,.374,1.258c-.016,4.28.007,8.561-.011,12.841a1.214,1.214,0,1,1-2.425.007c-.018-4.006,0-8.013-.008-12.019q-9.843,0-19.689,0,0,9.884,0,19.77,9.845,0,19.689,0c.021-.97-.036-1.94.02-2.909a1.2,1.2,0,0,1,2.4-.015c.058.973,0,1.95.021,2.927a20.046,20.046,0,0,1,2.275.041,1.259,1.259,0,0,1,.973,1v.384a1.3,1.3,0,0,1-.874.959,10.53,10.53,0,0,1-1.724.057q-39.659-.01-79.318,0A1.281,1.281,0,0,1,0,151.166v-.4a1.257,1.257,0,0,1,.969-1,20.125,20.125,0,0,1,2.28-.041q.01-9.987,0-19.975a1.225,1.225,0,1,1,2.434.008q.007,9.982,0,19.964,9.843,0,19.689,0,0-14.372,0-28.74-9.845,0-19.691,0c-.015,1.255.026,2.509-.011,3.762a1.205,1.205,0,0,1-2.4.169c-.075-1.467,0-2.938-.034-4.407.02-.541-.076-1.193.364-1.6a1.436,1.436,0,0,1,1.108-.362q10.33,0,20.662,0,0-4.3,0-8.6a4.407,4.407,0,0,1-2.678-.434,2.677,2.677,0,0,1-1.115-2.491c.076-1.118-.187-2.3.229-3.37m6,6.3q0,19.888,0,39.779H55.386q0-19.89,0-39.779Q41.6,109.94,27.816,109.942Z" transform="translate(0 0)" fill="#fe502d"/>
    <path id="Path_179548" data-name="Path 179548" d="M231.275,197.482a1.218,1.218,0,0,1,.681-2.023c1.022-.052,2.049-.02,3.073-.018a1.2,1.2,0,0,1,1.2,1.22q.02,6.659,0,13.32a1.215,1.215,0,1,1-2.428,0c-.013-4.037,0-8.073,0-12.11C232.968,197.79,231.944,198.13,231.275,197.482Z" transform="translate(-193.419 -78.106)" fill="#fe502d"/>
    <path id="Path_179549" data-name="Path 179549" d="M72.84,269.705a3.5,3.5,0,1,1,6.889,1.168c-.566,1.859-1.95,3.3-3.011,4.882.827.015,1.656-.05,2.483.007a1.209,1.209,0,0,1,.975,1.568,1.262,1.262,0,0,1-1.3.848c-1.521,0-3.044.059-4.561-.029a1.274,1.274,0,0,1-1.151-1.471,3.655,3.655,0,0,1,.725-1.238c.925-1.2,1.794-2.431,2.672-3.66a4.394,4.394,0,0,0,.848-1.757,1.1,1.1,0,0,0-1.58-.926c-.679.3-.512,1.279-1.185,1.589A1.224,1.224,0,0,1,72.84,269.705Z" transform="translate(-61.003 -137.658)" fill="#fe502d"/>
    <path id="Path_179550" data-name="Path 179550" d="M394.9,300.424a3.533,3.533,0,0,1,6.752.184,3.664,3.664,0,0,1-.71,3.257,3.664,3.664,0,0,1,.777,2.956,3.522,3.522,0,0,1-6.98-.839,1.221,1.221,0,0,1,1.918-.787c.481.307.458.923.6,1.411a1.082,1.082,0,0,0,1.573.494,1.1,1.1,0,0,0,.228-1.661c-.436-.509-1.266-.223-1.692-.744a1.219,1.219,0,0,1,.354-1.922c.509-.184,1.2-.112,1.477-.674a1.1,1.1,0,0,0-1.173-1.617c-.569.083-.788.653-.957,1.125a1.2,1.2,0,0,1-1.978.322A1.41,1.41,0,0,1,394.9,300.424Z" transform="translate(-330.579 -164.024)" fill="#fe502d"/>
  </g>
</svg>
