<svg xmlns="http://www.w3.org/2000/svg" width="73.328" height="50" viewBox="0 0 73.328 50">
  <g id="t1-ico1" transform="translate(0 -81.417)">
    <path id="Path_179551" data-name="Path 179551" d="M5.724,82.349a1.016,1.016,0,0,1,1.136-.925q11.538.006,23.075.006a7.927,7.927,0,0,1,6.728,4.027A7.927,7.927,0,0,1,43.4,81.429q11.53-.015,23.061-.006a1.02,1.02,0,0,1,1.143.928c.034.978,0,1.959.013,2.939.96.023,1.922-.044,2.879.037a3.343,3.343,0,0,1,2.833,2.983v40.075a3.343,3.343,0,0,1-3.3,3.029q-33.365,0-66.73,0A3.345,3.345,0,0,1,0,128.4V88.252a3.361,3.361,0,0,1,2.7-2.9c1-.122,2.006-.026,3.009-.057.011-.981-.021-1.962.013-2.942M7.712,83.44q.015,16.679.006,33.358,11.034.006,22.068,0a7.9,7.9,0,0,1,5.876,2.64q-.006-15.038,0-30.076A5.888,5.888,0,0,0,29.64,83.43c-7.31.006-14.62-.013-21.928.01M39.351,85.2a5.876,5.876,0,0,0-1.683,4.176q0,15.034,0,30.069a7.891,7.891,0,0,1,5.862-2.64q11.04-.009,22.081,0c-.007-11.125.023-22.25-.014-33.376-7.353.017-14.7,0-22.056.01A5.872,5.872,0,0,0,39.351,85.2M2.006,88.656Q2,108.068,2,127.48a2.305,2.305,0,0,0,.223,1.361,1.348,1.348,0,0,0,1.207.571q33.234,0,66.468,0a1.316,1.316,0,0,0,1.418-1.353q.009-19.341,0-38.68a9.316,9.316,0,0,0-.023-1,1.284,1.284,0,0,0-1.26-1.077c-.808-.013-1.616,0-2.423,0q0,18.372,0,36.744a2.052,2.052,0,0,1-.2,1.233,1.1,1.1,0,0,1-.962.412q-29.8,0-59.593,0a1.039,1.039,0,0,1-1.15-1.081q0-18.653,0-37.308c-.851.007-1.7-.023-2.555.013a1.291,1.291,0,0,0-1.15,1.345m5.7,30.169c.023,1.616,0,3.231.011,4.848q13.929,0,27.859,0A5.91,5.91,0,0,0,29.51,118.8c-7.268.016-14.537-.026-21.8.021m30.043,4.847q13.929.006,27.86,0c-.011-1.626.027-3.252-.019-4.877-7.35.02-14.7,0-22.051.01A5.921,5.921,0,0,0,37.749,123.671Z" transform="translate(0 0)" fill="#fe502d"/>
    <path id="Path_179552" data-name="Path 179552" d="M120.571,115.1a1,1,0,0,1,.294-1.534,1.036,1.036,0,0,1,1.266.271q1.328,1.328,2.655,2.654c.947-.919,1.858-1.876,2.809-2.79a1,1,0,0,1,1.524.3,1.029,1.029,0,0,1-.249,1.247c-.885.884-1.763,1.776-2.658,2.65.909.952,1.869,1.858,2.78,2.809a1,1,0,0,1-1.487,1.335c-.908-.9-1.807-1.807-2.711-2.71-.94.919-1.853,1.865-2.8,2.777a1,1,0,0,1-1.406-1.406c.915-.941,1.853-1.86,2.778-2.791C122.441,116.965,121.489,116.047,120.571,115.1Z" transform="translate(-103.095 -27.444)" fill="#fe502d"/>
    <path id="Path_179553" data-name="Path 179553" d="M335.65,113.934a1.026,1.026,0,0,1,.891-.474,1,1,0,0,1,.962,1.081,1.423,1.423,0,0,1-.357.742q-2.492,3.315-4.974,6.637a1.022,1.022,0,0,1-1.149.4,1.528,1.528,0,0,1-.677-.566c-.884-1.076-1.79-2.131-2.672-3.208a1,1,0,1,1,1.538-1.273c.7.824,1.385,1.653,2.075,2.482C332.746,117.821,334.194,115.874,335.65,113.934Z" transform="translate(-280.543 -27.452)" fill="#fe502d"/>
    <path id="Path_179554" data-name="Path 179554" d="M72.628,193.148a5.279,5.279,0,0,1,.838-.033c6.733.007,13.467-.006,20.2.007a1,1,0,0,1,.982,1.133,1.033,1.033,0,0,1-1.123.866H73.034a1.054,1.054,0,0,1-1.093-.64A1,1,0,0,1,72.628,193.148Z" transform="translate(-61.576 -95.7)" fill="#fe502d"/>
    <path id="Path_179555" data-name="Path 179555" d="M281.742,193.139a7.614,7.614,0,0,1,1.114-.033c6.642,0,13.284-.006,19.925,0a1,1,0,1,1-.013,2q-10.314.017-20.629,0a1.042,1.042,0,0,1-1.076-.639A1,1,0,0,1,281.742,193.139Z" transform="translate(-240.747 -95.69)" fill="#fe502d"/>
    <path id="Path_179556" data-name="Path 179556" d="M72.649,226.138a8.6,8.6,0,0,1,1.1-.029c6.641,0,13.283-.006,19.923.006a1,1,0,0,1,.977,1.134,1.035,1.035,0,0,1-1.133.865q-10.31,0-20.619,0a1,1,0,0,1-.252-1.972Z" transform="translate(-61.581 -123.967)" fill="#fe502d"/>
    <path id="Path_179557" data-name="Path 179557" d="M281.75,226.145a5.938,5.938,0,0,1,.958-.033c6.688,0,13.377-.006,20.066,0a1,1,0,1,1-.014,2q-10.31.017-20.618,0a1.041,1.041,0,0,1-1.078-.642A1,1,0,0,1,281.75,226.145Z" transform="translate(-240.75 -123.969)" fill="#fe502d"/>
    <path id="Path_179558" data-name="Path 179558" d="M72.66,259.122c6.955-.066,13.917-.009,20.874-.029a1.028,1.028,0,0,1,1.126.836,1,1,0,0,1-.985,1.163c-6.823.016-13.647,0-20.47.009a1.181,1.181,0,0,1-1.147-.454A1,1,0,0,1,72.66,259.122Z" transform="translate(-61.592 -152.224)" fill="#fe502d"/>
    <path id="Path_179559" data-name="Path 179559" d="M281.741,259.144a5.815,5.815,0,0,1,.974-.034q10.024.006,20.049,0a1,1,0,0,1,.9,1.467,1.168,1.168,0,0,1-1.2.537q-10.166-.009-20.333,0a1.039,1.039,0,0,1-1.07-.647A1,1,0,0,1,281.741,259.144Z" transform="translate(-240.749 -152.241)" fill="#fe502d"/>
    <path id="Path_179560" data-name="Path 179560" d="M72.638,292.125a8.551,8.551,0,0,1,1.117-.03q9.884,0,19.77,0a1.024,1.024,0,0,1,1.117.838,1,1,0,0,1-.987,1.161c-6.877.014-13.755,0-20.632.007a1.049,1.049,0,0,1-1.084-.645A1,1,0,0,1,72.638,292.125Z" transform="translate(-61.576 -180.5)" fill="#fe502d"/>
    <path id="Path_179561" data-name="Path 179561" d="M281.748,292.131c2.8-.076,5.608-.011,8.411-.033,4.2,0,8.408,0,12.612,0a1,1,0,1,1-.013,2q-10.31.015-20.621,0a1.043,1.043,0,0,1-1.076-.643A1,1,0,0,1,281.748,292.131Z" transform="translate(-240.749 -180.503)" fill="#fe502d"/>
  </g>
</svg>
