<svg xmlns="http://www.w3.org/2000/svg" width="190" height="100" viewBox="0 0 190 100">
  <g id="t2-ic1" transform="translate(-180 -1077)">
    <g id="Group_117250" data-name="Group 117250" transform="translate(0 192)">
      <path id="Path_178448" data-name="Path 178448" d="M791.013-1163H941.987c-.282-39.809-33.964-72-75.487-72S791.295-1202.809,791.013-1163Z" transform="translate(1141.5 -278) rotate(180)" fill="#ffca00" opacity="0.15"/>
      <g id="Group_117240" data-name="Group 117240" transform="translate(370 985) rotate(180)">
        <path id="Path_100600" data-name="Path 100600" d="M713.6-210.305l2.423-2.423,8.456,8.456,2.423,2.423-2.423,2.423-8.456,8.456-2.423-2.423,8.456-8.456Z" transform="translate(-702.564 212.728)" fill="#2d54fe"/>
        <path id="Path_100601" data-name="Path 100601" d="M776.91-201.849l-8.456-8.456,2.423-2.423,8.456,8.456,2.423,2.423-2.423,2.423-8.456,8.456-2.423-2.423Z" transform="translate(-768.453 212.728)" fill="#2d54fe"/>
      </g>
      <g id="Group_117241" data-name="Group 117241" transform="translate(195.667 949.479) rotate(90)">
        <path id="Path_100600-2" data-name="Path 100600" d="M0,13.922l1.744,1.744L7.833,9.578,9.578,7.833,7.833,6.089,1.744,0,0,1.744,6.089,7.833Z" transform="translate(7.944)" fill="#fe502d"/>
        <path id="Path_100601-2" data-name="Path 100601" d="M6.089,7.833,0,13.922l1.744,1.744L7.833,9.578,9.578,7.833,7.833,6.089,1.744,0,0,1.744Z" fill="#fe502d"/>
      </g>
      <rect id="Rectangle_36648" data-name="Rectangle 36648" width="39" height="10" transform="translate(370 905) rotate(180)" fill="#ffca00"/>
      <rect id="Rectangle_36650" data-name="Rectangle 36650" width="39" height="10" transform="translate(219 925.12) rotate(180)" fill="#2d54fe"/>
    </g>
    <g id="Group_117254" data-name="Group 117254" transform="translate(-451.419 748.532)">
      <path id="Path_179570" data-name="Path 179570" d="M832.109,368.631l.584-9-1.249-6.428,2.067-3.74-6.545-.935-7.831-2.454-8.554.524-6.574,4.32-4.819,5.559-.974,5.844.974,6.311,2.532-1.4,3.623-7.053,2.766.059,7.864.756,10.408-1.359,1.4,3.623,1.7,3.312,2.854,2.649Z" transform="translate(-89.834 -6.222)" fill="#7b6c79"/>
      <path id="Path_179571" data-name="Path 179571" d="M695.629,485.685l72.688.019-1.169-14.023-4.675-9.35-20.1-8.493-1.355-6.467,4-7.091,3.506-5.844.078-3.584-2.338-1.4-3.351-8.8-5.61.389-15.116-.389L720.241,422l-1.325,4.641-3.039,2.883-.623,2.493.468,2.182,1.792,2.416,2.1,2.182,1.636,5.3,1.738,2.649-.491,5.688-.779,1.325-6.935,1.792-4.363,2.8-8.649,4.13-2.649,4.909s-2.338,8.181-2.493,8.961S695.629,485.685,695.629,485.685Z" transform="translate(-5.899 -67.236)" fill="#fed1a3"/>
      <path id="Path_179572" data-name="Path 179572" d="M713.7,628.735s-8.1,2.416-9.662,4.987-3.273,17.84-3.273,17.84l-5.132-.019,2.561-17.977,5.377-6.545,9.117-3.662,1.013,1.854Z" transform="translate(-5.899 -233.095)" fill="#ffbc85"/>
      <path id="Path_179573" data-name="Path 179573" d="M838.481,581.943s3.857.117,4.909-1.4,1.987-8.3,1.987-8.3l-5.61-2.454-1.286,5.414-1.052,1.716Z" transform="translate(-121.919 -189.263)" fill="#ffbc85"/>
      <path id="Path_179574" data-name="Path 179574" d="M821.648,449.372s-6.195-3.131-6.662-7.338-1.519-14.113,0-20.03l-4.48-1.359L808.558,422l-1.325,4.641L804.625,430l-1.054,2.026.662,3.273,2.454,2.882,1.519,3.039,2.417,4.489S815.454,451.567,821.648,449.372Z" transform="translate(-94.216 -67.236)" fill="#ffbc85"/>
      <path id="Path_179575" data-name="Path 179575" d="M814.986,360.99s-2.688-8.021,2.1-9.54,8.425,2.915,19-.7l1.807-1.282-7.48-1.848-6.9-1.542h-7.6l-6.194,3.389-3.74,4.069-2.416,5.048v10.052l2.182-.468,3.156-6.311,3.584-1.618Z" transform="translate(-94.216 -6.222)" fill="#665e68"/>
      <path id="Path_179576" data-name="Path 179576" d="M754.441,635.087l-.584-4.75s6.637-2.388,7.48-12.272-1.939-11.181-1.939-11.181l8.952-3.661s2.377,17.18,11.707,17.063,10.85-16.83,10.85-16.83l7.6,2.922s-2.688,13.09,0,17.181a29.968,29.968,0,0,0,6.545,6.9l-.468,4.633Z" transform="translate(-53.541 -216.619)" fill="#fe7256"/>
      <path id="Path_179577" data-name="Path 179577" d="M783.015,609.814l-5.676,1.472s3.082,12.412-7.532,17.134a26.07,26.07,0,0,0,2.641-21.536l8.952-3.661Z" transform="translate(-66.591 -216.619)" fill="#fe502d"/>
      <g id="_000000ff" data-name="#000000ff" transform="translate(688.419 338.468)">
        <path id="Path_179578" data-name="Path 179578" d="M717.674,340.216a23.558,23.558,0,0,1,19.048.547,11.491,11.491,0,0,0,5.56.8,3.36,3.36,0,0,1,1.585.053,1.94,1.94,0,0,1,1.213,2.113,9.133,9.133,0,0,1-2.134,4.52,22.943,22.943,0,0,1,.929,12.956c-.185.58.236,1.1.345,1.655a7.824,7.824,0,0,1-3.111,8.421,17.914,17.914,0,0,1-4.933,8.874c.266,1.72.484,3.447.633,5.182a5.675,5.675,0,0,1,2.767.405c1.458.484,2.814,1.231,4.283,1.685a5.35,5.35,0,0,1,2.062.715,3.186,3.186,0,0,1,.776,1.145,58.388,58.388,0,0,1,9.792,4.787,12.454,12.454,0,0,1,2.951,2.514,14.243,14.243,0,0,1,2.029,4.636,83.26,83.26,0,0,1,2.291,15.259,1.677,1.677,0,0,1-.645,1.754,1.451,1.451,0,0,1-2.213-1.029,113.735,113.735,0,0,0-1.369-11.429,31.7,31.7,0,0,0-1.513-5.787,5.736,5.736,0,0,0-2.109-2.774,46.425,46.425,0,0,0-9.62-4.976,36,36,0,0,0-.42,10.509,12.509,12.509,0,0,0,2.664,6.72,7.668,7.668,0,0,0,3.04,2.073,2.179,2.179,0,0,1,1.418,2.016c-.015.858-.154,1.707-.209,2.562a2.312,2.312,0,0,1-.578,1.725,1.453,1.453,0,0,1-2.387-1.016c.015-.925.165-1.842.227-2.765a10.744,10.744,0,0,1-5.36-5.107,18.172,18.172,0,0,1-1.731-5.974,40.5,40.5,0,0,1,.715-12.587c-1.951-.476-3.7-1.525-5.618-2.091a41.766,41.766,0,0,1-2.184,8.469,14.175,14.175,0,0,1-5.158,6.86,8.291,8.291,0,0,1-6.72,1.091,10.749,10.749,0,0,1-5.912-4.6,23.508,23.508,0,0,1-2.973-7.192,43.314,43.314,0,0,1-.954-4.636c-1.964.493-3.807,1.373-5.783,1.818a42.723,42.723,0,0,1,.856,12.563,16.255,16.255,0,0,1-2.834,8.078,10.451,10.451,0,0,1-4.234,3.311c.055.976.254,1.949.213,2.931a1.459,1.459,0,0,1-2.273.929c-.765-.534-.607-1.573-.725-2.376-.04-1.031-.435-2.174.164-3.113.524-.9,1.647-1.011,2.447-1.553a9.44,9.44,0,0,0,3.953-6.205,33.052,33.052,0,0,0-.129-12.438,50.324,50.324,0,0,0-8.267,4.022,6.99,6.99,0,0,0-2.662,2.614,25.716,25.716,0,0,0-1.853,5.972,107.152,107.152,0,0,0-1.7,12.192,1.452,1.452,0,1,1-2.894-.2c.176-2.376.465-4.743.787-7.105a58.469,58.469,0,0,1,2.136-9.863,10.779,10.779,0,0,1,2.289-4.222,20.893,20.893,0,0,1,5.005-3.365,72.545,72.545,0,0,1,6.654-2.967,2.3,2.3,0,0,1,1.876-1.944c2.509-.425,4.773-1.756,7.307-2.082a3.929,3.929,0,0,1,1.06.093q.226-2.637.642-5.254a19.342,19.342,0,0,1-4.663-8.681,8.049,8.049,0,0,1-3.634-7.691c.049-.658.4-1.311.165-1.969a20.043,20.043,0,0,1,.964-12.2,17.989,17.989,0,0,1,8.654-9.367m1.187,2.651a14.979,14.979,0,0,0-7.027,7.494,17.6,17.6,0,0,0-1.158,9.852,11.86,11.86,0,0,0,2.376-6.311,2.36,2.36,0,0,1,.609-1.689,2.111,2.111,0,0,1,2.244-.4,37.775,37.775,0,0,0,20.2-.058,2.425,2.425,0,0,1,1.667-.033,1.969,1.969,0,0,1,1.213,1.825,13.2,13.2,0,0,0,2.127,6.8,20.348,20.348,0,0,0-.951-11.21,2.585,2.585,0,0,1-.264-1.571c.109-.645.665-1.044,1.067-1.505a5.275,5.275,0,0,0,.907-1.534,15.379,15.379,0,0,1-6.962-1.395,18.664,18.664,0,0,0-6.3-1.622,19,19,0,0,0-9.747,1.36m-2.96,11.96a16.1,16.1,0,0,1-2.714,6.918,7.259,7.259,0,0,1-2.405,2.376,5.088,5.088,0,0,0,2.385,4.909,1.827,1.827,0,0,1,1.078,1.238,15.014,15.014,0,0,0,4.212,8.216,10.639,10.639,0,0,0,6.714,2.849,12.475,12.475,0,0,0,9.1-3.418,13.4,13.4,0,0,0,3.978-7.251,2.15,2.15,0,0,1,.553-1.3,9.837,9.837,0,0,0,1.478-1.253,5.5,5.5,0,0,0,1.329-3.594,4.412,4.412,0,0,1-2.534-1.945,17.058,17.058,0,0,1-2.936-7.807,41.033,41.033,0,0,1-20.239.058m2.914,27.582c-.247,1.558-.367,3.131-.5,4.7a1.645,1.645,0,0,1-1.222,1.28,38.2,38.2,0,0,0,2.06,7.591,10.645,10.645,0,0,0,4.465,5.494,5.272,5.272,0,0,0,5.083-.056,10.9,10.9,0,0,0,4.405-5.567,38.046,38.046,0,0,0,2.009-7.514,1.64,1.64,0,0,1-1.082-1.349c-.091-1.625-.311-3.24-.524-4.852C729.1,384.668,723.236,385.2,718.816,382.408Z" transform="translate(-688.419 -338.468)"/>
      </g>
    </g>
  </g>
</svg>
